# Created by FreeCAD <http://www.freecadweb.org>
v 0.000000 11.661506 5.533453
v 0.000000 9.309095 8.941508
v 0.000000 10.622864 7.332434
v 0.000000 4.087469 12.243464
v 0.000000 5.998527 11.429239
v 0.000000 7.754227 10.319002
v 0.000000 12.398121 3.591160
v 0.000000 12.897275 -0.519742
v 0.000000 12.813631 1.555856
v 0.000000 -2.070548 12.740591
v 0.000000 2.070548 12.740591
v 0.000000 0.000000 12.907743
v 0.000000 11.178433 -6.453872
v 0.000000 12.646886 -2.581880
v 0.000000 12.068950 -4.577149
v 0.000000 -7.754227 10.319002
v 0.000000 -5.998527 11.429239
v 0.000000 -4.087469 12.243464
v 0.000000 9.998402 -8.163443
v 0.000000 -11.661506 5.533453
v 0.000000 -9.309095 8.941508
v 0.000000 -10.622864 7.332434
v 0.000000 5.059404 -11.874858
v 0.000000 8.559417 -9.661584
v 0.000000 6.898747 -10.909496
v 0.000000 1.038642 -12.865888
v 0.000000 3.089025 -12.532667
v 0.000000 -3.089025 -12.532667
v 0.000000 -1.038642 -12.865888
v 0.000000 -12.068950 -4.577149
v 0.000000 -12.398121 3.591160
v 0.000000 -12.813631 1.555856
v 0.000000 -12.897275 -0.519742
v 0.000000 -12.646886 -2.581880
v 0.000000 -6.898747 -10.909496
v 0.000000 -5.059404 -11.874858
v 0.000000 -8.559417 -9.661584
v 0.000000 -11.178433 -6.453872
v 0.000000 -9.998402 -8.163443
v 0.500000 -1.334980 13.341117
v 0.500000 0.000000 13.407743
v 1.000000 0.000000 13.907743
v 1.000000 -2.123007 13.744750
v 0.500000 -2.656693 13.141901
v 1.000000 -4.196252 13.259592
v 0.500000 -3.952002 12.812075
v 0.500000 -5.208034 12.354917
v 1.000000 -6.171142 12.463640
v 0.500000 -6.412306 11.774969
v 1.000000 -8.001384 11.375551
v 0.500000 -7.552851 11.077997
v 0.500000 -8.618331 10.270927
v 1.000000 -9.644081 10.020829
v 0.500000 -9.598159 9.361780
v 1.000000 -11.060729 8.431228
v 0.500000 -10.482595 8.359591
v 0.500000 -11.262852 7.274321
v 1.000000 -12.218122 6.644004
v 0.500000 -11.931172 6.116755
v 0.500000 -12.480916 4.898398
v 1.000000 -13.089134 4.701052
v 0.500000 -12.906618 3.631359
v 1.000000 -13.653347 2.647911
v 0.500000 -13.204049 2.328230
v 0.500000 -13.370253 1.001962
v 1.000000 -13.897537 0.532705
v 0.500000 -13.403576 -0.334264
v 1.000000 -13.815981 -1.594988
v 0.500000 -13.303688 -1.667168
v 0.500000 -13.071583 -2.983504
v 1.000000 -13.410590 -3.685295
v 0.500000 -12.709566 -4.270187
v 1.000000 -12.690866 -5.689221
v 0.500000 -12.221236 -5.514432
v 0.500000 -11.611446 -6.703872
v 1.000000 -11.673678 -7.559798
v 0.500000 -10.886256 -7.826685
v 1.000000 -10.382871 -9.253179
v 0.500000 -10.052874 -8.871714
v 0.500000 -9.119581 -9.828571
v 1.000000 -8.848697 -10.729673
v 0.500000 -8.095654 -10.687748
v 1.000000 -7.107117 -11.954673
v 0.500000 -6.991269 -11.440705
v 0.500000 -5.817402 -12.079959
v 1.000000 -5.198952 -12.899466
v 0.500000 -4.585718 -12.599157
v 1.000000 -3.168928 -13.541905
v 0.500000 -3.308460 -12.993139
v 0.500000 -1.998320 -13.257990
v 1.000000 -1.064627 -13.866935
v 0.500000 -0.668321 -13.391076
v 0.500000 0.668321 -13.391076
v 1.000000 1.064627 -13.866935
v 0.500000 1.998320 -13.257990
v 1.000000 3.168928 -13.541905
v 0.500000 3.308460 -12.993139
v 0.500000 4.585718 -12.599157
v 1.000000 5.198952 -12.899466
v 0.500000 5.817402 -12.079959
v 1.000000 7.107117 -11.954673
v 0.500000 6.991269 -11.440705
v 0.500000 8.095654 -10.687748
v 1.000000 8.848697 -10.729673
v 0.500000 9.119581 -9.828571
v 1.000000 10.382871 -9.253179
v 0.500000 10.052874 -8.871714
v 0.500000 10.886256 -7.826685
v 1.000000 11.673678 -7.559798
v 0.500000 11.611446 -6.703872
v 1.000000 12.690866 -5.689221
v 0.500000 12.221236 -5.514432
v 0.500000 12.709566 -4.270187
v 1.000000 13.410590 -3.685295
v 0.500000 13.071583 -2.983504
v 1.000000 13.815981 -1.594988
v 0.500000 13.303688 -1.667168
v 0.500000 13.403576 -0.334264
v 1.000000 13.897537 0.532705
v 0.500000 13.370253 1.001962
v 1.000000 13.653347 2.647911
v 0.500000 13.204049 2.328230
v 0.500000 12.906618 3.631359
v 1.000000 13.089134 4.701052
v 0.500000 12.480916 4.898398
v 1.000000 12.218122 6.644004
v 0.500000 11.931172 6.116755
v 0.500000 11.262852 7.274321
v 1.000000 11.060729 8.431228
v 0.500000 10.482595 8.359591
v 0.500000 9.598159 9.361780
v 1.000000 9.644081 10.020829
v 0.500000 8.618331 10.270927
v 1.000000 8.001384 11.375551
v 0.500000 7.552851 11.077997
v 0.500000 6.412306 11.774969
v 1.000000 6.171142 12.463640
v 0.500000 5.208034 12.354917
v 1.000000 4.196252 13.259592
v 0.500000 3.952002 12.812075
v 0.500000 2.656693 13.141901
v 1.000000 2.123007 13.744750
v 0.500000 1.334980 13.341117
v 40.000000 -2.123007 13.744750
v 40.000000 0.000000 13.907743
v 40.000000 -4.196252 13.259592
v 40.000000 -6.171142 12.463640
v 40.000000 -8.001384 11.375551
v 40.000000 -9.644081 10.020829
v 40.000000 -11.060729 8.431228
v 40.000000 -12.218122 6.644004
v 40.000000 -13.089134 4.701052
v 40.000000 -13.653347 2.647911
v 40.000000 -13.897537 0.532705
v 40.000000 -13.815981 -1.594988
v 40.000000 -13.410590 -3.685295
v 40.000000 -12.690866 -5.689221
v 40.000000 -11.673678 -7.559798
v 40.000000 -10.382871 -9.253179
v 40.000000 -8.848697 -10.729673
v 40.000000 -7.107117 -11.954673
v 40.000000 -5.198952 -12.899466
v 40.000000 -3.168928 -13.541905
v 40.000000 -1.064627 -13.866935
v 40.000000 1.064627 -13.866935
v 40.000000 3.168928 -13.541905
v 40.000000 5.198952 -12.899466
v 40.000000 7.107117 -11.954673
v 40.000000 8.848697 -10.729673
v 40.000000 10.382871 -9.253179
v 40.000000 11.673678 -7.559798
v 40.000000 12.690866 -5.689221
v 40.000000 13.410590 -3.685295
v 40.000000 13.815981 -1.594988
v 40.000000 13.897537 0.532705
v 40.000000 13.653347 2.647911
v 40.000000 13.089134 4.701052
v 40.000000 12.218122 6.644004
v 40.000000 11.060729 8.431228
v 40.000000 9.644081 10.020829
v 40.000000 8.001384 11.375551
v 40.000000 6.171142 12.463640
v 40.000000 4.196252 13.259592
v 40.000000 2.123007 13.744750
v 42.857143 0.000000 13.054865
v 60.000000 -1.597826 7.775110
v 60.000000 0.000000 7.937593
v 57.142857 0.000000 8.790472
v 60.000000 1.597826 7.775110
v 42.857143 -2.806410 12.749649
v 42.857143 -5.481596 11.848274
v 45.714287 -2.623066 11.916710
v 45.714287 0.000000 12.201986
v 42.857143 -7.900467 10.392887
v 45.714287 -5.123481 11.074223
v 48.571430 -2.439723 11.083772
v 48.571430 0.000000 11.349108
v 42.857143 -9.949923 8.451540
v 45.714287 -7.384327 9.713917
v 48.571430 -4.765367 10.300171
v 51.428570 -2.256379 10.250833
v 51.428570 0.000000 10.496229
v 42.857143 -11.534130 6.115009
v 45.714287 -9.299891 7.899398
v 48.571430 -6.868187 9.034945
v 51.428570 -4.407252 9.526119
v 42.857143 -12.579015 3.492546
v 54.285713 -2.073035 9.417894
v 54.285713 0.000000 9.643351
v 45.714287 -10.780602 5.715513
v 48.571430 -8.649858 7.347256
v 51.428570 -6.352047 8.355975
v 42.857143 -13.035718 0.706776
v 54.285713 -4.049138 8.752068
v 45.714287 -11.757223 3.264377
v 57.142857 -1.889692 8.584955
v 60.000000 -3.130236 7.294313
v 48.571430 -10.027073 5.316018
v 51.428570 -7.999827 6.795115
v 42.857143 -12.882887 -2.112042
v 54.285713 -5.835907 7.677004
v 45.714287 -12.184091 0.660602
v 57.142857 -3.691023 7.978016
v 60.000000 -4.534494 6.514886
v 48.571430 -10.935432 3.036208
v 51.428570 -9.273544 4.916522
v 42.857143 -12.127666 -4.832103
v 54.285713 -7.349795 6.242973
v 45.714287 -12.041244 -1.974062
v 57.142857 -5.319767 6.998034
v 60.000000 -5.753110 5.468739
v 48.571430 -11.332463 0.614428
v 51.428570 -10.113641 2.808039
v 42.857143 -10.805367 -7.326221
v 54.285713 -8.520016 4.517026
v 45.714287 -11.335361 -4.516420
v 57.142857 -6.699764 5.690831
v 60.000000 -6.736193 4.198701
v 48.571430 -11.199600 -1.836081
v 51.428570 -10.480835 0.568254
v 42.857143 -8.977823 -9.477773
v 54.285713 -9.291850 2.579870
v 45.714287 -10.099449 -6.847597
v 57.142857 -7.766488 4.117531
v 60.000000 -7.443495 2.756768
v 48.571430 -10.543056 -4.200737
v 51.428570 -10.357957 -1.698101
v 42.857143 -6.730486 -11.186154
v 54.285713 -9.629208 0.522080
v 45.714287 -8.391299 -8.858586
v 57.142857 -8.470058 2.351700
v 60.000000 -7.846059 1.201972
v 48.571430 -9.393531 -6.368972
v 51.428570 -9.750752 -3.885055
v 42.857143 -4.168438 -12.371484
v 54.285713 -9.516314 -1.560120
v 45.714287 -6.290781 -10.455359
v 57.142857 -8.777579 0.475907
v 60.000000 -7.927405 -0.402032
v 48.571430 -7.804775 -8.239401
v 51.428570 -8.687613 -5.890348
v 42.857143 -1.411479 -12.978336
v 54.285713 -8.958447 -3.569372
v 45.714287 -3.896113 -11.563251
v 57.142857 -8.674670 -1.422140
v 60.000000 -7.684202 -1.989578
v 48.571430 -5.851076 -9.724564
v 51.428570 -7.218251 -7.620215
v 42.857143 1.411479 -12.978336
v 54.285713 -7.981695 -5.411723
v 45.714287 -1.319267 -12.130457
v 57.142857 -8.166143 -3.253689
v 60.000000 -7.126407 -3.495670
v 48.571430 -3.623787 -10.755017
v 51.428570 -5.411371 -8.993769
v 42.857143 4.168438 -12.371484
v 54.285713 -6.631727 -7.001029
v 45.714287 1.319267 -12.130457
v 57.142857 -7.275776 -4.933099
v 60.000000 -6.276856 -4.858648
v 48.571430 -1.227054 -11.282578
v 51.428570 -3.351462 -9.946784
v 42.857143 6.730486 -11.186154
v 54.285713 -4.971666 -8.262974
v 45.714287 3.896113 -11.563251
v 57.142857 -6.045203 -6.381843
v 60.000000 -5.170330 -6.022713
v 48.571430 1.227054 -11.282578
v 51.428570 -1.134842 -10.434699
v 42.857143 8.977823 -9.477773
v 54.285713 -3.079136 -9.138552
v 45.714287 6.290781 -10.455359
v 57.142857 -4.531961 -7.532179
v 60.000000 -3.852129 -6.940207
v 48.571430 3.623787 -10.755017
v 51.428570 1.134842 -10.434699
v 42.857143 10.805367 -7.326221
v 54.285713 -1.042630 -9.586821
v 45.714287 8.391299 -8.858586
v 57.142857 -2.806811 -8.330318
v 60.000000 -2.376223 -7.573569
v 48.571430 5.851076 -9.724564
v 51.428570 3.351462 -9.946784
v 42.857143 12.127666 -4.832103
v 54.285713 1.042630 -9.586821
v 45.714287 10.099449 -6.847597
v 57.142857 -0.950417 -8.738941
v 60.000000 -0.803033 -7.896868
v 48.571430 7.804775 -8.239401
v 51.428570 5.411371 -8.993769
v 42.857143 12.882887 -2.112042
v 54.285713 3.079136 -9.138552
v 45.714287 11.335361 -4.516420
v 57.142857 0.950417 -8.738941
v 60.000000 0.803033 -7.896868
v 60.000000 2.376223 -7.573569
v 48.571430 9.393531 -6.368972
v 51.428570 7.218251 -7.620215
v 42.857143 13.035718 0.706776
v 54.285713 4.971666 -8.262974
v 45.714287 12.041244 -1.974062
v 57.142857 2.806811 -8.330318
v 60.000000 3.852129 -6.940207
v 48.571430 10.543056 -4.200737
v 51.428570 8.687613 -5.890348
v 42.857143 12.579015 3.492546
v 54.285713 6.631727 -7.001029
v 45.714287 12.184091 0.660602
v 57.142857 4.531961 -7.532179
v 60.000000 5.170330 -6.022713
v 48.571430 11.199600 -1.836081
v 51.428570 9.750752 -3.885055
v 42.857143 11.534130 6.115009
v 54.285713 7.981695 -5.411723
v 45.714287 11.757223 3.264377
v 57.142857 6.045203 -6.381843
v 60.000000 6.276856 -4.858648
v 48.571430 11.332463 0.614428
v 51.428570 10.357957 -1.698101
v 42.857143 9.949923 8.451540
v 54.285713 8.958447 -3.569372
v 45.714287 10.780602 5.715513
v 57.142857 7.275776 -4.933099
v 60.000000 7.126407 -3.495670
v 48.571430 10.935432 3.036208
v 51.428570 10.480835 0.568254
v 42.857143 7.900467 10.392887
v 54.285713 9.516314 -1.560120
v 45.714287 9.299891 7.899398
v 57.142857 8.166143 -3.253689
v 60.000000 7.684202 -1.989578
v 48.571430 10.027073 5.316018
v 51.428570 10.113641 2.808039
v 42.857143 5.481596 11.848274
v 54.285713 9.629208 0.522080
v 45.714287 7.384327 9.713917
v 57.142857 8.674670 -1.422140
v 60.000000 7.927405 -0.402032
v 48.571430 8.649858 7.347256
v 51.428570 9.273544 4.916522
v 42.857143 2.806410 12.749649
v 54.285713 9.291850 2.579870
v 45.714287 5.123481 11.074223
v 57.142857 8.777579 0.475907
v 60.000000 7.846059 1.201972
v 48.571430 6.868187 9.034945
v 51.428570 7.999827 6.795115
v 54.285713 8.520016 4.517026
v 45.714287 2.623066 11.916710
v 57.142857 8.470058 2.351700
v 60.000000 7.443495 2.756768
v 48.571430 4.765367 10.300171
v 51.428570 6.352047 8.355975
v 54.285713 7.349795 6.242973
v 57.142857 7.766488 4.117531
v 60.000000 6.736193 4.198701
v 48.571430 2.439723 11.083772
v 51.428570 4.407252 9.526119
v 54.285713 5.835907 7.677004
v 57.142857 6.699764 5.690831
v 60.000000 5.753110 5.468739
v 51.428570 2.256379 10.250833
v 54.285713 4.049138 8.752068
v 57.142857 5.319767 6.998034
v 60.000000 4.534494 6.514886
v 54.285713 2.073035 9.417894
v 57.142857 3.691023 7.978016
v 60.000000 3.130236 7.294313
v 57.142857 1.889692 8.584955
v 70.000000 -1.597826 7.775110
v 70.000000 0.000000 7.937593
v 70.000000 -3.130236 7.294313
v 70.000000 -4.534494 6.514886
v 70.000000 -5.753110 5.468739
v 70.000000 -6.736193 4.198701
v 70.000000 -7.443495 2.756768
v 70.000000 -7.846059 1.201972
v 70.000000 -7.927405 -0.402032
v 70.000000 -7.684202 -1.989578
v 70.000000 -7.126407 -3.495670
v 70.000000 -6.276856 -4.858648
v 70.000000 -5.170330 -6.022713
v 70.000000 -3.852129 -6.940207
v 70.000000 -2.376223 -7.573569
v 70.000000 -0.803033 -7.896868
v 70.000000 0.803033 -7.896868
v 70.000000 2.376223 -7.573569
v 70.000000 3.852129 -6.940207
v 70.000000 5.170330 -6.022713
v 70.000000 6.276856 -4.858648
v 70.000000 7.126407 -3.495670
v 70.000000 7.684202 -1.989578
v 70.000000 7.927405 -0.402032
v 70.000000 7.846059 1.201972
v 70.000000 7.443495 2.756768
v 70.000000 6.736193 4.198701
v 70.000000 5.753110 5.468739
v 70.000000 4.534494 6.514886
v 70.000000 3.130236 7.294313
v 70.000000 1.597826 7.775110
vn -1.000000 0.000000 0.000000
vn -1.000000 0.000000 0.000000
vn -1.000000 0.000000 0.000000
vn -1.000000 0.000000 0.000000
vn -1.000000 0.000000 0.000000
vn -1.000000 0.000000 0.000000
vn -1.000000 0.000000 0.000000
vn -1.000000 0.000000 0.000000
vn -1.000000 0.000000 0.000000
vn -1.000000 0.000000 0.000000
vn -1.000000 0.000000 0.000000
vn -1.000000 0.000000 0.000000
vn -1.000000 0.000000 0.000000
vn -1.000000 0.000000 0.000000
vn -1.000000 0.000000 0.000000
vn -1.000000 0.000000 0.000000
vn -1.000000 0.000000 0.000000
vn -1.000000 0.000000 0.000000
vn -1.000000 0.000000 0.000000
vn -1.000000 0.000000 0.000000
vn -1.000000 0.000000 0.000000
vn -1.000000 0.000000 0.000000
vn -1.000000 0.000000 0.000000
vn -1.000000 0.000000 0.000000
vn -1.000000 0.000000 0.000000
vn -1.000000 0.000000 0.000000
vn -1.000000 0.000000 0.000000
vn -1.000000 0.000000 0.000000
vn -1.000000 0.000000 0.000000
vn -1.000000 0.000000 0.000000
vn -1.000000 0.000000 0.000000
vn -1.000000 0.000000 0.000000
vn -1.000000 0.000000 0.000000
vn -1.000000 0.000000 0.000000
vn -1.000000 0.000000 0.000000
vn -1.000000 0.000000 0.000000
vn -1.000000 0.000000 0.000000
vn -0.706667 -0.035269 0.706667
vn -0.706667 -0.035269 0.706667
vn -0.733378 -0.054703 0.677617
vn -0.679257 -0.056180 0.731747
vn -0.718540 -0.103657 0.687718
vn -0.727343 -0.164236 0.666332
vn -0.681318 -0.166786 0.712733
vn -0.695657 -0.107068 0.710351
vn -0.719229 -0.171441 0.673289
vn -0.702789 -0.175543 0.689400
vn -0.734860 -0.265839 0.623947
vn -0.698457 -0.244767 0.672493
vn -0.709965 -0.240863 0.661766
vn -0.677747 -0.274866 0.681988
vn -0.700674 -0.309568 0.642825
vn -0.683919 -0.372818 0.627106
vn -0.718041 -0.301984 0.627075
vn -0.729878 -0.365349 0.577753
vn -0.698306 -0.373243 0.610785
vn -0.714599 -0.364762 0.596907
vn -0.731885 -0.451871 0.510056
vn -0.676799 -0.468381 0.567945
vn -0.695092 -0.434087 0.573075
vn -0.712707 -0.423545 0.559158
vn -0.710403 -0.478702 0.515918
vn -0.717040 -0.474102 0.510961
vn -0.687041 -0.542459 0.483438
vn -0.734367 -0.525765 0.429274
vn -0.703417 -0.532928 0.470311
vn -0.693187 -0.540410 0.476915
vn -0.696781 -0.582390 0.418710
vn -0.714912 -0.567718 0.408162
vn -0.676419 -0.618207 0.400346
vn -0.715530 -0.604990 0.349291
vn -0.724262 -0.597146 0.344762
vn -0.724262 -0.597146 0.344762
vn -0.734367 -0.634645 0.240689
vn -0.691333 -0.658596 0.297170
vn -0.696781 -0.653809 0.295010
vn -0.688195 -0.662045 0.296790
vn -0.703417 -0.673766 0.226373
vn -0.716594 -0.661170 0.222141
vn -0.676610 -0.710020 0.195117
vn -0.731885 -0.667657 0.136303
vn -0.710402 -0.686150 0.156609
vn -0.713502 -0.683087 0.155910
vn -0.729878 -0.683023 0.027525
vn -0.684902 -0.723828 0.083562
vn -0.695093 -0.713341 0.089393
vn -0.696673 -0.711821 0.089203
vn -0.717763 -0.696071 0.017359
vn -0.677368 -0.735104 -0.028177
vn -0.714599 -0.699317 0.017440
vn -0.734860 -0.673274 -0.081750
vn -0.700674 -0.711487 -0.053319
vn -0.710940 -0.701286 -0.052554
vn -0.698457 -0.704780 -0.124272
vn -0.701364 -0.701974 -0.123777
vn -0.682126 -0.717859 -0.139220
vn -0.727343 -0.659179 -0.190933
vn -0.719229 -0.668806 -0.188173
vn -0.678692 -0.691195 -0.248248
vn -0.718430 -0.669601 -0.188397
vn -0.733378 -0.614185 -0.291435
vn -0.695656 -0.668716 -0.262452
vn -0.707829 -0.657554 -0.258071
vn -0.679883 -0.644231 -0.350322
vn -0.706667 -0.629625 -0.322790
vn -0.705440 -0.630714 -0.323348
vn -0.706667 -0.594357 -0.383877
vn -0.733378 -0.559482 -0.386183
vn -0.718595 -0.584178 -0.377302
vn -0.680571 -0.582697 -0.444171
vn -0.695656 -0.561648 -0.447899
vn -0.704148 -0.555142 -0.442711
vn -0.727343 -0.494942 -0.475399
vn -0.708929 -0.504887 -0.492452
vn -0.719229 -0.497365 -0.485116
vn -0.678189 -0.509595 -0.529502
vn -0.734860 -0.407435 -0.542197
vn -0.718263 -0.447233 -0.532992
vn -0.698457 -0.460012 -0.548221
vn -0.682993 -0.420227 -0.597436
vn -0.700674 -0.401919 -0.589506
vn -0.699870 -0.402363 -0.590158
vn -0.729878 -0.317674 -0.605277
vn -0.714599 -0.334555 -0.614346
vn -0.711854 -0.335891 -0.616799
vn -0.677053 -0.326549 -0.659519
vn -0.731885 -0.215786 -0.646359
vn -0.695093 -0.279254 -0.662468
vn -0.685943 -0.219549 -0.693744
vn -0.717430 -0.270596 -0.641929
vn -0.710403 -0.207447 -0.672528
vn -0.694966 -0.211941 -0.687097
vn -0.734367 -0.108880 -0.669963
vn -0.714236 -0.138684 -0.686028
vn -0.703417 -0.140838 -0.696684
vn -0.676482 -0.112420 -0.727828
vn -0.716090 -0.069499 -0.694539
vn -0.696780 -0.071418 -0.713721
vn -0.724262 0.000000 -0.689525
vn -0.689403 -0.000000 -0.724378
vn -0.689403 0.000000 -0.724378
vn -0.724262 -0.000000 -0.689525
vn -0.734367 0.108880 -0.669963
vn -0.716091 0.069499 -0.694539
vn -0.676482 0.112420 -0.727828
vn -0.696780 0.071418 -0.713720
vn -0.714236 0.138684 -0.686028
vn -0.703417 0.140838 -0.696684
vn -0.731885 0.215786 -0.646359
vn -0.694966 0.211941 -0.687097
vn -0.685943 0.219549 -0.693744
vn -0.710403 0.207447 -0.672528
vn -0.729878 0.317674 -0.605277
vn -0.677053 0.326549 -0.659519
vn -0.717430 0.270596 -0.641929
vn -0.695093 0.279254 -0.662468
vn -0.711854 0.335891 -0.616799
vn -0.714599 0.334555 -0.614346
vn -0.734860 0.407435 -0.542197
vn -0.682993 0.420227 -0.597436
vn -0.699870 0.402363 -0.590158
vn -0.700674 0.401918 -0.589506
vn -0.678189 0.509595 -0.529502
vn -0.718263 0.447233 -0.532992
vn -0.698457 0.460012 -0.548221
vn -0.727343 0.494942 -0.475399
vn -0.708929 0.504887 -0.492452
vn -0.719229 0.497365 -0.485116
vn -0.733378 0.559482 -0.386183
vn -0.680571 0.582697 -0.444171
vn -0.704148 0.555142 -0.442711
vn -0.695656 0.561648 -0.447899
vn -0.679883 0.644231 -0.350322
vn -0.706667 0.594357 -0.383877
vn -0.718595 0.584178 -0.377302
vn -0.733378 0.614185 -0.291435
vn -0.705440 0.630714 -0.323348
vn -0.706667 0.629626 -0.322790
vn -0.727343 0.659179 -0.190933
vn -0.678692 0.691195 -0.248248
vn -0.695656 0.668716 -0.262452
vn -0.707829 0.657554 -0.258071
vn -0.718430 0.669601 -0.188397
vn -0.682126 0.717859 -0.139220
vn -0.719229 0.668806 -0.188173
vn -0.734860 0.673274 -0.081750
vn -0.698457 0.704780 -0.124272
vn -0.701364 0.701974 -0.123777
vn -0.700674 0.711487 -0.053319
vn -0.677368 0.735104 -0.028177
vn -0.710940 0.701286 -0.052554
vn -0.717763 0.696071 0.017359
vn -0.714599 0.699317 0.017440
vn -0.729878 0.683023 0.027525
vn -0.684902 0.723828 0.083562
vn -0.695093 0.713341 0.089393
vn -0.696673 0.711821 0.089203
vn -0.731885 0.667657 0.136303
vn -0.713502 0.683087 0.155910
vn -0.710402 0.686150 0.156609
vn -0.676610 0.710020 0.195117
vn -0.703417 0.673766 0.226373
vn -0.716594 0.661170 0.222141
vn -0.734367 0.634645 0.240689
vn -0.688195 0.662045 0.296790
vn -0.696781 0.653809 0.295010
vn -0.691333 0.658596 0.297170
vn -0.724262 0.597146 0.344762
vn -0.715530 0.604990 0.349291
vn -0.724262 0.597146 0.344762
vn -0.676419 0.618207 0.400346
vn -0.696781 0.582390 0.418710
vn -0.714912 0.567718 0.408162
vn -0.734367 0.525765 0.429274
vn -0.693187 0.540410 0.476915
vn -0.703417 0.532928 0.470311
vn -0.687041 0.542459 0.483438
vn -0.710403 0.478702 0.515918
vn -0.717040 0.474102 0.510961
vn -0.731885 0.451871 0.510056
vn -0.676799 0.468381 0.567945
vn -0.695092 0.434087 0.573075
vn -0.712707 0.423545 0.559158
vn -0.729878 0.365349 0.577753
vn -0.698306 0.373243 0.610785
vn -0.714599 0.364762 0.596907
vn -0.683919 0.372818 0.627106
vn -0.700674 0.309568 0.642825
vn -0.718041 0.301984 0.627075
vn -0.734860 0.265839 0.623947
vn -0.677747 0.274866 0.681988
vn -0.698457 0.244767 0.672493
vn -0.709965 0.240863 0.661766
vn -0.727343 0.164236 0.666332
vn -0.702789 0.175543 0.689400
vn -0.719229 0.171441 0.673289
vn -0.681318 0.166786 0.712733
vn -0.733378 0.054703 0.677617
vn -0.695657 0.107068 0.710351
vn -0.706667 0.035269 0.706667
vn -0.706667 0.035269 0.706667
vn -0.718540 0.103657 0.687718
vn -0.679257 0.056180 0.731747
vn 0.000000 -0.076550 0.997066
vn 0.000000 -0.076550 0.997066
vn 0.000000 -0.227853 0.973695
vn 0.000000 -0.373817 0.927502
vn 0.000000 -0.227853 0.973695
vn 0.000000 -0.373817 0.927502
vn 0.000000 -0.511019 0.859569
vn 0.000000 -0.636242 0.771489
vn 0.000000 -0.511019 0.859569
vn 0.000000 -0.636242 0.771489
vn 0.000000 -0.746553 0.665326
vn 0.000000 -0.746553 0.665326
vn 0.000000 -0.839366 0.543567
vn 0.000000 -0.839366 0.543567
vn 0.000000 -0.912503 0.409069
vn 0.000000 -0.912503 0.409069
vn 0.000000 -0.964254 0.264981
vn 0.000000 -0.964254 0.264981
vn 0.000000 -0.993402 0.114683
vn 0.000000 -0.993402 0.114683
vn -0.000000 -0.999266 -0.038303
vn 0.000000 -0.999266 -0.038303
vn -0.000000 -0.981708 -0.190391
vn -0.000000 -0.941140 -0.338017
vn 0.000000 -0.981708 -0.190391
vn -0.000000 -0.941140 -0.338017
vn -0.000000 -0.878512 -0.477720
vn 0.000000 -0.878512 -0.477720
vn -0.000000 -0.795293 -0.606225
vn -0.000000 -0.693433 -0.720522
vn 0.000000 -0.795293 -0.606225
vn -0.000000 -0.693433 -0.720522
vn -0.000000 -0.575318 -0.817930
vn -0.000000 -0.443720 -0.896166
vn 0.000000 -0.575318 -0.817930
vn -0.000000 -0.443720 -0.896166
vn -0.000000 -0.301721 -0.953396
vn 0.000000 -0.301721 -0.953396
vn -0.000000 -0.152649 -0.988280
vn 0.000000 0.000000 -1.000000
vn 0.000000 -0.152649 -0.988280
vn -0.000000 -0.000000 -1.000000
vn 0.000000 0.152649 -0.988280
vn 0.000000 0.301721 -0.953396
vn 0.000000 0.152649 -0.988280
vn 0.000000 0.301721 -0.953396
vn 0.000000 0.443720 -0.896166
vn 0.000000 0.575318 -0.817930
vn 0.000000 0.443720 -0.896166
vn 0.000000 0.575318 -0.817930
vn 0.000000 0.693433 -0.720522
vn 0.000000 0.795293 -0.606225
vn 0.000000 0.693433 -0.720522
vn 0.000000 0.795293 -0.606225
vn 0.000000 0.878512 -0.477720
vn 0.000000 0.941140 -0.338017
vn 0.000000 0.878512 -0.477720
vn 0.000000 0.981708 -0.190391
vn 0.000000 0.941140 -0.338017
vn 0.000000 0.999266 -0.038303
vn 0.000000 0.981708 -0.190391
vn 0.000000 0.999266 -0.038303
vn 0.000000 0.993402 0.114683
vn 0.000000 0.993402 0.114683
vn 0.000000 0.964254 0.264981
vn 0.000000 0.964254 0.264981
vn 0.000000 0.912503 0.409069
vn 0.000000 0.912503 0.409069
vn 0.000000 0.839366 0.543567
vn 0.000000 0.839366 0.543567
vn 0.000000 0.746553 0.665326
vn 0.000000 0.746553 0.665326
vn 0.000000 0.636242 0.771489
vn 0.000000 0.636242 0.771489
vn 0.000000 0.511019 0.859569
vn 0.000000 0.511019 0.859569
vn 0.000000 0.373817 0.927502
vn 0.000000 0.373817 0.927502
vn 0.000000 0.227853 0.973695
vn 0.000000 0.227853 0.973695
vn 0.000000 0.076550 0.997066
vn 0.000000 0.076550 0.997066
vn 0.285265 -0.073369 0.955637
vn 0.284687 -0.096982 0.953702
vn 0.285265 0.073369 0.955637
vn 0.284687 0.096982 0.953702
vn 0.273751 -0.219150 0.936501
vn 0.305106 -0.102964 0.946736
vn 0.278508 -0.359027 0.890805
vn 0.294758 -0.488315 0.821381
vn 0.308621 -0.303715 0.901393
vn 0.284495 -0.103651 0.953058
vn 0.284495 -0.103652 0.953058
vn 0.276585 -0.611422 0.741393
vn 0.298632 -0.492028 0.817757
vn 0.284495 -0.306107 0.908494
vn 0.284495 -0.306107 0.908494
vn 0.284495 -0.306107 0.908494
vn 0.284495 -0.103652 0.953058
vn 0.284495 -0.103651 0.953058
vn 0.274545 -0.717866 0.639760
vn 0.309206 -0.653999 0.690418
vn 0.284495 -0.659282 0.695996
vn 0.284495 -0.494250 0.821450
vn 0.284495 -0.494250 0.821450
vn 0.284495 -0.306107 0.908494
vn 0.284495 -0.103652 0.953058
vn 0.284495 -0.103651 0.953058
vn 0.288738 -0.803616 0.520416
vn 0.282230 -0.875407 0.392439
vn 0.302874 -0.788813 0.534828
vn 0.284495 -0.659282 0.695995
vn 0.284495 -0.659282 0.695995
vn 0.284495 -0.494250 0.821450
vn 0.284495 -0.494250 0.821450
vn 0.284495 -0.306107 0.908494
vn 0.284495 -0.306107 0.908494
vn 0.273410 -0.927513 0.254885
vn 0.306865 -0.884156 0.352280
vn 0.284495 -0.103651 0.953058
vn 0.284495 -0.103652 0.953058
vn 0.284495 -0.890589 0.354843
vn 0.284495 -0.793487 0.537997
vn 0.284495 -0.793487 0.537997
vn 0.284495 -0.659282 0.695995
vn 0.284495 -0.494250 0.821450
vn 0.284495 -0.494250 0.821450
vn 0.307568 -0.938991 0.153940
vn 0.280878 -0.953411 0.110067
vn 0.290637 -0.956131 -0.036649
vn 0.284495 -0.306107 0.908494
vn 0.284495 -0.306107 0.908494
vn 0.284495 -0.890589 0.354843
vn 0.281028 -0.103762 0.954074
vn 0.284495 -0.306107 0.908494
vn 0.288251 -0.286657 0.913641
vn 0.284495 -0.103651 0.953058
vn 0.284495 -0.103652 0.953058
vn 0.284495 -0.793487 0.537997
vn 0.284495 -0.793487 0.537998
vn 0.284495 -0.659282 0.695996
vn 0.284495 -0.659282 0.695995
vn 0.284495 -0.793487 0.537998
vn 0.275112 -0.943826 -0.183044
vn 0.301580 -0.952043 -0.051618
vn 0.284495 -0.494250 0.821450
vn 0.284495 -0.494250 0.821450
vn 0.284495 -0.946049 0.155097
vn 0.284495 -0.946048 0.155097
vn 0.284495 -0.957272 -0.051902
vn 0.284495 -0.306107 0.908494
vn 0.278029 -0.306712 0.910290
vn 0.291278 -0.464258 0.836434
vn 0.284495 -0.946048 0.155097
vn 0.284495 -0.890589 0.354843
vn 0.284495 -0.890589 0.354843
vn 0.284495 -0.793487 0.537997
vn 0.275792 -0.904640 -0.324908
vn 0.309323 -0.916295 -0.254408
vn 0.284495 -0.659282 0.695996
vn 0.284495 -0.659282 0.695996
vn 0.284495 -0.957272 -0.051902
vn 0.275502 -0.495602 0.823697
vn 0.293773 -0.622631 0.725278
vn 0.284495 -0.494250 0.821450
vn 0.284495 -0.494250 0.821450
vn 0.284495 -0.946048 0.155097
vn 0.284495 -0.957272 -0.051902
vn 0.284495 -0.946048 0.155097
vn 0.284495 -0.890589 0.354843
vn 0.284495 -0.890589 0.354843
vn 0.292644 -0.840052 -0.456806
vn 0.279637 -0.763565 -0.582040
vn 0.300166 -0.842771 -0.446809
vn 0.284495 -0.793487 0.537997
vn 0.284495 -0.793487 0.537997
vn 0.284495 -0.923734 -0.256473
vn 0.284495 -0.923734 -0.256474
vn 0.295739 -0.755403 0.584726
vn 0.273452 -0.661488 0.698325
vn 0.284495 -0.659282 0.695996
vn 0.284495 -0.659282 0.695996
vn 0.284495 -0.793487 0.537997
vn 0.284495 -0.957272 -0.051902
vn 0.284495 -0.946048 0.155097
vn 0.273524 -0.666989 -0.693045
vn 0.308153 -0.725073 -0.615882
vn 0.284495 -0.890589 0.354843
vn 0.284495 -0.890589 0.354843
vn 0.284495 -0.847003 -0.449053
vn 0.284495 -0.847003 -0.449053
vn 0.284495 -0.730668 -0.620635
vn 0.297179 -0.857243 0.420498
vn 0.271882 -0.796510 0.540048
vn 0.284495 -0.793487 0.537998
vn 0.284495 -0.923734 -0.256474
vn 0.284495 -0.923734 -0.256473
vn 0.284495 -0.847003 -0.449053
vn 0.284495 -0.957271 -0.051902
vn 0.284495 -0.957271 -0.051902
vn 0.283692 -0.551682 -0.784325
vn 0.286947 -0.425060 -0.858479
vn 0.306045 -0.576136 -0.757894
vn 0.284495 -0.946048 0.155097
vn 0.284495 -0.946048 0.155097
vn 0.284495 -0.730668 -0.620635
vn 0.284495 -0.580167 -0.763197
vn 0.284495 -0.890589 0.354843
vn 0.270793 -0.894268 0.356309
vn 0.284495 -0.946048 0.155097
vn 0.298094 -0.924065 0.239257
vn 0.284495 -0.890589 0.354843
vn 0.284495 -0.847003 -0.449053
vn 0.284495 -0.923734 -0.256473
vn 0.284495 -0.923734 -0.256473
vn 0.274091 -0.290166 -0.916885
vn 0.304049 -0.400010 -0.864607
vn 0.284495 -0.957272 -0.051902
vn 0.284495 -0.957272 -0.051902
vn 0.284495 -0.402538 -0.870072
vn 0.284495 -0.580167 -0.763196
vn 0.284495 -0.957272 -0.051902
vn 0.270187 -0.950124 0.155765
vn 0.298486 -0.953189 0.048340
vn 0.284495 -0.946048 0.155097
vn 0.284495 -0.730668 -0.620635
vn 0.284495 -0.730668 -0.620635
vn 0.284495 -0.847003 -0.449053
vn 0.284495 -0.730668 -0.620635
vn 0.284495 -0.847003 -0.449053
vn 0.277490 -0.146655 -0.949469
vn 0.296978 0.000000 -0.954884
vn 0.308972 -0.204452 -0.928836
vn 0.284495 -0.923734 -0.256473
vn 0.284495 -0.923734 -0.256473
vn 0.284495 -0.206087 -0.936264
vn 0.284495 -0.402538 -0.870072
vn 0.284495 -0.957272 -0.051902
vn 0.270066 -0.961430 -0.052127
vn 0.298355 -0.943448 -0.144531
vn 0.284495 -0.580167 -0.763197
vn 0.284495 -0.402538 -0.870072
vn 0.284495 -0.580167 -0.763196
vn 0.284495 -0.730667 -0.620635
vn 0.284495 -0.580167 -0.763197
vn 0.277490 0.146655 -0.949469
vn 0.296978 0.000000 -0.954884
vn 0.284495 -0.730668 -0.620635
vn 0.284495 -0.847003 -0.449053
vn 0.284495 -0.847003 -0.449053
vn 0.284495 -0.206087 -0.936264
vn 0.284495 -0.923734 -0.256474
vn 0.284495 -0.923734 -0.256473
vn 0.297702 -0.895233 -0.331558
vn 0.270430 -0.927648 -0.257560
vn 0.284495 -0.402538 -0.870072
vn 0.284495 -0.206087 -0.936264
vn 0.284495 -0.580167 -0.763197
vn 0.284495 -0.402538 -0.870072
vn 0.274091 0.290166 -0.916885
vn 0.308972 0.204452 -0.928836
vn 0.284495 -0.730668 -0.620635
vn 0.284495 0.000000 -0.958678
vn 0.284495 0.000000 -0.958678
vn 0.271277 -0.850381 -0.450844
vn 0.284495 -0.847003 -0.449053
vn 0.296524 -0.810477 -0.505174
vn 0.284495 -0.847003 -0.449053
vn 0.284495 -0.206087 -0.936264
vn 0.284495 -0.402538 -0.870072
vn 0.304049 0.400010 -0.864607
vn 0.286947 0.425060 -0.858479
vn 0.283692 0.551682 -0.784325
vn 0.284495 -0.580167 -0.763197
vn 0.284495 -0.580167 -0.763197
vn 0.284495 0.206087 -0.936264
vn 0.284495 0.206087 -0.936264
vn 0.284495 -0.580167 -0.763197
vn 0.294822 -0.692577 -0.658344
vn 0.272607 -0.733296 -0.622867
vn 0.284495 -0.730668 -0.620635
vn 0.284495 -0.730668 -0.620635
vn 0.284495 0.000000 -0.958678
vn 0.284495 0.000000 -0.958678
vn 0.284495 -0.206087 -0.936264
vn 0.284495 -0.206087 -0.936264
vn 0.284495 0.000000 -0.958677
vn 0.273524 0.666989 -0.693045
vn 0.306045 0.576136 -0.757894
vn 0.284495 -0.402538 -0.870072
vn 0.284495 -0.206087 -0.936264
vn 0.284495 -0.402538 -0.870072
vn 0.284495 0.402538 -0.870072
vn 0.284495 0.402538 -0.870072
vn 0.284495 -0.402538 -0.870072
vn 0.292592 -0.546268 -0.784845
vn 0.284495 -0.580167 -0.763197
vn 0.274418 -0.581942 -0.765532
vn 0.284495 0.206087 -0.936264
vn 0.284495 0.402538 -0.870072
vn 0.284495 0.206087 -0.936264
vn 0.284495 0.000000 -0.958677
vn 0.308153 0.725073 -0.615882
vn 0.279637 0.763565 -0.582040
vn 0.292644 0.840052 -0.456806
vn 0.284495 -0.206087 -0.936264
vn 0.284495 0.580167 -0.763197
vn 0.284495 0.580167 -0.763196
vn 0.284495 -0.402538 -0.870072
vn 0.276706 -0.403494 -0.872139
vn 0.289831 -0.377429 -0.879514
vn 0.284495 0.402538 -0.870072
vn 0.284495 0.206087 -0.936264
vn 0.284495 0.402538 -0.870072
vn 0.284495 0.206087 -0.936264
vn 0.300166 0.842771 -0.446809
vn 0.275792 0.904640 -0.324908
vn 0.284495 0.000000 -0.958678
vn 0.284495 0.000000 -0.958678
vn 0.284495 0.730668 -0.620635
vn 0.284495 0.730668 -0.620635
vn 0.284495 -0.206087 -0.936264
vn 0.279469 -0.206405 -0.937707
vn 0.286536 -0.192858 -0.938458
vn 0.284495 -0.206087 -0.936264
vn 0.284495 0.580167 -0.763196
vn 0.284495 0.580167 -0.763197
vn 0.284495 0.402538 -0.870072
vn 0.284495 0.580167 -0.763197
vn 0.275112 0.943826 -0.183044
vn 0.309323 0.916295 -0.254408
vn 0.284495 0.206087 -0.936264
vn 0.284495 0.206087 -0.936264
vn 0.284495 0.402538 -0.870072
vn 0.284495 0.847003 -0.449053
vn 0.284495 0.847003 -0.449053
vn 0.284495 0.923734 -0.256473
vn 0.284495 0.000000 -0.958678
vn 0.284495 0.000000 -0.958678
vn 0.282703 0.000000 -0.959208
vn 0.286536 0.192858 -0.938458
vn 0.282703 0.000000 -0.959207
vn 0.284495 0.730668 -0.620635
vn 0.284495 0.847003 -0.449053
vn 0.284495 0.730668 -0.620635
vn 0.284495 0.580167 -0.763197
vn 0.301580 0.952043 -0.051618
vn 0.290637 0.956131 -0.036649
vn 0.280878 0.953411 0.110067
vn 0.284495 0.402538 -0.870072
vn 0.284495 0.923734 -0.256474
vn 0.284495 0.206087 -0.936264
vn 0.284495 0.206087 -0.936264
vn 0.289831 0.377429 -0.879514
vn 0.279469 0.206405 -0.937707
vn 0.284495 0.847003 -0.449053
vn 0.284495 0.730668 -0.620635
vn 0.284495 0.730667 -0.620635
vn 0.307568 0.938991 0.153940
vn 0.273410 0.927513 0.254885
vn 0.284495 0.580167 -0.763197
vn 0.284495 0.580167 -0.763197
vn 0.284495 0.957272 -0.051902
vn 0.284495 0.946049 0.155097
vn 0.284495 0.957272 -0.051902
vn 0.276706 0.403494 -0.872139
vn 0.292592 0.546268 -0.784845
vn 0.284495 0.402538 -0.870072
vn 0.284495 0.402538 -0.870072
vn 0.284495 0.957272 -0.051902
vn 0.284495 0.923734 -0.256474
vn 0.284495 0.923734 -0.256473
vn 0.284495 0.847003 -0.449053
vn 0.284495 0.847003 -0.449053
vn 0.282230 0.875407 0.392439
vn 0.288738 0.803616 0.520416
vn 0.306865 0.884156 0.352280
vn 0.284495 0.730668 -0.620635
vn 0.284495 0.730668 -0.620635
vn 0.284495 0.946048 0.155097
vn 0.284495 0.580167 -0.763197
vn 0.274418 0.581942 -0.765532
vn 0.294822 0.692577 -0.658344
vn 0.284495 0.580167 -0.763197
vn 0.284495 0.957272 -0.051902
vn 0.284495 0.923734 -0.256473
vn 0.284495 0.923734 -0.256473
vn 0.274545 0.717866 0.639760
vn 0.302874 0.788813 0.534828
vn 0.284495 0.923734 -0.256473
vn 0.284495 0.847003 -0.449053
vn 0.284495 0.847003 -0.449053
vn 0.284495 0.890589 0.354843
vn 0.284495 0.890589 0.354843
vn 0.284495 0.730668 -0.620635
vn 0.272607 0.733296 -0.622867
vn 0.296524 0.810477 -0.505174
vn 0.284495 0.730668 -0.620635
vn 0.284495 0.946048 0.155097
vn 0.284495 0.946048 0.155097
vn 0.284495 0.890589 0.354843
vn 0.284495 0.957271 -0.051902
vn 0.284495 0.957271 -0.051902
vn 0.276585 0.611422 0.741393
vn 0.309206 0.653999 0.690418
vn 0.284495 0.923734 -0.256473
vn 0.284495 0.957272 -0.051902
vn 0.284495 0.659282 0.695996
vn 0.284495 0.793487 0.537997
vn 0.284495 0.793487 0.537997
vn 0.284495 0.847003 -0.449053
vn 0.284495 0.847003 -0.449053
vn 0.271277 0.850381 -0.450844
vn 0.284495 0.923734 -0.256474
vn 0.297702 0.895233 -0.331558
vn 0.284495 0.890589 0.354843
vn 0.284495 0.946048 0.155097
vn 0.284495 0.946048 0.155097
vn 0.294758 0.488315 0.821381
vn 0.278508 0.359027 0.890805
vn 0.298632 0.492028 0.817757
vn 0.284495 0.957272 -0.051902
vn 0.284495 0.659282 0.695996
vn 0.298355 0.943448 -0.144531
vn 0.284495 0.923734 -0.256473
vn 0.270430 0.927648 -0.257560
vn 0.284495 0.793487 0.537997
vn 0.284495 0.793487 0.537998
vn 0.284495 0.793487 0.537998
vn 0.284495 0.890589 0.354843
vn 0.284495 0.890589 0.354843
vn 0.308621 0.303715 0.901393
vn 0.305106 0.102964 0.946736
vn 0.273751 0.219150 0.936501
vn 0.284495 0.103651 0.953058
vn 0.284495 0.946048 0.155097
vn 0.284495 0.946048 0.155097
vn 0.284495 0.890589 0.354843
vn 0.284495 0.494250 0.821450
vn 0.284495 0.494250 0.821450
vn 0.284495 0.946048 0.155097
vn 0.284495 0.957272 -0.051902
vn 0.284495 0.957272 -0.051902
vn 0.298486 0.953189 0.048340
vn 0.270066 0.961430 -0.052127
vn 0.284495 0.659282 0.695995
vn 0.284495 0.659282 0.695996
vn 0.284495 0.793487 0.537997
vn 0.284495 0.890589 0.354843
vn 0.284495 0.306107 0.908494
vn 0.284495 0.306107 0.908494
vn 0.284495 0.103652 0.953058
vn 0.270187 0.950124 0.155765
vn 0.298094 0.924065 0.239257
vn 0.284495 0.946048 0.155097
vn 0.284495 0.494250 0.821450
vn 0.284495 0.494250 0.821450
vn 0.284495 0.306107 0.908494
vn 0.284495 0.659282 0.695996
vn 0.284495 0.659282 0.695996
vn 0.284495 0.793487 0.537997
vn 0.284495 0.659282 0.695996
vn 0.284495 0.793487 0.537997
vn 0.284495 0.890589 0.354843
vn 0.270793 0.894268 0.356309
vn 0.297179 0.857243 0.420498
vn 0.284495 0.793487 0.537997
vn 0.284495 0.890589 0.354843
vn 0.284495 0.306107 0.908494
vn 0.284495 0.103651 0.953058
vn 0.284495 0.103652 0.953058
vn 0.284495 0.494250 0.821450
vn 0.284495 0.494250 0.821450
vn 0.284495 0.659282 0.695996
vn 0.284495 0.793487 0.537998
vn 0.271882 0.796510 0.540048
vn 0.295739 0.755403 0.584726
vn 0.284495 0.306107 0.908494
vn 0.284495 0.306107 0.908494
vn 0.284495 0.103651 0.953058
vn 0.284495 0.103652 0.953058
vn 0.284495 0.494250 0.821450
vn 0.284495 0.494250 0.821450
vn 0.284495 0.306107 0.908494
vn 0.284495 0.659282 0.695996
vn 0.284495 0.659282 0.695996
vn 0.273452 0.661488 0.698325
vn 0.293773 0.622631 0.725278
vn 0.284495 0.306107 0.908494
vn 0.284495 0.103651 0.953058
vn 0.284495 0.103652 0.953058
vn 0.284495 0.494250 0.821450
vn 0.284495 0.494250 0.821450
vn 0.275502 0.495602 0.823697
vn 0.291278 0.464258 0.836434
vn 0.284495 0.103652 0.953058
vn 0.284495 0.103651 0.953058
vn 0.284495 0.306107 0.908494
vn 0.281028 0.103762 0.954074
vn 0.284495 0.306107 0.908494
vn 0.278029 0.306712 0.910290
vn 0.288251 0.286657 0.913641
vn 0.000000 -0.101168 0.994869
vn 0.000000 -0.101168 0.994869
vn 0.000000 -0.299363 0.954139
vn 0.000000 -0.485302 0.874347
vn 0.000000 -0.299363 0.954139
vn 0.000000 -0.485302 0.874347
vn 0.000000 -0.651372 0.758758
vn 0.000000 -0.651372 0.758758
vn 0.000000 -0.790776 0.612106
vn 0.000000 -0.790776 0.612106
vn 0.000000 -0.897804 0.440394
vn 0.000000 -0.897804 0.440394
vn 0.000000 -0.968077 0.250653
vn 0.000000 -0.998716 0.050649
vn 0.000000 -0.968077 0.250653
vn 0.000000 -0.998716 0.050649
vn -0.000000 -0.988468 -0.151428
vn -0.000000 -0.988468 -0.151428
vn 0.000000 -0.937752 -0.347305
vn -0.000000 -0.937752 -0.347305
vn -0.000000 -0.848644 -0.528964
vn -0.000000 -0.724793 -0.688967
vn 0.000000 -0.848644 -0.528964
vn -0.000000 -0.724793 -0.688967
vn -0.000000 -0.571268 -0.820763
vn 0.000000 -0.571268 -0.820763
vn -0.000000 -0.394356 -0.918958
vn 0.000000 -0.394356 -0.918958
vn -0.000000 -0.201298 -0.979530
vn 0.000000 -0.201298 -0.979530
vn -0.000000 0.000000 -1.000000
vn 0.000000 0.201298 -0.979530
vn 0.000000 -0.000000 -1.000000
vn 0.000000 0.201298 -0.979530
vn 0.000000 0.394356 -0.918958
vn 0.000000 0.394356 -0.918958
vn 0.000000 0.571268 -0.820763
vn 0.000000 0.571268 -0.820763
vn 0.000000 0.724793 -0.688967
vn 0.000000 0.724793 -0.688967
vn 0.000000 0.848644 -0.528964
vn 0.000000 0.848644 -0.528964
vn 0.000000 0.937752 -0.347305
vn 0.000000 0.988468 -0.151428
vn 0.000000 0.937752 -0.347305
vn 0.000000 0.998716 0.050649
vn 0.000000 0.988468 -0.151428
vn 0.000000 0.968077 0.250653
vn 0.000000 0.998716 0.050649
vn 0.000000 0.968077 0.250653
vn 0.000000 0.897804 0.440394
vn 0.000000 0.897804 0.440394
vn 0.000000 0.790776 0.612106
vn 0.000000 0.651372 0.758758
vn 0.000000 0.790776 0.612106
vn 0.000000 0.651372 0.758758
vn 0.000000 0.485302 0.874347
vn 0.000000 0.485302 0.874347
vn 0.000000 0.299363 0.954139
vn 0.000000 0.299363 0.954139
vn 0.000000 0.101168 0.994869
vn 0.000000 0.101168 0.994869
vn 1.000000 0.000000 0.000000
vn 1.000000 0.000000 0.000000
vn 1.000000 0.000000 0.000000
vn 1.000000 0.000000 0.000000
vn 1.000000 0.000000 0.000000
vn 1.000000 0.000000 0.000000
vn 1.000000 0.000000 0.000000
vn 1.000000 0.000000 0.000000
vn 1.000000 0.000000 0.000000
vn 1.000000 0.000000 0.000000
vn 1.000000 0.000000 0.000000
vn 1.000000 0.000000 0.000000
vn 1.000000 0.000000 0.000000
vn 1.000000 0.000000 0.000000
vn 1.000000 0.000000 0.000000
vn 1.000000 0.000000 0.000000
vn 1.000000 0.000000 0.000000
vn 1.000000 0.000000 0.000000
vn 1.000000 0.000000 0.000000
vn 1.000000 -0.000000 0.000000
vn 1.000000 0.000000 0.000000
vn 1.000000 0.000000 0.000000
vn 1.000000 -0.000000 0.000000
vn 1.000000 -0.000000 0.000000
vn 1.000000 0.000000 0.000000
vn 1.000000 0.000000 0.000000
vn 1.000000 -0.000000 0.000000
vn 1.000000 0.000000 0.000000
vn 1.000000 -0.000000 0.000000
f 1//1 2//1 3//1
f 4//2 5//2 6//2
f 7//3 6//3 2//3
f 7//4 2//4 1//4
f 8//5 7//5 9//5
f 8//6 6//6 7//6
f 10//7 11//7 4//7
f 10//8 12//8 11//8
f 10//9 4//9 6//9
f 13//10 14//10 15//10
f 13//11 8//11 14//11
f 16//12 17//12 18//12
f 19//13 8//13 13//13
f 20//14 21//14 16//14
f 20//15 22//15 21//15
f 23//16 24//16 25//16
f 23//17 19//17 24//17
f 23//18 6//18 8//18
f 23//19 10//19 6//19
f 23//20 8//20 19//20
f 26//21 23//21 27//21
f 28//22 18//22 10//22
f 28//23 26//23 29//23
f 28//24 10//24 23//24
f 28//25 23//25 26//25
f 30//26 31//26 20//26
f 30//27 32//27 31//27
f 30//28 33//28 32//28
f 30//29 34//29 33//29
f 30//30 20//30 16//30
f 35//31 18//31 28//31
f 35//32 28//32 36//32
f 37//33 30//33 16//33
f 37//34 38//34 30//34
f 37//35 39//35 38//35
f 37//36 18//36 35//36
f 37//37 16//37 18//37
f 40//38 41//38 12//38
f 40//39 42//39 41//39
f 40//40 12//40 10//40
f 40//41 43//41 42//41
f 44//42 43//42 40//42
f 44//43 10//43 18//43
f 44//44 45//44 43//44
f 44//45 40//45 10//45
f 46//46 44//46 18//46
f 46//47 45//47 44//47
f 47//48 18//48 17//48
f 47//49 46//49 18//49
f 47//50 45//50 46//50
f 47//51 48//51 45//51
f 49//52 47//52 17//52
f 49//53 50//53 48//53
f 49//54 48//54 47//54
f 51//55 17//55 16//55
f 51//56 50//56 49//56
f 51//57 49//57 17//57
f 52//58 16//58 21//58
f 52//59 53//59 50//59
f 52//60 51//60 16//60
f 52//61 50//61 51//61
f 54//62 52//62 21//62
f 54//63 53//63 52//63
f 54//64 55//64 53//64
f 56//65 21//65 22//65
f 56//66 54//66 21//66
f 56//67 55//67 54//67
f 57//68 56//68 22//68
f 57//69 55//69 56//69
f 57//70 58//70 55//70
f 59//71 58//71 57//71
f 59//72 22//72 20//72
f 59//73 57//73 22//73
f 60//74 20//74 31//74
f 60//75 58//75 59//75
f 60//76 59//76 20//76
f 60//77 61//77 58//77
f 62//78 60//78 31//78
f 62//79 61//79 60//79
f 62//80 63//80 61//80
f 64//81 31//81 32//81
f 64//82 62//82 31//82
f 64//83 63//83 62//83
f 65//84 32//84 33//84
f 65//85 66//85 63//85
f 65//86 64//86 32//86
f 65//87 63//87 64//87
f 67//88 66//88 65//88
f 67//89 68//89 66//89
f 67//90 65//90 33//90
f 69//91 33//91 34//91
f 69//92 67//92 33//92
f 69//93 68//93 67//93
f 70//94 69//94 34//94
f 70//95 68//95 69//95
f 70//96 71//96 68//96
f 72//97 34//97 30//97
f 72//98 70//98 34//98
f 72//99 73//99 71//99
f 72//100 71//100 70//100
f 74//101 30//101 38//101
f 74//102 72//102 30//102
f 74//103 73//103 72//103
f 75//104 76//104 73//104
f 75//105 74//105 38//105
f 75//106 73//106 74//106
f 77//107 75//107 38//107
f 77//108 38//108 39//108
f 77//109 76//109 75//109
f 77//110 78//110 76//110
f 79//111 77//111 39//111
f 79//112 78//112 77//112
f 79//113 39//113 37//113
f 80//114 78//114 79//114
f 80//115 79//115 37//115
f 80//116 81//116 78//116
f 82//117 37//117 35//117
f 82//118 81//118 80//118
f 82//119 80//119 37//119
f 82//120 83//120 81//120
f 84//121 82//121 35//121
f 84//122 83//122 82//122
f 85//123 35//123 36//123
f 85//124 84//124 35//124
f 85//125 83//125 84//125
f 85//126 86//126 83//126
f 87//127 36//127 28//127
f 87//128 85//128 36//128
f 87//129 88//129 86//129
f 87//130 86//130 85//130
f 89//131 87//131 28//131
f 89//132 88//132 87//132
f 90//133 28//133 29//133
f 90//134 88//134 89//134
f 90//135 89//135 28//135
f 90//136 91//136 88//136
f 92//137 91//137 90//137
f 92//138 90//138 29//138
f 93//139 29//139 26//139
f 93//140 91//140 92//140
f 93//141 94//141 91//141
f 93//142 92//142 29//142
f 95//143 26//143 27//143
f 95//144 94//144 93//144
f 95//145 96//145 94//145
f 95//146 93//146 26//146
f 97//147 96//147 95//147
f 97//148 95//148 27//148
f 98//149 27//149 23//149
f 98//150 96//150 97//150
f 98//151 99//151 96//151
f 98//152 97//152 27//152
f 100//153 23//153 25//153
f 100//154 101//154 99//154
f 100//155 99//155 98//155
f 100//156 98//156 23//156
f 102//157 101//157 100//157
f 102//158 100//158 25//158
f 103//159 25//159 24//159
f 103//160 104//160 101//160
f 103//161 101//161 102//161
f 103//162 102//162 25//162
f 105//163 106//163 104//163
f 105//164 104//164 103//164
f 105//165 103//165 24//165
f 107//166 24//166 19//166
f 107//167 106//167 105//167
f 107//168 105//168 24//168
f 108//169 19//169 13//169
f 108//170 109//170 106//170
f 108//171 106//171 107//171
f 108//172 107//172 19//172
f 110//173 111//173 109//173
f 110//174 108//174 13//174
f 110//175 109//175 108//175
f 112//176 13//176 15//176
f 112//177 111//177 110//177
f 112//178 110//178 13//178
f 113//179 15//179 14//179
f 113//180 114//180 111//180
f 113//181 112//181 15//181
f 113//182 111//182 112//182
f 115//183 114//183 113//183
f 115//184 116//184 114//184
f 115//185 113//185 14//185
f 117//186 14//186 8//186
f 117//187 115//187 14//187
f 117//188 116//188 115//188
f 118//189 117//189 8//189
f 118//190 119//190 116//190
f 118//191 116//191 117//191
f 120//192 119//192 118//192
f 120//193 118//193 8//193
f 120//194 8//194 9//194
f 120//195 121//195 119//195
f 122//196 120//196 9//196
f 122//197 121//197 120//197
f 122//198 9//198 7//198
f 123//199 121//199 122//199
f 123//200 122//200 7//200
f 123//201 124//201 121//201
f 125//202 123//202 7//202
f 125//203 124//203 123//203
f 125//204 7//204 1//204
f 125//205 126//205 124//205
f 127//206 125//206 1//206
f 127//207 126//207 125//207
f 128//208 127//208 1//208
f 128//209 126//209 127//209
f 128//210 1//210 3//210
f 128//211 129//211 126//211
f 130//212 128//212 3//212
f 130//213 129//213 128//213
f 130//214 3//214 2//214
f 131//215 129//215 130//215
f 131//216 130//216 2//216
f 131//217 132//217 129//217
f 133//218 131//218 2//218
f 133//219 132//219 131//219
f 133//220 2//220 6//220
f 133//221 134//221 132//221
f 135//222 133//222 6//222
f 135//223 134//223 133//223
f 135//224 6//224 5//224
f 136//225 134//225 135//225
f 136//226 135//226 5//226
f 136//227 137//227 134//227
f 138//228 136//228 5//228
f 138//229 137//229 136//229
f 138//230 5//230 4//230
f 138//231 139//231 137//231
f 140//232 138//232 4//232
f 140//233 139//233 138//233
f 141//234 4//234 11//234
f 141//235 139//235 140//235
f 141//236 140//236 4//236
f 141//237 142//237 139//237
f 143//238 11//238 12//238
f 143//239 141//239 11//239
f 143//240 12//240 41//240
f 143//241 41//241 42//241
f 143//242 142//242 141//242
f 143//243 42//243 142//243
f 144//244 145//244 42//244
f 144//245 42//245 43//245
f 146//246 43//246 45//246
f 146//247 45//247 48//247
f 146//248 144//248 43//248
f 147//249 146//249 48//249
f 148//250 48//250 50//250
f 148//251 50//251 53//251
f 148//252 147//252 48//252
f 149//253 148//253 53//253
f 150//254 53//254 55//254
f 150//255 149//255 53//255
f 151//256 150//256 55//256
f 151//257 55//257 58//257
f 152//258 58//258 61//258
f 152//259 151//259 58//259
f 153//260 61//260 63//260
f 153//261 152//261 61//261
f 154//262 63//262 66//262
f 154//263 153//263 63//263
f 155//264 66//264 68//264
f 155//265 154//265 66//265
f 156//266 68//266 71//266
f 156//267 71//267 73//267
f 156//268 155//268 68//268
f 157//269 156//269 73//269
f 158//270 73//270 76//270
f 158//271 157//271 73//271
f 159//272 76//272 78//272
f 159//273 78//273 81//273
f 159//274 158//274 76//274
f 160//275 159//275 81//275
f 161//276 81//276 83//276
f 161//277 83//277 86//277
f 161//278 160//278 81//278
f 162//279 161//279 86//279
f 163//280 86//280 88//280
f 163//281 162//281 86//281
f 164//282 88//282 91//282
f 164//283 91//283 94//283
f 164//284 163//284 88//284
f 165//285 164//285 94//285
f 166//286 94//286 96//286
f 166//287 96//287 99//287
f 166//288 165//288 94//288
f 167//289 166//289 99//289
f 168//290 99//290 101//290
f 168//291 101//291 104//291
f 168//292 167//292 99//292
f 169//293 168//293 104//293
f 170//294 104//294 106//294
f 170//295 106//295 109//295
f 170//296 169//296 104//296
f 171//297 170//297 109//297
f 172//298 109//298 111//298
f 172//299 111//299 114//299
f 172//300 171//300 109//300
f 173//301 114//301 116//301
f 173//302 172//302 114//302
f 174//303 116//303 119//303
f 174//304 173//304 116//304
f 175//305 174//305 119//305
f 176//306 175//306 119//306
f 176//307 119//307 121//307
f 177//308 176//308 121//308
f 177//309 121//309 124//309
f 177//310 124//310 126//310
f 178//311 177//311 126//311
f 179//312 178//312 126//312
f 179//313 126//313 129//313
f 179//314 129//314 132//314
f 180//315 179//315 132//315
f 180//316 132//316 134//316
f 181//317 180//317 134//317
f 182//318 181//318 134//318
f 182//319 134//319 137//319
f 182//320 137//320 139//320
f 183//321 182//321 139//321
f 184//322 139//322 142//322
f 184//323 183//323 139//323
f 145//324 142//324 42//324
f 145//325 184//325 142//325
f 185//326 145//326 144//326
f 186//327 187//327 188//327
f 185//328 184//328 145//328
f 187//329 189//329 188//329
f 190//330 144//330 146//330
f 190//331 185//331 144//331
f 191//332 146//332 147//332
f 191//333 147//333 148//333
f 191//334 190//334 146//334
f 192//335 185//335 190//335
f 192//336 193//336 185//336
f 194//337 148//337 149//337
f 194//338 191//338 148//338
f 195//339 190//339 191//339
f 195//340 192//340 190//340
f 196//341 192//341 195//341
f 196//342 193//342 192//342
f 196//343 197//343 193//343
f 198//344 149//344 150//344
f 198//345 194//345 149//345
f 199//346 194//346 198//346
f 199//347 191//347 194//347
f 199//348 195//348 191//348
f 200//349 196//349 195//349
f 201//350 202//350 197//350
f 201//351 197//351 196//351
f 203//352 150//352 151//352
f 203//353 151//353 152//353
f 203//354 198//354 150//354
f 204//355 199//355 198//355
f 205//356 199//356 204//356
f 205//357 200//357 195//357
f 205//358 195//358 199//358
f 206//359 196//359 200//359
f 206//360 201//360 196//360
f 207//361 152//361 153//361
f 207//362 203//362 152//362
f 208//363 209//363 202//363
f 208//364 202//364 201//364
f 210//365 203//365 207//365
f 210//366 204//366 198//366
f 210//367 198//367 203//367
f 211//368 205//368 204//368
f 212//369 206//369 200//369
f 212//370 200//370 205//370
f 213//371 207//371 153//371
f 213//372 153//372 154//372
f 213//373 154//373 155//373
f 214//374 201//374 206//374
f 214//375 208//375 201//375
f 215//376 210//376 207//376
f 216//377 186//377 188//377
f 216//378 208//378 214//378
f 216//379 217//379 186//379
f 216//380 209//380 208//380
f 216//381 188//381 209//381
f 218//382 204//382 210//382
f 218//383 211//383 204//383
f 219//384 212//384 205//384
f 219//385 205//385 211//385
f 219//386 211//386 218//386
f 220//387 155//387 156//387
f 220//388 213//388 155//388
f 221//389 214//389 206//389
f 221//390 206//390 212//390
f 222//391 207//391 213//391
f 222//392 215//392 207//392
f 222//393 213//393 220//393
f 223//394 216//394 214//394
f 223//395 217//395 216//395
f 223//396 224//396 217//396
f 225//397 215//397 222//397
f 225//398 210//398 215//398
f 225//399 218//399 210//399
f 226//400 219//400 218//400
f 227//401 156//401 157//401
f 227//402 220//402 156//402
f 228//403 221//403 212//403
f 228//404 212//404 219//404
f 229//405 222//405 220//405
f 230//406 224//406 223//406
f 230//407 231//407 224//407
f 230//408 214//408 221//408
f 230//409 223//409 214//409
f 232//410 225//410 222//410
f 232//411 222//411 229//411
f 233//412 225//412 232//412
f 233//413 218//413 225//413
f 233//414 226//414 218//414
f 234//415 157//415 158//415
f 234//416 158//416 159//416
f 234//417 227//417 157//417
f 235//418 228//418 219//418
f 235//419 219//419 226//419
f 236//420 220//420 227//420
f 236//421 229//421 220//421
f 237//422 238//422 231//422
f 237//423 231//423 230//423
f 237//424 221//424 228//424
f 237//425 230//425 221//425
f 237//426 228//426 235//426
f 239//427 232//427 229//427
f 240//428 233//428 232//428
f 241//429 159//429 160//429
f 241//430 234//430 159//430
f 242//431 226//431 233//431
f 242//432 235//432 226//432
f 243//433 236//433 227//433
f 243//434 227//434 234//434
f 243//435 234//435 241//435
f 244//436 245//436 238//436
f 244//437 238//437 237//437
f 244//438 237//438 235//438
f 246//439 229//439 236//439
f 246//440 239//440 229//440
f 246//441 236//441 243//441
f 247//442 232//442 239//442
f 247//443 240//443 232//443
f 248//444 160//444 161//444
f 248//445 161//445 162//445
f 248//446 241//446 160//446
f 249//447 233//447 240//447
f 249//448 242//448 233//448
f 250//449 243//449 241//449
f 250//450 241//450 248//450
f 251//451 235//451 242//451
f 251//452 245//452 244//452
f 251//453 242//453 249//453
f 251//454 252//454 245//454
f 251//455 244//455 235//455
f 253//456 246//456 243//456
f 254//457 239//457 246//457
f 254//458 247//458 239//458
f 255//459 162//459 163//459
f 255//460 248//460 162//460
f 256//461 240//461 247//461
f 256//462 249//462 240//462
f 257//463 248//463 255//463
f 257//464 250//464 248//464
f 258//465 249//465 256//465
f 258//466 252//466 251//466
f 258//467 259//467 252//467
f 258//468 251//468 249//468
f 260//469 243//469 250//469
f 260//470 253//470 243//470
f 261//471 254//471 246//471
f 261//472 253//472 260//472
f 261//473 246//473 253//473
f 262//474 163//474 164//474
f 262//475 164//475 165//475
f 262//476 255//476 163//476
f 263//477 256//477 247//477
f 263//478 247//478 254//478
f 264//479 255//479 262//479
f 264//480 257//480 255//480
f 265//481 258//481 256//481
f 265//482 259//482 258//482
f 265//483 266//483 259//483
f 267//484 260//484 250//484
f 267//485 257//485 264//485
f 267//486 250//486 257//486
f 268//487 261//487 260//487
f 268//488 260//488 267//488
f 269//489 165//489 166//489
f 269//490 262//490 165//490
f 270//491 261//491 268//491
f 270//492 263//492 254//492
f 270//493 254//493 261//493
f 271//494 264//494 262//494
f 272//495 256//495 263//495
f 272//496 265//496 256//496
f 272//497 273//497 266//497
f 272//498 266//498 265//498
f 274//499 267//499 264//499
f 274//500 264//500 271//500
f 275//501 268//501 267//501
f 275//502 267//502 274//502
f 276//503 166//503 167//503
f 276//504 269//504 166//504
f 277//505 270//505 268//505
f 278//506 271//506 262//506
f 278//507 262//507 269//507
f 279//508 273//508 272//508
f 279//509 272//509 263//509
f 279//510 280//510 273//510
f 279//511 263//511 270//511
f 281//512 274//512 271//512
f 282//513 275//513 274//513
f 283//514 276//514 167//514
f 283//515 167//515 168//515
f 283//516 168//516 169//516
f 284//517 268//517 275//517
f 284//518 277//518 268//518
f 285//519 269//519 276//519
f 285//520 278//520 269//520
f 286//521 277//521 284//521
f 286//522 287//522 280//522
f 286//523 280//523 279//523
f 286//524 270//524 277//524
f 286//525 279//525 270//525
f 288//526 281//526 271//526
f 288//527 271//527 278//527
f 289//528 282//528 274//528
f 289//529 274//529 281//529
f 289//530 281//530 288//530
f 290//531 169//531 170//531
f 290//532 283//532 169//532
f 291//533 275//533 282//533
f 291//534 282//534 289//534
f 291//535 284//535 275//535
f 292//536 285//536 276//536
f 292//537 276//537 283//537
f 293//538 284//538 291//538
f 293//539 294//539 287//539
f 293//540 286//540 284//540
f 293//541 287//541 286//541
f 295//542 278//542 285//542
f 295//543 285//543 292//543
f 295//544 288//544 278//544
f 296//545 289//545 288//545
f 297//546 290//546 170//546
f 297//547 170//547 171//547
f 297//548 171//548 172//548
f 298//549 291//549 289//549
f 299//550 283//550 290//550
f 299//551 292//551 283//551
f 300//552 293//552 291//552
f 300//553 294//553 293//553
f 300//554 301//554 294//554
f 302//555 295//555 292//555
f 303//556 296//556 288//556
f 303//557 295//557 302//557
f 303//558 288//558 295//558
f 304//559 297//559 172//559
f 304//560 172//560 173//560
f 305//561 289//561 296//561
f 305//562 298//562 289//562
f 306//563 290//563 297//563
f 306//564 299//564 290//564
f 307//565 300//565 291//565
f 307//566 301//566 300//566
f 307//567 308//567 301//567
f 307//568 291//568 298//568
f 309//569 292//569 299//569
f 309//570 302//570 292//570
f 310//571 303//571 302//571
f 310//572 302//572 309//572
f 311//573 173//573 174//573
f 311//574 304//574 173//574
f 312//575 296//575 303//575
f 312//576 305//576 296//576
f 312//577 303//577 310//577
f 313//578 297//578 304//578
f 313//579 306//579 297//579
f 313//580 304//580 311//580
f 314//581 298//581 305//581
f 314//582 307//582 298//582
f 314//583 315//583 308//583
f 314//584 316//584 315//584
f 314//585 308//585 307//585
f 317//586 299//586 306//586
f 317//587 306//587 313//587
f 317//588 309//588 299//588
f 318//589 310//589 309//589
f 319//590 311//590 174//590
f 319//591 174//591 175//591
f 319//592 175//592 176//592
f 320//593 312//593 310//593
f 321//594 313//594 311//594
f 322//595 305//595 312//595
f 322//596 314//596 305//596
f 322//597 323//597 316//597
f 322//598 316//598 314//598
f 324//599 317//599 313//599
f 325//600 309//600 317//600
f 325//601 318//601 309//601
f 326//602 319//602 176//602
f 326//603 176//603 177//603
f 327//604 310//604 318//604
f 327//605 320//605 310//605
f 328//606 311//606 319//606
f 328//607 319//607 326//607
f 328//608 321//608 311//608
f 329//609 323//609 322//609
f 329//610 330//610 323//610
f 329//611 312//611 320//611
f 329//612 322//612 312//612
f 331//613 321//613 328//613
f 331//614 313//614 321//614
f 331//615 324//615 313//615
f 332//616 325//616 317//616
f 332//617 317//617 324//617
f 333//618 177//618 178//618
f 333//619 178//619 179//619
f 333//620 326//620 177//620
f 334//621 318//621 325//621
f 334//622 327//622 318//622
f 335//623 328//623 326//623
f 336//624 320//624 327//624
f 336//625 330//625 329//625
f 336//626 337//626 330//626
f 336//627 329//627 320//627
f 338//628 331//628 328//628
f 339//629 324//629 331//629
f 339//630 332//630 324//630
f 340//631 179//631 180//631
f 340//632 333//632 179//632
f 341//633 332//633 339//633
f 341//634 325//634 332//634
f 341//635 334//635 325//635
f 342//636 326//636 333//636
f 342//637 335//637 326//637
f 343//638 327//638 334//638
f 343//639 337//639 336//639
f 343//640 344//640 337//640
f 343//641 336//641 327//641
f 345//642 328//642 335//642
f 345//643 338//643 328//643
f 345//644 335//644 342//644
f 346//645 339//645 331//645
f 346//646 331//646 338//646
f 347//647 180//647 181//647
f 347//648 340//648 180//648
f 348//649 341//649 339//649
f 348//650 339//650 346//650
f 349//651 340//651 347//651
f 349//652 333//652 340//652
f 349//653 342//653 333//653
f 350//654 334//654 341//654
f 350//655 343//655 334//655
f 350//656 344//656 343//656
f 350//657 341//657 348//657
f 350//658 351//658 344//658
f 352//659 345//659 342//659
f 353//660 338//660 345//660
f 353//661 346//661 338//661
f 354//662 181//662 182//662
f 354//663 182//663 183//663
f 354//664 347//664 181//664
f 355//665 348//665 346//665
f 356//666 349//666 347//666
f 357//667 358//667 351//667
f 357//668 350//668 348//668
f 357//669 351//669 350//669
f 359//670 342//670 349//670
f 359//671 352//671 342//671
f 360//672 352//672 359//672
f 360//673 353//673 345//673
f 360//674 345//674 352//674
f 361//675 354//675 183//675
f 361//676 184//676 185//676
f 361//677 183//677 184//677
f 361//678 185//678 193//678
f 362//679 346//679 353//679
f 362//680 355//680 346//680
f 362//681 353//681 360//681
f 363//682 347//682 354//682
f 363//683 356//683 347//683
f 364//684 355//684 362//684
f 364//685 348//685 355//685
f 364//686 357//686 348//686
f 364//687 365//687 358//687
f 364//688 358//688 357//688
f 366//689 349//689 356//689
f 366//690 359//690 349//690
f 367//691 360//691 359//691
f 368//692 362//692 360//692
f 369//693 363//693 354//693
f 369//694 354//694 361//694
f 369//695 361//695 193//695
f 370//696 365//696 364//696
f 370//697 371//697 365//697
f 370//698 364//698 362//698
f 372//699 366//699 356//699
f 372//700 356//700 363//700
f 372//701 363//701 369//701
f 373//702 359//702 366//702
f 373//703 367//703 359//703
f 374//704 360//704 367//704
f 374//705 367//705 373//705
f 374//706 368//706 360//706
f 375//707 362//707 368//707
f 375//708 371//708 370//708
f 375//709 376//709 371//709
f 375//710 368//710 374//710
f 375//711 370//711 362//711
f 377//712 372//712 369//712
f 377//713 193//713 197//713
f 377//714 369//714 193//714
f 378//715 373//715 366//715
f 378//716 366//716 372//716
f 379//717 374//717 373//717
f 380//718 375//718 374//718
f 380//719 376//719 375//719
f 380//720 381//720 376//720
f 382//721 378//721 372//721
f 382//722 372//722 377//722
f 382//723 377//723 197//723
f 382//724 197//724 202//724
f 383//725 379//725 373//725
f 383//726 373//726 378//726
f 383//727 378//727 382//727
f 384//728 380//728 374//728
f 384//729 374//729 379//729
f 384//730 381//730 380//730
f 384//731 385//731 381//731
f 386//732 383//732 382//732
f 386//733 202//733 209//733
f 386//734 382//734 202//734
f 387//735 384//735 379//735
f 387//736 379//736 383//736
f 387//737 385//737 384//737
f 387//738 388//738 385//738
f 389//739 209//739 188//739
f 389//740 386//740 209//740
f 389//741 383//741 386//741
f 389//742 188//742 189//742
f 389//743 387//743 383//743
f 389//744 388//744 387//744
f 389//745 189//745 388//745
f 390//746 187//746 186//746
f 390//747 391//747 187//747
f 392//748 186//748 217//748
f 392//749 217//749 224//749
f 392//750 390//750 186//750
f 393//751 392//751 224//751
f 394//752 224//752 231//752
f 394//753 393//753 224//753
f 395//754 231//754 238//754
f 395//755 394//755 231//755
f 396//756 238//756 245//756
f 396//757 395//757 238//757
f 397//758 245//758 252//758
f 397//759 252//759 259//759
f 397//760 396//760 245//760
f 398//761 397//761 259//761
f 398//762 259//762 266//762
f 399//763 398//763 266//763
f 400//764 399//764 266//764
f 400//765 266//765 273//765
f 401//766 273//766 280//766
f 401//767 280//767 287//767
f 401//768 400//768 273//768
f 402//769 401//769 287//769
f 403//770 287//770 294//770
f 403//771 402//771 287//771
f 404//772 294//772 301//772
f 404//773 403//773 294//773
f 405//774 301//774 308//774
f 405//775 404//775 301//775
f 406//776 308//776 315//776
f 406//777 315//777 316//777
f 406//778 405//778 308//778
f 407//779 406//779 316//779
f 408//780 316//780 323//780
f 408//781 407//781 316//781
f 409//782 323//782 330//782
f 409//783 408//783 323//783
f 410//784 330//784 337//784
f 410//785 409//785 330//785
f 411//786 337//786 344//786
f 411//787 410//787 337//787
f 412//788 344//788 351//788
f 412//789 351//789 358//789
f 412//790 411//790 344//790
f 413//791 358//791 365//791
f 413//792 412//792 358//792
f 414//793 365//793 371//793
f 414//794 413//794 365//794
f 415//795 414//795 371//795
f 416//796 371//796 376//796
f 416//797 415//797 371//797
f 417//798 376//798 381//798
f 417//799 381//799 385//799
f 417//800 416//800 376//800
f 418//801 417//801 385//801
f 419//802 385//802 388//802
f 419//803 418//803 385//803
f 420//804 388//804 189//804
f 420//805 419//805 388//805
f 391//806 189//806 187//806
f 391//807 420//807 189//807
f 408//808 409//808 410//808
f 405//809 406//809 407//809
f 405//810 407//810 408//810
f 405//811 408//811 410//811
f 414//812 411//812 412//812
f 414//813 412//813 413//813
f 400//814 401//814 402//814
f 399//815 402//815 403//815
f 399//816 400//816 402//816
f 420//817 415//817 416//817
f 420//818 416//818 417//818
f 420//819 417//819 418//819
f 420//820 418//820 419//820
f 398//821 403//821 404//821
f 398//822 399//822 403//822
f 391//823 415//823 420//823
f 397//824 404//824 405//824
f 397//825 410//825 411//825
f 397//826 405//826 410//826
f 397//827 411//827 414//827
f 397//828 398//828 404//828
f 390//829 414//829 415//829
f 390//830 415//830 391//830
f 392//831 414//831 390//831
f 395//832 396//832 397//832
f 393//833 397//833 414//833
f 393//834 414//834 392//834
f 394//835 395//835 397//835
f 394//836 397//836 393//836
