# Created by FreeCAD <http://www.freecadweb.org>
v -19.801937 -18.867767 20.000000
v -19.246979 -19.563663 20.000000
v -18.867767 -19.801937 20.000000
v -19.563663 -19.246979 20.000000
v -18.000000 -20.000000 20.000000
v -18.445042 -19.949856 20.000000
v -20.000000 -18.000000 20.000000
v -19.949856 -18.445042 20.000000
v -12.182344 -12.563458 20.000000
v -13.633910 -10.971167 20.000000
v -10.546106 -13.965302 20.000000
v -14.878799 -9.212563 20.000000
v -8.750000 -15.155444 20.000000
v -15.898142 -7.314306 20.000000
v -6.821253 -16.115847 20.000000
v -16.676485 -5.305172 20.000000
v -4.789103 -16.831949 20.000000
v -17.202030 -3.215616 20.000000
v -2.684354 -17.292896 20.000000
v -17.466808 -1.077316 20.000000
v -0.538914 -17.491699 20.000000
v -20.000000 18.000000 20.000000
v -14.878799 9.212563 20.000000
v -13.633910 10.971167 20.000000
v -15.898142 7.314306 20.000000
v -16.676485 5.305172 20.000000
v -17.202030 3.215616 20.000000
v -17.466808 1.077316 20.000000
v 18.000000 -20.000000 20.000000
v 1.614696 -17.425348 20.000000
v 3.743829 -17.094845 20.000000
v 5.816209 -16.505203 20.000000
v 7.800421 -15.665358 20.000000
v 9.666387 -14.588041 20.000000
v 11.385820 -13.289586 20.000000
v -19.801937 18.867767 20.000000
v -19.949856 18.445042 20.000000
v 18.867767 -19.801937 20.000000
v 18.445042 -19.949856 20.000000
v -19.246979 19.563663 20.000000
v -19.563663 19.246979 20.000000
v -12.182344 12.563458 20.000000
v 19.801937 -18.867767 20.000000
v 19.246979 -19.563663 20.000000
v 19.563663 -19.246979 20.000000
v 12.932656 -11.789674 20.000000
v -18.000000 20.000000 20.000000
v -18.445042 19.949856 20.000000
v -18.867767 19.801937 20.000000
v 20.000000 -18.000000 20.000000
v 19.949856 -18.445042 20.000000
v -10.546106 13.965302 20.000000
v 14.283446 -10.111042 20.000000
v -8.750000 15.155444 20.000000
v 15.417713 -8.279138 20.000000
v -6.821253 16.115847 20.000000
v 16.318264 -6.321729 20.000000
v -4.789103 16.831949 20.000000
v 16.971447 -4.268490 20.000000
v -2.684354 17.292896 20.000000
v 17.367359 -2.150545 20.000000
v 17.500000 0.000000 20.000000
v 18.000000 20.000000 20.000000
v 11.385820 13.289586 20.000000
v 12.932656 11.789674 20.000000
v 9.666387 14.588041 20.000000
v 7.800421 15.665358 20.000000
v 5.816209 16.505203 20.000000
v 3.743829 17.094845 20.000000
v 20.000000 18.000000 20.000000
v 17.367359 2.150545 20.000000
v 16.971447 4.268490 20.000000
v 16.318264 6.321729 20.000000
v 15.417713 8.279138 20.000000
v 14.283446 10.111042 20.000000
v 18.867767 19.801937 20.000000
v 18.445042 19.949856 20.000000
v 19.563663 19.246979 20.000000
v 19.949856 18.445042 20.000000
v 19.801937 18.867767 20.000000
v 19.246979 19.563663 20.000000
v -0.538914 17.491699 20.000000
v 1.614696 17.425348 20.000000
v 20.000000 -18.000000 0.000000
v 20.000000 18.000000 0.000000
v 19.949856 -18.445042 0.000000
v 19.801937 -18.867767 0.000000
v 19.563663 -19.246979 0.000000
v 19.246979 -19.563663 0.000000
v 18.867767 -19.801937 0.000000
v 18.445042 -19.949856 0.000000
v 18.000000 -20.000000 0.000000
v 19.949856 18.445042 0.000000
v 19.801937 18.867767 0.000000
v 19.563663 19.246979 0.000000
v 19.246979 19.563663 0.000000
v 18.867767 19.801937 0.000000
v 18.445042 19.949856 0.000000
v 18.000000 20.000000 0.000000
v -18.000000 -20.000000 0.000000
v -18.000000 20.000000 0.000000
v -18.445042 -19.949856 0.000000
v -18.867767 -19.801937 0.000000
v -19.246979 -19.563663 0.000000
v -19.563663 -19.246979 0.000000
v -19.801937 -18.867767 0.000000
v -19.949856 -18.445042 0.000000
v -20.000000 -18.000000 0.000000
v -18.445042 19.949856 0.000000
v -18.867767 19.801937 0.000000
v -19.246979 19.563663 0.000000
v -19.563663 19.246979 0.000000
v -19.801937 18.867767 0.000000
v -19.949856 18.445042 0.000000
v -20.000000 18.000000 0.000000
v 16.871149 2.089101 19.500000
v 17.000000 0.000000 19.500000
v 16.486547 4.146533 19.500000
v 15.852028 6.141109 19.500000
v 14.977207 8.042590 19.500000
v 13.875347 9.822155 19.500000
v 12.563151 11.452826 19.500000
v 11.060511 12.909883 19.500000
v 9.390204 14.171241 19.500000
v 7.577552 15.217776 19.500000
v 5.650032 16.033625 19.500000
v 3.636863 16.606421 19.500000
v 1.568562 16.927481 19.500000
v -0.523516 16.991938 19.500000
v -2.607658 16.798813 19.500000
v -4.652271 16.351036 19.500000
v -6.626360 15.655394 19.500000
v -8.500000 14.722432 19.500000
v -10.244789 13.566293 19.500000
v -11.834277 12.204503 19.500000
v -13.244370 10.657704 19.500000
v -14.453691 8.949347 19.500000
v -15.443910 7.105326 19.500000
v -16.200014 5.153595 19.500000
v -16.710543 3.123742 19.500000
v -16.967756 1.046535 19.500000
v -16.967756 -1.046535 19.500000
v -16.710543 -3.123742 19.500000
v -16.200014 -5.153595 19.500000
v -15.443910 -7.105326 19.500000
v -14.453691 -8.949347 19.500000
v -13.244370 -10.657704 19.500000
v -11.834277 -12.204503 19.500000
v -10.244789 -13.566293 19.500000
v -8.500000 -14.722432 19.500000
v -6.626360 -15.655394 19.500000
v -4.652271 -16.351036 19.500000
v -2.607658 -16.798813 19.500000
v -0.523516 -16.991938 19.500000
v 1.568562 -16.927481 19.500000
v 3.636863 -16.606421 19.500000
v 5.650032 -16.033625 19.500000
v 7.577552 -15.217776 19.500000
v 9.390204 -14.171241 19.500000
v 11.060511 -12.909883 19.500000
v 12.563151 -11.452826 19.500000
v 13.875347 -9.822155 19.500000
v 14.977207 -8.042590 19.500000
v 15.852028 -6.141109 19.500000
v 16.486547 -4.146533 19.500000
v 16.871149 -2.089101 19.500000
v -1.282030 -1.135780 0.000000
v -0.972967 -1.409586 0.000000
v -1.516587 -0.795966 0.000000
v -0.607358 -1.601472 0.000000
v -1.663005 -0.409894 0.000000
v -0.206452 -1.700287 0.000000
v -1.712775 0.000000 0.000000
v 0.206452 -1.700287 0.000000
v -1.663005 0.409894 0.000000
v 0.607358 -1.601472 0.000000
v -1.516587 0.795966 0.000000
v 0.972967 -1.409586 0.000000
v -1.282030 1.135780 0.000000
v 1.282030 -1.135780 0.000000
v -0.607358 1.601472 0.000000
v -0.206452 1.700287 0.000000
v -0.972967 1.409586 0.000000
v 1.516587 -0.795966 0.000000
v 1.663005 -0.409894 0.000000
v 1.712775 0.000000 0.000000
v 0.972967 1.409586 0.000000
v 1.282030 1.135780 0.000000
v 0.607358 1.601472 0.000000
v 0.206452 1.700287 0.000000
v 1.663005 0.409894 0.000000
v 1.516587 0.795966 0.000000
v 17.000000 0.000000 10.000000
v 16.871149 2.089101 10.000000
v 16.486547 4.146533 10.000000
v 15.852028 6.141109 10.000000
v 14.977207 8.042590 10.000000
v 13.875347 9.822155 10.000000
v 12.563151 11.452826 10.000000
v 11.060511 12.909883 10.000000
v 9.390204 14.171241 10.000000
v 7.577552 15.217776 10.000000
v 5.650032 16.033625 10.000000
v 3.636863 16.606421 10.000000
v 1.568562 16.927481 10.000000
v -0.523516 16.991938 10.000000
v -2.607658 16.798813 10.000000
v -4.652271 16.351036 10.000000
v -6.626360 15.655394 10.000000
v -8.500000 14.722432 10.000000
v -10.244789 13.566293 10.000000
v -11.834277 12.204503 10.000000
v -13.244370 10.657704 10.000000
v -14.453691 8.949347 10.000000
v -15.443910 7.105326 10.000000
v -16.200014 5.153595 10.000000
v -16.710543 3.123742 10.000000
v -16.967756 1.046535 10.000000
v -16.967756 -1.046535 10.000000
v -16.710543 -3.123742 10.000000
v -16.200014 -5.153595 10.000000
v -15.443910 -7.105326 10.000000
v -14.453691 -8.949347 10.000000
v -13.244370 -10.657704 10.000000
v -11.834277 -12.204503 10.000000
v -10.244789 -13.566293 10.000000
v -8.500000 -14.722432 10.000000
v -6.626360 -15.655394 10.000000
v -4.652271 -16.351036 10.000000
v -2.607658 -16.798813 10.000000
v -0.523516 -16.991938 10.000000
v 1.568562 -16.927481 10.000000
v 3.636863 -16.606421 10.000000
v 5.650032 -16.033625 10.000000
v 7.577552 -15.217776 10.000000
v 9.390204 -14.171241 10.000000
v 11.060511 -12.909883 10.000000
v 12.563151 -11.452826 10.000000
v 13.875347 -9.822155 10.000000
v 14.977207 -8.042590 10.000000
v 15.852028 -6.141109 10.000000
v 16.486547 -4.146533 10.000000
v 16.871149 -2.089101 10.000000
v 1.712775 0.000000 10.000000
v 1.663005 0.409894 10.000000
v 1.516587 0.795966 10.000000
v 1.282030 1.135780 10.000000
v 0.972967 1.409586 10.000000
v 0.607358 1.601472 10.000000
v 0.206452 1.700287 10.000000
v -0.206452 1.700287 10.000000
v -0.607358 1.601472 10.000000
v -0.972967 1.409586 10.000000
v -1.282030 1.135780 10.000000
v -1.516587 0.795966 10.000000
v -1.663005 0.409894 10.000000
v -1.712775 0.000000 10.000000
v -1.663005 -0.409894 10.000000
v -1.516587 -0.795966 10.000000
v -1.282030 -1.135780 10.000000
v -0.972967 -1.409586 10.000000
v -0.607358 -1.601472 10.000000
v -0.206452 -1.700287 10.000000
v 0.206452 -1.700287 10.000000
v 0.607358 -1.601472 10.000000
v 0.972967 -1.409586 10.000000
v 1.282030 -1.135780 10.000000
v 1.516587 -0.795966 10.000000
v 1.663005 -0.409894 10.000000
vn 0.000000 0.000000 1.000000
vn 0.000000 0.000000 1.000000
vn 0.000000 0.000000 1.000000
vn 0.000000 0.000000 1.000000
vn 0.000000 0.000000 1.000000
vn 0.000000 0.000000 1.000000
vn 0.000000 0.000000 1.000000
vn 0.000000 0.000000 1.000000
vn 0.000000 0.000000 1.000000
vn 0.000000 0.000000 1.000000
vn 0.000000 0.000000 1.000000
vn 0.000000 0.000000 1.000000
vn 0.000000 0.000000 1.000000
vn 0.000000 0.000000 1.000000
vn 0.000000 0.000000 1.000000
vn 0.000000 0.000000 1.000000
vn 0.000000 0.000000 1.000000
vn 0.000000 0.000000 1.000000
vn 0.000000 0.000000 1.000000
vn 0.000000 0.000000 1.000000
vn 0.000000 0.000000 1.000000
vn 0.000000 0.000000 1.000000
vn 0.000000 0.000000 1.000000
vn 0.000000 0.000000 1.000000
vn 0.000000 0.000000 1.000000
vn 0.000000 0.000000 1.000000
vn 0.000000 0.000000 1.000000
vn 0.000000 0.000000 1.000000
vn 0.000000 0.000000 1.000000
vn 0.000000 0.000000 1.000000
vn 0.000000 0.000000 1.000000
vn 0.000000 0.000000 1.000000
vn 0.000000 0.000000 1.000000
vn 0.000000 0.000000 1.000000
vn 0.000000 0.000000 1.000000
vn 0.000000 0.000000 1.000000
vn 0.000000 0.000000 1.000000
vn 0.000000 0.000000 1.000000
vn 0.000000 0.000000 1.000000
vn 0.000000 0.000000 1.000000
vn 0.000000 0.000000 1.000000
vn 0.000000 0.000000 1.000000
vn 0.000000 0.000000 1.000000
vn 0.000000 0.000000 1.000000
vn 0.000000 0.000000 1.000000
vn 0.000000 0.000000 1.000000
vn 0.000000 0.000000 1.000000
vn 0.000000 0.000000 1.000000
vn 0.000000 0.000000 1.000000
vn 0.000000 0.000000 1.000000
vn 0.000000 0.000000 1.000000
vn 0.000000 0.000000 1.000000
vn 0.000000 0.000000 1.000000
vn 0.000000 0.000000 1.000000
vn 0.000000 0.000000 1.000000
vn 0.000000 0.000000 1.000000
vn 0.000000 0.000000 1.000000
vn 0.000000 0.000000 1.000000
vn 0.000000 0.000000 1.000000
vn 0.000000 0.000000 1.000000
vn 0.000000 0.000000 1.000000
vn 0.000000 0.000000 1.000000
vn 0.000000 0.000000 1.000000
vn 0.000000 0.000000 1.000000
vn 0.000000 0.000000 1.000000
vn 0.000000 0.000000 1.000000
vn 0.000000 0.000000 1.000000
vn 0.000000 0.000000 1.000000
vn 0.000000 0.000000 1.000000
vn 0.000000 0.000000 1.000000
vn 0.000000 0.000000 1.000000
vn 0.000000 0.000000 1.000000
vn 0.000000 0.000000 1.000000
vn 0.000000 0.000000 1.000000
vn 0.000000 0.000000 1.000000
vn 0.000000 0.000000 1.000000
vn 0.000000 -0.000000 1.000000
vn 0.000000 0.000000 1.000000
vn 0.000000 0.000000 1.000000
vn 0.000000 0.000000 1.000000
vn 0.000000 0.000000 1.000000
vn 0.000000 0.000000 1.000000
vn 0.000000 0.000000 1.000000
vn 1.000000 0.000000 0.000000
vn 1.000000 -0.000000 0.000000
vn 0.993712 -0.111965 0.000000
vn 0.943883 -0.330280 0.000000
vn 0.993712 -0.111965 0.000000
vn 0.943883 -0.330280 0.000000
vn 0.846725 -0.532031 0.000000
vn 0.707107 -0.707107 0.000000
vn 0.846725 -0.532031 0.000000
vn 0.707107 -0.707107 0.000000
vn 0.532031 -0.846725 0.000000
vn 0.532031 -0.846725 0.000000
vn 0.330280 -0.943883 0.000000
vn 0.330280 -0.943883 0.000000
vn 0.111965 -0.993712 0.000000
vn 0.111965 -0.993712 0.000000
vn 0.993712 0.111965 0.000000
vn 0.943883 0.330280 0.000000
vn 0.993712 0.111965 0.000000
vn 0.943883 0.330280 0.000000
vn 0.846725 0.532031 0.000000
vn 0.707107 0.707107 0.000000
vn 0.846725 0.532031 0.000000
vn 0.707107 0.707107 0.000000
vn 0.532031 0.846725 0.000000
vn 0.532031 0.846725 0.000000
vn 0.330280 0.943883 0.000000
vn 0.330280 0.943883 0.000000
vn 0.111965 0.993712 0.000000
vn 0.111965 0.993712 0.000000
vn 0.000000 -1.000000 0.000000
vn 0.000000 -1.000000 0.000000
vn 0.000000 1.000000 -0.000000
vn 0.000000 1.000000 0.000000
vn -0.111965 -0.993712 0.000000
vn -0.330280 -0.943883 0.000000
vn -0.111965 -0.993712 0.000000
vn -0.330280 -0.943883 0.000000
vn -0.532031 -0.846725 0.000000
vn -0.707107 -0.707107 0.000000
vn -0.532031 -0.846725 -0.000000
vn -0.707107 -0.707107 0.000000
vn -0.846725 -0.532031 0.000000
vn -0.846725 -0.532031 -0.000000
vn -0.943883 -0.330280 0.000000
vn -0.943883 -0.330280 -0.000000
vn -0.993712 -0.111965 0.000000
vn -0.993712 -0.111965 -0.000000
vn -0.111965 0.993712 0.000000
vn -0.330280 0.943883 0.000000
vn -0.111965 0.993712 0.000000
vn -0.330280 0.943883 0.000000
vn -0.532031 0.846725 0.000000
vn -0.707107 0.707107 0.000000
vn -0.532031 0.846725 0.000000
vn -0.707107 0.707107 0.000000
vn -0.846725 0.532031 0.000000
vn -0.846725 0.532031 0.000000
vn -0.943883 0.330280 0.000000
vn -0.943883 0.330280 0.000000
vn -0.993712 0.111965 0.000000
vn -0.993712 0.111965 0.000000
vn -1.000000 0.000000 0.000000
vn -1.000000 -0.000000 0.000000
vn -0.706435 -0.043571 0.706435
vn -0.706435 -0.043571 0.706435
vn -0.695726 -0.130054 0.706436
vn -0.695727 -0.130054 0.706435
vn -0.674471 -0.214565 0.706435
vn -0.674470 -0.214564 0.706436
vn -0.642991 -0.295823 0.706435
vn -0.642991 -0.295823 0.706435
vn -0.601765 -0.372597 0.706435
vn -0.601764 -0.372597 0.706436
vn -0.551415 -0.443722 0.706436
vn -0.551416 -0.443722 0.706436
vn -0.492708 -0.508122 0.706436
vn -0.492708 -0.508122 0.706436
vn -0.426531 -0.564819 0.706435
vn -0.426531 -0.564818 0.706436
vn -0.353889 -0.612953 0.706435
vn -0.353889 -0.612954 0.706435
vn -0.275882 -0.651796 0.706435
vn -0.275881 -0.651796 0.706436
vn -0.193692 -0.680759 0.706435
vn -0.193692 -0.680758 0.706436
vn -0.108567 -0.699401 0.706436
vn -0.108567 -0.699401 0.706435
vn -0.021796 -0.707443 0.706434
vn -0.021796 -0.707442 0.706436
vn 0.065305 -0.704758 0.706436
vn 0.065306 -0.704759 0.706434
vn 0.151417 -0.691391 0.706436
vn 0.151417 -0.691391 0.706436
vn 0.235233 -0.667543 0.706435
vn 0.235233 -0.667543 0.706436
vn 0.315484 -0.633577 0.706435
vn 0.315483 -0.633577 0.706435
vn 0.390951 -0.590005 0.706435
vn 0.390952 -0.590005 0.706435
vn 0.460493 -0.537490 0.706435
vn 0.460493 -0.537490 0.706435
vn 0.523054 -0.476826 0.706436
vn 0.523054 -0.476827 0.706435
vn 0.577686 -0.408935 0.706435
vn 0.577686 -0.408935 0.706436
vn 0.623561 -0.334845 0.706435
vn 0.623561 -0.334845 0.706435
vn 0.659983 -0.255679 0.706435
vn 0.659983 -0.255679 0.706435
vn 0.686401 -0.172637 0.706435
vn 0.686400 -0.172637 0.706436
vn 0.702412 -0.086977 0.706436
vn 0.702413 -0.086977 0.706436
vn 0.707777 -0.000000 0.706436
vn 0.707777 0.000000 0.706436
vn 0.702413 0.086977 0.706436
vn 0.702412 0.086977 0.706436
vn 0.686400 0.172637 0.706436
vn 0.686401 0.172637 0.706435
vn 0.659983 0.255679 0.706435
vn 0.659983 0.255679 0.706435
vn 0.623561 0.334845 0.706435
vn 0.623561 0.334845 0.706435
vn 0.577686 0.408936 0.706435
vn 0.577686 0.408935 0.706436
vn 0.523054 0.476827 0.706435
vn 0.523054 0.476826 0.706436
vn 0.460493 0.537490 0.706435
vn 0.460493 0.537490 0.706435
vn 0.390952 0.590006 0.706435
vn 0.390952 0.590005 0.706435
vn 0.315484 0.633576 0.706435
vn 0.315484 0.633577 0.706435
vn 0.235233 0.667543 0.706436
vn 0.235233 0.667543 0.706435
vn 0.151417 0.691391 0.706436
vn 0.151417 0.691391 0.706436
vn 0.065305 0.704759 0.706434
vn 0.065306 0.704758 0.706436
vn -0.021796 0.707442 0.706436
vn -0.021796 0.707443 0.706434
vn -0.108567 0.699401 0.706435
vn -0.108567 0.699401 0.706436
vn -0.193692 0.680758 0.706436
vn -0.193693 0.680759 0.706435
vn -0.275882 0.651796 0.706435
vn -0.275881 0.651796 0.706436
vn -0.353889 0.612954 0.706435
vn -0.353889 0.612953 0.706435
vn -0.426531 0.564819 0.706436
vn -0.426532 0.564819 0.706435
vn -0.492708 0.508122 0.706436
vn -0.492708 0.508122 0.706436
vn -0.551415 0.443722 0.706436
vn -0.551415 0.443722 0.706436
vn -0.601765 0.372597 0.706435
vn -0.601764 0.372597 0.706436
vn -0.642991 0.295823 0.706435
vn -0.642991 0.295823 0.706435
vn -0.674471 0.214565 0.706435
vn -0.674470 0.214565 0.706436
vn -0.695727 0.130054 0.706435
vn -0.695726 0.130054 0.706436
vn -0.706435 0.043571 0.706435
vn -0.706435 0.043571 0.706435
vn 0.000000 0.000000 -1.000000
vn 0.000000 0.000000 -1.000000
vn 0.000000 0.000000 -1.000000
vn 0.000000 0.000000 -1.000000
vn 0.000000 0.000000 -1.000000
vn 0.000000 0.000000 -1.000000
vn 0.000000 0.000000 -1.000000
vn 0.000000 -0.000000 -1.000000
vn 0.000000 0.000000 -1.000000
vn 0.000000 -0.000000 -1.000000
vn 0.000000 0.000000 -1.000000
vn 0.000000 -0.000000 -1.000000
vn 0.000000 0.000000 -1.000000
vn 0.000000 0.000000 -1.000000
vn 0.000000 0.000000 -1.000000
vn 0.000000 -0.000000 -1.000000
vn 0.000000 0.000000 -1.000000
vn 0.000000 0.000000 -1.000000
vn 0.000000 -0.000000 -1.000000
vn 0.000000 0.000000 -1.000000
vn 0.000000 0.000000 -1.000000
vn 0.000000 0.000000 -1.000000
vn 0.000000 0.000000 -1.000000
vn 0.000000 0.000000 -1.000000
vn 0.000000 -0.000000 -1.000000
vn 0.000000 0.000000 -1.000000
vn 0.000000 0.000000 -1.000000
vn 0.000000 0.000000 -1.000000
vn 0.000000 -0.000000 -1.000000
vn 0.000000 -0.000000 -1.000000
vn 0.000000 -0.000000 -1.000000
vn 0.000000 0.000000 -1.000000
vn 0.000000 0.000000 -1.000000
vn 0.000000 0.000000 -1.000000
vn 0.000000 -0.000000 -1.000000
vn 0.000000 0.000000 -1.000000
vn 0.000000 0.000000 -1.000000
vn 0.000000 0.000000 -1.000000
vn 0.000000 -0.000000 -1.000000
vn 0.000000 -0.000000 -1.000000
vn 0.000000 -0.000000 -1.000000
vn 0.000000 0.000000 -1.000000
vn 0.000000 0.000000 -1.000000
vn 0.000000 0.000000 -1.000000
vn 0.000000 0.000000 -1.000000
vn 0.000000 0.000000 -1.000000
vn 0.000000 0.000000 -1.000000
vn 0.000000 0.000000 -1.000000
vn 0.000000 0.000000 -1.000000
vn 0.000000 0.000000 -1.000000
vn 0.000000 0.000000 -1.000000
vn 0.000000 -0.000000 -1.000000
vn -0.000000 -0.000000 -1.000000
vn 0.000000 0.000000 -1.000000
vn 0.000000 0.000000 -1.000000
vn 0.000000 0.000000 -1.000000
vn -0.000000 -0.000000 -1.000000
vn 0.000000 0.000000 -1.000000
vn -0.998103 -0.061561 0.000000
vn -0.982973 -0.183750 0.000000
vn -0.998103 -0.061561 0.000000
vn -0.982973 -0.183750 0.000000
vn -0.952942 -0.303152 0.000000
vn -0.908465 -0.417960 0.000000
vn -0.952942 -0.303152 -0.000000
vn -0.908465 -0.417960 0.000000
vn -0.850217 -0.526432 0.000000
vn -0.779081 -0.626924 0.000000
vn -0.850217 -0.526432 -0.000000
vn -0.779081 -0.626924 0.000000
vn -0.696134 -0.717912 0.000000
vn -0.696134 -0.717912 -0.000000
vn -0.602635 -0.798017 0.000000
vn -0.602635 -0.798017 -0.000000
vn -0.500000 -0.866025 0.000000
vn -0.500000 -0.866025 -0.000000
vn -0.389785 -0.920906 0.000000
vn -0.273663 -0.961826 0.000000
vn -0.389785 -0.920906 -0.000000
vn -0.273663 -0.961826 0.000000
vn -0.153392 -0.988165 0.000000
vn -0.153392 -0.988165 -0.000000
vn -0.030795 -0.999526 0.000000
vn -0.030795 -0.999526 -0.000000
vn 0.092269 -0.995734 0.000000
vn 0.092269 -0.995734 0.000000
vn 0.213933 -0.976848 0.000000
vn 0.332355 -0.943154 0.000000
vn 0.213933 -0.976848 0.000000
vn 0.445738 -0.895163 0.000000
vn 0.332355 -0.943154 0.000000
vn 0.552365 -0.833602 0.000000
vn 0.445738 -0.895163 0.000000
vn 0.552365 -0.833602 0.000000
vn 0.650618 -0.759405 0.000000
vn 0.739009 -0.673695 0.000000
vn 0.650618 -0.759405 0.000000
vn 0.816197 -0.577774 0.000000
vn 0.739009 -0.673695 0.000000
vn 0.816197 -0.577774 0.000000
vn 0.881012 -0.473093 0.000000
vn 0.932472 -0.361242 0.000000
vn 0.881012 -0.473093 0.000000
vn 0.932472 -0.361242 0.000000
vn 0.969797 -0.243914 0.000000
vn 0.969797 -0.243914 0.000000
vn 0.992421 -0.122888 0.000000
vn 0.992421 -0.122888 0.000000
vn 1.000000 0.000000 -0.000000
vn 1.000000 0.000000 0.000000
vn 0.992421 0.122888 0.000000
vn 0.992421 0.122888 0.000000
vn 0.969797 0.243914 0.000000
vn 0.969797 0.243914 0.000000
vn 0.932472 0.361242 0.000000
vn 0.932472 0.361242 0.000000
vn 0.881012 0.473093 0.000000
vn 0.881012 0.473093 0.000000
vn 0.816197 0.577774 0.000000
vn 0.816197 0.577774 0.000000
vn 0.739009 0.673695 0.000000
vn 0.739009 0.673695 0.000000
vn 0.650618 0.759405 0.000000
vn 0.650618 0.759405 0.000000
vn 0.552365 0.833602 0.000000
vn 0.445738 0.895163 -0.000000
vn 0.552365 0.833602 0.000000
vn 0.445738 0.895163 0.000000
vn 0.332355 0.943154 0.000000
vn 0.332355 0.943154 0.000000
vn 0.213933 0.976848 0.000000
vn 0.213933 0.976848 0.000000
vn 0.092269 0.995734 0.000000
vn 0.092269 0.995734 0.000000
vn -0.030795 0.999526 0.000000
vn -0.030795 0.999526 0.000000
vn -0.153392 0.988165 0.000000
vn -0.153392 0.988165 0.000000
vn -0.273663 0.961826 0.000000
vn -0.273663 0.961826 0.000000
vn -0.389785 0.920906 0.000000
vn -0.389785 0.920906 0.000000
vn -0.500000 0.866025 0.000000
vn -0.500000 0.866025 0.000000
vn -0.602635 0.798017 0.000000
vn -0.602635 0.798017 0.000000
vn -0.696134 0.717912 0.000000
vn -0.779081 0.626924 0.000000
vn -0.696134 0.717912 0.000000
vn -0.779081 0.626924 0.000000
vn -0.850217 0.526432 0.000000
vn -0.908465 0.417960 0.000000
vn -0.850217 0.526432 0.000000
vn -0.908465 0.417960 0.000000
vn -0.952942 0.303152 0.000000
vn -0.952942 0.303152 0.000000
vn -0.982973 0.183750 0.000000
vn -0.982973 0.183750 0.000000
vn -0.998103 0.061561 0.000000
vn -0.998103 0.061561 0.000000
vn -0.992709 -0.120537 0.000000
vn -0.935016 -0.354605 0.000000
vn -0.992709 -0.120537 0.000000
vn -0.935016 -0.354605 0.000000
vn -0.822984 -0.568065 0.000000
vn -0.663123 -0.748511 0.000000
vn -0.822984 -0.568065 -0.000000
vn -0.663123 -0.748511 0.000000
vn -0.464723 -0.885456 0.000000
vn -0.464723 -0.885456 -0.000000
vn -0.239316 -0.970942 0.000000
vn -0.239316 -0.970942 -0.000000
vn 0.000000 -1.000000 0.000000
vn 0.239316 -0.970942 0.000000
vn -0.000000 -1.000000 -0.000000
vn 0.239316 -0.970942 0.000000
vn 0.464723 -0.885456 0.000000
vn 0.464723 -0.885456 0.000000
vn 0.663123 -0.748511 0.000000
vn 0.663123 -0.748511 0.000000
vn 0.822984 -0.568065 0.000000
vn 0.935016 -0.354605 0.000000
vn 0.822984 -0.568065 0.000000
vn 0.935016 -0.354605 0.000000
vn 0.992709 -0.120537 0.000000
vn 0.992709 -0.120537 0.000000
vn 0.992709 0.120537 0.000000
vn 0.992709 0.120537 0.000000
vn 0.935016 0.354605 0.000000
vn 0.935016 0.354605 0.000000
vn 0.822984 0.568065 0.000000
vn 0.822984 0.568065 0.000000
vn 0.663123 0.748511 0.000000
vn 0.663123 0.748511 0.000000
vn 0.464723 0.885456 -0.000000
vn 0.464723 0.885456 0.000000
vn 0.239316 0.970942 0.000000
vn 0.239316 0.970942 0.000000
vn -0.000000 1.000000 0.000000
vn 0.000000 1.000000 0.000000
vn -0.239316 0.970942 0.000000
vn -0.239316 0.970942 0.000000
vn -0.464723 0.885456 0.000000
vn -0.464723 0.885456 0.000000
vn -0.663123 0.748511 0.000000
vn -0.663123 0.748511 0.000000
vn -0.822984 0.568065 0.000000
vn -0.935016 0.354605 0.000000
vn -0.822984 0.568065 0.000000
vn -0.935016 0.354605 0.000000
vn -0.992709 0.120537 0.000000
vn -0.992709 0.120537 0.000000
vn 0.000000 0.000000 1.000000
vn 0.000000 0.000000 1.000000
vn 0.000000 0.000000 1.000000
vn 0.000000 0.000000 1.000000
vn 0.000000 0.000000 1.000000
vn 0.000000 0.000000 1.000000
vn 0.000000 0.000000 1.000000
vn 0.000000 0.000000 1.000000
vn 0.000000 0.000000 1.000000
vn 0.000000 0.000000 1.000000
vn 0.000000 0.000000 1.000000
vn 0.000000 0.000000 1.000000
vn 0.000000 0.000000 1.000000
vn 0.000000 0.000000 1.000000
vn 0.000000 0.000000 1.000000
vn 0.000000 0.000000 1.000000
vn 0.000000 0.000000 1.000000
vn 0.000000 0.000000 1.000000
vn 0.000000 0.000000 1.000000
vn 0.000000 0.000000 1.000000
vn 0.000000 0.000000 1.000000
vn 0.000000 0.000000 1.000000
vn 0.000000 0.000000 1.000000
vn 0.000000 0.000000 1.000000
vn 0.000000 0.000000 1.000000
vn 0.000000 0.000000 1.000000
vn 0.000000 0.000000 1.000000
vn 0.000000 0.000000 1.000000
vn 0.000000 0.000000 1.000000
vn 0.000000 0.000000 1.000000
vn 0.000000 0.000000 1.000000
vn 0.000000 0.000000 1.000000
vn 0.000000 0.000000 1.000000
vn 0.000000 0.000000 1.000000
vn 0.000000 0.000000 1.000000
vn 0.000000 0.000000 1.000000
vn 0.000000 0.000000 1.000000
vn 0.000000 0.000000 1.000000
vn 0.000000 0.000000 1.000000
vn 0.000000 0.000000 1.000000
vn 0.000000 0.000000 1.000000
vn 0.000000 0.000000 1.000000
vn 0.000000 0.000000 1.000000
vn 0.000000 0.000000 1.000000
vn 0.000000 0.000000 1.000000
vn 0.000000 0.000000 1.000000
vn 0.000000 0.000000 1.000000
vn 0.000000 0.000000 1.000000
vn 0.000000 0.000000 1.000000
vn 0.000000 0.000000 1.000000
vn 0.000000 0.000000 1.000000
vn 0.000000 0.000000 1.000000
vn 0.000000 0.000000 1.000000
vn 0.000000 0.000000 1.000000
vn 0.000000 0.000000 1.000000
vn 0.000000 0.000000 1.000000
vn 0.000000 0.000000 1.000000
vn 0.000000 0.000000 1.000000
vn 0.000000 0.000000 1.000000
vn 0.000000 0.000000 1.000000
vn 0.000000 0.000000 1.000000
vn 0.000000 0.000000 1.000000
vn 0.000000 0.000000 1.000000
vn 0.000000 0.000000 1.000000
vn 0.000000 0.000000 1.000000
vn 0.000000 0.000000 1.000000
vn 0.000000 0.000000 1.000000
vn 0.000000 0.000000 1.000000
vn 0.000000 0.000000 1.000000
vn 0.000000 0.000000 1.000000
vn 0.000000 0.000000 1.000000
vn 0.000000 0.000000 1.000000
vn 0.000000 0.000000 1.000000
vn 0.000000 0.000000 1.000000
vn 0.000000 0.000000 1.000000
vn 0.000000 0.000000 1.000000
vn 0.000000 0.000000 1.000000
f 1//1 2//1 3//1
f 1//2 4//2 2//2
f 5//3 3//3 6//3
f 7//4 8//4 1//4
f 7//5 1//5 3//5
f 7//6 3//6 5//6
f 9//7 7//7 5//7
f 10//8 7//8 9//8
f 11//9 9//9 5//9
f 12//10 7//10 10//10
f 13//11 11//11 5//11
f 14//12 7//12 12//12
f 15//13 13//13 5//13
f 16//14 7//14 14//14
f 17//15 15//15 5//15
f 18//16 7//16 16//16
f 19//17 17//17 5//17
f 20//18 7//18 18//18
f 21//19 19//19 5//19
f 22//20 23//20 24//20
f 22//21 25//21 23//21
f 22//22 26//22 25//22
f 22//23 27//23 26//23
f 22//24 28//24 27//24
f 29//25 21//25 5//25
f 29//26 30//26 21//26
f 29//27 31//27 30//27
f 29//28 32//28 31//28
f 29//29 33//29 32//29
f 29//30 34//30 33//30
f 35//31 34//31 29//31
f 36//32 37//32 22//32
f 38//33 29//33 39//33
f 40//34 41//34 36//34
f 42//35 22//35 24//35
f 43//36 44//36 45//36
f 43//37 38//37 44//37
f 46//38 35//38 29//38
f 47//39 48//39 49//39
f 47//40 49//40 40//40
f 47//41 22//41 42//41
f 47//42 36//42 22//42
f 47//43 40//43 36//43
f 50//44 46//44 29//44
f 50//45 43//45 51//45
f 50//46 29//46 38//46
f 50//47 38//47 43//47
f 52//48 47//48 42//48
f 53//49 46//49 50//49
f 54//50 47//50 52//50
f 55//51 53//51 50//51
f 56//52 47//52 54//52
f 57//53 55//53 50//53
f 58//54 47//54 56//54
f 59//55 57//55 50//55
f 60//56 47//56 58//56
f 61//57 59//57 50//57
f 62//58 61//58 50//58
f 63//59 64//59 65//59
f 63//60 66//60 64//60
f 63//61 67//61 66//61
f 63//62 68//62 67//62
f 63//63 69//63 68//63
f 70//64 63//64 65//64
f 70//65 71//65 62//65
f 70//66 72//66 71//66
f 70//67 73//67 72//67
f 70//68 74//68 73//68
f 70//69 75//69 74//69
f 70//70 65//70 75//70
f 76//71 77//71 63//71
f 78//72 70//72 79//72
f 78//73 79//73 80//73
f 81//74 76//74 63//74
f 81//75 63//75 70//75
f 81//76 70//76 78//76
f 50//77 70//77 62//77
f 63//78 47//78 82//78
f 82//79 47//79 60//79
f 63//80 82//80 83//80
f 63//81 83//81 69//81
f 22//82 7//82 28//82
f 28//83 7//83 20//83
f 84//84 85//84 50//84
f 50//85 85//85 70//85
f 84//86 50//86 86//86
f 86//87 51//87 87//87
f 50//88 51//88 86//88
f 51//89 43//89 87//89
f 87//90 45//90 88//90
f 88//91 45//91 89//91
f 43//92 45//92 87//92
f 45//93 44//93 89//93
f 89//94 38//94 90//94
f 44//95 38//95 89//95
f 90//96 39//96 91//96
f 38//97 39//97 90//97
f 91//98 29//98 92//98
f 39//99 29//99 91//99
f 70//100 85//100 93//100
f 79//101 93//101 94//101
f 79//102 70//102 93//102
f 80//103 79//103 94//103
f 78//104 94//104 95//104
f 78//105 95//105 96//105
f 78//106 80//106 94//106
f 81//107 78//107 96//107
f 76//108 96//108 97//108
f 76//109 81//109 96//109
f 77//110 97//110 98//110
f 77//111 76//111 97//111
f 63//112 98//112 99//112
f 63//113 77//113 98//113
f 100//114 92//114 5//114
f 5//115 92//115 29//115
f 99//116 101//116 63//116
f 63//117 101//117 47//117
f 100//118 5//118 102//118
f 102//119 6//119 103//119
f 5//120 6//120 102//120
f 6//121 3//121 103//121
f 103//122 2//122 104//122
f 104//123 2//123 105//123
f 3//124 2//124 103//124
f 2//125 4//125 105//125
f 105//126 1//126 106//126
f 4//127 1//127 105//127
f 106//128 8//128 107//128
f 1//129 8//129 106//129
f 107//130 7//130 108//130
f 8//131 7//131 107//131
f 47//132 101//132 109//132
f 48//133 109//133 110//133
f 48//134 47//134 109//134
f 49//135 48//135 110//135
f 40//136 110//136 111//136
f 40//137 111//137 112//137
f 40//138 49//138 110//138
f 41//139 40//139 112//139
f 36//140 112//140 113//140
f 36//141 41//141 112//141
f 37//142 113//142 114//142
f 37//143 36//143 113//143
f 22//144 114//144 115//144
f 22//145 37//145 114//145
f 115//146 108//146 22//146
f 22//147 108//147 7//147
f 116//148 117//148 62//148
f 116//149 62//149 71//149
f 118//150 71//150 72//150
f 118//151 116//151 71//151
f 119//152 72//152 73//152
f 119//153 118//153 72//153
f 120//154 73//154 74//154
f 120//155 119//155 73//155
f 75//156 120//156 74//156
f 121//157 120//157 75//157
f 122//158 75//158 65//158
f 122//159 121//159 75//159
f 123//160 65//160 64//160
f 123//161 122//161 65//161
f 124//162 64//162 66//162
f 124//163 123//163 64//163
f 125//164 66//164 67//164
f 125//165 124//165 66//165
f 68//166 125//166 67//166
f 126//167 125//167 68//167
f 127//168 68//168 69//168
f 127//169 126//169 68//169
f 128//170 69//170 83//170
f 128//171 127//171 69//171
f 129//172 83//172 82//172
f 129//173 128//173 83//173
f 130//174 82//174 60//174
f 130//175 129//175 82//175
f 131//176 60//176 58//176
f 131//177 130//177 60//177
f 132//178 58//178 56//178
f 132//179 131//179 58//179
f 133//180 56//180 54//180
f 133//181 132//181 56//181
f 134//182 54//182 52//182
f 134//183 133//183 54//183
f 135//184 52//184 42//184
f 135//185 134//185 52//185
f 136//186 42//186 24//186
f 136//187 135//187 42//187
f 137//188 24//188 23//188
f 137//189 136//189 24//189
f 25//190 137//190 23//190
f 138//191 137//191 25//191
f 139//192 25//192 26//192
f 139//193 138//193 25//193
f 140//194 139//194 26//194
f 140//195 26//195 27//195
f 141//196 140//196 27//196
f 141//197 27//197 28//197
f 142//198 141//198 28//198
f 142//199 28//199 20//199
f 143//200 142//200 20//200
f 143//201 20//201 18//201
f 16//202 143//202 18//202
f 144//203 143//203 16//203
f 145//204 144//204 16//204
f 145//205 16//205 14//205
f 12//206 145//206 14//206
f 146//207 145//207 12//207
f 147//208 146//208 12//208
f 147//209 12//209 10//209
f 148//210 10//210 9//210
f 148//211 147//211 10//211
f 149//212 9//212 11//212
f 149//213 148//213 9//213
f 150//214 11//214 13//214
f 150//215 149//215 11//215
f 151//216 13//216 15//216
f 151//217 150//217 13//217
f 152//218 15//218 17//218
f 152//219 151//219 15//219
f 153//220 17//220 19//220
f 153//221 152//221 17//221
f 154//222 19//222 21//222
f 154//223 153//223 19//223
f 155//224 21//224 30//224
f 155//225 154//225 21//225
f 156//226 30//226 31//226
f 156//227 155//227 30//227
f 157//228 31//228 32//228
f 157//229 156//229 31//229
f 158//230 32//230 33//230
f 158//231 157//231 32//231
f 159//232 33//232 34//232
f 159//233 158//233 33//233
f 160//234 34//234 35//234
f 160//235 159//235 34//235
f 161//236 35//236 46//236
f 161//237 160//237 35//237
f 162//238 46//238 53//238
f 162//239 161//239 46//239
f 163//240 53//240 55//240
f 163//241 162//241 53//241
f 164//242 55//242 57//242
f 164//243 163//243 55//243
f 165//244 164//244 57//244
f 165//245 57//245 59//245
f 166//246 59//246 61//246
f 166//247 165//247 59//247
f 117//248 166//248 61//248
f 117//249 61//249 62//249
f 105//250 103//250 104//250
f 106//251 103//251 105//251
f 107//252 108//252 106//252
f 103//253 100//253 102//253
f 106//254 100//254 103//254
f 108//255 100//255 106//255
f 108//256 167//256 100//256
f 167//257 168//257 100//257
f 108//258 169//258 167//258
f 168//259 170//259 100//259
f 108//260 171//260 169//260
f 170//261 172//261 100//261
f 115//262 173//262 108//262
f 108//263 173//263 171//263
f 100//264 174//264 92//264
f 172//265 174//265 100//265
f 115//266 175//266 173//266
f 174//267 176//267 92//267
f 114//268 113//268 115//268
f 92//269 90//269 91//269
f 115//270 177//270 175//270
f 176//271 178//271 92//271
f 115//272 179//272 177//272
f 178//273 180//273 92//273
f 112//274 111//274 113//274
f 89//275 87//275 88//275
f 90//276 87//276 89//276
f 115//277 101//277 179//277
f 109//278 101//278 110//278
f 110//279 101//279 111//279
f 111//280 101//280 113//280
f 181//281 101//281 182//281
f 183//282 101//282 181//282
f 179//283 101//283 183//283
f 113//284 101//284 115//284
f 180//285 84//285 92//285
f 87//286 84//286 86//286
f 90//287 84//287 87//287
f 184//288 84//288 180//288
f 185//289 84//289 184//289
f 186//290 84//290 185//290
f 92//291 84//291 90//291
f 101//292 99//292 182//292
f 187//293 99//293 188//293
f 189//294 99//294 187//294
f 190//295 99//295 189//295
f 182//296 99//296 190//296
f 191//297 85//297 186//297
f 192//298 85//298 191//298
f 188//299 85//299 192//299
f 186//300 85//300 84//300
f 99//301 85//301 188//301
f 98//302 97//302 99//302
f 85//303 95//303 93//303
f 93//304 95//304 94//304
f 99//305 96//305 85//305
f 97//306 96//306 99//306
f 85//307 96//307 95//307
f 193//308 117//308 194//308
f 194//309 116//309 195//309
f 117//310 116//310 194//310
f 116//311 118//311 195//311
f 195//312 119//312 196//312
f 196//313 119//313 197//313
f 118//314 119//314 195//314
f 119//315 120//315 197//315
f 197//316 121//316 198//316
f 198//317 121//317 199//317
f 120//318 121//318 197//318
f 121//319 122//319 199//319
f 199//320 123//320 200//320
f 122//321 123//321 199//321
f 200//322 124//322 201//322
f 123//323 124//323 200//323
f 201//324 125//324 202//324
f 124//325 125//325 201//325
f 202//326 126//326 203//326
f 203//327 126//327 204//327
f 125//328 126//328 202//328
f 126//329 127//329 204//329
f 204//330 128//330 205//330
f 127//331 128//331 204//331
f 205//332 129//332 206//332
f 128//333 129//333 205//333
f 206//334 130//334 207//334
f 129//335 130//335 206//335
f 207//336 131//336 208//336
f 208//337 131//337 209//337
f 130//338 131//338 207//338
f 209//339 132//339 210//339
f 131//340 132//340 209//340
f 210//341 133//341 211//341
f 132//342 133//342 210//342
f 133//343 134//343 211//343
f 211//344 135//344 212//344
f 212//345 135//345 213//345
f 134//346 135//346 211//346
f 213//347 136//347 214//347
f 135//348 136//348 213//348
f 136//349 137//349 214//349
f 214//350 138//350 215//350
f 215//351 138//351 216//351
f 137//352 138//352 214//352
f 138//353 139//353 216//353
f 139//354 140//354 216//354
f 216//355 140//355 217//355
f 140//356 141//356 217//356
f 217//357 141//357 218//357
f 218//358 141//358 219//358
f 141//359 142//359 219//359
f 142//360 143//360 219//360
f 219//361 143//361 220//361
f 143//362 144//362 220//362
f 220//363 144//363 221//363
f 144//364 145//364 221//364
f 221//365 145//365 222//365
f 145//366 146//366 222//366
f 222//367 146//367 223//367
f 223//368 147//368 224//368
f 146//369 147//369 223//369
f 224//370 148//370 225//370
f 147//371 148//371 224//371
f 225//372 149//372 226//372
f 148//373 149//373 225//373
f 226//374 150//374 227//374
f 227//375 150//375 228//375
f 149//376 150//376 226//376
f 150//377 151//377 228//377
f 228//378 152//378 229//378
f 151//379 152//379 228//379
f 229//380 153//380 230//380
f 152//381 153//381 229//381
f 230//382 154//382 231//382
f 153//383 154//383 230//383
f 231//384 155//384 232//384
f 154//385 155//385 231//385
f 232//386 156//386 233//386
f 155//387 156//387 232//387
f 233//388 157//388 234//388
f 156//389 157//389 233//389
f 234//390 158//390 235//390
f 157//391 158//391 234//391
f 235//392 159//392 236//392
f 158//393 159//393 235//393
f 236//394 160//394 237//394
f 159//395 160//395 236//395
f 237//396 161//396 238//396
f 238//397 161//397 239//397
f 160//398 161//398 237//398
f 161//399 162//399 239//399
f 239//400 163//400 240//400
f 240//401 163//401 241//401
f 162//402 163//402 239//402
f 163//403 164//403 241//403
f 164//404 165//404 241//404
f 241//405 165//405 242//405
f 242//406 165//406 243//406
f 165//407 166//407 243//407
f 166//408 117//408 243//408
f 243//409 117//409 193//409
f 186//410 244//410 191//410
f 191//411 245//411 192//411
f 244//412 245//412 191//412
f 245//413 246//413 192//413
f 192//414 247//414 188//414
f 188//415 247//415 187//415
f 246//416 247//416 192//416
f 247//417 248//417 187//417
f 187//418 249//418 189//418
f 248//419 249//419 187//419
f 189//420 250//420 190//420
f 249//421 250//421 189//421
f 190//422 251//422 182//422
f 182//423 251//423 181//423
f 250//424 251//424 190//424
f 251//425 252//425 181//425
f 181//426 253//426 183//426
f 252//427 253//427 181//427
f 183//428 254//428 179//428
f 253//429 254//429 183//429
f 179//430 255//430 177//430
f 177//431 255//431 175//431
f 254//432 255//432 179//432
f 255//433 256//433 175//433
f 256//434 257//434 175//434
f 175//435 257//435 173//435
f 257//436 258//436 173//436
f 173//437 258//437 171//437
f 258//438 259//438 171//438
f 171//439 259//439 169//439
f 259//440 260//440 169//440
f 169//441 260//441 167//441
f 260//442 261//442 167//442
f 167//443 261//443 168//443
f 168//444 261//444 170//444
f 261//445 262//445 170//445
f 262//446 263//446 170//446
f 170//447 263//447 172//447
f 263//448 264//448 172//448
f 172//449 264//449 174//449
f 264//450 265//450 174//450
f 174//451 265//451 176//451
f 265//452 266//452 176//452
f 176//453 266//453 178//453
f 178//454 266//454 180//454
f 266//455 267//455 180//455
f 180//456 267//456 184//456
f 184//457 268//457 185//457
f 267//458 268//458 184//458
f 268//459 269//459 185//459
f 185//460 244//460 186//460
f 269//461 244//461 185//461
f 260//462 223//462 224//462
f 260//463 224//463 225//463
f 261//464 260//464 225//464
f 261//465 225//465 226//465
f 261//466 226//466 227//466
f 259//467 223//467 260//467
f 259//468 221//468 222//468
f 259//469 222//469 223//469
f 262//470 227//470 228//470
f 262//471 228//471 229//471
f 262//472 261//472 227//472
f 258//473 221//473 259//473
f 258//474 219//474 220//474
f 258//475 220//475 221//475
f 263//476 229//476 230//476
f 263//477 230//477 231//477
f 263//478 262//478 229//478
f 257//479 219//479 258//479
f 257//480 218//480 219//480
f 264//481 231//481 232//481
f 264//482 232//482 233//482
f 264//483 263//483 231//483
f 256//484 218//484 257//484
f 256//485 216//485 217//485
f 256//486 217//486 218//486
f 265//487 264//487 233//487
f 265//488 233//488 234//488
f 265//489 234//489 235//489
f 255//490 216//490 256//490
f 255//491 214//491 215//491
f 255//492 215//492 216//492
f 266//493 235//493 236//493
f 266//494 236//494 237//494
f 266//495 265//495 235//495
f 254//496 213//496 214//496
f 254//497 214//497 255//497
f 267//498 266//498 237//498
f 212//499 213//499 254//499
f 253//500 212//500 254//500
f 238//501 267//501 237//501
f 211//502 212//502 253//502
f 239//503 267//503 238//503
f 239//504 268//504 267//504
f 210//505 253//505 252//505
f 210//506 211//506 253//506
f 240//507 268//507 239//507
f 209//508 210//508 252//508
f 241//509 269//509 268//509
f 241//510 268//510 240//510
f 208//511 209//511 252//511
f 208//512 252//512 251//512
f 242//513 269//513 241//513
f 207//514 208//514 251//514
f 243//515 244//515 269//515
f 243//516 269//516 242//516
f 206//517 207//517 251//517
f 206//518 251//518 250//518
f 193//519 244//519 243//519
f 205//520 206//520 250//520
f 194//521 244//521 193//521
f 194//522 245//522 244//522
f 204//523 205//523 250//523
f 204//524 250//524 249//524
f 195//525 245//525 194//525
f 203//526 204//526 249//526
f 196//527 245//527 195//527
f 196//528 246//528 245//528
f 202//529 203//529 249//529
f 202//530 249//530 248//530
f 197//531 246//531 196//531
f 201//532 202//532 248//532
f 198//533 246//533 197//533
f 198//534 247//534 246//534
f 200//535 201//535 248//535
f 200//536 248//536 247//536
f 199//537 247//537 198//537
f 199//538 200//538 247//538
