# Created by FreeCAD <http://www.freecadweb.org>
v 10.000000 0.000000 0.000000
v 9.807853 1.950903 0.000000
v 10.000000 0.000000 110.000000
v 9.807853 1.950903 110.000000
v 9.238795 3.826834 0.000000
v 9.238795 3.826834 110.000000
v 8.314696 5.555702 0.000000
v 8.314696 5.555702 110.000000
v 7.071068 7.071068 0.000000
v 7.071068 7.071068 110.000000
v 5.555702 8.314696 110.000000
v 5.555702 8.314696 0.000000
v 3.826834 9.238795 0.000000
v 3.826834 9.238795 110.000000
v 1.950903 9.807853 110.000000
v 1.950903 9.807853 0.000000
v 0.000000 10.000000 0.000000
v 0.000000 10.000000 110.000000
v -1.950903 9.807853 110.000000
v -1.950903 9.807853 0.000000
v -3.826834 9.238795 0.000000
v -3.826834 9.238795 110.000000
v -5.555702 8.314696 0.000000
v -5.555702 8.314696 110.000000
v -7.071068 7.071068 0.000000
v -7.071068 7.071068 110.000000
v -8.314696 5.555702 0.000000
v -8.314696 5.555702 110.000000
v -9.238795 3.826834 0.000000
v -9.238795 3.826834 110.000000
v -9.807853 1.950903 0.000000
v -9.807853 1.950903 110.000000
v -10.000000 -0.000000 0.000000
v -10.000000 -0.000000 110.000000
v -9.807853 -1.950903 110.000000
v -9.807853 -1.950903 0.000000
v -9.238795 -3.826834 0.000000
v -9.238795 -3.826834 110.000000
v -8.314696 -5.555702 0.000000
v -8.314696 -5.555702 110.000000
v -7.071068 -7.071068 0.000000
v -7.071068 -7.071068 110.000000
v -5.555702 -8.314696 0.000000
v -5.555702 -8.314696 110.000000
v -3.826834 -9.238795 0.000000
v -3.826834 -9.238795 110.000000
v -1.950903 -9.807853 0.000000
v -1.950903 -9.807853 110.000000
v 0.000000 -10.000000 110.000000
v 0.000000 -10.000000 0.000000
v 1.950903 -9.807853 0.000000
v 1.950903 -9.807853 110.000000
v 3.826834 -9.238795 0.000000
v 3.826834 -9.238795 110.000000
v 5.555702 -8.314696 0.000000
v 5.555702 -8.314696 110.000000
v 7.071068 -7.071068 0.000000
v 7.071068 -7.071068 110.000000
v 8.314696 -5.555702 0.000000
v 8.314696 -5.555702 110.000000
v 9.238795 -3.826834 0.000000
v 9.238795 -3.826834 110.000000
v 9.807853 -1.950903 110.000000
v 9.807853 -1.950903 0.000000
v 10.000000 0.000000 0.000000
v 9.807853 1.950903 0.000000
v 10.000000 0.000000 110.000000
v 9.807853 1.950903 110.000000
v 9.238795 3.826834 0.000000
v 9.238795 3.826834 110.000000
v 8.314696 5.555702 0.000000
v 8.314696 5.555702 110.000000
v 7.071068 7.071068 0.000000
v 7.071068 7.071068 110.000000
v 5.555702 8.314696 110.000000
v 5.555702 8.314696 0.000000
v 3.826834 9.238795 0.000000
v 3.826834 9.238795 110.000000
v 1.950903 9.807853 110.000000
v 1.950903 9.807853 0.000000
v 0.000000 10.000000 0.000000
v 0.000000 10.000000 110.000000
v -1.950903 9.807853 110.000000
v -1.950903 9.807853 0.000000
v -3.826834 9.238795 0.000000
v -3.826834 9.238795 110.000000
v -5.555702 8.314696 0.000000
v -5.555702 8.314696 110.000000
v -7.071068 7.071068 0.000000
v -7.071068 7.071068 110.000000
v -8.314696 5.555702 0.000000
v -8.314696 5.555702 110.000000
v -9.238795 3.826834 0.000000
v -9.238795 3.826834 110.000000
v -9.807853 1.950903 0.000000
v -9.807853 1.950903 110.000000
v -10.000000 -0.000000 0.000000
v -10.000000 -0.000000 110.000000
v -9.807853 -1.950903 110.000000
v -9.807853 -1.950903 0.000000
v -9.238795 -3.826834 0.000000
v -9.238795 -3.826834 110.000000
v -8.314696 -5.555702 0.000000
v -8.314696 -5.555702 110.000000
v -7.071068 -7.071068 0.000000
v -7.071068 -7.071068 110.000000
v -5.555702 -8.314696 0.000000
v -5.555702 -8.314696 110.000000
v -3.826834 -9.238795 0.000000
v -3.826834 -9.238795 110.000000
v -1.950903 -9.807853 0.000000
v -1.950903 -9.807853 110.000000
v 0.000000 -10.000000 110.000000
v 0.000000 -10.000000 0.000000
v 1.950903 -9.807853 0.000000
v 1.950903 -9.807853 110.000000
v 3.826834 -9.238795 0.000000
v 3.826834 -9.238795 110.000000
v 5.555702 -8.314696 0.000000
v 5.555702 -8.314696 110.000000
v 7.071068 -7.071068 0.000000
v 7.071068 -7.071068 110.000000
v 8.314696 -5.555702 0.000000
v 8.314696 -5.555702 110.000000
v 9.238795 -3.826834 0.000000
v 9.238795 -3.826834 110.000000
v 9.807853 -1.950903 110.000000
v 9.807853 -1.950903 0.000000
vn 0.995185 0.098017 -0.000000
vn 0.995185 0.098017 0.000000
vn 0.956940 0.290285 0.000000
vn 0.956940 0.290285 -0.000000
vn 0.881921 0.471397 0.000000
vn 0.881921 0.471397 -0.000000
vn 0.773010 0.634393 0.000000
vn 0.634393 0.773010 0.000000
vn 0.773010 0.634393 -0.000000
vn 0.634393 0.773010 0.000000
vn 0.471397 0.881921 0.000000
vn 0.290285 0.956940 0.000000
vn 0.471397 0.881921 -0.000000
vn 0.290285 0.956940 0.000000
vn 0.098017 0.995185 -0.000000
vn 0.098017 0.995185 0.000000
vn -0.098017 0.995185 0.000000
vn -0.098017 0.995185 0.000000
vn -0.290285 0.956940 0.000000
vn -0.290285 0.956940 0.000000
vn -0.471397 0.881921 0.000000
vn -0.471397 0.881921 0.000000
vn -0.634393 0.773010 0.000000
vn -0.634393 0.773010 0.000000
vn -0.773010 0.634393 0.000000
vn -0.773010 0.634393 0.000000
vn -0.881921 0.471397 0.000000
vn -0.881921 0.471397 0.000000
vn -0.956940 0.290285 0.000000
vn -0.956940 0.290285 0.000000
vn -0.995185 0.098017 0.000000
vn -0.995185 -0.098017 -0.000000
vn -0.995185 0.098017 0.000000
vn -0.995185 -0.098017 0.000000
vn -0.956940 -0.290285 0.000000
vn -0.956940 -0.290285 0.000000
vn -0.881921 -0.471397 0.000000
vn -0.881921 -0.471397 0.000000
vn -0.773010 -0.634393 0.000000
vn -0.773010 -0.634393 0.000000
vn -0.634393 -0.773010 0.000000
vn -0.634393 -0.773010 0.000000
vn -0.471397 -0.881921 0.000000
vn -0.471397 -0.881921 0.000000
vn -0.290285 -0.956940 0.000000
vn -0.098017 -0.995185 -0.000000
vn -0.290285 -0.956940 0.000000
vn -0.098017 -0.995185 0.000000
vn 0.098017 -0.995185 0.000000
vn 0.098017 -0.995185 0.000000
vn 0.290285 -0.956940 0.000000
vn 0.290285 -0.956940 0.000000
vn 0.471397 -0.881921 0.000000
vn 0.471397 -0.881921 0.000000
vn 0.634393 -0.773010 0.000000
vn 0.634393 -0.773010 0.000000
vn 0.773010 -0.634393 0.000000
vn 0.773010 -0.634393 0.000000
vn 0.881921 -0.471397 0.000000
vn 0.956940 -0.290285 0.000000
vn 0.881921 -0.471397 0.000000
vn 0.956940 -0.290285 0.000000
vn 0.995185 -0.098017 0.000000
vn 0.995185 -0.098017 0.000000
vn 0.000000 0.000000 -1.000000
vn 0.000000 0.000000 -1.000000
vn 0.000000 0.000000 -1.000000
vn 0.000000 -0.000000 -1.000000
vn 0.000000 0.000000 -1.000000
vn 0.000000 0.000000 -1.000000
vn 0.000000 0.000000 -1.000000
vn 0.000000 0.000000 -1.000000
vn 0.000000 -0.000000 -1.000000
vn 0.000000 -0.000000 -1.000000
vn 0.000000 0.000000 -1.000000
vn 0.000000 0.000000 -1.000000
vn 0.000000 0.000000 -1.000000
vn 0.000000 0.000000 -1.000000
vn 0.000000 0.000000 -1.000000
vn 0.000000 0.000000 -1.000000
vn 0.000000 -0.000000 -1.000000
vn 0.000000 0.000000 -1.000000
vn 0.000000 -0.000000 -1.000000
vn 0.000000 -0.000000 -1.000000
vn 0.000000 -0.000000 -1.000000
vn 0.000000 0.000000 -1.000000
vn 0.000000 0.000000 -1.000000
vn 0.000000 0.000000 -1.000000
vn 0.000000 0.000000 -1.000000
vn 0.000000 0.000000 -1.000000
vn -0.000000 -0.000000 -1.000000
vn -0.000000 -0.000000 -1.000000
vn -0.000000 -0.000000 -1.000000
vn 0.000000 0.000000 -1.000000
vn 0.000000 0.000000 1.000000
vn 0.000000 0.000000 1.000000
vn 0.000000 0.000000 1.000000
vn 0.000000 0.000000 1.000000
vn 0.000000 0.000000 1.000000
vn 0.000000 0.000000 1.000000
vn 0.000000 0.000000 1.000000
vn 0.000000 0.000000 1.000000
vn 0.000000 0.000000 1.000000
vn 0.000000 0.000000 1.000000
vn 0.000000 0.000000 1.000000
vn 0.000000 0.000000 1.000000
vn 0.000000 0.000000 1.000000
vn 0.000000 0.000000 1.000000
vn 0.000000 0.000000 1.000000
vn 0.000000 0.000000 1.000000
vn 0.000000 0.000000 1.000000
vn 0.000000 0.000000 1.000000
vn 0.000000 0.000000 1.000000
vn 0.000000 0.000000 1.000000
vn 0.000000 0.000000 1.000000
vn 0.000000 0.000000 1.000000
vn 0.000000 0.000000 1.000000
vn 0.000000 0.000000 1.000000
vn 0.000000 0.000000 1.000000
vn 0.000000 0.000000 1.000000
vn 0.000000 0.000000 1.000000
vn 0.000000 0.000000 1.000000
vn 0.000000 0.000000 1.000000
vn 0.000000 0.000000 1.000000
vn 0.995185 0.098017 -0.000000
vn 0.995185 0.098017 0.000000
vn 0.956940 0.290285 0.000000
vn 0.956940 0.290285 -0.000000
vn 0.881921 0.471397 0.000000
vn 0.881921 0.471397 -0.000000
vn 0.773010 0.634393 0.000000
vn 0.634393 0.773010 0.000000
vn 0.773010 0.634393 -0.000000
vn 0.634393 0.773010 0.000000
vn 0.471397 0.881921 0.000000
vn 0.290285 0.956940 0.000000
vn 0.471397 0.881921 -0.000000
vn 0.290285 0.956940 0.000000
vn 0.098017 0.995185 -0.000000
vn 0.098017 0.995185 0.000000
vn -0.098017 0.995185 0.000000
vn -0.098017 0.995185 0.000000
vn -0.290285 0.956940 0.000000
vn -0.290285 0.956940 0.000000
vn -0.471397 0.881921 0.000000
vn -0.471397 0.881921 0.000000
vn -0.634393 0.773010 0.000000
vn -0.634393 0.773010 0.000000
vn -0.773010 0.634393 0.000000
vn -0.773010 0.634393 0.000000
vn -0.881921 0.471397 0.000000
vn -0.881921 0.471397 0.000000
vn -0.956940 0.290285 0.000000
vn -0.956940 0.290285 0.000000
vn -0.995185 0.098017 0.000000
vn -0.995185 -0.098017 -0.000000
vn -0.995185 0.098017 0.000000
vn -0.995185 -0.098017 0.000000
vn -0.956940 -0.290285 0.000000
vn -0.956940 -0.290285 0.000000
vn -0.881921 -0.471397 0.000000
vn -0.881921 -0.471397 0.000000
vn -0.773010 -0.634393 0.000000
vn -0.773010 -0.634393 0.000000
vn -0.634393 -0.773010 0.000000
vn -0.634393 -0.773010 0.000000
vn -0.471397 -0.881921 0.000000
vn -0.471397 -0.881921 0.000000
vn -0.290285 -0.956940 0.000000
vn -0.098017 -0.995185 -0.000000
vn -0.290285 -0.956940 0.000000
vn -0.098017 -0.995185 0.000000
vn 0.098017 -0.995185 0.000000
vn 0.098017 -0.995185 0.000000
vn 0.290285 -0.956940 0.000000
vn 0.290285 -0.956940 0.000000
vn 0.471397 -0.881921 0.000000
vn 0.471397 -0.881921 0.000000
vn 0.634393 -0.773010 0.000000
vn 0.634393 -0.773010 0.000000
vn 0.773010 -0.634393 0.000000
vn 0.773010 -0.634393 0.000000
vn 0.881921 -0.471397 0.000000
vn 0.956940 -0.290285 0.000000
vn 0.881921 -0.471397 0.000000
vn 0.956940 -0.290285 0.000000
vn 0.995185 -0.098017 0.000000
vn 0.995185 -0.098017 0.000000
vn 0.000000 0.000000 -1.000000
vn 0.000000 0.000000 -1.000000
vn 0.000000 0.000000 -1.000000
vn 0.000000 -0.000000 -1.000000
vn 0.000000 0.000000 -1.000000
vn 0.000000 0.000000 -1.000000
vn 0.000000 0.000000 -1.000000
vn 0.000000 0.000000 -1.000000
vn 0.000000 -0.000000 -1.000000
vn 0.000000 -0.000000 -1.000000
vn 0.000000 0.000000 -1.000000
vn 0.000000 0.000000 -1.000000
vn 0.000000 0.000000 -1.000000
vn 0.000000 0.000000 -1.000000
vn 0.000000 0.000000 -1.000000
vn 0.000000 0.000000 -1.000000
vn 0.000000 -0.000000 -1.000000
vn 0.000000 0.000000 -1.000000
vn 0.000000 -0.000000 -1.000000
vn 0.000000 -0.000000 -1.000000
vn 0.000000 -0.000000 -1.000000
vn 0.000000 0.000000 -1.000000
vn 0.000000 0.000000 -1.000000
vn 0.000000 0.000000 -1.000000
vn 0.000000 0.000000 -1.000000
vn 0.000000 0.000000 -1.000000
vn -0.000000 -0.000000 -1.000000
vn -0.000000 -0.000000 -1.000000
vn -0.000000 -0.000000 -1.000000
vn 0.000000 0.000000 -1.000000
vn 0.000000 0.000000 1.000000
vn 0.000000 0.000000 1.000000
vn 0.000000 0.000000 1.000000
vn 0.000000 0.000000 1.000000
vn 0.000000 0.000000 1.000000
vn 0.000000 0.000000 1.000000
vn 0.000000 0.000000 1.000000
vn 0.000000 0.000000 1.000000
vn 0.000000 0.000000 1.000000
vn 0.000000 0.000000 1.000000
vn 0.000000 0.000000 1.000000
vn 0.000000 0.000000 1.000000
vn 0.000000 0.000000 1.000000
vn 0.000000 0.000000 1.000000
vn 0.000000 0.000000 1.000000
vn 0.000000 0.000000 1.000000
vn 0.000000 0.000000 1.000000
vn 0.000000 0.000000 1.000000
vn 0.000000 0.000000 1.000000
vn 0.000000 0.000000 1.000000
vn 0.000000 0.000000 1.000000
vn 0.000000 0.000000 1.000000
vn 0.000000 0.000000 1.000000
vn 0.000000 0.000000 1.000000
vn 0.000000 0.000000 1.000000
vn 0.000000 0.000000 1.000000
vn 0.000000 0.000000 1.000000
vn 0.000000 0.000000 1.000000
vn 0.000000 0.000000 1.000000
vn 0.000000 0.000000 1.000000
g Body
f 1//1 2//1 3//1
f 3//2 2//2 4//2
f 4//3 5//3 6//3
f 2//4 5//4 4//4
f 6//5 7//5 8//5
f 5//6 7//6 6//6
f 8//7 9//7 10//7
f 10//8 9//8 11//8
f 7//9 9//9 8//9
f 9//10 12//10 11//10
f 11//11 13//11 14//11
f 14//12 13//12 15//12
f 12//13 13//13 11//13
f 13//14 16//14 15//14
f 16//15 17//15 15//15
f 15//16 17//16 18//16
f 18//17 17//17 19//17
f 17//18 20//18 19//18
f 20//19 21//19 19//19
f 19//20 21//20 22//20
f 22//21 23//21 24//21
f 21//22 23//22 22//22
f 24//23 25//23 26//23
f 23//24 25//24 24//24
f 26//25 27//25 28//25
f 25//26 27//26 26//26
f 28//27 29//27 30//27
f 27//28 29//28 28//28
f 30//29 31//29 32//29
f 29//30 31//30 30//30
f 32//31 33//31 34//31
f 34//32 33//32 35//32
f 31//33 33//33 32//33
f 33//34 36//34 35//34
f 35//35 37//35 38//35
f 36//36 37//36 35//36
f 38//37 39//37 40//37
f 37//38 39//38 38//38
f 40//39 41//39 42//39
f 39//40 41//40 40//40
f 42//41 43//41 44//41
f 41//42 43//42 42//42
f 44//43 45//43 46//43
f 43//44 45//44 44//44
f 46//45 47//45 48//45
f 48//46 47//46 49//46
f 45//47 47//47 46//47
f 47//48 50//48 49//48
f 49//49 51//49 52//49
f 50//50 51//50 49//50
f 52//51 53//51 54//51
f 51//52 53//52 52//52
f 54//53 55//53 56//53
f 53//54 55//54 54//54
f 56//55 57//55 58//55
f 55//56 57//56 56//56
f 58//57 59//57 60//57
f 57//58 59//58 58//58
f 60//59 61//59 62//59
f 62//60 61//60 63//60
f 59//61 61//61 60//61
f 61//62 64//62 63//62
f 63//63 1//63 3//63
f 64//64 1//64 63//64
f 39//65 37//65 41//65
f 41//66 45//66 43//66
f 47//67 51//67 50//67
f 31//68 29//68 33//68
f 33//69 29//69 36//69
f 36//70 29//70 37//70
f 37//71 29//71 41//71
f 51//72 55//72 53//72
f 25//73 23//73 27//73
f 27//74 23//74 29//74
f 45//75 59//75 47//75
f 55//76 59//76 57//76
f 41//77 59//77 45//77
f 47//78 59//78 51//78
f 51//79 59//79 55//79
f 29//80 59//80 41//80
f 23//81 59//81 29//81
f 23//82 61//82 59//82
f 17//83 16//83 20//83
f 20//84 2//84 21//84
f 21//85 2//85 23//85
f 61//86 2//86 64//86
f 64//87 2//87 1//87
f 23//88 2//88 61//88
f 2//89 7//89 5//89
f 20//90 7//90 2//90
f 13//91 12//91 16//91
f 16//92 12//92 20//92
f 12//93 9//93 20//93
f 20//94 9//94 7//94
f 38//95 40//95 42//95
f 46//96 42//96 44//96
f 52//97 48//97 49//97
f 30//98 32//98 34//98
f 30//99 34//99 35//99
f 30//100 35//100 38//100
f 30//101 38//101 42//101
f 56//102 52//102 54//102
f 24//103 26//103 28//103
f 24//104 28//104 30//104
f 60//105 46//105 48//105
f 60//106 56//106 58//106
f 60//107 42//107 46//107
f 60//108 48//108 52//108
f 60//109 52//109 56//109
f 60//110 30//110 42//110
f 60//111 24//111 30//111
f 62//112 24//112 60//112
f 15//113 18//113 19//113
f 4//114 19//114 22//114
f 4//115 22//115 24//115
f 4//116 62//116 63//116
f 4//117 63//117 3//117
f 4//118 24//118 62//118
f 8//119 4//119 6//119
f 8//120 19//120 4//120
f 11//121 14//121 15//121
f 11//122 15//122 19//122
f 10//123 11//123 19//123
f 10//124 19//124 8//124
g Sketch
g Pad
f 65//125 66//125 67//125
f 67//126 66//126 68//126
f 68//127 69//127 70//127
f 66//128 69//128 68//128
f 70//129 71//129 72//129
f 69//130 71//130 70//130
f 72//131 73//131 74//131
f 74//132 73//132 75//132
f 71//133 73//133 72//133
f 73//134 76//134 75//134
f 75//135 77//135 78//135
f 78//136 77//136 79//136
f 76//137 77//137 75//137
f 77//138 80//138 79//138
f 80//139 81//139 79//139
f 79//140 81//140 82//140
f 82//141 81//141 83//141
f 81//142 84//142 83//142
f 84//143 85//143 83//143
f 83//144 85//144 86//144
f 86//145 87//145 88//145
f 85//146 87//146 86//146
f 88//147 89//147 90//147
f 87//148 89//148 88//148
f 90//149 91//149 92//149
f 89//150 91//150 90//150
f 92//151 93//151 94//151
f 91//152 93//152 92//152
f 94//153 95//153 96//153
f 93//154 95//154 94//154
f 96//155 97//155 98//155
f 98//156 97//156 99//156
f 95//157 97//157 96//157
f 97//158 100//158 99//158
f 99//159 101//159 102//159
f 100//160 101//160 99//160
f 102//161 103//161 104//161
f 101//162 103//162 102//162
f 104//163 105//163 106//163
f 103//164 105//164 104//164
f 106//165 107//165 108//165
f 105//166 107//166 106//166
f 108//167 109//167 110//167
f 107//168 109//168 108//168
f 110//169 111//169 112//169
f 112//170 111//170 113//170
f 109//171 111//171 110//171
f 111//172 114//172 113//172
f 113//173 115//173 116//173
f 114//174 115//174 113//174
f 116//175 117//175 118//175
f 115//176 117//176 116//176
f 118//177 119//177 120//177
f 117//178 119//178 118//178
f 120//179 121//179 122//179
f 119//180 121//180 120//180
f 122//181 123//181 124//181
f 121//182 123//182 122//182
f 124//183 125//183 126//183
f 126//184 125//184 127//184
f 123//185 125//185 124//185
f 125//186 128//186 127//186
f 127//187 65//187 67//187
f 128//188 65//188 127//188
f 103//189 101//189 105//189
f 105//190 109//190 107//190
f 111//191 115//191 114//191
f 95//192 93//192 97//192
f 97//193 93//193 100//193
f 100//194 93//194 101//194
f 101//195 93//195 105//195
f 115//196 119//196 117//196
f 89//197 87//197 91//197
f 91//198 87//198 93//198
f 109//199 123//199 111//199
f 119//200 123//200 121//200
f 105//201 123//201 109//201
f 111//202 123//202 115//202
f 115//203 123//203 119//203
f 93//204 123//204 105//204
f 87//205 123//205 93//205
f 87//206 125//206 123//206
f 81//207 80//207 84//207
f 84//208 66//208 85//208
f 85//209 66//209 87//209
f 125//210 66//210 128//210
f 128//211 66//211 65//211
f 87//212 66//212 125//212
f 66//213 71//213 69//213
f 84//214 71//214 66//214
f 77//215 76//215 80//215
f 80//216 76//216 84//216
f 76//217 73//217 84//217
f 84//218 73//218 71//218
f 102//219 104//219 106//219
f 110//220 106//220 108//220
f 116//221 112//221 113//221
f 94//222 96//222 98//222
f 94//223 98//223 99//223
f 94//224 99//224 102//224
f 94//225 102//225 106//225
f 120//226 116//226 118//226
f 88//227 90//227 92//227
f 88//228 92//228 94//228
f 124//229 110//229 112//229
f 124//230 120//230 122//230
f 124//231 106//231 110//231
f 124//232 112//232 116//232
f 124//233 116//233 120//233
f 124//234 94//234 106//234
f 124//235 88//235 94//235
f 126//236 88//236 124//236
f 79//237 82//237 83//237
f 68//238 83//238 86//238
f 68//239 86//239 88//239
f 68//240 126//240 127//240
f 68//241 127//241 67//241
f 68//242 88//242 126//242
f 72//243 68//243 70//243
f 72//244 83//244 68//244
f 75//245 78//245 79//245
f 75//246 79//246 83//246
f 74//247 75//247 83//247
f 74//248 83//248 72//248
