# Created by FreeCAD <http://www.freecadweb.org>
v 0.000000 -0.500000 31.500000
v -0.000000 -0.500000 0.000000
v 0.000000 -13.500000 0.000000
v 0.000000 -13.500000 31.500000
v 9.579028 -14.000000 0.000000
v 0.500000 -14.000000 0.000000
v 9.579028 -0.000000 -0.000000
v 0.500000 0.000000 -0.000000
v 0.142184 -0.357816 2.000000
v 0.500000 0.000000 2.000000
v 0.142184 -0.357816 10.000000
v 0.500000 0.000000 31.500000
v 0.500000 0.000000 10.000000
v 0.086920 -13.586920 2.000000
v 0.500000 -14.000000 2.000000
v 0.086920 -13.586920 10.000000
v 0.500000 -14.000000 31.500000
v 0.250000 -13.750000 31.750000
v 0.500000 -14.000000 10.000000
v 0.500000 -13.500000 32.000000
v 0.500000 -0.500000 32.000000
v 9.579028 -14.000000 1.829923
v 11.279202 -14.000000 0.000000
v 14.579028 -14.000000 0.000000
v 11.579028 -14.000000 1.829923
v 14.579028 -14.000000 1.823310
v 16.320940 -14.000000 0.000000
v 19.579029 -14.000000 0.000000
v 16.579029 -14.000000 1.823310
v 19.579029 -14.000000 1.780250
v 21.366669 -14.000000 -0.000000
v 24.579029 -14.000000 0.000000
v 21.579029 -14.000000 1.780250
v 24.579029 -14.000000 1.715168
v 26.288879 -14.000000 -0.000000
v 29.579029 -14.000000 0.000000
v 26.579029 -14.000000 1.715168
v 29.579029 -14.000000 1.757110
v 31.248703 -14.000000 -0.000000
v 34.579029 -14.000000 0.000000
v 31.579029 -14.000000 1.757110
v 34.579029 -14.000000 1.523982
v 36.579029 -14.000000 1.523982
v 36.292728 -14.000000 0.000000
v 42.593903 -14.000000 0.000000
v 42.593903 -14.000000 2.000000
v 9.579028 -14.000000 -4.262834
v 9.579028 -0.000000 -4.262834
v 9.579028 -0.000000 -0.000000
v 9.579028 -0.000000 1.829923
v 14.579028 -0.000000 -0.000000
v 11.279202 -0.000000 0.000000
v 11.579028 -0.000000 1.829923
v 14.579028 -0.000000 1.823310
v 19.579029 -0.000000 -0.000000
v 16.320940 -0.000000 0.000000
v 16.579029 -0.000000 1.823310
v 19.579029 -0.000000 1.780250
v 24.579029 -0.000000 -0.000000
v 21.366669 -0.000000 -0.000000
v 21.579029 -0.000000 1.780250
v 24.579029 -0.000000 1.715168
v 29.579029 -0.000000 -0.000000
v 26.288879 -0.000000 -0.000000
v 26.579029 -0.000000 1.715168
v 29.579029 -0.000000 1.757110
v 34.579029 -0.000000 -0.000000
v 31.248703 -0.000000 -0.000000
v 31.579029 -0.000000 1.757110
v 34.579029 -0.000000 1.523982
v 36.579029 -0.000000 1.523982
v 42.648342 0.000000 0.000000
v 36.292728 -0.000000 0.000000
v 42.648342 0.000000 2.000000
v 0.142184 -3.000000 2.000000
v 44.138977 -3.000000 2.000000
v 44.138977 -2.378724 2.000000
v 0.142184 -3.000000 10.000000
v 0.142184 -3.000000 2.000000
v 42.648342 0.000000 10.000000
v 44.138977 -2.378724 10.000000
v 44.138977 -3.000000 10.000000
v 0.142184 -3.000000 10.000000
v 10.000000 0.000000 23.500000
v 10.000000 0.000000 24.000000
v 25.000000 0.000000 15.500000
v 25.000000 0.000000 16.000000
v 10.000000 0.000000 31.500000
v 25.000000 0.000000 23.500000
v 42.648342 0.000000 15.500000
v 44.138977 -11.778308 2.000000
v 44.138977 -11.000000 2.000000
v 0.086920 -11.000000 2.000000
v 0.086920 -11.000000 10.000000
v 42.593903 -14.000000 10.000000
v 44.138977 -11.000000 10.000000
v 44.138977 -11.778308 10.000000
v 9.500000 -14.000000 23.500000
v 24.500000 -14.000000 15.500000
v 9.500000 -14.000000 31.500000
v 24.500000 -14.000000 23.500000
v 42.593903 -14.000000 15.500000
v 9.500000 -13.500000 32.000000
v 9.750000 -13.750000 31.750000
v 9.500000 -0.500000 32.000000
v 14.579028 -0.000000 -0.000000
v 19.579029 -0.000000 -0.000000
v 24.579029 -0.000000 -0.000000
v 29.579029 -0.000000 -0.000000
v 34.579029 -0.000000 -0.000000
v 44.138977 -11.778308 0.000000
v 44.138977 -2.378724 -0.000000
v 11.315522 -14.000000 -4.262834
v 11.191892 -14.000000 -3.033694
v 11.160961 -14.000000 -1.636315
v 11.191892 -0.000000 -3.033694
v 11.315522 -0.000000 -4.262834
v 11.160961 -0.000000 -1.636315
v 44.138977 -11.778308 16.000000
v 44.138977 -2.378724 16.000000
v 42.961670 -0.500000 16.000000
v 25.000000 -0.500000 16.000000
v 25.000000 -13.500000 23.500000
v 25.000000 -13.500000 16.000000
v 10.000000 -0.500000 24.000000
v 24.500000 -0.500000 24.000000
v 10.000000 -13.500000 31.500000
v 10.000000 -13.500000 24.000000
v 42.941628 -13.500000 16.000000
v 24.750000 -13.750000 23.750000
v 24.500000 -13.500000 24.000000
v 14.579028 -14.000000 -4.262834
v 14.579028 -0.000000 -4.262834
v 16.317390 -14.000000 -4.262834
v 16.235666 -14.000000 -3.070144
v 16.217566 -14.000000 -1.884046
v 16.217566 -0.000000 -1.884046
v 16.235666 -0.000000 -3.070144
v 16.317390 -0.000000 -4.262834
v 19.579029 -14.000000 -4.262834
v 19.579029 -0.000000 -4.262834
v 21.349859 -14.000000 -4.262834
v 21.270706 -14.000000 -2.136946
v 21.270706 -0.000000 -2.136946
v 21.349859 -0.000000 -4.262834
v 24.579029 -14.000000 -4.262834
v 24.579029 -0.000000 -4.262834
v 26.231615 -14.000000 -4.262834
v 26.146624 -14.000000 -3.106683
v 26.139248 -14.000000 -1.929017
v 26.139248 -0.000000 -1.929017
v 26.146624 -0.000000 -3.106683
v 26.231615 -0.000000 -4.262834
v 29.579029 -14.000000 -4.262834
v 29.579029 -0.000000 -4.262834
v 31.227768 -14.000000 -4.262834
v 31.124954 -14.000000 -3.069460
v 31.105701 -14.000000 -1.883204
v 31.105701 -0.000000 -1.883204
v 31.124954 -0.000000 -3.069460
v 31.227768 -0.000000 -4.262834
v 34.579029 -14.000000 -4.262834
v 34.579029 -0.000000 -4.262834
v 36.209675 -14.000000 -4.262834
v 36.127251 -14.000000 -3.076206
v 36.125977 -14.000000 -1.891507
v 36.125977 -0.000000 -1.891507
v 36.127251 -0.000000 -3.076206
v 36.209675 -0.000000 -4.262834
vn -1.000000 -0.000000 0.000000
vn -1.000000 -0.000000 0.000000
vn -0.000000 -0.000000 -1.000000
vn 0.000000 -0.000000 -1.000000
vn 0.000000 -0.000000 -1.000000
vn -0.000000 -0.000000 -1.000000
vn -0.707107 0.707107 -0.000000
vn -0.707107 0.707107 -0.000000
vn -0.707107 0.707107 0.000000
vn -0.707107 0.707107 0.000000
vn -0.707107 0.707107 -0.000000
vn -0.707107 0.707107 0.000000
vn -0.707107 -0.707107 -0.000000
vn -0.707107 -0.707107 0.000000
vn -0.707107 -0.707106 0.000000
vn -0.707107 -0.707107 0.000000
vn -0.707107 -0.707107 0.000000
vn -0.707107 -0.707107 0.000000
vn -0.707107 -0.707107 0.000000
vn -0.707107 0.000000 0.707107
vn -0.707107 0.000000 0.707107
vn -0.707107 0.000000 0.707107
vn 0.000000 -1.000000 0.000000
vn 0.000000 -1.000000 0.000000
vn 0.000000 -1.000000 0.000000
vn 0.000000 -1.000000 0.000000
vn 0.000000 -1.000000 0.000000
vn 0.000000 -1.000000 0.000000
vn 0.000000 -1.000000 0.000000
vn 0.000000 -1.000000 0.000000
vn 0.000000 -1.000000 0.000000
vn 0.000000 -1.000000 0.000000
vn 0.000000 -1.000000 0.000000
vn 0.000000 -1.000000 0.000000
vn 0.000000 -1.000000 0.000000
vn 0.000000 -1.000000 0.000000
vn 0.000000 -1.000000 0.000000
vn -0.000000 -1.000000 0.000000
vn 0.000000 -1.000000 0.000000
vn 0.000000 -1.000000 0.000000
vn 0.000000 -1.000000 0.000000
vn 0.000000 -1.000000 0.000000
vn 0.000000 -1.000000 0.000000
vn 0.000000 -1.000000 0.000000
vn 0.000000 -1.000000 0.000000
vn 0.000000 -1.000000 0.000000
vn 0.000000 -1.000000 0.000000
vn 0.000000 -1.000000 0.000000
vn -1.000000 0.000000 0.000000
vn -1.000000 0.000000 0.000000
vn 0.000000 1.000000 0.000000
vn 0.000000 1.000000 -0.000000
vn 0.000000 1.000000 0.000000
vn 0.000000 1.000000 0.000000
vn 0.000000 1.000000 0.000000
vn 0.000000 1.000000 0.000000
vn -0.000000 1.000000 0.000000
vn 0.000000 1.000000 0.000000
vn -0.000000 1.000000 0.000000
vn -0.000000 1.000000 0.000000
vn -0.000000 1.000000 0.000000
vn 0.000000 1.000000 0.000000
vn 0.000000 1.000000 -0.000000
vn -0.000000 1.000000 0.000000
vn -0.000000 1.000000 -0.000000
vn 0.000000 1.000000 -0.000000
vn -0.000000 1.000000 -0.000000
vn 0.000000 1.000000 -0.000000
vn -0.000000 1.000000 -0.000000
vn 0.000000 1.000000 -0.000000
vn -0.000000 1.000000 -0.000000
vn 0.000000 1.000000 -0.000000
vn 0.000000 1.000000 -0.000000
vn 0.000000 1.000000 -0.000000
vn -0.000000 1.000000 -0.000000
vn 0.000000 1.000000 -0.000000
vn 0.000000 0.000000 1.000000
vn 0.000000 0.000000 1.000000
vn 0.000000 0.000000 1.000000
vn 0.000000 0.000000 1.000000
vn 1.000000 0.000000 -0.000000
vn 1.000000 0.000000 0.000000
vn 0.000000 0.000000 -1.000000
vn 0.000000 0.000000 -1.000000
vn 0.000000 0.000000 -1.000000
vn 0.000000 -0.000000 -1.000000
vn -0.000000 1.000000 -0.000000
vn -0.000000 1.000000 -0.000000
vn 0.000000 1.000000 -0.000000
vn 0.000000 1.000000 -0.000000
vn -0.000000 1.000000 -0.000000
vn 0.000000 1.000000 -0.000000
vn 0.000000 1.000000 -0.000000
vn 0.000000 1.000000 -0.000000
vn -0.577350 0.577350 0.577350
vn 0.000000 0.000000 1.000000
vn -0.000000 0.000000 1.000000
vn 0.000000 -0.000000 1.000000
vn -0.000000 0.000000 1.000000
vn 1.000000 0.000000 0.000000
vn 1.000000 -0.000000 0.000000
vn 0.000000 0.000000 -1.000000
vn 0.000000 0.000000 -1.000000
vn 0.000000 0.000000 -1.000000
vn 0.000000 0.000000 -1.000000
vn 0.000000 -1.000000 0.000000
vn 0.000000 -1.000000 0.000000
vn 0.000000 -1.000000 0.000000
vn 0.000000 -1.000000 0.000000
vn 0.000000 -1.000000 0.000000
vn 0.000000 -1.000000 0.000000
vn 0.000000 -0.707107 0.707107
vn 0.000000 -0.707107 0.707107
vn 0.000000 -0.707107 0.707107
vn 0.000000 -0.707107 0.707107
vn 0.000000 0.000000 1.000000
vn 0.000000 0.000000 1.000000
vn -0.000000 -1.000000 0.000000
vn 0.000000 -1.000000 0.000000
vn -0.000000 -0.000000 -1.000000
vn -0.000000 -0.000000 -1.000000
vn -0.000000 -1.000000 0.000000
vn 0.000000 -1.000000 0.000000
vn -0.000000 -0.000000 -1.000000
vn -0.000000 -0.000000 -1.000000
vn 0.000000 -1.000000 0.000000
vn 0.000000 -1.000000 0.000000
vn 0.000000 -0.000000 -1.000000
vn 0.000000 -0.000000 -1.000000
vn 0.000000 -1.000000 0.000000
vn 0.000000 -1.000000 0.000000
vn 0.000000 -0.000000 -1.000000
vn 0.000000 -0.000000 -1.000000
vn 0.000000 -1.000000 0.000000
vn 0.000000 -1.000000 0.000000
vn 0.000000 -0.000000 -1.000000
vn 0.000000 -0.000000 -1.000000
vn 0.000000 -1.000000 0.000000
vn 0.000000 -1.000000 0.000000
vn -0.000000 0.000000 -1.000000
vn -0.000000 -0.000000 -1.000000
vn -0.000000 -0.000000 -1.000000
vn -0.000000 -0.000000 -1.000000
vn 0.820983 -0.570952 0.000000
vn 0.820983 -0.570952 0.000000
vn 0.000000 -1.000000 0.000000
vn -0.000000 -1.000000 0.000000
vn -0.000000 -1.000000 0.000000
vn 0.000000 -1.000000 0.000000
vn 0.000000 1.000000 -0.000000
vn 0.000000 1.000000 -0.000000
vn 0.000000 1.000000 -0.000000
vn 0.000000 1.000000 -0.000000
vn 0.000000 0.000000 -1.000000
vn 0.000000 0.000000 -1.000000
vn 0.000000 1.000000 0.000000
vn 0.000000 1.000000 0.000000
vn 0.000000 1.000000 0.000000
vn 0.000000 1.000000 0.000000
vn 0.000000 1.000000 0.000000
vn 0.000000 1.000000 0.000000
vn 0.000000 1.000000 0.000000
vn 0.000000 1.000000 0.000000
vn 0.000000 1.000000 0.000000
vn 0.000000 1.000000 0.000000
vn -0.000000 1.000000 0.000000
vn 0.000000 1.000000 0.000000
vn 0.847368 0.531006 0.000000
vn 0.847368 0.531006 -0.000000
vn 1.000000 0.000000 0.000000
vn 1.000000 0.000000 0.000000
vn 1.000000 0.000000 0.000000
vn 1.000000 0.000000 0.000000
vn 1.000000 0.000000 0.000000
vn 1.000000 0.000000 0.000000
vn 1.000000 0.000000 0.000000
vn 1.000000 0.000000 0.000000
vn 1.000000 0.000000 0.000000
vn 1.000000 0.000000 0.000000
vn 0.000000 1.000000 0.000000
vn 0.000000 1.000000 0.000000
vn 0.847368 0.531006 -0.000003
vn 0.847368 0.531006 0.000000
vn 0.847368 0.531006 -0.000000
vn 0.000000 0.707107 0.707107
vn -0.000000 0.707107 0.707107
vn 1.000000 0.000000 0.000000
vn 1.000000 0.000000 -0.000000
vn 1.000000 0.000000 -0.000000
vn 1.000000 0.000000 -0.000000
vn -0.000000 0.707107 0.707107
vn 0.000000 0.707107 0.707107
vn 1.000000 0.000000 0.000000
vn 1.000000 0.000000 -0.000000
vn 1.000000 0.000000 -0.000000
vn 1.000000 0.000000 -0.000000
vn -0.000000 0.707107 0.707107
vn -0.000000 0.707107 0.707107
vn 0.000000 -1.000000 0.000000
vn 0.000000 -1.000000 0.000000
vn 0.820983 -0.570952 0.000000
vn 0.820983 -0.570952 -0.000000
vn 0.820983 -0.570952 0.000000
vn 0.707107 -0.707107 0.000000
vn 0.707107 -0.707107 0.000000
vn 0.707107 -0.707107 0.000000
vn 0.000000 -0.707107 0.707107
vn 0.000000 -0.707107 0.707107
vn 0.000000 -0.707107 0.707107
vn 0.707107 -0.707107 0.000000
vn 0.707107 -0.707107 0.000000
vn 0.707107 -0.707107 0.000000
vn 0.000000 -0.707107 0.707107
vn 0.000000 -0.707107 0.707107
vn 0.707107 0.000000 0.707107
vn 0.707107 -0.000000 0.707107
vn 0.707107 0.000000 0.707107
vn 0.997399 -0.000000 -0.072073
vn 0.999755 0.000000 0.022129
vn 0.997399 0.000000 -0.072073
vn 0.994980 0.000000 0.100078
vn 0.999755 0.000000 0.022129
vn 0.994980 0.000000 0.100078
vn -1.000000 0.000000 0.000000
vn -1.000000 0.000000 0.000000
vn 0.000000 -1.000000 0.000000
vn -0.000000 -1.000000 0.000000
vn -0.000000 -1.000000 0.000000
vn 0.000000 -1.000000 0.000000
vn 0.998498 -0.000000 -0.054786
vn 0.998498 0.000000 -0.054786
vn 0.999884 0.000000 0.015259
vn 0.999884 -0.000000 0.015259
vn 0.997661 0.000000 0.068361
vn 0.997661 -0.000000 0.068361
vn -1.000000 0.000000 0.000000
vn -1.000000 0.000000 0.000000
vn 0.000000 -1.000000 0.000000
vn -0.000000 -1.000000 0.000000
vn 0.000000 -1.000000 0.000000
vn 0.998993 -0.000000 -0.044861
vn 0.999308 0.000000 0.037207
vn 0.998993 0.000000 -0.044861
vn 0.999308 0.000000 0.037207
vn -1.000000 0.000000 0.000000
vn -1.000000 0.000000 0.000000
vn 0.000000 -1.000000 0.000000
vn -0.000000 -1.000000 0.000000
vn -0.000000 -1.000000 0.000000
vn 0.000000 -1.000000 0.000000
vn 0.997005 -0.000000 -0.077336
vn 0.997005 0.000000 -0.077336
vn 0.999980 0.000000 0.006263
vn 0.999980 -0.000000 0.006263
vn 0.997309 0.000000 0.073315
vn 0.997309 -0.000000 0.073315
vn -1.000000 0.000000 0.000000
vn -1.000000 0.000000 0.000000
vn 0.000000 -1.000000 0.000000
vn -0.000000 -1.000000 0.000000
vn -0.000000 -1.000000 0.000000
vn 0.000000 -1.000000 0.000000
vn 0.997129 -0.000000 -0.075717
vn 0.999868 0.000000 0.016228
vn 0.997129 0.000000 -0.075717
vn 0.996309 0.000000 0.085836
vn 0.999868 0.000000 0.016228
vn 0.996309 0.000000 0.085836
vn -1.000000 0.000000 0.000000
vn -1.000000 0.000000 0.000000
vn 0.000000 -1.000000 0.000000
vn -0.000000 -1.000000 0.000000
vn -0.000000 -1.000000 0.000000
vn 0.000000 -1.000000 0.000000
vn 0.996137 -0.000000 -0.087818
vn 0.996137 0.000000 -0.087818
vn 0.999999 0.000000 0.001075
vn 0.999999 -0.000000 0.001075
vn 0.997596 0.000000 0.069294
vn 0.997596 -0.000000 0.069294
vn 0.000000 1.000000 -0.000000
vn 0.000000 1.000000 -0.000000
vn 0.000000 1.000000 -0.000000
vn 0.000000 1.000000 -0.000000
vn 0.000000 1.000000 -0.000000
vn 0.000000 1.000000 -0.000000
vn -0.000000 1.000000 -0.000000
vn 0.000000 1.000000 -0.000000
vn -0.000000 1.000000 -0.000000
vn 0.000000 1.000000 -0.000000
vn -0.000000 1.000000 -0.000000
vn 0.000000 1.000000 -0.000000
vn -0.000000 1.000000 -0.000000
vn 0.000000 1.000000 -0.000000
vn -0.000000 1.000000 -0.000000
vn 0.000000 1.000000 -0.000000
vn 0.000000 1.000000 -0.000000
vn 0.000000 1.000000 -0.000000
vn 0.000000 1.000000 -0.000000
vn 0.000000 0.000000 1.000000
vn 0.000000 0.000000 1.000000
vn 0.000000 0.000000 1.000000
vn 0.000000 0.000000 1.000000
vn 0.707107 0.000000 0.707107
vn 0.707107 -0.000000 0.707107
vn 0.707107 0.000000 0.707107
vn 0.000000 0.000000 1.000000
vn 0.000000 0.000000 1.000000
vn 0.000000 0.000000 -1.000000
vn 0.000000 0.000000 -1.000000
vn 0.000000 0.000000 -1.000000
vn 0.000000 0.000000 -1.000000
vn 0.000000 0.000000 -1.000000
vn 0.000000 0.000000 -1.000000
vn 0.000000 0.000000 -1.000000
vn 0.000000 0.000000 -1.000000
vn 0.000000 0.000000 -1.000000
vn 0.000000 0.000000 -1.000000
f 1//1 2//1 3//1
f 1//2 3//2 4//2
f 3//3 5//3 6//3
f 2//4 7//4 5//4
f 2//5 5//5 3//5
f 8//6 7//6 2//6
f 9//7 8//7 2//7
f 10//8 8//8 9//8
f 11//9 9//9 2//9
f 1//10 11//10 2//10
f 12//11 13//11 11//11
f 12//12 11//12 1//12
f 6//13 14//13 3//13
f 6//14 15//14 14//14
f 14//15 16//15 3//15
f 16//16 4//16 3//16
f 4//17 17//17 18//17
f 19//18 17//18 16//18
f 16//19 17//19 4//19
f 20//20 4//20 18//20
f 20//21 21//21 1//21
f 20//22 1//22 4//22
f 5//23 22//23 6//23
f 6//24 22//24 15//24
f 23//25 24//25 25//25
f 24//26 26//26 25//26
f 27//27 28//27 29//27
f 28//28 30//28 29//28
f 31//29 32//29 33//29
f 32//30 34//30 33//30
f 35//31 36//31 37//31
f 36//32 38//32 37//32
f 39//33 40//33 41//33
f 40//34 42//34 41//34
f 42//35 43//35 41//35
f 44//36 45//36 43//36
f 45//37 46//37 43//37
f 46//38 15//38 22//38
f 46//39 22//39 25//39
f 46//40 25//40 26//40
f 46//41 26//41 29//41
f 46//42 29//42 30//42
f 46//43 30//43 33//43
f 46//44 33//44 34//44
f 46//45 34//45 37//45
f 46//46 37//46 38//46
f 46//47 38//47 41//47
f 46//48 41//48 43//48
f 47//49 5//49 48//49
f 48//50 5//50 49//50
f 50//51 49//51 8//51
f 50//52 8//52 10//52
f 51//53 52//53 53//53
f 54//54 51//54 53//54
f 55//55 56//55 57//55
f 58//56 55//56 57//56
f 59//57 60//57 61//57
f 62//58 59//58 61//58
f 63//59 64//59 65//59
f 66//60 63//60 65//60
f 67//61 68//61 69//61
f 70//62 67//62 69//62
f 71//63 70//63 69//63
f 72//64 73//64 71//64
f 74//65 72//65 71//65
f 10//66 74//66 53//66
f 53//67 74//67 54//67
f 54//68 74//68 57//68
f 57//69 74//69 58//69
f 58//70 74//70 61//70
f 61//71 74//71 62//71
f 62//72 74//72 65//72
f 65//73 74//73 66//73
f 66//74 74//74 69//74
f 69//75 74//75 71//75
f 10//76 53//76 50//76
f 10//77 9//77 75//77
f 74//78 75//78 76//78
f 74//79 76//79 77//79
f 74//80 10//80 75//80
f 9//81 11//81 78//81
f 9//82 78//82 79//82
f 80//83 81//83 82//83
f 83//84 80//84 82//84
f 13//85 83//85 11//85
f 13//86 80//86 83//86
f 84//87 13//87 12//87
f 85//88 84//88 12//88
f 86//89 13//89 84//89
f 87//90 86//90 84//90
f 88//91 85//91 12//91
f 89//92 87//92 84//92
f 80//93 13//93 86//93
f 90//94 80//94 86//94
f 21//95 12//95 1//95
f 46//96 91//96 92//96
f 93//97 46//97 92//97
f 15//98 46//98 93//98
f 14//99 15//99 93//99
f 16//100 14//100 93//100
f 16//101 93//101 94//101
f 19//102 16//102 94//102
f 95//103 94//103 96//103
f 95//104 96//104 97//104
f 95//105 19//105 94//105
f 19//106 98//106 17//106
f 19//107 99//107 98//107
f 98//108 100//108 17//108
f 99//109 101//109 98//109
f 19//110 95//110 99//110
f 95//111 102//111 99//111
f 18//112 17//112 20//112
f 20//113 100//113 103//113
f 103//114 100//114 104//114
f 17//115 100//115 20//115
f 105//116 20//116 103//116
f 105//117 21//117 20//117
f 23//118 22//118 5//118
f 23//119 25//119 22//119
f 52//120 106//120 24//120
f 52//121 24//121 23//121
f 27//122 26//122 24//122
f 27//123 29//123 26//123
f 56//124 107//124 28//124
f 56//125 28//125 27//125
f 28//126 31//126 30//126
f 31//127 33//127 30//127
f 108//128 32//128 31//128
f 60//129 108//129 31//129
f 35//130 34//130 32//130
f 35//131 37//131 34//131
f 109//132 36//132 35//132
f 64//133 109//133 35//133
f 39//134 38//134 36//134
f 39//135 41//135 38//135
f 110//136 40//136 39//136
f 68//137 110//137 39//137
f 40//138 44//138 42//138
f 44//139 43//139 42//139
f 44//140 111//140 45//140
f 112//141 111//141 44//141
f 73//142 72//142 112//142
f 73//143 112//143 44//143
f 111//144 46//144 45//144
f 91//145 46//145 111//145
f 113//146 114//146 47//146
f 114//147 115//147 47//147
f 115//148 5//148 47//148
f 115//149 23//149 5//149
f 116//150 117//150 48//150
f 118//151 116//151 48//151
f 49//152 118//152 48//152
f 52//153 118//153 49//153
f 47//154 48//154 117//154
f 113//155 47//155 117//155
f 50//156 52//156 7//156
f 53//157 52//157 50//157
f 54//158 56//158 106//158
f 57//159 56//159 54//159
f 60//160 107//160 58//160
f 61//161 60//161 58//161
f 62//162 64//162 108//162
f 65//163 64//163 62//163
f 66//164 68//164 109//164
f 69//165 68//165 66//165
f 73//166 110//166 70//166
f 71//167 73//167 70//167
f 74//168 77//168 112//168
f 74//169 112//169 72//169
f 92//170 91//170 111//170
f 112//171 92//171 111//171
f 76//172 96//172 92//172
f 76//173 92//173 112//173
f 77//174 76//174 112//174
f 119//175 97//175 96//175
f 82//176 96//176 76//176
f 120//177 82//177 81//177
f 120//178 119//178 96//178
f 120//179 96//179 82//179
f 82//180 76//180 75//180
f 82//181 75//181 83//181
f 90//182 121//182 120//182
f 90//183 120//183 81//183
f 90//184 81//184 80//184
f 122//185 90//185 86//185
f 122//186 121//186 90//186
f 122//187 123//187 124//187
f 122//188 89//188 123//188
f 87//189 89//189 122//189
f 86//190 87//190 122//190
f 125//191 126//191 84//191
f 84//192 126//192 89//192
f 125//193 127//193 128//193
f 125//194 88//194 127//194
f 85//195 88//195 125//195
f 84//196 85//196 125//196
f 12//197 105//197 88//197
f 21//198 105//198 12//198
f 92//199 96//199 93//199
f 93//200 96//200 94//200
f 102//201 95//201 97//201
f 119//202 129//202 102//202
f 119//203 102//203 97//203
f 130//204 101//204 123//204
f 101//205 124//205 123//205
f 101//206 99//206 124//206
f 128//207 101//207 131//207
f 131//208 101//208 130//208
f 98//209 101//209 128//209
f 104//210 100//210 127//210
f 100//211 128//211 127//211
f 100//212 98//212 128//212
f 99//213 102//213 124//213
f 124//214 102//214 129//214
f 127//215 103//215 104//215
f 127//216 88//216 105//216
f 127//217 105//217 103//217
f 52//218 23//218 118//218
f 118//219 115//219 116//219
f 23//220 115//220 118//220
f 116//221 114//221 117//221
f 115//222 114//222 116//222
f 114//223 113//223 117//223
f 132//224 24//224 133//224
f 133//225 24//225 51//225
f 134//226 135//226 132//226
f 135//227 136//227 132//227
f 136//228 24//228 132//228
f 136//229 27//229 24//229
f 56//230 27//230 137//230
f 27//231 136//231 137//231
f 137//232 135//232 138//232
f 136//233 135//233 137//233
f 138//234 134//234 139//234
f 135//235 134//235 138//235
f 140//236 28//236 141//236
f 141//237 28//237 55//237
f 142//238 143//238 140//238
f 143//239 28//239 140//239
f 143//240 31//240 28//240
f 60//241 31//241 144//241
f 144//242 143//242 145//242
f 31//243 143//243 144//243
f 143//244 142//244 145//244
f 146//245 32//245 147//245
f 147//246 32//246 59//246
f 148//247 149//247 146//247
f 149//248 150//248 146//248
f 150//249 32//249 146//249
f 150//250 35//250 32//250
f 64//251 35//251 151//251
f 35//252 150//252 151//252
f 151//253 149//253 152//253
f 150//254 149//254 151//254
f 152//255 148//255 153//255
f 149//256 148//256 152//256
f 154//257 36//257 155//257
f 155//258 36//258 63//258
f 156//259 157//259 154//259
f 157//260 158//260 154//260
f 158//261 36//261 154//261
f 158//262 39//262 36//262
f 68//263 39//263 159//263
f 159//264 158//264 160//264
f 39//265 158//265 159//265
f 160//266 157//266 161//266
f 158//267 157//267 160//267
f 157//268 156//268 161//268
f 162//269 40//269 163//269
f 163//270 40//270 67//270
f 164//271 165//271 162//271
f 165//272 166//272 162//272
f 166//273 40//273 162//273
f 166//274 44//274 40//274
f 73//275 44//275 167//275
f 44//276 166//276 167//276
f 167//277 165//277 168//277
f 166//278 165//278 167//278
f 168//279 164//279 169//279
f 165//280 164//280 168//280
f 138//281 139//281 133//281
f 137//282 138//282 133//282
f 51//283 137//283 133//283
f 56//284 137//284 51//284
f 144//285 145//285 141//285
f 55//286 144//286 141//286
f 60//287 144//287 55//287
f 152//288 153//288 147//288
f 151//289 152//289 147//289
f 59//290 151//290 147//290
f 64//291 151//291 59//291
f 160//292 161//292 155//292
f 159//293 160//293 155//293
f 63//294 159//294 155//294
f 68//295 159//295 63//295
f 168//296 169//296 163//296
f 167//297 168//297 163//297
f 67//298 167//298 163//298
f 73//299 167//299 67//299
f 129//300 122//300 124//300
f 120//301 129//301 119//301
f 121//302 122//302 129//302
f 121//303 129//303 120//303
f 123//304 131//304 130//304
f 123//305 89//305 126//305
f 123//306 126//306 131//306
f 126//307 125//307 128//307
f 126//308 128//308 131//308
f 132//309 133//309 139//309
f 134//310 132//310 139//310
f 140//311 141//311 145//311
f 142//312 140//312 145//312
f 146//313 147//313 153//313
f 148//314 146//314 153//314
f 154//315 155//315 161//315
f 156//316 154//316 161//316
f 164//317 162//317 163//317
f 164//318 163//318 169//318
