# Created by FreeCAD <http://www.freecadweb.org>
v -13.143683 -2.999960 20.000000
v -23.571421 -19.837664 20.000000
v -5.849490 -12.146590 20.000000
v -23.571421 19.837664 20.000000
v -10.540416 8.405702 20.000000
v 23.571421 -19.837664 20.000000
v 5.849490 -12.146590 20.000000
v 13.143683 -2.999960 20.000000
v 0.000000 13.481698 20.000000
v 23.571421 19.837664 20.000000
v 10.540416 8.405702 20.000000
v -10.077841 8.036810 19.927652
v -12.566862 -2.868304 19.927652
v -9.648732 7.694607 19.715843
v -12.031773 -2.746174 19.715843
v -9.316894 7.429975 19.418449
v -11.617976 -2.651727 19.418449
v -9.079142 7.240374 19.079037
v -11.321505 -2.584059 19.079037
v -11.111707 -2.536175 18.688301
v -8.910897 7.106203 18.688301
v -11.012814 -2.513603 18.349529
v -8.831591 7.042958 18.349529
v -10.979507 -2.506001 18.000000
v -8.804881 7.021658 18.000000
v -0.000000 12.890042 19.927652
v -0.000000 12.341192 19.715843
v -0.000000 11.916755 19.418449
v -0.000000 11.612658 19.079037
v -0.000000 11.397465 18.688301
v -0.000000 11.296028 18.349529
v 0.000000 11.261866 18.000000
v -5.592780 -11.613527 19.927652
v -5.354642 -11.119030 19.715843
v -5.170486 -10.736625 19.418449
v -5.038543 -10.462643 19.079037
v -4.945175 -10.268761 18.688301
v -4.901163 -10.177370 18.349529
v -4.886340 -10.146590 18.000000
v 10.077841 8.036810 19.927652
v 9.648732 7.694607 19.715843
v 9.316894 7.429975 19.418449
v 9.079142 7.240374 19.079037
v 8.910897 7.106203 18.688301
v 8.831591 7.042958 18.349529
v 8.804881 7.021658 18.000000
v 5.592780 -11.613527 19.927652
v 5.354642 -11.119030 19.715843
v 5.170486 -10.736625 19.418449
v 5.038543 -10.462643 19.079037
v 4.945175 -10.268761 18.688301
v 4.901163 -10.177370 18.349529
v 4.886340 -10.146590 18.000000
v 12.566862 -2.868304 19.927652
v 12.031773 -2.746174 19.715843
v 11.617976 -2.651727 19.418449
v 11.321505 -2.584059 19.079037
v 11.111707 -2.536175 18.688301
v 11.012814 -2.513603 18.349529
v 10.979507 -2.506001 18.000000
v -28.571421 24.837664 15.000000
v -28.493179 -24.759422 15.881077
v -28.493179 24.759422 15.881077
v -28.571421 -24.837664 15.000000
v -28.260902 -24.527145 16.734579
v -28.260902 24.527145 16.734579
v -27.881859 -24.148102 17.533794
v -27.881859 24.148102 17.533794
v -27.367914 -23.634157 18.253712
v -27.367914 23.634157 18.253712
v -26.735151 -23.001394 18.871798
v -26.735151 23.001394 18.871798
v -26.003374 -22.269617 19.368708
v -26.003374 22.269617 19.368708
v -24.913589 -21.179832 19.816490
v -24.913589 21.179832 19.816490
v -24.248749 20.514992 19.953911
v -24.248749 -20.514992 19.953911
v 28.571421 24.837664 15.000000
v 28.493179 24.759422 15.881077
v 28.260902 24.527145 16.734579
v 27.881859 24.148102 17.533794
v 27.367914 23.634157 18.253712
v 26.735151 23.001394 18.871798
v 26.003374 22.269617 19.368708
v 24.913589 21.179832 19.816490
v 24.248749 20.514992 19.953911
v 28.493179 -24.759422 15.881077
v 28.571421 -24.837664 15.000000
v 28.260902 -24.527145 16.734579
v 27.881859 -24.148102 17.533794
v 27.367914 -23.634157 18.253712
v 26.735151 -23.001394 18.871798
v 26.003374 -22.269617 19.368708
v 24.913589 -21.179832 19.816490
v 24.248749 -20.514992 19.953911
v -8.804881 7.021658 10.000000
v -10.979507 -2.506001 10.000000
v 0.000000 11.261866 10.000000
v -4.886340 -10.146590 10.000000
v 8.804881 7.021658 10.000000
v 4.886340 -10.146590 10.000000
v 10.979507 -2.506001 10.000000
v -28.571421 24.837664 0.000000
v -28.571421 -24.837664 0.000000
v 28.571421 24.837664 0.000000
v 28.571421 -24.837664 0.000000
vn 0.000000 0.000000 1.000000
vn 0.000000 0.000000 1.000000
vn 0.000000 0.000000 1.000000
vn 0.000000 0.000000 1.000000
vn 0.000000 0.000000 1.000000
vn 0.000000 0.000000 1.000000
vn 0.000000 0.000000 1.000000
vn 0.000000 0.000000 1.000000
vn 0.000000 0.000000 1.000000
vn 0.000000 0.000000 1.000000
vn 0.000000 0.000000 1.000000
vn 0.131116 -0.029926 0.990915
vn 0.383862 -0.087614 0.919225
vn 0.131116 -0.029926 0.990915
vn 0.598507 -0.136605 0.789384
vn 0.383862 -0.087614 0.919225
vn 0.758611 -0.173148 0.628116
vn 0.598507 -0.136605 0.789385
vn 0.758612 -0.173148 0.628115
vn 0.873326 -0.199331 0.444486
vn 0.873326 -0.199331 0.444487
vn 0.941278 -0.214840 0.260462
vn 0.941278 -0.214840 0.260460
vn 0.971170 -0.221663 0.087721
vn 0.971170 -0.221663 0.087720
vn 0.058352 -0.121169 0.990915
vn 0.058352 -0.121169 0.990915
vn 0.170835 -0.354742 0.919225
vn 0.170835 -0.354742 0.919225
vn 0.266361 -0.553104 0.789385
vn 0.266361 -0.553104 0.789384
vn 0.337613 -0.701061 0.628117
vn 0.337613 -0.701062 0.628116
vn 0.388667 -0.807075 0.444486
vn 0.418908 -0.869871 0.260461
vn 0.388667 -0.807075 0.444486
vn 0.432211 -0.897496 0.087720
vn 0.418908 -0.869871 0.260461
vn 0.432211 -0.897496 0.087720
vn 0.105147 0.083852 0.990915
vn 0.307833 0.245489 0.919225
vn 0.105147 0.083852 0.990915
vn 0.479965 0.382760 0.789385
vn 0.307833 0.245489 0.919225
vn 0.479966 0.382760 0.789385
vn 0.608359 0.485150 0.628115
vn 0.608358 0.485150 0.628116
vn 0.700353 0.558513 0.444487
vn 0.700353 0.558513 0.444486
vn 0.754846 0.601970 0.260460
vn 0.754846 0.601970 0.260460
vn 0.778818 0.621086 0.087720
vn 0.778818 0.621086 0.087722
vn -0.058352 -0.121169 0.990915
vn -0.170835 -0.354742 0.919225
vn -0.058352 -0.121169 0.990915
vn -0.266361 -0.553104 0.789384
vn -0.170835 -0.354742 0.919225
vn -0.266361 -0.553104 0.789385
vn -0.337613 -0.701062 0.628116
vn -0.337613 -0.701061 0.628117
vn -0.388667 -0.807075 0.444486
vn -0.388667 -0.807075 0.444486
vn -0.418908 -0.869871 0.260461
vn -0.418908 -0.869871 0.260461
vn -0.432211 -0.897496 0.087720
vn -0.432211 -0.897496 0.087720
vn -0.000000 0.134488 0.990915
vn -0.000000 0.393734 0.919225
vn 0.000000 0.134488 0.990915
vn -0.000000 0.613899 0.789385
vn 0.000000 0.393734 0.919225
vn 0.000000 0.613899 0.789385
vn 0.000000 0.778119 0.628117
vn 0.000000 0.778119 0.628116
vn 0.000000 0.895786 0.444486
vn 0.000000 0.895786 0.444486
vn 0.000000 0.965485 0.260459
vn 0.000000 0.965485 0.260459
vn 0.000000 0.996145 0.087721
vn 0.000000 0.996145 0.087721
vn -0.131116 -0.029926 0.990915
vn -0.383862 -0.087614 0.919225
vn -0.131116 -0.029926 0.990915
vn -0.598507 -0.136605 0.789385
vn -0.383862 -0.087614 0.919225
vn -0.758611 -0.173148 0.628115
vn -0.598507 -0.136605 0.789385
vn -0.758611 -0.173148 0.628116
vn -0.873326 -0.199331 0.444487
vn -0.873326 -0.199331 0.444486
vn -0.941278 -0.214841 0.260460
vn -0.971170 -0.221663 0.087720
vn -0.941278 -0.214840 0.260462
vn -0.971170 -0.221663 0.087721
vn -0.105147 0.083852 0.990915
vn -0.105147 0.083852 0.990915
vn -0.307833 0.245489 0.919225
vn -0.307833 0.245489 0.919225
vn -0.479966 0.382760 0.789385
vn -0.479965 0.382760 0.789385
vn -0.608358 0.485150 0.628116
vn -0.608359 0.485150 0.628115
vn -0.700353 0.558513 0.444486
vn -0.700353 0.558513 0.444487
vn -0.754846 0.601970 0.260460
vn -0.754846 0.601970 0.260460
vn -0.778818 0.621086 0.087722
vn -0.778818 0.621086 0.087720
vn -0.996080 0.000000 0.088454
vn -0.996080 0.000000 0.088454
vn -0.964906 0.000000 0.262595
vn -0.964906 0.000000 0.262595
vn -0.903533 0.000000 0.428518
vn -0.903533 0.000000 0.428518
vn -0.813884 0.000000 0.581027
vn -0.813884 0.000000 0.581027
vn -0.698762 0.000000 0.715354
vn -0.698762 0.000000 0.715355
vn -0.561770 0.000000 0.827293
vn -0.561770 0.000000 0.827293
vn -0.380059 0.000000 0.924962
vn -0.202418 0.000000 0.979299
vn -0.380059 0.000000 0.924962
vn -0.067889 0.000000 0.997693
vn -0.202418 0.000000 0.979299
vn -0.067889 0.000000 0.997693
vn 0.000000 0.996080 0.088454
vn -0.000000 0.996080 0.088454
vn 0.000000 0.964906 0.262595
vn -0.000000 0.964906 0.262595
vn 0.000000 0.903533 0.428518
vn -0.000000 0.903533 0.428518
vn 0.000000 0.813884 0.581027
vn -0.000000 0.813884 0.581027
vn 0.000000 0.698762 0.715354
vn -0.000000 0.698762 0.715355
vn 0.000000 0.561770 0.827293
vn 0.000000 0.380059 0.924962
vn -0.000000 0.561770 0.827294
vn 0.000000 0.380059 0.924962
vn 0.000000 0.202418 0.979299
vn -0.000000 0.202418 0.979299
vn 0.000000 0.067889 0.997693
vn -0.000000 0.067889 0.997693
vn 0.000000 -0.996080 0.088454
vn 0.000000 -0.996080 0.088454
vn 0.000000 -0.964906 0.262595
vn 0.000000 -0.964906 0.262595
vn 0.000000 -0.903533 0.428518
vn 0.000000 -0.903533 0.428518
vn 0.000000 -0.813884 0.581027
vn 0.000000 -0.698762 0.715355
vn 0.000000 -0.813884 0.581027
vn 0.000000 -0.561770 0.827294
vn 0.000000 -0.698762 0.715354
vn 0.000000 -0.380059 0.924962
vn 0.000000 -0.561770 0.827293
vn 0.000000 -0.202418 0.979299
vn 0.000000 -0.380059 0.924962
vn 0.000000 -0.202418 0.979299
vn 0.000000 -0.067889 0.997693
vn 0.000000 -0.067889 0.997693
vn 0.996080 0.000000 0.088454
vn 0.996080 0.000000 0.088454
vn 0.964906 0.000000 0.262595
vn 0.964906 0.000000 0.262595
vn 0.903533 0.000000 0.428518
vn 0.903533 0.000000 0.428518
vn 0.813884 0.000000 0.581027
vn 0.698762 -0.000000 0.715355
vn 0.813884 0.000000 0.581027
vn 0.561770 -0.000000 0.827293
vn 0.698762 0.000000 0.715354
vn 0.380059 -0.000000 0.924962
vn 0.561770 0.000000 0.827293
vn 0.202418 -0.000000 0.979299
vn 0.380059 0.000000 0.924962
vn 0.067889 -0.000000 0.997693
vn 0.202418 0.000000 0.979299
vn 0.067889 0.000000 0.997693
vn 0.974928 -0.222521 0.000000
vn 0.974928 -0.222521 0.000000
vn 0.433884 -0.900969 0.000000
vn 0.433884 -0.900969 0.000000
vn 0.781831 0.623490 0.000000
vn 0.781831 0.623490 0.000000
vn -0.433884 -0.900969 -0.000000
vn -0.433884 -0.900969 0.000000
vn -0.000000 1.000000 0.000000
vn 0.000000 1.000000 0.000000
vn -0.974928 -0.222521 -0.000000
vn -0.974928 -0.222521 0.000000
vn -0.781831 0.623490 0.000000
vn -0.781831 0.623490 0.000000
vn -1.000000 0.000000 0.000000
vn -1.000000 -0.000000 0.000000
vn 0.000000 1.000000 -0.000000
vn 0.000000 1.000000 0.000000
vn 0.000000 -1.000000 0.000000
vn 0.000000 -1.000000 0.000000
vn 1.000000 0.000000 0.000000
vn 1.000000 -0.000000 0.000000
vn 0.000000 0.000000 1.000000
vn 0.000000 0.000000 1.000000
vn 0.000000 0.000000 1.000000
vn 0.000000 0.000000 1.000000
vn 0.000000 0.000000 1.000000
vn 0.000000 0.000000 -1.000000
vn 0.000000 0.000000 -1.000000
f 1//1 2//1 3//1
f 4//2 2//2 1//2
f 5//3 4//3 1//3
f 6//4 7//4 3//4
f 6//5 3//5 2//5
f 8//6 7//6 6//6
f 9//7 4//7 5//7
f 10//8 9//8 11//8
f 10//9 11//9 8//9
f 10//10 8//10 6//10
f 10//11 4//11 9//11
f 5//12 1//12 12//12
f 12//13 13//13 14//13
f 1//14 13//14 12//14
f 14//15 15//15 16//15
f 13//16 15//16 14//16
f 16//17 17//17 18//17
f 15//18 17//18 16//18
f 17//19 19//19 18//19
f 18//20 20//20 21//20
f 19//21 20//21 18//21
f 21//22 22//22 23//22
f 20//23 22//23 21//23
f 23//24 24//24 25//24
f 22//25 24//25 23//25
f 9//26 12//26 26//26
f 5//27 12//27 9//27
f 26//28 14//28 27//28
f 12//29 14//29 26//29
f 27//30 16//30 28//30
f 14//31 16//31 27//31
f 28//32 18//32 29//32
f 16//33 18//33 28//33
f 29//34 21//34 30//34
f 30//35 21//35 31//35
f 18//36 21//36 29//36
f 31//37 23//37 32//37
f 21//38 23//38 31//38
f 23//39 25//39 32//39
f 1//40 3//40 13//40
f 13//41 33//41 15//41
f 3//42 33//42 13//42
f 15//43 34//43 17//43
f 33//44 34//44 15//44
f 34//45 35//45 17//45
f 17//46 36//46 19//46
f 35//47 36//47 17//47
f 19//48 37//48 20//48
f 36//49 37//49 19//49
f 20//50 38//50 22//50
f 37//51 38//51 20//51
f 22//52 39//52 24//52
f 38//53 39//53 22//53
f 11//54 9//54 40//54
f 40//55 26//55 41//55
f 9//56 26//56 40//56
f 41//57 27//57 42//57
f 26//58 27//58 41//58
f 27//59 28//59 42//59
f 42//60 29//60 43//60
f 28//61 29//61 42//61
f 43//62 30//62 44//62
f 29//63 30//63 43//63
f 44//64 31//64 45//64
f 30//65 31//65 44//65
f 45//66 32//66 46//66
f 31//67 32//67 45//67
f 3//68 7//68 33//68
f 33//69 47//69 34//69
f 7//70 47//70 33//70
f 34//71 48//71 35//71
f 47//72 48//72 34//72
f 48//73 49//73 35//73
f 35//74 50//74 36//74
f 49//75 50//75 35//75
f 36//76 51//76 37//76
f 50//77 51//77 36//77
f 37//78 52//78 38//78
f 51//79 52//79 37//79
f 38//80 53//80 39//80
f 52//81 53//81 38//81
f 8//82 11//82 54//82
f 54//83 40//83 55//83
f 11//84 40//84 54//84
f 55//85 41//85 56//85
f 40//86 41//86 55//86
f 56//87 42//87 57//87
f 41//88 42//88 56//88
f 42//89 43//89 57//89
f 57//90 44//90 58//90
f 43//91 44//91 57//91
f 58//92 45//92 59//92
f 59//93 45//93 60//93
f 44//94 45//94 58//94
f 45//95 46//95 60//95
f 7//96 54//96 47//96
f 8//97 54//97 7//97
f 47//98 55//98 48//98
f 54//99 55//99 47//99
f 48//100 56//100 49//100
f 55//101 56//101 48//101
f 49//102 57//102 50//102
f 56//103 57//103 49//103
f 50//104 58//104 51//104
f 57//105 58//105 50//105
f 51//106 59//106 52//106
f 58//107 59//107 51//107
f 52//108 60//108 53//108
f 59//109 60//109 52//109
f 61//110 62//110 63//110
f 64//111 62//111 61//111
f 63//112 65//112 66//112
f 62//113 65//113 63//113
f 66//114 67//114 68//114
f 65//115 67//115 66//115
f 68//116 69//116 70//116
f 67//117 69//117 68//117
f 70//118 71//118 72//118
f 69//119 71//119 70//119
f 72//120 73//120 74//120
f 71//121 73//121 72//121
f 74//122 75//122 76//122
f 76//123 75//123 77//123
f 73//124 75//124 74//124
f 77//125 78//125 4//125
f 75//126 78//126 77//126
f 78//127 2//127 4//127
f 79//128 63//128 80//128
f 61//129 63//129 79//129
f 80//130 66//130 81//130
f 63//131 66//131 80//131
f 81//132 68//132 82//132
f 66//133 68//133 81//133
f 82//134 70//134 83//134
f 68//135 70//135 82//135
f 83//136 72//136 84//136
f 70//137 72//137 83//137
f 84//138 74//138 85//138
f 85//139 74//139 86//139
f 72//140 74//140 84//140
f 74//141 76//141 86//141
f 86//142 77//142 87//142
f 76//143 77//143 86//143
f 87//144 4//144 10//144
f 77//145 4//145 87//145
f 64//146 88//146 62//146
f 89//147 88//147 64//147
f 62//148 90//148 65//148
f 88//149 90//149 62//149
f 65//150 91//150 67//150
f 90//151 91//151 65//151
f 67//152 92//152 69//152
f 69//153 92//153 71//153
f 91//154 92//154 67//154
f 71//155 93//155 73//155
f 92//156 93//156 71//156
f 73//157 94//157 75//157
f 93//158 94//158 73//158
f 75//159 95//159 78//159
f 94//160 95//160 75//160
f 95//161 96//161 78//161
f 78//162 6//162 2//162
f 96//163 6//163 78//163
f 89//164 80//164 88//164
f 79//165 80//165 89//165
f 88//166 81//166 90//166
f 80//167 81//167 88//167
f 90//168 82//168 91//168
f 81//169 82//169 90//169
f 91//170 83//170 92//170
f 92//171 83//171 93//171
f 82//172 83//172 91//172
f 93//173 84//173 94//173
f 83//174 84//174 93//174
f 94//175 85//175 95//175
f 84//176 85//176 94//176
f 95//177 86//177 96//177
f 85//178 86//178 95//178
f 96//179 87//179 6//179
f 86//180 87//180 96//180
f 87//181 10//181 6//181
f 25//182 24//182 97//182
f 97//183 24//183 98//183
f 32//184 25//184 99//184
f 99//185 25//185 97//185
f 24//186 39//186 98//186
f 98//187 39//187 100//187
f 46//188 32//188 101//188
f 101//189 32//189 99//189
f 39//190 53//190 100//190
f 100//191 53//191 102//191
f 60//192 46//192 103//192
f 103//193 46//193 101//193
f 53//194 60//194 102//194
f 102//195 60//195 103//195
f 104//196 105//196 61//196
f 61//197 105//197 64//197
f 106//198 104//198 79//198
f 79//199 104//199 61//199
f 105//200 107//200 64//200
f 64//201 107//201 89//201
f 107//202 106//202 89//202
f 89//203 106//203 79//203
f 102//204 98//204 100//204
f 103//205 98//205 102//205
f 101//206 99//206 97//206
f 101//207 97//207 98//207
f 101//208 98//208 103//208
f 104//209 106//209 105//209
f 105//210 106//210 107//210
