# Created by FreeCAD <http://www.freecadweb.org>
v -139.976486 118.358322 0.000000
v -139.976486 -118.358322 0.000000
v -139.976486 118.358322 50.000000
v -139.976486 -118.358322 50.000000
v -129.976486 128.358322 0.000000
v -130.467163 128.346283 0.000000
v -129.976486 128.358322 50.000000
v -130.467163 128.346283 50.000000
v -130.956650 128.310165 0.000000
v -130.956650 128.310165 50.000000
v -131.443787 128.250092 50.000000
v -131.443787 128.250092 0.000000
v -131.927383 128.166168 0.000000
v -131.927383 128.166168 50.000000
v -132.406281 128.058640 50.000000
v -132.406281 128.058640 0.000000
v -132.879333 127.927727 50.000000
v -132.879333 127.927727 0.000000
v -133.345383 127.773766 50.000000
v -133.345383 127.773766 0.000000
v -133.803314 127.597115 0.000000
v -133.803314 127.597115 50.000000
v -134.252029 127.398216 50.000000
v -134.252029 127.398216 0.000000
v -134.690460 127.177536 0.000000
v -134.690460 127.177536 50.000000
v -135.117508 126.935608 0.000000
v -135.117508 126.935608 50.000000
v -135.532181 126.673019 0.000000
v -135.532181 126.673019 50.000000
v -135.933472 126.390396 0.000000
v -135.933472 126.390396 50.000000
v -136.320419 126.088425 0.000000
v -136.320419 126.088425 50.000000
v -136.692078 125.767830 0.000000
v -136.692078 125.767830 50.000000
v -137.047546 125.429390 0.000000
v -137.047546 125.429390 50.000000
v -137.386002 125.073914 0.000000
v -137.386002 125.073914 50.000000
v -137.706589 124.702255 50.000000
v -137.706589 124.702255 0.000000
v -138.008560 124.315315 0.000000
v -138.008560 124.315315 50.000000
v -138.291183 123.914024 0.000000
v -138.291183 123.914024 50.000000
v -138.553772 123.499352 0.000000
v -138.553772 123.499352 50.000000
v -138.795700 123.072289 0.000000
v -138.795700 123.072289 50.000000
v -139.016373 122.633873 0.000000
v -139.016373 122.633873 50.000000
v -139.215286 122.185158 50.000000
v -139.215286 122.185158 0.000000
v -139.391922 121.727219 50.000000
v -139.391922 121.727219 0.000000
v -139.545883 121.261169 0.000000
v -139.545883 121.261169 50.000000
v -139.676804 120.788124 0.000000
v -139.676804 120.788124 50.000000
v -139.784332 120.309227 0.000000
v -139.784332 120.309227 50.000000
v -139.868256 119.825630 50.000000
v -139.868256 119.825630 0.000000
v -139.928329 119.338493 0.000000
v -139.928329 119.338493 50.000000
v -139.964447 118.848999 0.000000
v -139.964447 118.848999 50.000000
v -139.964447 -118.848999 0.000000
v -139.964447 -118.848999 50.000000
v -139.928329 -119.338493 50.000000
v -139.928329 -119.338493 0.000000
v -139.868256 -119.825630 50.000000
v -139.868256 -119.825630 0.000000
v -139.784332 -120.309227 0.000000
v -139.784332 -120.309227 50.000000
v -139.676804 -120.788124 0.000000
v -139.676804 -120.788124 50.000000
v -139.545883 -121.261169 0.000000
v -139.545883 -121.261169 50.000000
v -139.391922 -121.727219 50.000000
v -139.391922 -121.727219 0.000000
v -139.215286 -122.185158 0.000000
v -139.215286 -122.185158 50.000000
v -139.016373 -122.633873 0.000000
v -139.016373 -122.633873 50.000000
v -138.795700 -123.072289 0.000000
v -138.795700 -123.072289 50.000000
v -138.553772 -123.499352 0.000000
v -138.553772 -123.499352 50.000000
v -138.291183 -123.914024 50.000000
v -138.291183 -123.914024 0.000000
v -138.008560 -124.315315 50.000000
v -138.008560 -124.315315 0.000000
v -137.706589 -124.702255 0.000000
v -137.706589 -124.702255 50.000000
v -137.386002 -125.073914 0.000000
v -137.386002 -125.073914 50.000000
v -137.047546 -125.429390 0.000000
v -137.047546 -125.429390 50.000000
v -136.692078 -125.767830 0.000000
v -136.692078 -125.767830 50.000000
v -136.320419 -126.088425 50.000000
v -136.320419 -126.088425 0.000000
v -135.933472 -126.390396 0.000000
v -135.933472 -126.390396 50.000000
v -135.532181 -126.673019 0.000000
v -135.532181 -126.673019 50.000000
v -135.117508 -126.935608 0.000000
v -135.117508 -126.935608 50.000000
v -134.690460 -127.177536 0.000000
v -134.690460 -127.177536 50.000000
v -134.252029 -127.398216 0.000000
v -134.252029 -127.398216 50.000000
v -133.803314 -127.597115 50.000000
v -133.803314 -127.597115 0.000000
v -133.345383 -127.773766 0.000000
v -133.345383 -127.773766 50.000000
v -132.879333 -127.927727 0.000000
v -132.879333 -127.927727 50.000000
v -132.406281 -128.058640 0.000000
v -132.406281 -128.058640 50.000000
v -131.927383 -128.166168 0.000000
v -131.927383 -128.166168 50.000000
v -131.443787 -128.250092 0.000000
v -131.443787 -128.250092 50.000000
v -130.956650 -128.310165 0.000000
v -130.956650 -128.310165 50.000000
v -130.467163 -128.346283 0.000000
v -130.467163 -128.346283 50.000000
v -129.976486 -128.358322 0.000000
v -129.976486 -128.358322 50.000000
v 129.976486 -128.358322 0.000000
v 130.956650 -128.310165 0.000000
v 130.467163 -128.346283 0.000000
v 132.406281 -128.058640 0.000000
v 131.443787 -128.250092 0.000000
v 131.927383 -128.166168 0.000000
v 133.803314 -127.597115 0.000000
v 132.879333 -127.927727 0.000000
v 133.345383 -127.773766 0.000000
v 134.252029 -127.398216 0.000000
v 134.690460 -127.177536 0.000000
v 135.532181 -126.673019 0.000000
v 135.117508 -126.935608 0.000000
v 135.933472 -126.390396 0.000000
v 136.692078 -125.767830 0.000000
v 136.320419 -126.088425 0.000000
v 137.386002 -125.073914 0.000000
v 137.047546 -125.429390 0.000000
v 138.008560 -124.315315 0.000000
v 137.706589 -124.702255 0.000000
v 138.291183 -123.914024 0.000000
v 138.553772 -123.499352 0.000000
v 138.795700 -123.072289 0.000000
v 139.391922 -121.727219 0.000000
v 139.016373 -122.633873 0.000000
v 139.215286 -122.185158 0.000000
v 139.545883 -121.261169 0.000000
v 139.784332 -120.309227 0.000000
v 139.676804 -120.788124 0.000000
v 139.868256 -119.825630 0.000000
v 139.964447 -118.848999 0.000000
v 139.928329 -119.338493 0.000000
v 139.976486 -118.358322 0.000000
v 139.976486 118.358322 0.000000
v 129.976486 128.358322 0.000000
v 139.964447 118.848999 0.000000
v 131.927383 128.166168 0.000000
v 139.928329 119.338493 0.000000
v 139.868256 119.825630 0.000000
v 139.784332 120.309227 0.000000
v 131.443787 128.250092 0.000000
v 130.956650 128.310165 0.000000
v 130.467163 128.346283 0.000000
v 132.406281 128.058640 0.000000
v 132.879333 127.927727 0.000000
v 139.215286 122.185158 0.000000
v 139.676804 120.788124 0.000000
v 139.545883 121.261169 0.000000
v 139.391922 121.727219 0.000000
v 139.016373 122.633873 0.000000
v 133.803314 127.597115 0.000000
v 133.345383 127.773766 0.000000
v 134.690460 127.177536 0.000000
v 135.117508 126.935608 0.000000
v 134.252029 127.398216 0.000000
v 138.795700 123.072289 0.000000
v 138.291183 123.914024 0.000000
v 138.553772 123.499352 0.000000
v 135.532181 126.673019 0.000000
v 137.706589 124.702255 0.000000
v 138.008560 124.315315 0.000000
v 137.386002 125.073914 0.000000
v 136.320419 126.088425 0.000000
v 136.692078 125.767830 0.000000
v 135.933472 126.390396 0.000000
v 137.047546 125.429390 0.000000
v -131.899963 -121.423569 50.000000
v -131.899963 121.423569 50.000000
v 131.899963 -121.423569 50.000000
v 129.976486 -128.358322 50.000000
v 130.467163 -128.346283 50.000000
v 130.956650 -128.310165 50.000000
v 131.443787 -128.250092 50.000000
v 131.927383 -128.166168 50.000000
v 132.406281 -128.058640 50.000000
v 132.879333 -127.927727 50.000000
v 133.345383 -127.773766 50.000000
v 133.803314 -127.597115 50.000000
v 134.252029 -127.398216 50.000000
v 134.690460 -127.177536 50.000000
v 135.117508 -126.935608 50.000000
v 135.532181 -126.673019 50.000000
v 135.933472 -126.390396 50.000000
v 136.320419 -126.088425 50.000000
v 136.692078 -125.767830 50.000000
v 137.047546 -125.429390 50.000000
v 137.386002 -125.073914 50.000000
v 137.706589 -124.702255 50.000000
v 138.008560 -124.315315 50.000000
v 138.291183 -123.914024 50.000000
v 138.553772 -123.499352 50.000000
v 138.795700 -123.072289 50.000000
v 139.016373 -122.633873 50.000000
v 139.215286 -122.185158 50.000000
v 139.391922 -121.727219 50.000000
v 139.545883 -121.261169 50.000000
v 139.676804 -120.788124 50.000000
v 139.784332 -120.309227 50.000000
v 139.868256 -119.825630 50.000000
v 139.928329 -119.338493 50.000000
v 139.964447 -118.848999 50.000000
v 139.976486 -118.358322 50.000000
v 139.976486 118.358322 50.000000
v 131.899963 121.423569 50.000000
v 129.976486 128.358322 50.000000
v 139.964447 118.848999 50.000000
v 130.467163 128.346283 50.000000
v 130.956650 128.310165 50.000000
v 139.928329 119.338493 50.000000
v 139.868256 119.825630 50.000000
v 131.443787 128.250092 50.000000
v 139.784332 120.309227 50.000000
v 131.927383 128.166168 50.000000
v 132.406281 128.058640 50.000000
v 139.676804 120.788124 50.000000
v 139.545883 121.261169 50.000000
v 132.879333 127.927727 50.000000
v 139.391922 121.727219 50.000000
v 133.345383 127.773766 50.000000
v 139.215286 122.185158 50.000000
v 133.803314 127.597115 50.000000
v 139.016373 122.633873 50.000000
v 134.252029 127.398216 50.000000
v 138.795700 123.072289 50.000000
v 134.690460 127.177536 50.000000
v 138.553772 123.499352 50.000000
v 135.117508 126.935608 50.000000
v 138.291183 123.914024 50.000000
v 135.532181 126.673019 50.000000
v 138.008560 124.315315 50.000000
v 135.933472 126.390396 50.000000
v 137.706589 124.702255 50.000000
v 136.320419 126.088425 50.000000
v 137.386002 125.073914 50.000000
v 136.692078 125.767830 50.000000
v 137.047546 125.429390 50.000000
v -131.899963 121.423569 1.000000
v 131.899963 121.423569 1.000000
v -131.899963 -121.423569 1.000000
v 131.899963 -121.423569 1.000000
vn -1.000000 0.000000 0.000000
vn -1.000000 -0.000000 0.000000
vn -0.024528 0.999699 0.000000
vn -0.024528 0.999699 0.000000
vn -0.073587 0.997289 0.000000
vn -0.122393 0.992482 0.000000
vn -0.073587 0.997289 0.000000
vn -0.122393 0.992482 0.000000
vn -0.170984 0.985274 0.000000
vn -0.219079 0.975707 0.000000
vn -0.170984 0.985274 0.000000
vn -0.266715 0.963775 0.000000
vn -0.219079 0.975707 0.000000
vn -0.313680 0.949529 0.000000
vn -0.266715 0.963775 0.000000
vn -0.313680 0.949529 0.000000
vn -0.359908 0.932988 0.000000
vn -0.359908 0.932988 0.000000
vn -0.405235 0.914212 0.000000
vn -0.405235 0.914212 0.000000
vn -0.449599 0.893230 0.000000
vn -0.449599 0.893230 0.000000
vn -0.492911 0.870080 0.000000
vn -0.492911 0.870080 0.000000
vn -0.534997 0.844854 0.000000
vn -0.534997 0.844854 0.000000
vn -0.575811 0.817583 0.000000
vn -0.575811 0.817583 0.000000
vn -0.615225 0.788352 0.000000
vn -0.615225 0.788352 0.000000
vn -0.653173 0.757209 0.000000
vn -0.653173 0.757209 0.000000
vn -0.689547 0.724241 0.000000
vn -0.689547 0.724241 0.000000
vn -0.724233 0.689555 0.000000
vn -0.757216 0.653164 0.000000
vn -0.724233 0.689555 0.000000
vn -0.757216 0.653164 0.000000
vn -0.788346 0.615232 0.000000
vn -0.788346 0.615232 0.000000
vn -0.817583 0.575811 0.000000
vn -0.817583 0.575811 0.000000
vn -0.844854 0.534997 0.000000
vn -0.844854 0.534997 0.000000
vn -0.870087 0.492898 0.000000
vn -0.870087 0.492898 0.000000
vn -0.893230 0.449600 0.000000
vn -0.914201 0.405261 0.000000
vn -0.893230 0.449600 0.000000
vn -0.933000 0.359876 0.000000
vn -0.914201 0.405261 0.000000
vn -0.933000 0.359876 0.000000
vn -0.949529 0.313680 0.000000
vn -0.949529 0.313680 0.000000
vn -0.963770 0.266734 0.000000
vn -0.963770 0.266734 0.000000
vn -0.975707 0.219079 0.000000
vn -0.985274 0.170984 0.000000
vn -0.975707 0.219079 0.000000
vn -0.985274 0.170984 0.000000
vn -0.992482 0.122393 0.000000
vn -0.992482 0.122393 0.000000
vn -0.997289 0.073585 0.000000
vn -0.997289 0.073585 0.000000
vn -0.999699 0.024528 0.000000
vn -0.999699 0.024528 0.000000
vn -0.999699 -0.024528 0.000000
vn -0.999699 -0.024528 0.000000
vn -0.997289 -0.073585 -0.000000
vn -0.992482 -0.122393 -0.000000
vn -0.997289 -0.073585 0.000000
vn -0.992482 -0.122393 0.000000
vn -0.985274 -0.170984 0.000000
vn -0.985274 -0.170984 0.000000
vn -0.975707 -0.219079 0.000000
vn -0.975707 -0.219079 0.000000
vn -0.963770 -0.266734 0.000000
vn -0.949529 -0.313680 -0.000000
vn -0.963770 -0.266734 0.000000
vn -0.949529 -0.313680 0.000000
vn -0.933000 -0.359876 0.000000
vn -0.933000 -0.359876 0.000000
vn -0.914201 -0.405261 0.000000
vn -0.914201 -0.405261 0.000000
vn -0.893230 -0.449600 0.000000
vn -0.893230 -0.449600 0.000000
vn -0.870087 -0.492898 0.000000
vn -0.870087 -0.492898 0.000000
vn -0.844854 -0.534997 -0.000000
vn -0.817583 -0.575811 -0.000000
vn -0.844854 -0.534997 0.000000
vn -0.817583 -0.575811 0.000000
vn -0.788346 -0.615232 0.000000
vn -0.788346 -0.615232 0.000000
vn -0.757216 -0.653164 0.000000
vn -0.757216 -0.653164 0.000000
vn -0.724233 -0.689555 0.000000
vn -0.724233 -0.689555 0.000000
vn -0.689547 -0.724241 0.000000
vn -0.653173 -0.757209 -0.000000
vn -0.689547 -0.724241 0.000000
vn -0.653173 -0.757209 0.000000
vn -0.615225 -0.788352 0.000000
vn -0.615225 -0.788352 0.000000
vn -0.575811 -0.817583 0.000000
vn -0.575811 -0.817583 0.000000
vn -0.534997 -0.844854 0.000000
vn -0.534997 -0.844854 0.000000
vn -0.492911 -0.870080 0.000000
vn -0.492911 -0.870080 0.000000
vn -0.449599 -0.893230 0.000000
vn -0.405235 -0.914212 -0.000000
vn -0.449599 -0.893230 0.000000
vn -0.405235 -0.914212 0.000000
vn -0.359908 -0.932988 0.000000
vn -0.359908 -0.932988 0.000000
vn -0.313680 -0.949529 0.000000
vn -0.313680 -0.949529 0.000000
vn -0.266715 -0.963775 0.000000
vn -0.266715 -0.963775 0.000000
vn -0.219079 -0.975707 0.000000
vn -0.219079 -0.975707 0.000000
vn -0.170984 -0.985274 0.000000
vn -0.170984 -0.985274 0.000000
vn -0.122393 -0.992482 0.000000
vn -0.122393 -0.992482 0.000000
vn -0.073587 -0.997289 0.000000
vn -0.073587 -0.997289 0.000000
vn -0.024528 -0.999699 0.000000
vn -0.024528 -0.999699 0.000000
vn 0.000000 0.000000 -1.000000
vn 0.000000 0.000000 -1.000000
vn 0.000000 0.000000 -1.000000
vn 0.000000 0.000000 -1.000000
vn 0.000000 0.000000 -1.000000
vn 0.000000 0.000000 -1.000000
vn 0.000000 0.000000 -1.000000
vn 0.000000 0.000000 -1.000000
vn 0.000000 0.000000 -1.000000
vn 0.000000 0.000000 -1.000000
vn 0.000000 0.000000 -1.000000
vn 0.000000 0.000000 -1.000000
vn 0.000000 0.000000 -1.000000
vn 0.000000 0.000000 -1.000000
vn 0.000000 0.000000 -1.000000
vn 0.000000 0.000000 -1.000000
vn 0.000000 0.000000 -1.000000
vn 0.000000 0.000000 -1.000000
vn 0.000000 0.000000 -1.000000
vn 0.000000 0.000000 -1.000000
vn 0.000000 0.000000 -1.000000
vn 0.000000 0.000000 -1.000000
vn 0.000000 0.000000 -1.000000
vn 0.000000 0.000000 -1.000000
vn 0.000000 0.000000 -1.000000
vn 0.000000 0.000000 -1.000000
vn 0.000000 0.000000 -1.000000
vn 0.000000 0.000000 -1.000000
vn 0.000000 0.000000 -1.000000
vn 0.000000 0.000000 -1.000000
vn 0.000000 0.000000 -1.000000
vn 0.000000 0.000000 -1.000000
vn 0.000000 -0.000000 -1.000000
vn 0.000000 -0.000000 -1.000000
vn 0.000000 -0.000000 -1.000000
vn 0.000000 -0.000000 -1.000000
vn 0.000000 -0.000000 -1.000000
vn 0.000000 -0.000000 -1.000000
vn 0.000000 -0.000000 -1.000000
vn 0.000000 -0.000000 -1.000000
vn 0.000000 -0.000000 -1.000000
vn 0.000000 -0.000000 -1.000000
vn 0.000000 -0.000000 -1.000000
vn 0.000000 -0.000000 -1.000000
vn 0.000000 -0.000000 -1.000000
vn 0.000000 -0.000000 -1.000000
vn 0.000000 -0.000000 -1.000000
vn 0.000000 -0.000000 -1.000000
vn 0.000000 -0.000000 -1.000000
vn 0.000000 -0.000000 -1.000000
vn 0.000000 -0.000000 -1.000000
vn 0.000000 -0.000000 -1.000000
vn 0.000000 -0.000000 -1.000000
vn 0.000000 -0.000000 -1.000000
vn 0.000000 -0.000000 -1.000000
vn 0.000000 -0.000000 -1.000000
vn 0.000000 -0.000000 -1.000000
vn 0.000000 -0.000000 -1.000000
vn 0.000000 -0.000000 -1.000000
vn 0.000000 -0.000000 -1.000000
vn 0.000000 -0.000000 -1.000000
vn 0.000000 -0.000000 -1.000000
vn 0.000000 -0.000000 -1.000000
vn 0.000000 0.000000 -1.000000
vn 0.000000 0.000000 -1.000000
vn 0.000000 0.000000 -1.000000
vn 0.000000 0.000000 -1.000000
vn 0.000000 0.000000 -1.000000
vn 0.000000 0.000000 -1.000000
vn 0.000000 0.000000 -1.000000
vn 0.000000 0.000000 -1.000000
vn 0.000000 0.000000 -1.000000
vn 0.000000 0.000000 -1.000000
vn 0.000000 0.000000 -1.000000
vn 0.000000 0.000000 -1.000000
vn 0.000000 0.000000 -1.000000
vn 0.000000 0.000000 -1.000000
vn 0.000000 0.000000 -1.000000
vn 0.000000 0.000000 -1.000000
vn 0.000000 0.000000 -1.000000
vn 0.000000 0.000000 -1.000000
vn 0.000000 0.000000 -1.000000
vn 0.000000 0.000000 -1.000000
vn 0.000000 0.000000 -1.000000
vn 0.000000 0.000000 -1.000000
vn 0.000000 0.000000 -1.000000
vn 0.000000 0.000000 -1.000000
vn 0.000000 0.000000 -1.000000
vn 0.000000 0.000000 -1.000000
vn 0.000000 0.000000 -1.000000
vn 0.000000 0.000000 -1.000000
vn 0.000000 0.000000 -1.000000
vn 0.000000 0.000000 -1.000000
vn 0.000000 0.000000 -1.000000
vn 0.000000 0.000000 -1.000000
vn 0.000000 0.000000 -1.000000
vn 0.000000 0.000000 -1.000000
vn 0.000000 0.000000 -1.000000
vn 0.000000 0.000000 -1.000000
vn 0.000000 0.000000 -1.000000
vn 0.000000 0.000000 -1.000000
vn 0.000000 0.000000 -1.000000
vn 0.000000 0.000000 -1.000000
vn 0.000000 0.000000 -1.000000
vn -0.000000 -0.000000 -1.000000
vn -0.000000 -0.000000 -1.000000
vn -0.000000 -0.000000 -1.000000
vn -0.000000 -0.000000 -1.000000
vn 0.000000 0.000000 -1.000000
vn 0.000000 0.000000 -1.000000
vn 0.000000 0.000000 -1.000000
vn 0.000000 0.000000 -1.000000
vn -0.000000 -0.000000 -1.000000
vn 0.000000 0.000000 -1.000000
vn -0.000000 -0.000000 -1.000000
vn -0.000000 -0.000000 -1.000000
vn -0.000000 -0.000000 -1.000000
vn -0.000000 -0.000000 -1.000000
vn 0.000000 0.000000 -1.000000
vn -0.000000 -0.000000 -1.000000
vn 0.000000 0.000000 -1.000000
vn 0.000000 0.000000 -1.000000
vn 0.000000 0.000000 -1.000000
vn 0.000000 0.000000 -1.000000
vn 0.000000 0.000000 -1.000000
vn -0.000000 -0.000000 -1.000000
vn -0.000000 -0.000000 -1.000000
vn -0.000000 -0.000000 -1.000000
vn -0.000000 -0.000000 -1.000000
vn 0.000000 0.000000 -1.000000
vn 0.000000 0.000000 1.000000
vn 0.000000 0.000000 1.000000
vn 0.000000 0.000000 1.000000
vn 0.000000 0.000000 1.000000
vn 0.000000 0.000000 1.000000
vn 0.000000 0.000000 1.000000
vn 0.000000 0.000000 1.000000
vn 0.000000 0.000000 1.000000
vn 0.000000 0.000000 1.000000
vn 0.000000 0.000000 1.000000
vn 0.000000 0.000000 1.000000
vn 0.000000 0.000000 1.000000
vn 0.000000 0.000000 1.000000
vn 0.000000 0.000000 1.000000
vn 0.000000 0.000000 1.000000
vn 0.000000 0.000000 1.000000
vn 0.000000 0.000000 1.000000
vn 0.000000 0.000000 1.000000
vn 0.000000 0.000000 1.000000
vn 0.000000 0.000000 1.000000
vn 0.000000 0.000000 1.000000
vn 0.000000 0.000000 1.000000
vn 0.000000 0.000000 1.000000
vn 0.000000 0.000000 1.000000
vn 0.000000 0.000000 1.000000
vn 0.000000 0.000000 1.000000
vn 0.000000 0.000000 1.000000
vn 0.000000 0.000000 1.000000
vn 0.000000 0.000000 1.000000
vn 0.000000 0.000000 1.000000
vn 0.000000 0.000000 1.000000
vn 0.000000 0.000000 1.000000
vn 0.000000 0.000000 1.000000
vn 0.000000 0.000000 1.000000
vn 0.000000 0.000000 1.000000
vn 0.000000 0.000000 1.000000
vn 0.000000 0.000000 1.000000
vn 0.000000 0.000000 1.000000
vn 0.000000 0.000000 1.000000
vn 0.000000 0.000000 1.000000
vn 0.000000 0.000000 1.000000
vn 0.000000 0.000000 1.000000
vn 0.000000 0.000000 1.000000
vn 0.000000 0.000000 1.000000
vn 0.000000 0.000000 1.000000
vn 0.000000 0.000000 1.000000
vn 0.000000 0.000000 1.000000
vn 0.000000 0.000000 1.000000
vn 0.000000 0.000000 1.000000
vn 0.000000 0.000000 1.000000
vn 0.000000 0.000000 1.000000
vn 0.000000 0.000000 1.000000
vn 0.000000 0.000000 1.000000
vn 0.000000 0.000000 1.000000
vn 0.000000 0.000000 1.000000
vn 0.000000 0.000000 1.000000
vn 0.000000 0.000000 1.000000
vn 0.000000 0.000000 1.000000
vn 0.000000 0.000000 1.000000
vn 0.000000 0.000000 1.000000
vn 0.000000 0.000000 1.000000
vn 0.000000 0.000000 1.000000
vn 0.000000 0.000000 1.000000
vn 0.000000 0.000000 1.000000
vn 0.000000 0.000000 1.000000
vn 0.000000 0.000000 1.000000
vn 0.000000 0.000000 1.000000
vn 0.000000 0.000000 1.000000
vn 0.000000 0.000000 1.000000
vn 0.000000 0.000000 1.000000
vn 0.000000 0.000000 1.000000
vn 0.000000 0.000000 1.000000
vn 0.000000 0.000000 1.000000
vn 0.000000 0.000000 1.000000
vn 0.000000 0.000000 1.000000
vn 0.000000 0.000000 1.000000
vn 0.000000 0.000000 1.000000
vn 0.000000 0.000000 1.000000
vn 0.000000 0.000000 1.000000
vn 0.000000 0.000000 1.000000
vn 0.000000 0.000000 1.000000
vn 0.000000 0.000000 1.000000
vn 0.000000 0.000000 1.000000
vn 0.000000 0.000000 1.000000
vn 0.000000 0.000000 1.000000
vn 0.000000 0.000000 1.000000
vn 0.000000 0.000000 1.000000
vn 0.000000 0.000000 1.000000
vn 0.000000 0.000000 1.000000
vn 0.000000 0.000000 1.000000
vn 0.000000 0.000000 1.000000
vn 0.000000 0.000000 1.000000
vn 0.000000 0.000000 1.000000
vn 0.000000 0.000000 1.000000
vn 0.000000 0.000000 1.000000
vn 0.000000 0.000000 1.000000
vn 0.000000 0.000000 1.000000
vn 0.000000 0.000000 1.000000
vn 0.000000 0.000000 1.000000
vn 0.000000 0.000000 1.000000
vn 0.000000 0.000000 1.000000
vn 0.000000 0.000000 1.000000
vn 0.000000 0.000000 1.000000
vn 0.000000 0.000000 1.000000
vn 0.000000 0.000000 1.000000
vn 0.000000 0.000000 1.000000
vn 0.000000 0.000000 1.000000
vn 0.000000 0.000000 1.000000
vn 0.000000 0.000000 1.000000
vn 0.000000 0.000000 1.000000
vn 0.000000 0.000000 1.000000
vn 0.000000 0.000000 1.000000
vn 0.000000 0.000000 1.000000
vn 0.000000 0.000000 1.000000
vn 0.000000 0.000000 1.000000
vn 0.000000 0.000000 1.000000
vn 0.000000 0.000000 1.000000
vn 0.000000 0.000000 1.000000
vn 0.000000 0.000000 1.000000
vn 0.000000 0.000000 1.000000
vn 0.000000 0.000000 1.000000
vn 0.000000 0.000000 1.000000
vn 0.000000 0.000000 1.000000
vn 0.000000 0.000000 1.000000
vn 0.000000 0.000000 1.000000
vn 0.000000 0.000000 1.000000
vn 0.000000 0.000000 1.000000
vn 0.000000 0.000000 1.000000
vn 0.000000 0.000000 1.000000
vn 0.000000 0.000000 1.000000
vn 0.000000 0.000000 1.000000
vn 0.000000 0.000000 1.000000
vn 0.000000 0.000000 1.000000
vn 0.000000 0.000000 1.000000
vn 0.000000 0.000000 1.000000
vn 0.000000 0.000000 1.000000
vn 0.000000 1.000000 -0.000000
vn 0.000000 1.000000 0.000000
vn 0.000000 -1.000000 0.000000
vn 0.000000 -1.000000 0.000000
vn 0.024528 -0.999699 0.000000
vn 0.024528 -0.999699 0.000000
vn 0.073587 -0.997289 0.000000
vn 0.122393 -0.992482 0.000000
vn 0.073587 -0.997289 0.000000
vn 0.122393 -0.992482 0.000000
vn 0.170984 -0.985274 0.000000
vn 0.170984 -0.985274 0.000000
vn 0.219079 -0.975707 0.000000
vn 0.219079 -0.975707 0.000000
vn 0.266715 -0.963775 0.000000
vn 0.313680 -0.949529 0.000000
vn 0.266715 -0.963775 0.000000
vn 0.313680 -0.949529 0.000000
vn 0.359908 -0.932988 0.000000
vn 0.359908 -0.932988 0.000000
vn 0.405235 -0.914212 0.000000
vn 0.405235 -0.914212 0.000000
vn 0.449599 -0.893230 0.000000
vn 0.449599 -0.893230 0.000000
vn 0.492911 -0.870080 0.000000
vn 0.492911 -0.870080 0.000000
vn 0.534997 -0.844854 0.000000
vn 0.575811 -0.817583 0.000000
vn 0.534997 -0.844854 0.000000
vn 0.575811 -0.817583 0.000000
vn 0.615225 -0.788352 0.000000
vn 0.615225 -0.788352 0.000000
vn 0.653173 -0.757209 0.000000
vn 0.653173 -0.757209 0.000000
vn 0.689547 -0.724241 0.000000
vn 0.689547 -0.724241 0.000000
vn 0.724233 -0.689555 0.000000
vn 0.757216 -0.653164 0.000000
vn 0.724233 -0.689555 0.000000
vn 0.757216 -0.653164 0.000000
vn 0.788346 -0.615232 0.000000
vn 0.788346 -0.615232 0.000000
vn 0.817583 -0.575811 0.000000
vn 0.817583 -0.575811 0.000000
vn 0.844854 -0.534997 0.000000
vn 0.844854 -0.534997 0.000000
vn 0.870087 -0.492898 0.000000
vn 0.870087 -0.492898 0.000000
vn 0.893230 -0.449600 0.000000
vn 0.914201 -0.405261 0.000000
vn 0.893230 -0.449600 0.000000
vn 0.914201 -0.405261 0.000000
vn 0.933000 -0.359876 0.000000
vn 0.933000 -0.359876 0.000000
vn 0.949529 -0.313680 0.000000
vn 0.949529 -0.313680 0.000000
vn 0.963770 -0.266734 0.000000
vn 0.963770 -0.266734 0.000000
vn 0.975707 -0.219079 0.000000
vn 0.975707 -0.219079 0.000000
vn 0.985274 -0.170984 0.000000
vn 0.985274 -0.170984 0.000000
vn 0.992482 -0.122393 0.000000
vn 0.992482 -0.122393 0.000000
vn 0.997289 -0.073585 0.000000
vn 0.999699 -0.024528 0.000000
vn 0.997289 -0.073585 0.000000
vn 0.999699 -0.024528 0.000000
vn 1.000000 0.000000 0.000000
vn 1.000000 -0.000000 0.000000
vn 0.999699 0.024528 -0.000000
vn 0.999699 0.024528 0.000000
vn 0.997289 0.073585 0.000000
vn 0.997289 0.073585 -0.000000
vn 0.992482 0.122393 0.000000
vn 0.992482 0.122393 -0.000000
vn 0.985274 0.170984 0.000000
vn 0.985274 0.170984 -0.000000
vn 0.975707 0.219079 0.000000
vn 0.975707 0.219079 -0.000000
vn 0.963770 0.266734 0.000000
vn 0.963770 0.266734 -0.000000
vn 0.949529 0.313680 0.000000
vn 0.933000 0.359876 0.000000
vn 0.949529 0.313680 -0.000000
vn 0.933000 0.359876 0.000000
vn 0.914201 0.405261 -0.000000
vn 0.914201 0.405261 0.000000
vn 0.893230 0.449600 0.000000
vn 0.893230 0.449600 0.000000
vn 0.870087 0.492898 0.000000
vn 0.844854 0.534997 0.000000
vn 0.870087 0.492898 -0.000000
vn 0.844854 0.534997 0.000000
vn 0.817583 0.575811 0.000000
vn 0.788346 0.615232 0.000000
vn 0.817583 0.575811 -0.000000
vn 0.757216 0.653164 0.000000
vn 0.788346 0.615232 0.000000
vn 0.757216 0.653164 0.000000
vn 0.724233 0.689555 0.000000
vn 0.689547 0.724241 0.000000
vn 0.724233 0.689555 -0.000000
vn 0.689547 0.724241 0.000000
vn 0.653173 0.757209 0.000000
vn 0.615225 0.788352 0.000000
vn 0.653173 0.757209 -0.000000
vn 0.615225 0.788352 0.000000
vn 0.575811 0.817583 0.000000
vn 0.534997 0.844854 0.000000
vn 0.575811 0.817583 -0.000000
vn 0.534997 0.844854 0.000000
vn 0.492911 0.870080 0.000000
vn 0.492911 0.870080 -0.000000
vn 0.449599 0.893230 0.000000
vn 0.449599 0.893230 -0.000000
vn 0.405235 0.914212 0.000000
vn 0.405235 0.914212 -0.000000
vn 0.359908 0.932988 0.000000
vn 0.359908 0.932988 -0.000000
vn 0.313680 0.949529 0.000000
vn 0.266715 0.963775 0.000000
vn 0.313680 0.949529 -0.000000
vn 0.266715 0.963775 0.000000
vn 0.219079 0.975707 0.000000
vn 0.219079 0.975707 -0.000000
vn 0.170984 0.985274 0.000000
vn 0.122393 0.992482 0.000000
vn 0.170984 0.985274 -0.000000
vn 0.122393 0.992482 0.000000
vn 0.073587 0.997289 0.000000
vn 0.073587 0.997289 -0.000000
vn 0.024528 0.999699 0.000000
vn 0.024528 0.999699 -0.000000
vn -0.000000 -1.000000 0.000000
vn 0.000000 -1.000000 -0.000000
vn 1.000000 0.000000 0.000000
vn 1.000000 0.000000 0.000000
vn -0.000000 1.000000 0.000000
vn 0.000000 1.000000 0.000000
vn -1.000000 0.000000 0.000000
vn -1.000000 0.000000 0.000000
vn 0.000000 0.000000 1.000000
vn -0.000000 0.000000 1.000000
f 1//1 2//1 3//1
f 3//2 2//2 4//2
f 5//3 6//3 7//3
f 7//4 6//4 8//4
f 8//5 9//5 10//5
f 10//6 9//6 11//6
f 6//7 9//7 8//7
f 9//8 12//8 11//8
f 11//9 13//9 14//9
f 14//10 13//10 15//10
f 12//11 13//11 11//11
f 15//12 16//12 17//12
f 13//13 16//13 15//13
f 17//14 18//14 19//14
f 16//15 18//15 17//15
f 18//16 20//16 19//16
f 20//17 21//17 19//17
f 19//18 21//18 22//18
f 22//19 21//19 23//19
f 21//20 24//20 23//20
f 23//21 25//21 26//21
f 24//22 25//22 23//22
f 26//23 27//23 28//23
f 25//24 27//24 26//24
f 28//25 29//25 30//25
f 27//26 29//26 28//26
f 30//27 31//27 32//27
f 29//28 31//28 30//28
f 32//29 33//29 34//29
f 31//30 33//30 32//30
f 34//31 35//31 36//31
f 33//32 35//32 34//32
f 36//33 37//33 38//33
f 35//34 37//34 36//34
f 38//35 39//35 40//35
f 40//36 39//36 41//36
f 37//37 39//37 38//37
f 39//38 42//38 41//38
f 41//39 43//39 44//39
f 42//40 43//40 41//40
f 44//41 45//41 46//41
f 43//42 45//42 44//42
f 46//43 47//43 48//43
f 45//44 47//44 46//44
f 48//45 49//45 50//45
f 47//46 49//46 48//46
f 50//47 51//47 52//47
f 52//48 51//48 53//48
f 49//49 51//49 50//49
f 53//50 54//50 55//50
f 51//51 54//51 53//51
f 54//52 56//52 55//52
f 55//53 57//53 58//53
f 56//54 57//54 55//54
f 58//55 59//55 60//55
f 57//56 59//56 58//56
f 60//57 61//57 62//57
f 62//58 61//58 63//58
f 59//59 61//59 60//59
f 61//60 64//60 63//60
f 63//61 65//61 66//61
f 64//62 65//62 63//62
f 66//63 67//63 68//63
f 65//64 67//64 66//64
f 68//65 1//65 3//65
f 67//66 1//66 68//66
f 2//67 69//67 4//67
f 4//68 69//68 70//68
f 70//69 69//69 71//69
f 71//70 72//70 73//70
f 69//71 72//71 71//71
f 72//72 74//72 73//72
f 73//73 75//73 76//73
f 74//74 75//74 73//74
f 76//75 77//75 78//75
f 75//76 77//76 76//76
f 78//77 79//77 80//77
f 80//78 79//78 81//78
f 77//79 79//79 78//79
f 79//80 82//80 81//80
f 82//81 83//81 81//81
f 81//82 83//82 84//82
f 83//83 85//83 84//83
f 84//84 85//84 86//84
f 86//85 87//85 88//85
f 85//86 87//86 86//86
f 88//87 89//87 90//87
f 87//88 89//88 88//88
f 90//89 89//89 91//89
f 91//90 92//90 93//90
f 89//91 92//91 91//91
f 92//92 94//92 93//92
f 93//93 95//93 96//93
f 94//94 95//94 93//94
f 96//95 97//95 98//95
f 95//96 97//96 96//96
f 98//97 99//97 100//97
f 97//98 99//98 98//98
f 100//99 101//99 102//99
f 102//100 101//100 103//100
f 99//101 101//101 100//101
f 101//102 104//102 103//102
f 103//103 105//103 106//103
f 104//104 105//104 103//104
f 106//105 107//105 108//105
f 105//106 107//106 106//106
f 108//107 109//107 110//107
f 107//108 109//108 108//108
f 110//109 111//109 112//109
f 109//110 111//110 110//110
f 112//111 113//111 114//111
f 114//112 113//112 115//112
f 111//113 113//113 112//113
f 113//114 116//114 115//114
f 115//115 117//115 118//115
f 116//116 117//116 115//116
f 118//117 119//117 120//117
f 117//118 119//118 118//118
f 120//119 121//119 122//119
f 119//120 121//120 120//120
f 122//121 123//121 124//121
f 121//122 123//122 122//122
f 124//123 125//123 126//123
f 123//124 125//124 124//124
f 126//125 127//125 128//125
f 125//126 127//126 126//126
f 128//127 129//127 130//127
f 127//128 129//128 128//128
f 130//129 131//129 132//129
f 129//130 131//130 130//130
f 99//131 97//131 101//131
f 101//132 107//132 104//132
f 104//133 107//133 105//133
f 97//134 107//134 101//134
f 94//135 92//135 95//135
f 89//136 87//136 92//136
f 95//137 87//137 97//137
f 92//138 87//138 95//138
f 107//139 116//139 109//139
f 109//140 116//140 111//140
f 111//141 116//141 113//141
f 97//142 116//142 107//142
f 85//143 83//143 87//143
f 83//144 82//144 87//144
f 116//145 119//145 117//145
f 116//146 121//146 119//146
f 79//147 77//147 82//147
f 87//148 77//148 97//148
f 82//149 77//149 87//149
f 121//150 125//150 123//150
f 75//151 74//151 77//151
f 77//152 127//152 97//152
f 97//153 127//153 116//153
f 121//154 127//154 125//154
f 116//155 127//155 121//155
f 72//156 69//156 74//156
f 127//157 131//157 129//157
f 69//158 2//158 74//158
f 74//159 2//159 77//159
f 77//160 2//160 127//160
f 127//161 2//161 131//161
f 2//162 1//162 131//162
f 65//163 64//163 67//163
f 67//164 64//164 1//164
f 64//165 61//165 1//165
f 57//166 56//166 59//166
f 59//167 56//167 61//167
f 61//168 54//168 1//168
f 56//169 54//169 61//169
f 49//170 47//170 51//170
f 51//171 47//171 54//171
f 54//172 45//172 1//172
f 47//173 45//173 54//173
f 43//174 42//174 45//174
f 45//175 42//175 1//175
f 37//176 35//176 39//176
f 31//177 29//177 33//177
f 33//178 29//178 35//178
f 39//179 29//179 42//179
f 35//180 29//180 39//180
f 29//181 27//181 42//181
f 24//182 21//182 25//182
f 25//183 21//183 27//183
f 27//184 21//184 42//184
f 21//185 20//185 42//185
f 20//186 18//186 42//186
f 13//187 12//187 16//187
f 16//188 12//188 18//188
f 42//189 12//189 1//189
f 18//190 12//190 42//190
f 6//191 5//191 9//191
f 9//192 5//192 12//192
f 12//193 5//193 1//193
f 1//194 5//194 131//194
f 133//195 134//195 135//195
f 134//196 136//196 137//196
f 137//197 136//197 138//197
f 133//198 136//198 134//198
f 136//199 139//199 140//199
f 140//200 139//200 141//200
f 133//201 142//201 136//201
f 136//202 142//202 139//202
f 133//203 143//203 142//203
f 143//204 144//204 145//204
f 143//205 146//205 144//205
f 146//206 147//206 148//206
f 147//207 149//207 150//207
f 133//208 149//208 143//208
f 143//209 149//209 146//209
f 146//210 149//210 147//210
f 149//211 151//211 152//211
f 149//212 153//212 151//212
f 133//213 153//213 149//213
f 133//214 154//214 153//214
f 133//215 155//215 154//215
f 133//216 156//216 155//216
f 155//217 156//217 157//217
f 157//218 156//218 158//218
f 159//219 160//219 161//219
f 159//220 162//220 160//220
f 159//221 163//221 162//221
f 162//222 163//222 164//222
f 133//223 165//223 156//223
f 159//224 165//224 163//224
f 156//225 165//225 159//225
f 133//226 166//226 165//226
f 133//227 167//227 166//227
f 131//228 167//228 133//228
f 5//229 167//229 131//229
f 167//230 168//230 166//230
f 167//231 169//231 168//231
f 168//232 169//232 170//232
f 170//233 169//233 171//233
f 171//234 169//234 172//234
f 173//235 169//235 174//235
f 174//236 169//236 175//236
f 175//237 169//237 167//237
f 176//238 177//238 169//238
f 172//239 178//239 179//239
f 179//240 178//240 180//240
f 180//241 178//241 181//241
f 169//242 182//242 172//242
f 177//243 182//243 169//243
f 172//244 182//244 178//244
f 183//245 182//245 184//245
f 184//246 182//246 177//246
f 185//247 186//247 187//247
f 187//248 186//248 183//248
f 188//249 189//249 190//249
f 186//250 191//250 183//250
f 182//251 192//251 188//251
f 189//252 192//252 193//252
f 188//253 192//253 189//253
f 183//254 194//254 182//254
f 182//255 194//255 192//255
f 195//256 196//256 197//256
f 197//257 196//257 191//257
f 191//258 198//258 183//258
f 196//259 198//259 191//259
f 183//260 198//260 194//260
f 199//261 4//261 70//261
f 199//262 70//262 71//262
f 199//263 71//263 73//263
f 199//264 73//264 76//264
f 199//265 76//265 78//265
f 199//266 78//266 80//266
f 199//267 80//267 81//267
f 199//268 81//268 84//268
f 199//269 84//269 86//269
f 199//270 86//270 88//270
f 199//271 88//271 90//271
f 199//272 90//272 91//272
f 199//273 91//273 93//273
f 199//274 93//274 96//274
f 199//275 96//275 98//275
f 199//276 98//276 100//276
f 199//277 100//277 102//277
f 199//278 102//278 103//278
f 199//279 103//279 106//279
f 199//280 106//280 108//280
f 199//281 108//281 110//281
f 199//282 110//282 112//282
f 199//283 112//283 114//283
f 199//284 114//284 115//284
f 199//285 115//285 118//285
f 199//286 118//286 120//286
f 199//287 120//287 122//287
f 199//288 122//288 124//288
f 199//289 124//289 126//289
f 199//290 126//290 128//290
f 199//291 128//291 130//291
f 199//292 130//292 132//292
f 200//293 3//293 4//293
f 200//294 4//294 199//294
f 200//295 36//295 38//295
f 200//296 38//296 40//296
f 200//297 40//297 41//297
f 200//298 41//298 44//298
f 200//299 44//299 46//299
f 200//300 46//300 48//300
f 200//301 48//301 50//301
f 200//302 50//302 52//302
f 200//303 52//303 53//303
f 200//304 53//304 55//304
f 200//305 55//305 58//305
f 200//306 58//306 60//306
f 200//307 60//307 62//307
f 200//308 62//308 63//308
f 200//309 63//309 66//309
f 200//310 66//310 68//310
f 200//311 68//311 3//311
f 34//312 36//312 200//312
f 32//313 34//313 200//313
f 30//314 32//314 200//314
f 28//315 30//315 200//315
f 26//316 28//316 200//316
f 23//317 26//317 200//317
f 22//318 23//318 200//318
f 19//319 22//319 200//319
f 17//320 19//320 200//320
f 15//321 17//321 200//321
f 14//322 15//322 200//322
f 11//323 14//323 200//323
f 10//324 11//324 200//324
f 8//325 10//325 200//325
f 7//326 8//326 200//326
f 201//327 199//327 132//327
f 201//328 132//328 202//328
f 201//329 202//329 203//329
f 201//330 203//330 204//330
f 201//331 204//331 205//331
f 201//332 205//332 206//332
f 201//333 206//333 207//333
f 201//334 207//334 208//334
f 201//335 208//335 209//335
f 201//336 209//336 210//336
f 201//337 210//337 211//337
f 201//338 211//338 212//338
f 201//339 212//339 213//339
f 201//340 213//340 214//340
f 201//341 214//341 215//341
f 201//342 215//342 216//342
f 217//343 201//343 216//343
f 218//344 201//344 217//344
f 219//345 201//345 218//345
f 220//346 201//346 219//346
f 221//347 201//347 220//347
f 222//348 201//348 221//348
f 223//349 201//349 222//349
f 224//350 201//350 223//350
f 225//351 201//351 224//351
f 226//352 201//352 225//352
f 227//353 201//353 226//353
f 228//354 201//354 227//354
f 229//355 201//355 228//355
f 230//356 201//356 229//356
f 231//357 201//357 230//357
f 232//358 201//358 231//358
f 233//359 201//359 232//359
f 234//360 201//360 233//360
f 235//361 236//361 201//361
f 235//362 201//362 234//362
f 237//363 200//363 236//363
f 237//364 7//364 200//364
f 238//365 236//365 235//365
f 239//366 237//366 236//366
f 240//367 239//367 236//367
f 241//368 236//368 238//368
f 242//369 236//369 241//369
f 243//370 240//370 236//370
f 244//371 236//371 242//371
f 245//372 243//372 236//372
f 246//373 245//373 236//373
f 247//374 236//374 244//374
f 248//375 236//375 247//375
f 249//376 246//376 236//376
f 250//377 236//377 248//377
f 251//378 249//378 236//378
f 252//379 236//379 250//379
f 253//380 251//380 236//380
f 254//381 236//381 252//381
f 255//382 253//382 236//382
f 256//383 236//383 254//383
f 257//384 255//384 236//384
f 258//385 236//385 256//385
f 259//386 257//386 236//386
f 260//387 236//387 258//387
f 261//388 259//388 236//388
f 262//389 236//389 260//389
f 263//390 261//390 236//390
f 264//391 236//391 262//391
f 265//392 263//392 236//392
f 266//393 236//393 264//393
f 267//394 265//394 236//394
f 268//395 236//395 266//395
f 268//396 267//396 236//396
f 167//397 5//397 237//397
f 237//398 5//398 7//398
f 131//399 133//399 132//399
f 132//400 133//400 202//400
f 133//401 135//401 202//401
f 202//402 135//402 203//402
f 203//403 135//403 204//403
f 204//404 134//404 205//404
f 135//405 134//405 204//405
f 134//406 137//406 205//406
f 205//407 138//407 206//407
f 137//408 138//408 205//408
f 206//409 136//409 207//409
f 138//410 136//410 206//410
f 207//411 140//411 208//411
f 208//412 140//412 209//412
f 136//413 140//413 207//413
f 140//414 141//414 209//414
f 141//415 139//415 209//415
f 209//416 139//416 210//416
f 139//417 142//417 210//417
f 210//418 142//418 211//418
f 211//419 143//419 212//419
f 142//420 143//420 211//420
f 212//421 145//421 213//421
f 143//422 145//422 212//422
f 213//423 145//423 214//423
f 214//424 144//424 215//424
f 145//425 144//425 214//425
f 144//426 146//426 215//426
f 215//427 148//427 216//427
f 146//428 148//428 215//428
f 216//429 147//429 217//429
f 148//430 147//430 216//430
f 217//431 150//431 218//431
f 147//432 150//432 217//432
f 218//433 149//433 219//433
f 219//434 149//434 220//434
f 150//435 149//435 218//435
f 149//436 152//436 220//436
f 220//437 151//437 221//437
f 152//438 151//438 220//438
f 221//439 153//439 222//439
f 151//440 153//440 221//440
f 222//441 154//441 223//441
f 153//442 154//442 222//442
f 223//443 155//443 224//443
f 154//444 155//444 223//444
f 224//445 157//445 225//445
f 225//446 157//446 226//446
f 155//447 157//447 224//447
f 157//448 158//448 226//448
f 226//449 156//449 227//449
f 158//450 156//450 226//450
f 227//451 159//451 228//451
f 156//452 159//452 227//452
f 228//453 161//453 229//453
f 159//454 161//454 228//454
f 229//455 160//455 230//455
f 161//456 160//456 229//456
f 230//457 162//457 231//457
f 160//458 162//458 230//458
f 231//459 164//459 232//459
f 162//460 164//460 231//460
f 232//461 163//461 233//461
f 233//462 163//462 234//462
f 164//463 163//463 232//463
f 163//464 165//464 234//464
f 165//465 166//465 234//465
f 234//466 166//466 235//466
f 166//467 168//467 235//467
f 235//468 168//468 238//468
f 238//469 170//469 241//469
f 168//470 170//470 238//470
f 241//471 171//471 242//471
f 170//472 171//472 241//472
f 242//473 172//473 244//473
f 171//474 172//474 242//474
f 244//475 179//475 247//475
f 172//476 179//476 244//476
f 247//477 180//477 248//477
f 179//478 180//478 247//478
f 248//479 181//479 250//479
f 250//480 181//480 252//480
f 180//481 181//481 248//481
f 181//482 178//482 252//482
f 178//483 182//483 252//483
f 252//484 182//484 254//484
f 254//485 182//485 256//485
f 182//486 188//486 256//486
f 256//487 190//487 258//487
f 258//488 190//488 260//488
f 188//489 190//489 256//489
f 190//490 189//490 260//490
f 260//491 193//491 262//491
f 262//492 193//492 264//492
f 189//493 193//493 260//493
f 264//494 192//494 266//494
f 193//495 192//495 264//495
f 192//496 194//496 266//496
f 266//497 198//497 268//497
f 268//498 198//498 267//498
f 194//499 198//499 266//499
f 198//500 196//500 267//500
f 267//501 195//501 265//501
f 265//502 195//502 263//502
f 196//503 195//503 267//503
f 195//504 197//504 263//504
f 263//505 191//505 261//505
f 261//506 191//506 259//506
f 197//507 191//507 263//507
f 191//508 186//508 259//508
f 259//509 185//509 257//509
f 186//510 185//510 259//510
f 257//511 187//511 255//511
f 185//512 187//512 257//512
f 255//513 183//513 253//513
f 187//514 183//514 255//514
f 253//515 184//515 251//515
f 183//516 184//516 253//516
f 251//517 177//517 249//517
f 249//518 177//518 246//518
f 184//519 177//519 251//519
f 177//520 176//520 246//520
f 246//521 169//521 245//521
f 176//522 169//522 246//522
f 245//523 173//523 243//523
f 243//524 173//524 240//524
f 169//525 173//525 245//525
f 173//526 174//526 240//526
f 240//527 175//527 239//527
f 174//528 175//528 240//528
f 239//529 167//529 237//529
f 175//530 167//530 239//530
f 236//531 200//531 269//531
f 236//532 269//532 270//532
f 200//533 199//533 271//533
f 200//534 271//534 269//534
f 199//535 201//535 272//535
f 199//536 272//536 271//536
f 201//537 236//537 270//537
f 201//538 270//538 272//538
f 269//539 271//539 272//539
f 269//540 272//540 270//540
