# Created by FreeCAD <http://www.freecadweb.org>
v 110.000000 -110.000000 0.000000
v 110.000000 110.000000 0.000000
v 110.000000 110.000000 80.000000
v 110.000000 -110.000000 80.000000
v -110.000000 110.000000 0.000000
v -110.000000 110.000000 80.000000
v -110.000000 -110.000000 0.000000
v -110.000000 -110.000000 80.000000
v 105.000000 -105.000000 80.000000
v -105.000000 -105.000000 80.000000
v -105.000000 105.000000 80.000000
v 105.000000 105.000000 80.000000
v 105.000000 -105.000000 5.000000
v 105.000000 105.000000 5.000000
v -105.000000 105.000000 5.000000
v -105.000000 -105.000000 5.000000
vn 1.000000 0.000000 0.000000
vn 1.000000 0.000000 0.000000
vn 0.000000 1.000000 0.000000
vn 0.000000 1.000000 -0.000000
vn 0.000000 -1.000000 0.000000
vn 0.000000 -1.000000 0.000000
vn 0.000000 0.000000 -1.000000
vn 0.000000 0.000000 -1.000000
vn 0.000000 0.000000 1.000000
vn 0.000000 0.000000 1.000000
vn 0.000000 0.000000 1.000000
vn 0.000000 0.000000 1.000000
vn 0.000000 0.000000 1.000000
vn 0.000000 0.000000 1.000000
vn 0.000000 0.000000 1.000000
vn 0.000000 0.000000 1.000000
vn -1.000000 0.000000 0.000000
vn -1.000000 0.000000 0.000000
vn -1.000000 0.000000 0.000000
vn -1.000000 0.000000 0.000000
vn -0.000000 -1.000000 -0.000000
vn 0.000000 -1.000000 0.000000
vn 1.000000 0.000000 0.000000
vn 1.000000 0.000000 0.000000
vn -0.000000 1.000000 0.000000
vn 0.000000 1.000000 0.000000
vn 0.000000 0.000000 1.000000
vn 0.000000 0.000000 1.000000
f 1//1 2//1 3//1
f 1//2 3//2 4//2
f 2//3 5//3 6//3
f 2//4 6//4 3//4
f 7//5 1//5 4//5
f 7//6 4//6 8//6
f 5//7 2//7 7//7
f 7//8 2//8 1//8
f 9//9 8//9 4//9
f 9//10 10//10 8//10
f 6//11 10//11 11//11
f 6//12 8//12 10//12
f 3//13 12//13 9//13
f 3//14 9//14 4//14
f 3//15 6//15 11//15
f 3//16 11//16 12//16
f 5//17 7//17 8//17
f 5//18 8//18 6//18
f 9//19 12//19 13//19
f 13//20 12//20 14//20
f 12//21 11//21 14//21
f 14//22 11//22 15//22
f 11//23 10//23 15//23
f 15//24 10//24 16//24
f 10//25 9//25 16//25
f 16//26 9//26 13//26
f 14//27 15//27 16//27
f 14//28 16//28 13//28
