mtllib item_0048988_adapter_8_d40_d40_details_3.mtl
o item_0048988_adapter_8_d40_d40_details_3_1
v 4 -18.25 2.404
v 4 -14.062 2.404
v 4 -18.25 0
v 4 -14.062 0
v 1.341 -18.25 2.045
v 0 -18.25 2
v -4 -18.25 0
v -1.341 -18.25 2.045
v -2.677 -18.25 2.18
v 2.677 -18.25 2.18
v -4 -18.25 2.404
v -4 -14.062 2.404
v -4 -14.062 0
v 4.234 -13.525 2.453
v 4.391 -12.982 0
v 4.395 -12.965 2.489
v 4.5 -12 0
v 4.497 -11.837 2.512
v 4.497 -11.839 0
v 4.31 -10.706 0
v 4.31 -10.706 2.47
v 3.833 -9.642 2.371
v 3.842 -9.658 0
v 3.125 -8.762 2.246
v 3.125 -8.762 0
v 2.212 -8.081 2.123
v 2.203 -8.076 0
v 1.685 -7.827 2.071
v 1.139 -7.646 0
v 1.13 -7.644 2.032
v 0 -7.5 0
v 0 -7.5 2
v -1.13 -7.644 2.032
v -1.139 -7.646 0
v -1.685 -7.827 2.071
v -2.203 -8.076 0
v -2.212 -8.081 2.123
v -3.125 -8.762 2.246
v -3.125 -8.762 0
v -3.833 -9.642 2.371
v -3.842 -9.658 0
v -4.31 -10.706 2.47
v -4.31 -10.706 0
v -4.497 -11.837 2.512
v -4.497 -11.839 0
v -4.395 -12.965 2.489
v -4.391 -12.982 0
v -4.234 -13.525 2.453
v 0 -4.5 2
v 0.868 -4.416 2.019
v 1.725 -4.156 2.075
v 2.513 -3.733 2.158
v 3.182 -3.182 2.255
v 3.733 -2.512 2.352
v 4.156 -1.725 2.437
v 4.416 -0.868 2.494
v 4.5 0 2.513
v 5.295 -19.286 2.714
v 3.554 -19.682 2.318
v 1.784 -19.92 2.08
v 0 -20 2
v 5.295 19.286 2.714
v 6.995 -18.737 3.263
v 6.995 18.737 3.263
v 8.638 -18.038 3.962
v 8.638 18.038 3.962
v 10.213 17.196 4.804
v 10.213 -17.196 4.804
v 11.706 -16.216 5.784
v 11.706 16.216 5.784
v 13.106 15.107 6.893
v 13.106 -15.107 6.893
v 0 20 2
v 1.341 18.25 2.045
v 1.784 19.92 2.08
v 2.677 18.25 2.18
v 3.554 19.682 2.318
v 4 18.25 2.404
v 4.395 12.965 2.489
v 4.497 11.837 2.512
v 0 18.25 2
v 4 14.062 2.404
v 4.234 13.525 2.453
v 2.513 3.733 2.158
v 3.182 3.182 2.255
v 3.125 8.762 2.246
v 3.733 2.512 2.352
v 3.833 9.642 2.371
v 4.156 1.725 2.437
v 4.31 10.706 2.47
v 4.416 0.868 2.494
v 2.212 8.081 2.123
v 1.725 4.156 2.075
v 1.685 7.827 2.071
v 1.13 7.644 2.032
v 0.868 4.416 2.019
v 0 7.5 2
v 0 4.5 2
v -4 18.25 2.404
v -4 14.062 2.404
v -4 18.25 0
v -4 14.062 0
v -1.341 18.25 2.045
v 4 18.25 0
v -2.677 18.25 2.18
v 4 14.062 0
v -4.267 13.43 2.46
v -4.391 12.982 0
v -4.434 12.769 2.498
v -4.5 12 0
v -4.499 12.105 2.513
v -4.497 11.839 0
v -4.466 11.447 2.505
v -4.31 10.706 0
v -4.332 10.782 2.475
v -4.097 10.138 2.424
v -3.842 9.658 0
v -3.768 9.54 2.358
v -3.362 9.009 2.285
v -3.125 8.762 0
v -2.679 8.384 2.18
v -2.203 8.076 0
v -1.852 7.899 2.086
v -1.139 7.646 0
v -0.935 7.598 2.022
v 0 7.5 0
v 1.139 7.646 0
v 2.203 8.076 0
v 3.125 8.762 0
v 3.842 9.658 0
v 4.31 10.706 0
v 4.497 11.839 0
v 4.391 12.982 0
v -5.295 -19.286 2.714
v -4.5 -0.033 2.513
v -4.45 -0.666 2.501
v -4.307 -1.302 2.469
v -4.072 -1.915 2.419
v -3.752 -2.484 2.355
v -3.362 -2.991 2.285
v -2.679 -3.616 2.18
v -1.852 -4.101 2.086
v -0.935 -4.402 2.022
v -4.327 1.235 2.474
v -4.46 0.598 2.504
v -5.295 19.286 2.714
v -4.101 1.851 2.425
v -3.79 2.426 2.362
v -3.406 2.941 2.292
v -2.966 3.384 2.221
v -2.456 3.771 2.151
v -1.883 4.087 2.089
v -1.268 4.317 2.04
v -0.632 4.455 2.01
v -3.554 19.682 2.318
v -1.784 19.92 2.08
v -6.995 18.737 3.263
v -6.995 -18.737 3.263
v -8.638 18.038 3.962
v -8.638 -18.038 3.962
v -10.213 -17.196 4.804
v -10.213 17.196 4.804
v -11.706 16.216 5.784
v -11.706 -16.216 5.784
v -13.106 -15.107 6.893
v -13.106 15.107 6.893
v -3.554 -19.682 2.318
v -1.784 -19.92 2.08
v -13.586 -14.677 7.337
v -13.586 14.677 7.337
v -14.051 -14.232 7.768
v -14.051 14.232 7.768
v -14.084 -14.2 7.793
v -14.084 14.2 7.793
v -14.119 14.165 7.812
v -14.156 14.128 7.822
v -14.156 -14.128 7.822
v -14.119 -14.165 7.812
v -14.193 14.091 7.825
v -14.193 -14.091 7.825
v -14.229 14.054 7.822
v -14.229 -14.054 7.822
v -14.266 -14.017 7.811
v -14.266 14.017 7.811
v -14.302 13.981 7.792
v -14.333 13.948 7.767
v -14.333 -13.948 7.767
v -14.302 -13.981 7.792
v -15.277 -12.908 6.823
v -15.277 12.908 6.823
v -16.145 -11.805 5.955
v -16.145 11.805 5.955
v -16.933 -10.643 5.167
v -16.933 10.643 5.167
v -17.638 -9.428 4.462
v -17.638 9.428 4.462
v -18.256 -8.167 3.844
v -18.256 8.167 3.844
v -18.784 -6.866 3.316
v -18.784 6.866 3.316
v -19.22 -5.531 2.88
v -19.22 5.531 2.88
v -19.561 -4.169 2.539
v -19.561 4.169 2.539
v -19.805 2.783 2.218
v -19.891 -2.088 2.041
v -20 0 1.479
v 10.172 -17.22 0
v 7.492 -18.544 0
v 4.645 -19.453 0
v 1.693 -19.928 0
v 12.625 -15.511 0
v 14.796 -13.457 0
v 16.636 -11.101 0
v 18.105 -8.498 0
v 0 -4.5 0
v 1.165 -4.347 0
v 2.25 -3.897 0
v 3.182 -3.182 0
v 3.897 -2.25 0
v 4.347 -1.165 0
v 19.169 -5.704 0
v 19.805 -2.783 0
v -1.165 -4.347 0
v -2.25 -3.897 0
v -3.182 -3.182 0
v -3.897 -2.25 0
v -1.296 -19.958 0
v -4.256 -19.542 0
v -7.121 -18.689 0
v -9.827 -17.419 0
v -12.313 -15.76 0
v -14.525 -13.749 0
v -16.412 -11.431 0
v -17.932 -8.857 0
v -4.347 -1.165 0
v -10.172 17.22 0
v -7.492 18.544 0
v -4.645 19.453 0
v -1.693 19.928 0
v -12.625 15.511 0
v -14.796 13.457 0
v -16.636 11.101 0
v -18.105 8.498 0
v 0 4.5 0
v -1.165 4.347 0
v -2.25 3.897 0
v -3.182 3.182 0
v -3.897 2.25 0
v -4.347 1.165 0
v -19.169 5.704 0
v -19.805 2.783 0
v 1.165 4.347 0
v 2.25 3.897 0
v 3.182 3.182 0
v 3.897 2.25 0
v 1.296 19.958 0
v 4.256 19.542 0
v 7.121 18.689 0
v 9.827 17.419 0
v 12.313 15.76 0
v 14.525 13.749 0
v 16.412 11.431 0
v 17.932 8.857 0
v 4.347 1.165 0
v 19.052 6.085 0
v 19.746 3.178 0
v 4.5 0 0
v 19.999 0.199 0
v -19.052 -6.085 0
v -19.746 -3.178 0
v -4.5 0 0
v -19.999 -0.199 0
v -20 0 0
v 13.586 -14.677 7.337
v 14.051 -14.232 7.768
v 17.638 -9.428 4.462
v 16.933 -10.643 5.167
v 16.145 -11.805 5.955
v 15.277 -12.908 6.823
v 14.333 -13.948 7.767
v 18.256 -8.167 3.844
v 18.784 -6.866 3.316
v 19.22 -5.531 2.88
v 19.561 -4.169 2.539
v 19.895 -2.048 2.03
v 20 0 1.479
v 19.895 2.048 2.03
v 19.561 4.169 2.539
v 19.22 5.531 2.88
v 18.784 6.866 3.316
v 18.256 8.167 3.844
v 17.638 9.428 4.462
v 16.933 10.643 5.167
v 16.145 11.805 5.955
v 15.277 12.908 6.823
v 13.586 14.677 7.337
v 14.051 14.232 7.768
v 14.333 13.948 7.767
v 14.083 14.201 7.793
v 14.119 14.165 7.812
v 14.156 14.128 7.822
v 14.193 14.091 7.825
v 14.23 14.054 7.822
v 14.267 14.017 7.811
v 14.302 13.981 7.792
v 14.302 -13.981 7.792
v 14.266 -14.017 7.811
v 14.229 -14.054 7.822
v 14.193 -14.091 7.825
v 14.156 -14.128 7.822
v 14.119 -14.165 7.812
v 14.084 -14.2 7.793
vn -1 0 0
vn 0 1 0
vn 1 0 0
vn -0.889 0.458 0
vn -0.941 0.339 0
vn -0.976 0.218 0
vn -0.977 0.214 0
vn -0.999 -0.036 0
vn -0.958 -0.288 0
vn -0.852 -0.524 0
vn -0.854 -0.521 0
vn -0.694 -0.72 0
vn -0.491 -0.871 0
vn -0.49 -0.872 0
vn -0.375 -0.927 0
vn -0.253 -0.967 0
vn -0.251 -0.968 0
vn 0 -1 0
vn 0.251 -0.968 0
vn 0.253 -0.967 0
vn 0.375 -0.927 0
vn 0.49 -0.872 0
vn 0.491 -0.871 0
vn 0.694 -0.72 0
vn 0.852 -0.524 0
vn 0.854 -0.521 0
vn 0.958 -0.288 0
vn 0.999 -0.036 0
vn 0.977 0.214 0
vn 0.976 0.218 0
vn 0.941 0.339 0
vn 0.889 0.458 0
vn 0 0 1
vn -0.043 0 0.999
vn -0.057 0 0.998
vn -0.086 0 0.996
vn -0.084 0 0.996
vn -0.111 0 0.994
vn -0.126 0 0.992
vn -0.156 0 0.988
vn -0.159 0 0.987
vn -0.187 0 0.982
vn -0.192 0 0.981
vn -0.208 0 0.978
vn -0.215 0 0.977
vn -0.221 0 0.975
vn -0.225 0 0.974
vn -0.265 0 0.964
vn -0.22 0 0.976
vn -0.2 0 0.98
vn -0.212 0 0.977
vn -0.178 0 0.984
vn -0.134 0 0.991
vn -0.089 0 0.996
vn -0.067 0 0.998
vn -0.35 0 0.937
vn -0.432 0 0.902
vn -0.511 0 0.86
vn -0.585 0 0.811
vn -0.655 0 0.755
vn 0.889 -0.458 0
vn 0.948 -0.318 0
vn 0.976 -0.218 0
vn 0.985 -0.171 0
vn 1 -0.023 0
vn 0.999 0.036 0
vn 0.992 0.123 0
vn 0.958 0.288 0
vn 0.963 0.271 0
vn 0.91 0.414 0
vn 0.854 0.521 0
vn 0.837 0.547 0
vn 0.747 0.665 0
vn 0.694 0.72 0
vn 0.595 0.804 0
vn 0.49 0.872 0
vn 0.411 0.911 0
vn 0.253 0.967 0
vn 0.208 0.978 0
vn -0.251 0.968 0
vn -0.253 0.967 0
vn -0.375 0.927 0
vn -0.49 0.872 0
vn -0.491 0.871 0
vn -0.694 0.72 0
vn -0.852 0.524 0
vn -0.854 0.521 0
vn -0.958 0.288 0
vn -0.999 0.036 0
vn -0.977 -0.214 0
vn -0.976 -0.218 0
vn -0.941 -0.339 0
vn -0.889 -0.458 0
vn 0.2 0 0.98
vn 0.212 0 0.977
vn 0.22 0 0.976
vn 0.265 0 0.964
vn 0.225 0 0.974
vn 0.223 0 0.975
vn 0.215 0 0.977
vn 0.204 0 0.979
vn 0.192 0 0.981
vn 0.188 0 0.982
vn 0.168 0 0.986
vn 0.156 0 0.988
vn 0.134 0 0.991
vn 0.111 0 0.994
vn 0.093 0 0.996
vn 0.084 0 0.996
vn 0.057 0 0.998
vn 0.047 0 0.999
vn 0.216 0 0.976
vn 0.217 0 0.976
vn 0.222 0 0.975
vn 0.213 0 0.977
vn 0.205 0 0.979
vn 0.189 0 0.982
vn 0.17 0 0.985
vn 0.148 0 0.989
vn 0.123 0 0.992
vn 0.094 0 0.996
vn 0.063 0 0.998
vn 0.032 0 1
vn 0.178 0 0.984
vn 0.089 0 0.996
vn 0.067 0 0.998
vn 0.35 0 0.937
vn 0.432 0 0.902
vn 0.511 0 0.86
vn 0.585 0 0.811
vn 0.655 0 0.755
vn 0.679 0 0.734
vn 0.703 0 0.712
vn 0.541 0 0.841
vn 0.363 0 0.932
vn 0.177 0 0.984
vn -0.006 0 1
vn -0.188 0 0.982
vn -0.373 0 0.928
vn -0.549 0 0.836
vn -0.707 0 0.707
vn -0.87 0 0.493
vn -0.927 0 0.375
vn 0 0 -1
vn -0.99 0.139 0
vn -0.978 0.208 0
vn -1 -0.01 0
vn -0.995 -0.104 0
vn -0.987 -0.159 0
vn -0.978 -0.208 0
vn -0.953 -0.304 0
vn -0.961 -0.277 0
vn -0.939 -0.343 0
vn -0.897 -0.443 0
vn -0.913 -0.408 0
vn -0.882 -0.471 0
vn -0.821 -0.572 0
vn -0.847 -0.532 0
vn -0.807 -0.59 0
vn -0.726 -0.687 0
vn -0.764 -0.645 0
vn -0.717 -0.697 0
vn -0.511 -0.86 0
vn -0.585 -0.811 0
vn -0.616 -0.788 0
vn -0.655 -0.755 0
vn -0.679 -0.734 0
vn -0.703 -0.712 0
vn -0.432 -0.902 0
vn -0.356 -0.934 0
vn -0.35 -0.937 0
vn -0.265 -0.964 0
vn -0.213 -0.977 0
vn -0.178 -0.984 0
vn -0.065 -0.998 0
vn -0.089 -0.996 0
vn 0.085 -0.996 0
vn 0.089 -0.996 0
vn 0.178 -0.984 0
vn 0.232 -0.973 0
vn 0.265 -0.964 0
vn 0.35 -0.937 0
vn 0.432 -0.902 0
vn 0.509 -0.861 0
vn 0.511 -0.86 0
vn 0.585 -0.811 0
vn 0.631 -0.776 0
vn 0.655 -0.755 0
vn 0.74 -0.673 0
vn 0.679 -0.734 0
vn 0.703 -0.712 0
vn 0.882 -0.471 0
vn 0.847 -0.532 0
vn 0.832 -0.555 0
vn 0.807 -0.59 0
vn 0.764 -0.645 0
vn 0.717 -0.697 0
vn 0.905 -0.425 0
vn 0.913 -0.408 0
vn 0.939 -0.343 0
vn 0.958 -0.285 0
vn 0.961 -0.277 0
vn 0.978 -0.208 0
vn 0.99 -0.139 0
vn 0.995 -0.102 0
vn 1 0.01 0
vn 0.995 0.102 0
vn 0.987 0.159 0
vn 0.978 0.208 0
vn 0.953 0.304 0
vn 0.961 0.277 0
vn 0.939 0.343 0
vn 0.897 0.443 0
vn 0.913 0.408 0
vn 0.882 0.471 0
vn 0.821 0.572 0
vn 0.847 0.532 0
vn 0.807 0.59 0
vn 0.726 0.687 0
vn 0.764 0.645 0
vn 0.511 0.86 0
vn 0.585 0.811 0
vn 0.616 0.788 0
vn 0.655 0.755 0
vn 0.679 0.734 0
vn 0.703 0.712 0
vn 0.491 0.871 0
vn 0.432 0.902 0
vn 0.356 0.934 0
vn 0.35 0.937 0
vn 0.265 0.964 0
vn 0.213 0.977 0
vn 0.178 0.984 0
vn 0.065 0.998 0
vn 0.089 0.996 0
vn -0.085 0.996 0
vn -0.089 0.996 0
vn -0.178 0.984 0
vn -0.232 0.973 0
vn -0.265 0.964 0
vn -0.35 0.937 0
vn -0.432 0.902 0
vn -0.509 0.861 0
vn -0.511 0.86 0
vn -0.585 0.811 0
vn -0.631 0.776 0
vn -0.655 0.755 0
vn -0.74 0.673 0
vn -0.679 0.734 0
vn -0.703 0.712 0
vn -0.882 0.471 0
vn -0.847 0.532 0
vn -0.832 0.555 0
vn -0.807 0.59 0
vn -0.764 0.645 0
vn -0.717 0.697 0
vn -0.905 0.425 0
vn -0.913 0.408 0
vn -0.939 0.343 0
vn -0.958 0.285 0
vn -0.961 0.277 0
vn -0.715 0.699 0
vn -0.713 0.701 0
vn -0.711 0.703 0
vn -0.71 0.705 0
vn -0.708 0.706 0
vn -0.706 0.708 0
vn -0.704 0.71 0
vn 0.717 0.697 0
vn 0.704 0.71 0
vn 0.706 0.708 0
vn 0.708 0.706 0
vn 0.71 0.705 0
vn 0.711 0.703 0
vn 0.713 0.701 0
vn 0.715 0.699 0
vn 0.715 -0.699 0
vn 0.713 -0.701 0
vn 0.711 -0.703 0
vn 0.71 -0.705 0
vn 0.708 -0.706 0
vn 0.706 -0.708 0
vn 0.704 -0.71 0
vn -0.704 -0.71 0
vn -0.706 -0.708 0
vn -0.708 -0.706 0
vn -0.71 -0.705 0
vn -0.711 -0.703 0
vn -0.713 -0.701 0
vn -0.715 -0.699 0
vn -0.679 0 0.734
vn 0.707 0 0.707
vn 0.55 0 0.835
vn 0.549 0 0.836
vn 0.374 0 0.927
vn 0.373 0 0.928
vn 0.006 0 1
vn -0.177 0 0.984
vn -0.363 0 0.932
vn -0.364 0 0.931
vn -0.543 0 0.84
vn -0.703 0 0.712
vn -0.541 0 0.841
vn 0.93 0 0.368
vn -0.193 -0.981 0
vn 0.141 -0.99 0
vn 0.259 -0.966 0
vn 0.282 -0.959 0
vn 0.419 -0.908 0
vn 0.5 -0.866 0
vn 0.546 -0.838 0
vn 0.659 -0.752 0
vn 0.707 -0.707 0
vn 0.757 -0.653 0
vn 0.866 -0.5 0
vn 0.842 -0.539 0
vn 0.911 -0.411 0
vn 0.966 -0.259 0
vn 0.962 -0.274 0
vn 0.991 -0.133 0
vn 1 0.007 0
vn 0.989 0.148 0
vn 0.966 0.259 0
vn 0.957 0.289 0
vn 0.905 0.426 0
vn 0.866 0.5 0
vn 0.834 0.552 0
vn 0.707 0.707 0
vn 0.5 0.866 0
vn 0.259 0.966 0
vn -0.193 0.981 0
vn -0.259 0.966 0
vn -0.383 0.924 0
vn -0.5 0.866 0
vn -0.558 0.83 0
vn -0.707 0.707 0
vn -0.83 0.558 0
vn -0.866 0.5 0
vn -0.924 0.383 0
vn -0.966 0.259 0
vn -0.981 0.193 0
vn -0.981 -0.193 0
vn -0.966 -0.259 0
vn -0.924 -0.383 0
vn -0.866 -0.5 0
vn -0.83 -0.558 0
vn -0.707 -0.707 0
vn -0.558 -0.83 0
vn -0.5 -0.866 0
vn -0.383 -0.924 0
vn -0.259 -0.966 0
g item_0048988_adapter_8_d40_d40_details_3_1
usemtl item_0048988_adapter_8_d40_d40_details_3_color_1
f 1//1 2//1 3//1
f 3//1 2//1 4//1
f 5//2 3//2 6//2
f 6//2 3//2 7//2
f 6//2 7//2 8//2
f 8//2 7//2 9//2
f 5//2 10//2 3//2
f 3//2 10//2 1//2
f 7//2 11//2 9//2
f 12//3 11//3 13//3
f 13//3 11//3 7//3
f 2//4 14//5 4//4
f 4//4 14//5 15//6
f 14//5 16//7 15//6
f 15//6 16//7 17//1
f 16//7 18//8 17//1
f 17//1 18//8 19//8
f 19//8 18//8 20//9
f 20//9 18//8 21//9
f 20//9 21//9 22//10
f 20//9 22//10 23//11
f 23//11 22//10 24//12
f 23//11 24//12 25//12
f 25//12 24//12 26//13
f 25//12 26//13 27//14
f 27//14 26//13 28//15
f 27//14 28//15 29//16
f 29//16 28//15 30//17
f 29//16 30//17 31//18
f 31//18 30//17 32//18
f 31//18 32//18 33//19
f 31//18 33//19 34//20
f 34//20 33//19 35//21
f 34//20 35//21 36//22
f 36//22 35//21 37//23
f 36//22 37//23 38//24
f 36//22 38//24 39//24
f 39//24 38//24 40//25
f 39//24 40//25 41//26
f 41//26 40//25 42//27
f 41//26 42//27 43//27
f 43//27 42//27 44//28
f 43//27 44//28 45//28
f 45//28 44//28 46//29
f 45//28 46//29 47//30
f 47//30 46//29 48//31
f 47//30 48//31 13//32
f 13//32 48//31 12//32
f 49//33 32//33 50//34
f 50//34 32//33 30//35
f 50//34 30//35 51//36
f 51//36 30//35 28//37
f 51//36 28//37 26//38
f 51//36 26//38 52//39
f 52//39 26//38 24//40
f 52//39 24//40 53//41
f 53//41 24//40 54//42
f 24//40 22//43 54//42
f 54//42 22//43 55//44
f 22//43 21//45 55//44
f 55//44 21//45 56//46
f 21//45 18//47 56//46
f 56//46 18//47 57//47
f 57//47 18//47 58//48
f 58//48 18//47 16//49
f 58//48 16//49 1//50
f 1//50 16//49 14//51
f 1//50 14//51 2//50
f 58//48 1//50 59//52
f 59//52 1//50 10//53
f 59//52 10//53 60//54
f 60//54 10//53 5//55
f 60//54 5//55 61//33
f 61//33 5//55 6//33
f 57//47 58//48 62//48
f 62//48 58//48 63//56
f 62//48 63//56 64//56
f 64//56 63//56 65//57
f 64//56 65//57 66//57
f 66//57 65//57 67//58
f 65//57 68//58 67//58
f 67//58 68//58 69//59
f 67//58 69//59 70//59
f 70//59 69//59 71//60
f 69//59 72//60 71//60
f 73//33 74//55 75//54
f 75//54 74//55 76//53
f 75//54 76//53 77//52
f 77//52 76//53 78//50
f 77//52 78//50 62//48
f 62//48 78//50 79//49
f 62//48 79//49 80//47
f 73//33 81//33 74//55
f 82//50 83//51 78//50
f 78//50 83//51 79//49
f 84//39 85//41 86//40
f 86//40 85//41 87//42
f 86//40 87//42 88//43
f 88//43 87//42 89//44
f 88//43 89//44 90//45
f 90//45 89//44 91//46
f 90//45 91//46 80//47
f 80//47 91//46 57//47
f 80//47 57//47 62//48
f 86//40 92//38 84//39
f 84//39 92//38 93//36
f 92//38 94//37 93//36
f 93//36 94//37 95//35
f 93//36 95//35 96//34
f 96//34 95//35 97//33
f 96//34 97//33 98//33
f 99//3 100//3 101//3
f 101//3 100//3 102//3
f 103//18 101//18 81//18
f 81//18 101//18 104//18
f 81//18 104//18 74//18
f 74//18 104//18 76//18
f 103//18 105//18 101//18
f 101//18 105//18 99//18
f 104//18 78//18 76//18
f 82//1 78//1 106//1
f 106//1 78//1 104//1
f 100//61 107//62 102//61
f 102//61 107//62 108//63
f 107//62 109//64 108//63
f 108//63 109//64 110//3
f 109//64 111//65 110//3
f 110//3 111//65 112//66
f 111//65 113//67 112//66
f 112//66 113//67 114//68
f 113//67 115//69 114//68
f 114//68 115//69 116//70
f 114//68 116//70 117//71
f 117//71 116//70 118//72
f 117//71 118//72 119//73
f 117//71 119//73 120//74
f 120//74 119//73 121//75
f 120//74 121//75 122//76
f 122//76 121//75 123//77
f 122//76 123//77 124//78
f 124//78 123//77 125//79
f 124//78 125//79 126//2
f 126//2 125//79 97//2
f 126//2 97//2 95//80
f 126//2 95//80 127//81
f 127//81 95//80 94//82
f 127//81 94//82 128//83
f 128//83 94//82 92//84
f 128//83 92//84 86//85
f 128//83 86//85 129//85
f 129//85 86//85 88//86
f 129//85 88//86 130//87
f 130//87 88//86 90//88
f 130//87 90//88 131//88
f 131//88 90//88 80//89
f 131//88 80//89 132//89
f 132//89 80//89 79//90
f 132//89 79//90 133//91
f 133//91 79//90 83//92
f 133//91 83//92 106//93
f 106//93 83//92 82//93
f 12//94 48//95 11//94
f 11//94 48//95 46//96
f 11//94 46//96 134//97
f 134//97 46//96 44//98
f 134//97 44//98 135//98
f 135//98 44//98 136//99
f 44//98 42//100 136//99
f 136//99 42//100 137//100
f 137//100 42//100 138//101
f 138//101 42//100 40//102
f 138//101 40//102 139//103
f 139//103 40//102 140//104
f 40//102 38//105 140//104
f 140//104 38//105 141//106
f 38//105 37//107 141//106
f 141//106 37//107 142//108
f 37//107 35//109 142//108
f 142//108 35//109 33//110
f 142//108 33//110 143//111
f 143//111 33//110 32//33
f 143//111 32//33 49//33
f 144//112 115//113 145//99
f 145//99 115//113 113//99
f 145//99 113//99 135//98
f 135//98 113//99 111//98
f 135//98 111//98 146//97
f 146//97 111//98 109//114
f 146//97 109//114 99//94
f 99//94 109//114 107//115
f 99//94 107//115 100//94
f 144//112 147//116 115//113
f 115//113 147//116 116//116
f 147//116 148//117 116//116
f 116//116 148//117 118//103
f 148//117 149//118 118//103
f 118//103 149//118 119//104
f 149//118 150//119 119//104
f 119//104 150//119 121//106
f 150//119 151//120 121//106
f 121//106 151//120 123//108
f 151//120 152//121 123//108
f 123//108 152//121 153//122
f 123//108 153//122 125//111
f 125//111 153//122 154//123
f 125//111 154//123 97//33
f 97//33 154//123 98//33
f 146//97 99//94 155//124
f 155//124 99//94 105//106
f 155//124 105//106 156//125
f 156//125 105//106 103//126
f 156//125 103//126 73//33
f 73//33 103//126 81//33
f 135//98 146//97 134//97
f 134//97 146//97 157//127
f 134//97 157//127 158//127
f 158//127 157//127 159//128
f 158//127 159//128 160//128
f 160//128 159//128 161//129
f 159//128 162//129 161//129
f 161//129 162//129 163//130
f 161//129 163//130 164//130
f 164//130 163//130 165//131
f 163//130 166//131 165//131
f 134//97 167//124 11//94
f 11//94 167//124 9//106
f 167//124 168//125 9//106
f 9//106 168//125 8//126
f 168//125 61//33 8//126
f 8//126 61//33 6//33
f 165//132 166//132 169//132
f 169//132 166//132 170//132
f 169//132 170//132 171//132
f 171//132 170//132 172//132
f 171//133 172//133 173//134
f 173//134 172//133 174//134
f 173//134 174//134 175//135
f 176//136 177//136 175//135
f 175//135 177//136 178//135
f 175//135 178//135 173//134
f 176//136 179//137 177//136
f 177//136 179//137 180//137
f 179//137 181//138 180//137
f 180//137 181//138 182//138
f 182//138 181//138 183//139
f 183//139 181//138 184//139
f 183//139 184//139 185//140
f 186//141 187//141 185//140
f 185//140 187//141 188//140
f 185//140 188//140 183//139
f 187//141 186//141 189//141
f 189//141 186//141 190//141
f 189//141 190//141 191//141
f 191//141 190//141 192//141
f 191//141 192//141 193//141
f 193//141 192//141 194//141
f 193//141 194//141 195//141
f 195//141 194//141 196//141
f 195//141 196//141 197//141
f 197//141 196//141 198//141
f 197//141 198//141 199//141
f 199//141 198//141 200//141
f 199//141 200//141 201//141
f 201//141 200//141 202//141
f 201//141 202//141 203//141
f 203//141 202//141 204//141
f 204//141 205//142 203//141
f 203//141 205//142 206//143
f 205//142 207//1 206//143
f 15//144 208//144 4//144
f 4//144 208//144 209//144
f 4//144 209//144 3//144
f 3//144 209//144 210//144
f 3//144 210//144 211//144
f 15//144 17//144 208//144
f 208//144 17//144 212//144
f 17//144 19//144 212//144
f 212//144 19//144 213//144
f 19//144 20//144 213//144
f 213//144 20//144 214//144
f 20//144 23//144 214//144
f 214//144 23//144 215//144
f 31//144 216//144 29//144
f 29//144 216//144 217//144
f 29//144 217//144 27//144
f 27//144 217//144 218//144
f 27//144 218//144 25//144
f 25//144 218//144 219//144
f 25//144 219//144 23//144
f 23//144 219//144 220//144
f 23//144 220//144 215//144
f 215//144 220//144 221//144
f 215//144 221//144 222//144
f 222//144 221//144 223//144
f 31//144 34//144 216//144
f 216//144 34//144 224//144
f 34//144 36//144 224//144
f 224//144 36//144 225//144
f 36//144 39//144 225//144
f 225//144 39//144 226//144
f 39//144 41//144 226//144
f 226//144 41//144 227//144
f 228//144 229//144 7//144
f 7//144 229//144 230//144
f 7//144 230//144 13//144
f 13//144 230//144 231//144
f 13//144 231//144 47//144
f 47//144 231//144 232//144
f 47//144 232//144 45//144
f 45//144 232//144 233//144
f 45//144 233//144 43//144
f 43//144 233//144 234//144
f 43//144 234//144 41//144
f 41//144 234//144 235//144
f 41//144 235//144 227//144
f 227//144 235//144 236//144
f 7//144 3//144 228//144
f 228//144 3//144 211//144
f 108//144 237//144 102//144
f 102//144 237//144 238//144
f 102//144 238//144 101//144
f 101//144 238//144 239//144
f 101//144 239//144 240//144
f 108//144 110//144 237//144
f 237//144 110//144 241//144
f 110//144 112//144 241//144
f 241//144 112//144 242//144
f 112//144 114//144 242//144
f 242//144 114//144 243//144
f 114//144 117//144 243//144
f 243//144 117//144 244//144
f 126//144 245//144 124//144
f 124//144 245//144 246//144
f 124//144 246//144 122//144
f 122//144 246//144 247//144
f 122//144 247//144 120//144
f 120//144 247//144 248//144
f 120//144 248//144 117//144
f 117//144 248//144 249//144
f 117//144 249//144 244//144
f 244//144 249//144 250//144
f 244//144 250//144 251//144
f 251//144 250//144 252//144
f 126//144 127//144 245//144
f 245//144 127//144 253//144
f 127//144 128//144 253//144
f 253//144 128//144 254//144
f 128//144 129//144 254//144
f 254//144 129//144 255//144
f 129//144 130//144 255//144
f 255//144 130//144 256//144
f 257//144 258//144 104//144
f 104//144 258//144 259//144
f 104//144 259//144 106//144
f 106//144 259//144 260//144
f 106//144 260//144 133//144
f 133//144 260//144 261//144
f 133//144 261//144 132//144
f 132//144 261//144 262//144
f 132//144 262//144 131//144
f 131//144 262//144 263//144
f 131//144 263//144 130//144
f 130//144 263//144 264//144
f 130//144 264//144 256//144
f 256//144 264//144 265//144
f 104//144 101//144 257//144
f 257//144 101//144 240//144
f 264//144 266//144 265//144
f 265//144 266//144 267//144
f 265//144 267//144 268//144
f 268//144 267//144 269//144
f 268//144 269//144 223//144
f 235//144 270//144 236//144
f 236//144 270//144 271//144
f 236//144 271//144 272//144
f 272//144 271//144 273//144
f 272//144 273//144 274//144
f 274//144 252//144 272//144
f 272//144 252//144 250//144
f 221//144 268//144 223//144
f 274//1 207//1 252//145
f 252//145 207//1 205//145
f 252//145 205//145 204//146
f 274//1 273//147 207//1
f 207//1 273//147 206//148
f 273//147 271//149 206//148
f 206//148 271//149 203//150
f 271//149 270//151 203//150
f 203//150 270//151 201//152
f 201//152 270//151 199//153
f 199//153 270//151 235//154
f 199//153 235//154 197//155
f 197//155 235//154 195//156
f 235//154 234//157 195//156
f 195//156 234//157 193//158
f 193//158 234//157 191//159
f 191//159 234//157 233//160
f 191//159 233//160 189//161
f 189//161 233//160 187//162
f 161//163 164//164 232//165
f 232//165 164//164 165//166
f 232//165 165//166 233//160
f 233//160 165//166 169//167
f 233//160 169//167 171//168
f 232//165 231//13 161//163
f 161//163 231//13 160//169
f 231//13 230//170 160//169
f 160//169 230//170 158//171
f 158//171 230//170 134//172
f 134//172 230//170 229//173
f 134//172 229//173 167//174
f 167//174 229//173 228//175
f 167//174 228//175 168//176
f 168//176 228//175 61//18
f 228//175 211//177 61//18
f 61//18 211//177 60//178
f 60//178 211//177 59//179
f 59//179 211//177 210//180
f 59//179 210//180 58//181
f 58//181 210//180 209//21
f 58//181 209//21 63//182
f 63//182 209//21 65//183
f 209//21 208//184 65//183
f 65//183 208//184 68//185
f 68//185 208//184 69//186
f 69//186 208//184 212//187
f 69//186 212//187 72//188
f 72//188 212//187 213//189
f 72//188 213//189 275//190
f 275//190 213//189 276//191
f 277//192 278//193 214//194
f 214//194 278//193 279//195
f 214//194 279//195 213//189
f 213//189 279//195 280//196
f 213//189 280//196 281//197
f 214//194 215//198 277//192
f 277//192 215//198 282//199
f 282//199 215//198 283//200
f 283//200 215//198 222//201
f 283//200 222//201 284//202
f 284//202 222//201 285//203
f 222//201 223//204 285//203
f 285//203 223//204 286//205
f 223//204 269//206 286//205
f 286//205 269//206 287//3
f 287//3 269//206 288//207
f 288//207 269//206 267//208
f 288//207 267//208 289//209
f 289//209 267//208 266//210
f 289//209 266//210 290//211
f 290//211 266//210 291//212
f 266//210 264//213 291//212
f 291//212 264//213 292//214
f 292//214 264//213 293//215
f 293//215 264//213 263//216
f 293//215 263//216 294//217
f 294//217 263//216 295//218
f 263//216 262//219 295//218
f 295//218 262//219 296//220
f 67//221 70//222 261//223
f 261//223 70//222 71//224
f 261//223 71//224 262//219
f 262//219 71//224 297//225
f 262//219 297//225 298//226
f 261//223 260//227 67//221
f 67//221 260//227 66//228
f 260//227 259//229 66//228
f 66//228 259//229 64//230
f 64//230 259//229 62//231
f 62//231 259//229 258//232
f 62//231 258//232 77//233
f 77//233 258//232 257//234
f 77//233 257//234 75//235
f 75//235 257//234 73//2
f 257//234 240//236 73//2
f 73//2 240//236 156//237
f 156//237 240//236 155//238
f 155//238 240//236 239//239
f 155//238 239//239 146//240
f 146//240 239//239 238//82
f 146//240 238//82 157//241
f 157//241 238//82 159//242
f 238//82 237//243 159//242
f 159//242 237//243 162//244
f 162//244 237//243 163//245
f 163//245 237//243 241//246
f 163//245 241//246 166//247
f 166//247 241//246 242//248
f 166//247 242//248 170//249
f 170//249 242//248 172//250
f 196//251 194//252 243//253
f 243//253 194//252 192//254
f 243//253 192//254 242//248
f 242//248 192//254 190//255
f 242//248 190//255 186//256
f 243//253 244//257 196//251
f 196//251 244//257 198//258
f 198//258 244//257 200//259
f 200//259 244//257 251//260
f 200//259 251//260 202//261
f 202//261 251//260 204//146
f 251//260 252//145 204//146
f 242//248 186//256 172//250
f 172//250 186//256 185//262
f 172//250 185//262 184//263
f 184//263 181//264 172//250
f 172//250 181//264 179//265
f 172//250 179//265 176//266
f 176//266 175//267 172//250
f 172//250 175//267 174//268
f 262//219 298//226 299//269
f 299//269 298//226 300//270
f 299//269 300//270 301//271
f 301//271 302//272 299//269
f 299//269 302//272 303//273
f 299//269 303//273 304//274
f 304//274 305//275 299//269
f 299//269 305//275 306//276
f 299//269 296//220 262//219
f 213//189 281//197 276//191
f 276//191 281//197 307//277
f 276//191 307//277 308//278
f 308//278 309//279 276//191
f 276//191 309//279 310//280
f 276//191 310//280 311//281
f 311//281 312//282 276//191
f 276//191 312//282 313//283
f 233//160 171//168 187//162
f 187//162 171//168 173//284
f 187//162 173//284 178//285
f 178//285 177//286 187//162
f 187//162 177//286 180//287
f 187//162 180//287 182//288
f 182//288 183//289 187//162
f 187//162 183//289 188//290
f 298//291 297//291 276//291
f 276//291 297//291 275//291
f 297//291 71//291 275//291
f 275//291 71//291 72//291
f 299//292 306//293 281//292
f 281//292 306//293 307//294
f 306//293 305//295 307//294
f 307//294 305//295 308//296
f 305//295 304//117 308//296
f 308//296 304//117 309//103
f 304//117 303//297 309//103
f 309//103 303//297 310//297
f 303//297 302//298 310//297
f 310//297 302//298 311//298
f 311//298 302//298 312//299
f 312//299 302//298 301//300
f 312//299 301//300 300//301
f 298//302 276//302 300//301
f 300//301 276//302 313//303
f 300//301 313//303 312//299
f 289//292 290//292 285//292
f 285//292 290//292 284//292
f 290//292 291//292 284//292
f 284//292 291//292 283//292
f 291//292 292//292 283//292
f 283//292 292//292 282//292
f 292//292 293//292 282//292
f 282//292 293//292 277//292
f 293//292 294//292 277//292
f 277//292 294//292 278//292
f 294//292 295//292 278//292
f 278//292 295//292 279//292
f 295//292 296//292 279//292
f 279//292 296//292 280//292
f 296//292 299//292 280//292
f 280//292 299//292 281//292
f 287//3 288//304 286//304
f 286//304 288//304 289//292
f 286//304 289//292 285//292
f 96//305 98//18 245//18
f 245//18 98//18 154//306
f 245//18 154//306 246//307
f 246//307 154//306 153//308
f 246//307 153//308 152//309
f 246//307 152//309 247//310
f 247//310 152//309 151//311
f 247//310 151//311 150//312
f 247//310 150//312 248//313
f 248//313 150//312 149//314
f 248//313 149//314 249//315
f 249//315 149//314 148//316
f 249//315 148//316 147//317
f 249//315 147//317 250//318
f 250//318 147//317 144//319
f 250//318 144//319 145//320
f 250//318 145//320 272//3
f 272//3 145//320 135//321
f 272//3 135//321 136//322
f 272//3 136//322 236//323
f 236//323 136//322 137//324
f 236//323 137//324 138//325
f 236//323 138//325 227//326
f 227//326 138//325 139//327
f 227//326 139//327 140//73
f 227//326 140//73 226//328
f 226//328 140//73 141//75
f 226//328 141//75 225//329
f 225//329 141//75 142//77
f 225//329 142//77 224//330
f 224//330 142//77 143//79
f 224//330 143//79 216//2
f 216//2 143//79 49//2
f 216//2 49//2 50//331
f 216//2 50//331 217//332
f 217//332 50//331 51//333
f 217//332 51//333 218//334
f 218//334 51//333 52//335
f 218//334 52//335 219//336
f 219//336 52//335 53//336
f 219//336 53//336 54//337
f 219//336 54//337 220//338
f 220//338 54//337 55//339
f 220//338 55//339 221//340
f 221//340 55//339 56//341
f 221//340 56//341 268//1
f 268//1 56//341 57//1
f 268//1 57//1 91//342
f 268//1 91//342 265//343
f 265//343 91//342 89//344
f 265//343 89//344 256//345
f 256//345 89//344 87//346
f 256//345 87//346 255//347
f 255//347 87//346 85//347
f 255//347 85//347 84//348
f 255//347 84//348 254//349
f 254//349 84//348 93//350
f 254//349 93//350 253//351
f 253//351 93//350 96//305
f 253//351 96//305 245//18
l 2 1
l 4 2
l 3 4
l 3 1
l 1 10
l 10 5
l 5 6
l 7 3
l 7 11
l 6 8
l 8 9
l 9 11
l 11 12
l 13 7
l 13 12
l 32 30
l 30 28
l 28 26
l 26 24
l 24 22
l 22 21
l 21 18
l 18 16
l 16 14
l 14 2
l 12 48
l 48 46
l 46 44
l 44 42
l 42 40
l 40 38
l 38 37
l 37 35
l 35 33
l 33 32
l 4 15
l 15 17
l 17 19
l 19 20
l 20 23
l 23 25
l 25 27
l 27 29
l 29 31
l 31 34
l 34 36
l 36 39
l 39 41
l 41 43
l 43 45
l 45 47
l 47 13
l 6 61
l 61 60
l 60 59
l 59 58
l 58 63
l 63 65
l 65 68
l 68 69
l 69 72
l 71 72
l 71 70
l 70 67
l 67 66
l 66 64
l 64 62
l 62 77
l 77 75
l 75 73
l 73 81
l 81 74
l 74 76
l 76 78
l 78 82
l 82 83
l 83 79
l 79 80
l 80 90
l 90 88
l 88 86
l 86 92
l 92 94
l 94 95
l 95 97
l 97 98
l 98 96
l 96 93
l 93 84
l 84 85
l 85 87
l 87 89
l 89 91
l 91 57
l 57 56
l 56 55
l 55 54
l 54 53
l 53 52
l 52 51
l 51 50
l 50 49
l 49 32
l 100 99
l 102 100
l 101 102
l 101 99
l 99 105
l 105 103
l 103 81
l 104 101
l 104 78
l 106 104
l 106 82
l 97 125
l 125 123
l 123 121
l 121 119
l 119 118
l 118 116
l 116 115
l 115 113
l 113 111
l 111 109
l 109 107
l 107 100
l 102 108
l 108 110
l 110 112
l 112 114
l 114 117
l 117 120
l 120 122
l 122 124
l 124 126
l 126 127
l 127 128
l 128 129
l 129 130
l 130 131
l 131 132
l 132 133
l 133 106
l 49 143
l 143 142
l 142 141
l 141 140
l 140 139
l 139 138
l 138 137
l 137 136
l 136 135
l 135 145
l 145 144
l 144 147
l 147 148
l 148 149
l 149 150
l 150 151
l 151 152
l 152 153
l 153 154
l 154 98
l 73 156
l 156 155
l 155 146
l 146 157
l 157 159
l 159 162
l 162 163
l 163 166
l 166 165
l 165 164
l 164 161
l 161 160
l 160 158
l 158 134
l 134 167
l 167 168
l 168 61
l 166 170
l 170 172
l 172 171
l 171 169
l 169 165
l 172 174
l 174 175
l 175 176
l 176 179
l 179 181
l 181 184
l 184 185
l 185 186
l 186 187
l 187 188
l 188 183
l 183 182
l 182 180
l 180 177
l 177 178
l 178 173
l 173 171
l 186 190
l 190 192
l 192 194
l 194 196
l 196 198
l 198 200
l 200 202
l 202 204
l 204 203
l 203 201
l 201 199
l 199 197
l 197 195
l 195 193
l 193 191
l 191 189
l 189 187
l 204 205
l 205 207
l 207 206
l 206 203
l 252 251
l 251 244
l 244 243
l 243 242
l 242 241
l 241 237
l 237 238
l 238 239
l 239 240
l 240 257
l 257 258
l 258 259
l 259 260
l 260 261
l 261 262
l 262 263
l 263 264
l 264 266
l 266 267
l 267 269
l 269 223
l 223 222
l 222 215
l 215 214
l 214 213
l 213 212
l 212 208
l 208 209
l 209 210
l 210 211
l 211 228
l 228 229
l 229 230
l 230 231
l 231 232
l 232 233
l 233 234
l 234 235
l 235 270
l 270 271
l 271 273
l 273 274
l 274 252
l 268 265
l 265 256
l 256 255
l 255 254
l 254 253
l 253 245
l 245 246
l 246 247
l 247 248
l 248 249
l 249 250
l 250 272
l 272 236
l 236 227
l 227 226
l 226 225
l 225 224
l 224 216
l 216 217
l 217 218
l 218 219
l 219 220
l 220 221
l 221 268
l 298 297
l 297 71
l 299 306
l 306 305
l 305 304
l 304 303
l 303 302
l 302 301
l 301 300
l 300 298
l 289 290
l 290 291
l 291 292
l 292 293
l 293 294
l 294 295
l 295 296
l 296 299
l 287 288
l 288 289
l 285 286
l 286 287
l 281 280
l 280 279
l 279 278
l 278 277
l 277 282
l 282 283
l 283 284
l 284 285
l 276 313
l 313 312
l 312 311
l 311 310
l 310 309
l 309 308
l 308 307
l 307 281
l 72 275
l 275 276
l 298 276
l 299 281
l 289 285
