# Created by FreeCAD <http://www.freecadweb.org>
v 21.822144 27.364101 30.000000
v 21.822144 27.364101 6.000000
v 15.418552 28.825680 30.000000
v -7.788233 34.122478 6.000000
v -7.788233 34.122478 30.000000
v 35.000000 -0.000000 6.000000
v 35.000000 0.000000 30.000000
v 21.818003 27.358910 5.732093
v -7.786755 34.116001 5.732093
v 21.805586 27.343340 5.464721
v -7.782324 34.096588 5.464721
v 21.784922 27.317429 5.198416
v -7.774949 34.064278 5.198416
v 21.756050 27.281223 4.933711
v -7.764644 34.019131 4.933711
v 21.719027 27.234798 4.671132
v -7.751431 33.961239 4.671132
v 21.673927 27.178244 4.411204
v -7.735335 33.890717 4.411204
v 21.620840 27.111677 4.154445
v -7.716389 33.807709 4.154445
v 21.559874 27.035225 3.901368
v -7.694630 33.712376 3.901368
v 21.491146 26.949045 3.652476
v -7.670102 33.604912 3.652476
v 21.414799 26.853308 3.408268
v -7.642853 33.485527 3.408268
v 21.330980 26.748203 3.169229
v -7.612939 33.354465 3.169229
v 21.239859 26.633942 2.935837
v -7.580418 33.211983 2.935837
v 21.141617 26.510750 2.708556
v -7.545356 33.058365 2.708556
v 21.036451 26.378876 2.487842
v -7.507823 32.893921 2.487842
v 20.924570 26.238581 2.274133
v -7.467893 32.718975 2.274133
v 20.806196 26.090145 2.067856
v -7.425645 32.533878 2.067856
v 20.681566 25.933865 1.869423
v -7.381166 32.339001 1.869423
v 20.550930 25.770052 1.679229
v -7.334542 32.134727 1.679229
v 20.414547 25.599031 1.497654
v -7.285868 31.921471 1.497654
v 20.272690 25.421148 1.325059
v -7.235239 31.699654 1.325059
v 20.125641 25.236755 1.161790
v -7.182758 31.469719 1.161790
v 19.973692 25.046219 1.008172
v -7.128528 31.232122 1.008172
v 19.817150 24.849920 0.864511
v -7.072659 30.987343 0.864511
v 19.656324 24.648251 0.731094
v -7.015261 30.735867 0.731094
v 19.491537 24.441614 0.608187
v -6.956449 30.478193 0.608187
v 19.323114 24.230419 0.496035
v -6.896340 30.214840 0.496035
v 19.151396 24.015091 0.394861
v -6.835054 29.946329 0.394861
v 18.976723 23.796057 0.304869
v -6.772714 29.673199 0.304869
v 18.799442 23.573755 0.226237
v -6.709444 29.395992 0.226237
v 18.619909 23.348627 0.159121
v -6.645369 29.115263 0.159121
v 18.438482 23.121124 0.103657
v -6.580618 28.831572 0.103657
v 18.255522 22.891699 0.059954
v -6.515320 28.545483 0.059954
v 18.071392 22.660809 0.028100
v -6.449605 28.257566 0.028100
v 17.886463 22.428915 0.008158
v -6.383605 27.968399 0.008158
v 17.778275 22.293253 0.002040
v -6.344993 27.799231 0.002040
v -6.306355 27.629948 -0.000000
v 17.670013 22.157497 -0.000000
v 15.418552 -28.825680 30.000000
v 21.822144 -27.364101 30.000000
v -15.418552 28.037500 30.000000
v -31.533911 15.185931 6.000000
v -31.533911 15.185931 30.000000
v 15.418552 47.542694 30.000000
v 9.418552 53.542694 30.000000
v -9.418552 53.542694 30.000000
v -15.418552 47.542694 30.000000
v 21.822144 -27.364101 6.000000
v 34.993359 0.000000 5.732093
v 34.973446 0.000000 5.464721
v 34.940304 0.000000 5.198416
v 34.893993 0.000000 4.933711
v 34.834614 0.000000 4.671132
v 34.762280 0.000000 4.411204
v 34.677135 0.000000 4.154445
v 34.579353 0.000000 3.901368
v 34.469124 0.000000 3.652476
v 34.346668 0.000000 3.408268
v 34.212234 0.000000 3.169229
v 34.066090 0.000000 2.935837
v 33.908524 0.000000 2.708556
v 33.739849 0.000000 2.487842
v 33.560406 0.000000 2.274133
v 33.370548 0.000000 2.067856
v 33.170658 0.000000 1.869423
v 32.961132 0.000000 1.679229
v 32.742390 0.000000 1.497654
v 32.514870 0.000000 1.325059
v 32.279022 0.000000 1.161790
v 32.035316 0.000000 1.008172
v 31.784241 0.000000 0.864511
v 31.526297 0.000000 0.731094
v 31.261997 0.000000 0.608187
v 30.991871 0.000000 0.496035
v 30.716455 0.000000 0.394861
v 30.436300 0.000000 0.304869
v 30.151964 0.000000 0.226237
v 29.864016 0.000000 0.159121
v 29.573029 0.000000 0.103657
v 29.279583 0.000000 0.059954
v 28.984262 0.000000 0.028100
v 28.687660 0.000000 0.008158
v 28.514139 0.000000 0.002040
v 28.340502 0.000000 -0.000000
v -25.533911 -12.296483 -0.000000
v -6.306355 -27.629948 -0.000000
v 17.670013 -22.157497 -0.000000
v -25.533911 12.296483 -0.000000
v -31.527925 15.183049 5.732093
v -31.509985 15.174409 5.464721
v -31.480125 15.160029 5.198416
v -31.438402 15.139936 4.933711
v -31.384903 15.114173 4.671132
v -31.319731 15.082788 4.411204
v -31.243019 15.045845 4.154445
v -31.154919 15.003418 3.901368
v -31.055607 14.955592 3.652476
v -30.945280 14.902462 3.408268
v -30.824160 14.844132 3.169229
v -30.692486 14.780723 2.935837
v -30.550522 14.712357 2.708556
v -30.398552 14.639172 2.487842
v -30.236879 14.561314 2.274133
v -30.065825 14.478938 2.067856
v -29.885731 14.392209 1.869423
v -29.696955 14.301300 1.679229
v -29.499876 14.206391 1.497654
v -29.294886 14.107673 1.325059
v -29.082392 14.005342 1.161790
v -28.862822 13.899603 1.008172
v -28.636612 13.790665 0.864511
v -28.404211 13.678747 0.731094
v -28.166086 13.564072 0.608187
v -27.922710 13.446869 0.496035
v -27.674570 13.327371 0.394861
v -27.422159 13.205815 0.304869
v -27.165981 13.082447 0.226237
v -26.906549 12.957511 0.159121
v -26.644379 12.831256 0.103657
v -26.379992 12.703935 0.059954
v -26.113918 12.575800 0.028100
v -25.846687 12.447109 0.008158
v -25.690351 12.371821 0.002040
v -7.788233 -34.122478 30.000000
v -7.788233 -34.122478 6.000000
v 15.418552 -47.542694 30.000000
v 15.418552 -47.542694 54.000000
v 15.418552 47.542694 54.000000
v -31.533911 -15.185931 6.000000
v -31.533911 -15.185931 30.000000
v -15.418552 -28.037500 30.000000
v 9.418552 53.542694 54.000000
v -9.418552 53.542694 54.000000
v -15.418552 47.542694 54.000000
v -15.418552 -47.542694 54.000000
v -15.418552 -47.542694 30.000000
v 17.887011 -22.429602 0.008199
v 18.103415 -22.700962 0.032775
v 18.318632 -22.970839 0.073660
v 18.532078 -23.238491 0.130742
v 18.743168 -23.503189 0.203866
v 18.951324 -23.764210 0.292832
v 19.155979 -24.020838 0.397395
v 19.356573 -24.272375 0.517272
v 19.552557 -24.518131 0.652133
v 19.743395 -24.757435 0.801611
v 19.928568 -24.989634 0.965297
v 20.089958 -25.192011 1.124393
v 20.230639 -25.368420 1.276818
v 20.366728 -25.539068 1.437715
v 20.497980 -25.703655 1.606792
v 20.624163 -25.861881 1.783749
v 20.745045 -26.013464 1.968267
v 20.860415 -26.158133 2.160015
v 20.970062 -26.295626 2.358649
v 21.073792 -26.425697 2.563813
v 21.171415 -26.548117 2.775140
v 21.262762 -26.662661 2.992250
v 21.347664 -26.769125 3.214755
v 21.425972 -26.867319 3.442254
v 21.497543 -26.957067 3.674339
v 21.562252 -27.038208 3.910596
v 21.619980 -27.110596 4.150599
v 21.670624 -27.174101 4.393920
v 21.714092 -27.228611 4.640121
v 21.750309 -27.274025 4.888760
v 21.779209 -27.310265 5.139392
v 21.800739 -27.337263 5.391567
v 21.814861 -27.354973 5.644834
v 21.820322 -27.361818 5.822339
v -6.383800 -27.969255 0.008199
v -6.461033 -28.307638 0.032775
v -6.537844 -28.644167 0.073660
v -6.614022 -28.977924 0.130742
v -6.689359 -29.307999 0.203866
v -6.763649 -29.633486 0.292832
v -6.836690 -29.953495 0.397395
v -6.908281 -30.267157 0.517272
v -6.978227 -30.573608 0.652133
v -7.046336 -30.872017 0.801611
v -7.112423 -31.161562 0.965297
v -7.170023 -31.413923 1.124393
v -7.220232 -31.633902 1.276818
v -7.268801 -31.846699 1.437715
v -7.315645 -32.051933 1.606792
v -7.360678 -32.249237 1.783749
v -7.403821 -32.438259 1.968267
v -7.444996 -32.618656 2.160015
v -7.484128 -32.790108 2.358649
v -7.521149 -32.952305 2.563813
v -7.555991 -33.104958 2.775140
v -7.588592 -33.247791 2.992250
v -7.618893 -33.380554 3.214755
v -7.646841 -33.502998 3.442254
v -7.672385 -33.614914 3.674339
v -7.695478 -33.716095 3.910596
v -7.716081 -33.806362 4.150599
v -7.734156 -33.885551 4.393920
v -7.749670 -33.953522 4.640121
v -7.762596 -34.010155 4.888760
v -7.772910 -34.055344 5.139392
v -7.780594 -34.089008 5.391567
v -7.785634 -34.111092 5.644834
v -7.787583 -34.119629 5.822339
v -25.847479 -12.447490 0.008199
v -26.160191 -12.598083 0.032775
v -26.471191 -12.747853 0.073660
v -26.779629 -12.896390 0.130742
v -27.084663 -13.043286 0.203866
v -27.385458 -13.188142 0.292832
v -27.681192 -13.330560 0.397395
v -27.971058 -13.470152 0.517272
v -28.254263 -13.606536 0.652133
v -28.530033 -13.739340 0.801611
v -28.797615 -13.868200 0.965297
v -29.030830 -13.980512 1.124393
v -29.234121 -14.078410 1.276818
v -29.430775 -14.173114 1.437715
v -29.620440 -14.264452 1.606792
v -29.802778 -14.352262 1.783749
v -29.977459 -14.436383 1.968267
v -30.144173 -14.516668 2.160015
v -30.302616 -14.592971 2.358649
v -30.452511 -14.665156 2.563813
v -30.593582 -14.733092 2.775140
v -30.725580 -14.796659 2.992250
v -30.848269 -14.855743 3.214755
v -30.961426 -14.910237 3.442254
v -31.064852 -14.960044 3.674339
v -31.158356 -15.005074 3.910596
v -31.241776 -15.045246 4.150599
v -31.314957 -15.080489 4.393920
v -31.377773 -15.110739 4.640121
v -31.430107 -15.135942 4.888760
v -31.471869 -15.156054 5.139392
v -31.502981 -15.171037 5.391567
v -31.523390 -15.180864 5.644834
v -31.531279 -15.184664 5.822339
v -9.418552 -53.542694 30.000000
v 9.418552 -53.542694 30.000000
v 9.418552 -53.542694 60.000000
v 9.418552 47.542694 60.000000
v -9.418552 47.542694 60.000000
v -9.418552 -53.542694 60.000000
vn 0.222521 0.974928 0.000000
vn 0.222521 0.974928 0.000000
vn 0.222521 0.974928 0.000000
vn 0.900969 0.433884 -0.000000
vn 0.900969 0.433884 0.000000
vn 0.222466 0.974685 -0.022327
vn 0.222022 0.972740 -0.066954
vn 0.222465 0.974685 -0.022338
vn 0.221135 0.968856 -0.111429
vn 0.222022 0.972741 -0.066948
vn 0.219807 0.963039 -0.155696
vn 0.221135 0.968857 -0.111426
vn 0.218041 0.955301 -0.199644
vn 0.219807 0.963039 -0.155695
vn 0.215840 0.945656 -0.243203
vn 0.218041 0.955301 -0.199647
vn 0.215840 0.945656 -0.243204
vn 0.213209 0.934128 -0.286263
vn 0.213209 0.934128 -0.286263
vn 0.210151 0.920732 -0.328770
vn 0.206675 0.905504 -0.370606
vn 0.210151 0.920733 -0.328767
vn 0.206676 0.905505 -0.370602
vn 0.202787 0.888469 -0.411704
vn 0.198494 0.869659 -0.451988
vn 0.202786 0.888465 -0.411712
vn 0.193805 0.849115 -0.491368
vn 0.198495 0.869662 -0.451982
vn 0.188730 0.826878 -0.529767
vn 0.193805 0.849115 -0.491368
vn 0.183278 0.802993 -0.567107
vn 0.188729 0.826878 -0.529769
vn 0.177460 0.777505 -0.603319
vn 0.183278 0.802994 -0.567106
vn 0.171289 0.750466 -0.638327
vn 0.177460 0.777504 -0.603321
vn 0.164775 0.721928 -0.672063
vn 0.171289 0.750465 -0.638327
vn 0.157934 0.691955 -0.704454
vn 0.164776 0.721931 -0.672060
vn 0.150776 0.660595 -0.735446
vn 0.157933 0.691951 -0.704458
vn 0.143320 0.627925 -0.764963
vn 0.150777 0.660599 -0.735443
vn 0.135576 0.593999 -0.792959
vn 0.143320 0.627925 -0.764963
vn 0.127562 0.558886 -0.819374
vn 0.135576 0.593999 -0.792959
vn 0.119294 0.522660 -0.844154
vn 0.127562 0.558884 -0.819376
vn 0.110787 0.485391 -0.867250
vn 0.119294 0.522661 -0.844153
vn 0.102061 0.447156 -0.888614
vn 0.110788 0.485393 -0.867248
vn 0.093129 0.408024 -0.908209
vn 0.102060 0.447154 -0.888615
vn 0.084013 0.368084 -0.925989
vn 0.093129 0.408027 -0.908208
vn 0.074728 0.327406 -0.941924
vn 0.084012 0.368082 -0.925990
vn 0.065295 0.286077 -0.955979
vn 0.074728 0.327407 -0.941924
vn 0.055731 0.244175 -0.968129
vn 0.065295 0.286076 -0.955980
vn 0.046057 0.201788 -0.978346
vn 0.055731 0.244175 -0.968128
vn 0.046057 0.201788 -0.978346
vn 0.036290 0.158998 -0.986612
vn 0.036290 0.158997 -0.986612
vn 0.026451 0.115890 -0.992910
vn 0.026451 0.115890 -0.992910
vn 0.016559 0.072552 -0.997227
vn 0.016559 0.072551 -0.997227
vn 0.008702 0.038125 -0.999235
vn 0.008702 0.038125 -0.999235
vn 0.002901 0.012711 -0.999915
vn 0.002901 0.012711 -0.999915
vn 0.000000 0.000000 1.000000
vn 0.000000 0.000000 1.000000
vn 0.000000 0.000000 1.000000
vn -0.623490 0.781831 0.000000
vn -0.623490 0.781832 0.000000
vn -0.623490 0.781832 0.000000
vn 0.000000 0.000000 -1.000000
vn 0.000000 0.000000 -1.000000
vn 0.000000 0.000000 -1.000000
vn 0.000000 0.000000 -1.000000
vn 0.000000 0.000000 -1.000000
vn 0.900969 -0.433884 0.000000
vn 0.900969 -0.433884 0.000000
vn 0.900744 0.433776 -0.022329
vn 0.898947 0.432910 -0.066951
vn 0.900744 0.433776 -0.022328
vn 0.895358 0.431182 -0.111429
vn 0.898947 0.432910 -0.066957
vn 0.889981 0.428592 -0.155702
vn 0.895358 0.431182 -0.111430
vn 0.882831 0.425149 -0.199642
vn 0.889982 0.428593 -0.155692
vn 0.873919 0.420857 -0.243198
vn 0.882830 0.425149 -0.199647
vn 0.873918 0.420857 -0.243200
vn 0.863263 0.415726 -0.286267
vn 0.863263 0.415725 -0.286269
vn 0.850888 0.409766 -0.328758
vn 0.850886 0.409765 -0.328765
vn 0.836810 0.402987 -0.370608
vn 0.836810 0.402987 -0.370608
vn 0.821069 0.395406 -0.411704
vn 0.821064 0.395404 -0.411716
vn 0.803686 0.387035 -0.451987
vn 0.803686 0.387035 -0.451988
vn 0.784704 0.377894 -0.491361
vn 0.784700 0.377892 -0.491369
vn 0.764153 0.367997 -0.529762
vn 0.764151 0.367996 -0.529767
vn 0.742077 0.357365 -0.567109
vn 0.742079 0.357366 -0.567105
vn 0.718523 0.346023 -0.603318
vn 0.718523 0.346022 -0.603318
vn 0.693532 0.333987 -0.638330
vn 0.693534 0.333989 -0.638327
vn 0.667163 0.321289 -0.672062
vn 0.667162 0.321288 -0.672063
vn 0.639459 0.307947 -0.704457
vn 0.639462 0.307949 -0.704454
vn 0.610484 0.293993 -0.735444
vn 0.610483 0.293993 -0.735444
vn 0.580293 0.279454 -0.764961
vn 0.580291 0.279453 -0.764963
vn 0.548938 0.264355 -0.792959
vn 0.548937 0.264354 -0.792959
vn 0.516487 0.248727 -0.819375
vn 0.516487 0.248727 -0.819376
vn 0.483011 0.232606 -0.844154
vn 0.483012 0.232606 -0.844153
vn 0.448569 0.216019 -0.867249
vn 0.448569 0.216019 -0.867250
vn 0.413234 0.199003 -0.888614
vn 0.413233 0.199002 -0.888615
vn 0.377072 0.181588 -0.908208
vn 0.377070 0.181587 -0.908209
vn 0.340160 0.163812 -0.925990
vn 0.340160 0.163813 -0.925989
vn 0.302568 0.145709 -0.941924
vn 0.302569 0.145710 -0.941924
vn 0.264374 0.127316 -0.955980
vn 0.225652 0.108668 -0.968128
vn 0.264374 0.127316 -0.955980
vn 0.186480 0.089804 -0.978346
vn 0.225652 0.108668 -0.968128
vn 0.146936 0.070761 -0.986612
vn 0.186481 0.089804 -0.978346
vn 0.146936 0.070761 -0.986612
vn 0.107098 0.051576 -0.992910
vn 0.107098 0.051576 -0.992910
vn 0.067048 0.032289 -0.997227
vn 0.067048 0.032289 -0.997227
vn 0.035232 0.016967 -0.999235
vn 0.035232 0.016967 -0.999235
vn 0.011747 0.005657 -0.999915
vn 0.011747 0.005657 -0.999915
vn 0.000000 0.000000 -1.000000
vn 0.000000 0.000000 -1.000000
vn 0.000000 -0.000000 -1.000000
vn 0.000000 0.000000 -1.000000
vn 0.000000 0.000000 -1.000000
vn -0.623334 0.781636 -0.022336
vn -0.622091 0.780077 -0.066951
vn -0.623334 0.781637 -0.022334
vn -0.619607 0.776963 -0.111429
vn -0.622091 0.780077 -0.066950
vn -0.615887 0.772298 -0.155691
vn -0.619607 0.776963 -0.111427
vn -0.610937 0.766091 -0.199649
vn -0.615886 0.772297 -0.155699
vn -0.604770 0.758358 -0.243201
vn -0.610938 0.766092 -0.199643
vn -0.604770 0.758357 -0.243204
vn -0.597398 0.749113 -0.286260
vn -0.597397 0.749112 -0.286266
vn -0.588830 0.738370 -0.328769
vn -0.579092 0.726158 -0.370604
vn -0.588831 0.738371 -0.328766
vn -0.579092 0.726158 -0.370603
vn -0.568196 0.712495 -0.411709
vn -0.556170 0.697415 -0.451981
vn -0.568196 0.712496 -0.411707
vn -0.556168 0.697412 -0.451989
vn -0.543030 0.680938 -0.491367
vn -0.543030 0.680939 -0.491366
vn -0.528810 0.663106 -0.529765
vn -0.528808 0.663105 -0.529767
vn -0.513533 0.643950 -0.567109
vn -0.513533 0.643950 -0.567108
vn -0.497232 0.623510 -0.603320
vn -0.497234 0.623511 -0.603318
vn -0.479940 0.601826 -0.638328
vn -0.479941 0.601827 -0.638327
vn -0.461691 0.578942 -0.672062
vn -0.461692 0.578943 -0.672060
vn -0.442520 0.554902 -0.704457
vn -0.442521 0.554904 -0.704455
vn -0.422468 0.529758 -0.735444
vn -0.422468 0.529759 -0.735443
vn -0.401572 0.503556 -0.764965
vn -0.401572 0.503555 -0.764965
vn -0.379877 0.476350 -0.792959
vn -0.379875 0.476348 -0.792961
vn -0.357419 0.448189 -0.819376
vn -0.334254 0.419141 -0.844154
vn -0.357422 0.448193 -0.819374
vn -0.310420 0.389254 -0.867249
vn -0.334254 0.419141 -0.844153
vn -0.285966 0.358590 -0.888615
vn -0.310419 0.389253 -0.867250
vn -0.260942 0.327210 -0.908209
vn -0.285966 0.358590 -0.888615
vn -0.235398 0.295180 -0.925990
vn -0.260943 0.327212 -0.908208
vn -0.209386 0.262562 -0.941923
vn -0.235398 0.295180 -0.925989
vn -0.182953 0.229415 -0.955979
vn -0.209384 0.262559 -0.941924
vn -0.156156 0.195813 -0.968129
vn -0.182952 0.229415 -0.955980
vn -0.129048 0.161821 -0.978346
vn -0.156157 0.195814 -0.968128
vn -0.129048 0.161821 -0.978346
vn -0.101683 0.127506 -0.986612
vn -0.101683 0.127506 -0.986612
vn -0.074115 0.092937 -0.992910
vn -0.074114 0.092937 -0.992910
vn -0.046398 0.058182 -0.997227
vn -0.046399 0.058182 -0.997227
vn -0.024382 0.030574 -0.999235
vn -0.024381 0.030573 -0.999235
vn -0.008129 0.010193 -0.999915
vn -0.008129 0.010194 -0.999915
vn 0.222521 -0.974928 0.000000
vn 0.222521 -0.974928 0.000000
vn 0.222521 -0.974928 0.000000
vn 1.000000 0.000000 0.000000
vn 1.000000 -0.000000 0.000000
vn 1.000000 0.000000 -0.000000
vn 1.000000 0.000000 0.000000
vn -1.000000 0.000000 0.000000
vn -1.000000 -0.000000 0.000000
vn 0.000000 0.000000 1.000000
vn 0.000000 0.000000 1.000000
vn 0.000000 1.000000 -0.000000
vn 0.000000 1.000000 0.000000
vn 0.707107 0.707107 0.000000
vn 0.707107 0.707107 -0.000000
vn -0.707107 0.707107 0.000000
vn -0.707107 0.707107 0.000000
vn -1.000000 0.000000 0.000000
vn -1.000000 -0.000000 0.000000
vn -1.000000 0.000000 0.000000
vn -1.000000 0.000000 0.000000
vn 0.023479 -0.011399 -0.999659
vn 0.011747 -0.005657 -0.999915
vn 0.035232 -0.016967 -0.999235
vn 0.070553 -0.034022 -0.996928
vn 0.067048 -0.032288 -0.997227
vn 0.117376 -0.056600 -0.991473
vn 0.107098 -0.051538 -0.992912
vn 0.163890 -0.079013 -0.983309
vn 0.146937 -0.070702 -0.986616
vn 0.209968 -0.101200 -0.972457
vn 0.186481 -0.089740 -0.978351
vn 0.225653 -0.108614 -0.968134
vn 0.255483 -0.123103 -0.958944
vn 0.264374 -0.127285 -0.955984
vn 0.300311 -0.144659 -0.942808
vn 0.302568 -0.145716 -0.941923
vn 0.344285 -0.165846 -0.924101
vn 0.340160 -0.163806 -0.925991
vn 0.377076 -0.181551 -0.908214
vn 0.387310 -0.186591 -0.902870
vn 0.429288 -0.206817 -0.879169
vn 0.413237 -0.198948 -0.888625
vn 0.470098 -0.226466 -0.853066
vn 0.448575 -0.215962 -0.867260
vn 0.507699 -0.244548 -0.826098
vn 0.483015 -0.232559 -0.844164
vn 0.540462 -0.260313 -0.800086
vn 0.516493 -0.248687 -0.819384
vn 0.570494 -0.274780 -0.773972
vn 0.548945 -0.264309 -0.792969
vn 0.599504 -0.288754 -0.746469
vn 0.580301 -0.279406 -0.764973
vn 0.627438 -0.302209 -0.717629
vn 0.610493 -0.293942 -0.735457
vn 0.654254 -0.315124 -0.687495
vn 0.639471 -0.307896 -0.704469
vn 0.679889 -0.327469 -0.656137
vn 0.667175 -0.321237 -0.672074
vn 0.704310 -0.339228 -0.623596
vn 0.693546 -0.333938 -0.638341
vn 0.727468 -0.350378 -0.589936
vn 0.718537 -0.345975 -0.603329
vn 0.749323 -0.360898 -0.555219
vn 0.742090 -0.357320 -0.567120
vn 0.769831 -0.370770 -0.519510
vn 0.764166 -0.367956 -0.529772
vn 0.788963 -0.379977 -0.482860
vn 0.784715 -0.377858 -0.491371
vn 0.806676 -0.388500 -0.445355
vn 0.803697 -0.387005 -0.451993
vn 0.822946 -0.396327 -0.407044
vn 0.821074 -0.395381 -0.411718
vn 0.837738 -0.403441 -0.368008
vn 0.836816 -0.402972 -0.370611
vn 0.851030 -0.409831 -0.328307
vn 0.862788 -0.415500 -0.288021
vn 0.850890 -0.409759 -0.328760
vn 0.872997 -0.420426 -0.247219
vn 0.863268 -0.415714 -0.286269
vn 0.881642 -0.424598 -0.205973
vn 0.873927 -0.420838 -0.243201
vn 0.882843 -0.425124 -0.199646
vn 0.888704 -0.428007 -0.164362
vn 0.889995 -0.428561 -0.155705
vn 0.894175 -0.430647 -0.122449
vn 0.895375 -0.431146 -0.111431
vn 0.898042 -0.432515 -0.080318
vn 0.898966 -0.432871 -0.066951
vn 0.900071 -0.433475 -0.044406
vn 0.900763 -0.433736 -0.022330
vn 0.900870 -0.433836 -0.014812
vn 0.005817 -0.025484 -0.999658
vn 0.017434 -0.076383 -0.996926
vn 0.005817 -0.025484 -0.999658
vn 0.029004 -0.127074 -0.991469
vn 0.017434 -0.076383 -0.996926
vn 0.040494 -0.177416 -0.983302
vn 0.029004 -0.127073 -0.991469
vn 0.051874 -0.227273 -0.972448
vn 0.040494 -0.177416 -0.983302
vn 0.063112 -0.276511 -0.958936
vn 0.051874 -0.227274 -0.972448
vn 0.063112 -0.276511 -0.958936
vn 0.074178 -0.324994 -0.942803
vn 0.074177 -0.324993 -0.942803
vn 0.085040 -0.372584 -0.924094
vn 0.085040 -0.372583 -0.924094
vn 0.095671 -0.419160 -0.902858
vn 0.095670 -0.419159 -0.902858
vn 0.106039 -0.464586 -0.879156
vn 0.106039 -0.464589 -0.879155
vn 0.116119 -0.508749 -0.853048
vn 0.116118 -0.508746 -0.853050
vn 0.125400 -0.549412 -0.826088
vn 0.125400 -0.549413 -0.826087
vn 0.133489 -0.584854 -0.800079
vn 0.133489 -0.584854 -0.800079
vn 0.140907 -0.617355 -0.773962
vn 0.140908 -0.617358 -0.773960
vn 0.148073 -0.648749 -0.746458
vn 0.148072 -0.648746 -0.746461
vn 0.154973 -0.678980 -0.717614
vn 0.154972 -0.678978 -0.717616
vn 0.161594 -0.707988 -0.687488
vn 0.161594 -0.707991 -0.687485
vn 0.167927 -0.735735 -0.656121
vn 0.167926 -0.735731 -0.656125
vn 0.173957 -0.762155 -0.623585
vn 0.173957 -0.762156 -0.623584
vn 0.179676 -0.787212 -0.589926
vn 0.179676 -0.787213 -0.589926
vn 0.185073 -0.810856 -0.555212
vn 0.185072 -0.810854 -0.555215
vn 0.190138 -0.833047 -0.519499
vn 0.190137 -0.833047 -0.519501
vn 0.194860 -0.853738 -0.482868
vn 0.194861 -0.853744 -0.482856
vn 0.199236 -0.872912 -0.445342
vn 0.199236 -0.872909 -0.445348
vn 0.203252 -0.890506 -0.407047
vn 0.203253 -0.890508 -0.407042
vn 0.206905 -0.906511 -0.368005
vn 0.206905 -0.906511 -0.368004
vn 0.210187 -0.920888 -0.328310
vn 0.210187 -0.920889 -0.328306
vn 0.213092 -0.933615 -0.288019
vn 0.213092 -0.933615 -0.288020
vn 0.215614 -0.944667 -0.247214
vn 0.215614 -0.944665 -0.247222
vn 0.217749 -0.954022 -0.205980
vn 0.217750 -0.954024 -0.205970
vn 0.219495 -0.961669 -0.164360
vn 0.219495 -0.961670 -0.164356
vn 0.220846 -0.967592 -0.122448
vn 0.220847 -0.967592 -0.122441
vn 0.221802 -0.971778 -0.080319
vn 0.221802 -0.971778 -0.080319
vn 0.222301 -0.973966 -0.044400
vn 0.222301 -0.973966 -0.044403
vn 0.222497 -0.974821 -0.014808
vn 0.222497 -0.974821 -0.014822
vn -0.016298 -0.020437 -0.999658
vn -0.016298 -0.020437 -0.999658
vn -0.048849 -0.061255 -0.996926
vn -0.048849 -0.061254 -0.996926
vn -0.081266 -0.101905 -0.991469
vn -0.081267 -0.101905 -0.991469
vn -0.113462 -0.142277 -0.983302
vn -0.113462 -0.142277 -0.983302
vn -0.145347 -0.182259 -0.972448
vn -0.145347 -0.182259 -0.972448
vn -0.176836 -0.221745 -0.958936
vn -0.176835 -0.221744 -0.958936
vn -0.207841 -0.260624 -0.942803
vn -0.207840 -0.260624 -0.942803
vn -0.238276 -0.298789 -0.924094
vn -0.238277 -0.298790 -0.924093
vn -0.268062 -0.336140 -0.902858
vn -0.268063 -0.336140 -0.902858
vn -0.297114 -0.372570 -0.879156
vn -0.297115 -0.372570 -0.879155
vn -0.325355 -0.407983 -0.853050
vn -0.351363 -0.440595 -0.826087
vn -0.325357 -0.407984 -0.853049
vn -0.374029 -0.469017 -0.800079
vn -0.351362 -0.440594 -0.826088
vn -0.394814 -0.495081 -0.773962
vn -0.374028 -0.469016 -0.800079
vn -0.414891 -0.520257 -0.746458
vn -0.394813 -0.495080 -0.773962
vn -0.434221 -0.544496 -0.717618
vn -0.414891 -0.520256 -0.746458
vn -0.452778 -0.567766 -0.687484
vn -0.434224 -0.544500 -0.717614
vn -0.470518 -0.590010 -0.656126
vn -0.452776 -0.567763 -0.687488
vn -0.487419 -0.611204 -0.623581
vn -0.470519 -0.590013 -0.656122
vn -0.503439 -0.631292 -0.589932
vn -0.487417 -0.611201 -0.623585
vn -0.518564 -0.650258 -0.555208
vn -0.503441 -0.631296 -0.589926
vn -0.532754 -0.668052 -0.519500
vn -0.518562 -0.650256 -0.555212
vn -0.545989 -0.684648 -0.482859
vn -0.532754 -0.668052 -0.519499
vn -0.545986 -0.684645 -0.482866
vn -0.558246 -0.700019 -0.445349
vn -0.558248 -0.700020 -0.445344
vn -0.569500 -0.714131 -0.407046
vn -0.569500 -0.714131 -0.407046
vn -0.579737 -0.726967 -0.368001
vn -0.579736 -0.726966 -0.368004
vn -0.588930 -0.738495 -0.328310
vn -0.588930 -0.738495 -0.328309
vn -0.597069 -0.748701 -0.288018
vn -0.597069 -0.748701 -0.288019
vn -0.604136 -0.757563 -0.247220
vn -0.604137 -0.757564 -0.247216
vn -0.610121 -0.765067 -0.205971
vn -0.610120 -0.765066 -0.205978
vn -0.615011 -0.771199 -0.164358
vn -0.615011 -0.771199 -0.164356
vn -0.618798 -0.775949 -0.122443
vn -0.618798 -0.775948 -0.122449
vn -0.621475 -0.779306 -0.080318
vn -0.621475 -0.779306 -0.080319
vn -0.622875 -0.781060 -0.044404
vn -0.622875 -0.781061 -0.044400
vn -0.623421 -0.781746 -0.014819
vn -0.623421 -0.781746 -0.014813
vn -0.013038 -0.000000 -0.999915
vn -0.074417 0.000001 -0.997227
vn -0.039105 -0.000000 -0.999235
vn -0.026100 -0.000083 -0.999659
vn -0.118854 0.000034 -0.992912
vn -0.078328 -0.000041 -0.996928
vn -0.163061 0.000053 -0.986616
vn -0.130309 -0.000067 -0.991473
vn -0.206950 0.000058 -0.978351
vn -0.181943 -0.000079 -0.983309
vn -0.233083 -0.000077 -0.972457
vn -0.250433 0.000049 -0.968134
vn -0.283595 -0.000062 -0.958944
vn -0.293420 0.000028 -0.955984
vn -0.333336 -0.000034 -0.942808
vn -0.377547 0.000006 -0.925990
vn -0.335828 -0.000006 -0.941923
vn -0.382149 -0.000043 -0.924101
vn -0.418505 0.000035 -0.908215
vn -0.429913 -0.000065 -0.902870
vn -0.458635 0.000051 -0.888625
vn -0.497853 0.000054 -0.867261
vn -0.476507 -0.000074 -0.879170
vn -0.536088 0.000045 -0.844162
vn -0.521804 -0.000071 -0.853065
vn -0.573247 0.000039 -0.819382
vn -0.563528 -0.000048 -0.826097
vn -0.609257 0.000044 -0.792973
vn -0.599882 -0.000036 -0.800088
vn -0.644059 0.000047 -0.764976
vn -0.633221 -0.000040 -0.773971
vn -0.677574 0.000050 -0.735454
vn -0.665422 -0.000044 -0.746467
vn -0.709735 0.000051 -0.704468
vn -0.696425 -0.000046 -0.717630
vn -0.740486 0.000052 -0.672072
vn -0.726189 -0.000047 -0.687496
vn -0.754642 -0.000046 -0.656137
vn -0.769755 0.000051 -0.638339
vn -0.797493 0.000049 -0.603328
vn -0.781750 -0.000045 -0.623591
vn -0.823636 0.000046 -0.567119
vn -0.807446 -0.000043 -0.589941
vn -0.848137 0.000042 -0.529777
vn -0.831705 -0.000039 -0.555218
vn -0.870948 0.000037 -0.491376
vn -0.854466 -0.000035 -0.519506
vn -0.892022 0.000031 -0.451993
vn -0.875695 -0.000029 -0.482864
vn -0.911314 0.000024 -0.411712
vn -0.895355 -0.000023 -0.445352
vn -0.928790 0.000016 -0.370606
vn -0.913406 -0.000015 -0.407051
vn -0.944411 0.000007 -0.328766
vn -0.929825 -0.000007 -0.368001
vn -0.944570 0.000003 -0.328311
vn -0.958150 0.000012 -0.286268
vn -0.957626 -0.000003 -0.288016
vn -0.969975 0.000021 -0.243206
vn -0.968958 -0.000012 -0.247225
vn -0.979868 0.000028 -0.199647
vn -0.978558 -0.000019 -0.205970
vn -0.986400 -0.000026 -0.164360
vn -0.987804 0.000034 -0.155702
vn -0.993772 0.000039 -0.111429
vn -0.992475 -0.000032 -0.122451
vn -0.997756 0.000043 -0.066950
vn -0.996769 -0.000036 -0.080323
vn -0.999750 0.000044 -0.022336
vn -0.999014 -0.000022 -0.044399
vn -0.999890 0.000000 -0.014814
vn -0.623490 -0.781832 -0.000000
vn -0.623490 -0.781831 0.000000
vn -0.623490 -0.781832 0.000000
vn 0.000000 0.000000 -1.000000
vn 0.000000 0.000000 -1.000000
vn 0.000000 0.000000 -1.000000
vn 0.000000 0.000000 -1.000000
vn 0.000000 0.000000 -1.000000
vn 0.707107 -0.707107 0.000000
vn 0.707107 -0.707107 0.000000
vn 0.707107 0.000000 0.707107
vn 0.707107 0.000000 0.707107
vn -0.000000 0.707107 0.707107
vn -0.000000 0.707107 0.707107
vn 0.577350 0.577350 0.577350
vn -0.577350 0.577350 0.577350
vn -0.707107 0.000000 0.707107
vn -0.707107 0.000000 0.707107
vn -0.707107 -0.707107 0.000000
vn -0.707107 -0.707107 0.000000
vn 0.000000 -1.000000 0.000000
vn 0.000000 -1.000000 0.000000
vn 0.000000 0.000000 1.000000
vn -0.000000 0.000000 1.000000
f 1//1 2//1 3//1
f 3//2 4//2 5//2
f 2//3 4//3 3//3
f 6//4 2//4 7//4
f 7//5 2//5 1//5
f 4//6 2//6 8//6
f 9//7 8//7 10//7
f 9//8 4//8 8//8
f 11//9 10//9 12//9
f 11//10 9//10 10//10
f 13//11 12//11 14//11
f 13//12 11//12 12//12
f 15//13 14//13 16//13
f 15//14 13//14 14//14
f 17//15 16//15 18//15
f 17//16 15//16 16//16
f 19//17 17//17 18//17
f 19//18 18//18 20//18
f 21//19 19//19 20//19
f 21//20 20//20 22//20
f 23//21 22//21 24//21
f 23//22 21//22 22//22
f 25//23 23//23 24//23
f 25//24 24//24 26//24
f 27//25 26//25 28//25
f 27//26 25//26 26//26
f 29//27 28//27 30//27
f 29//28 27//28 28//28
f 31//29 30//29 32//29
f 31//30 29//30 30//30
f 33//31 32//31 34//31
f 33//32 31//32 32//32
f 35//33 34//33 36//33
f 35//34 33//34 34//34
f 37//35 36//35 38//35
f 37//36 35//36 36//36
f 39//37 38//37 40//37
f 39//38 37//38 38//38
f 41//39 40//39 42//39
f 41//40 39//40 40//40
f 43//41 42//41 44//41
f 43//42 41//42 42//42
f 45//43 44//43 46//43
f 45//44 43//44 44//44
f 47//45 46//45 48//45
f 47//46 45//46 46//46
f 49//47 48//47 50//47
f 49//48 47//48 48//48
f 51//49 50//49 52//49
f 51//50 49//50 50//50
f 53//51 52//51 54//51
f 53//52 51//52 52//52
f 55//53 54//53 56//53
f 55//54 53//54 54//54
f 57//55 56//55 58//55
f 57//56 55//56 56//56
f 59//57 58//57 60//57
f 59//58 57//58 58//58
f 61//59 60//59 62//59
f 61//60 59//60 60//60
f 63//61 62//61 64//61
f 63//62 61//62 62//62
f 65//63 64//63 66//63
f 65//64 63//64 64//64
f 67//65 66//65 68//65
f 67//66 65//66 66//66
f 69//67 67//67 68//67
f 69//68 68//68 70//68
f 71//69 69//69 70//69
f 71//70 70//70 72//70
f 73//71 71//71 72//71
f 73//72 72//72 74//72
f 75//73 73//73 74//73
f 75//74 74//74 76//74
f 77//75 75//75 76//75
f 78//76 77//76 76//76
f 78//77 76//77 79//77
f 7//78 80//78 81//78
f 3//79 80//79 7//79
f 1//80 3//80 7//80
f 5//81 4//81 82//81
f 82//82 83//82 84//82
f 4//83 83//83 82//83
f 3//84 5//84 85//84
f 5//85 86//85 85//85
f 5//86 87//86 86//86
f 82//87 88//87 5//87
f 5//88 88//88 87//88
f 89//89 6//89 81//89
f 81//90 6//90 7//90
f 2//91 6//91 90//91
f 8//92 90//92 91//92
f 8//93 2//93 90//93
f 10//94 91//94 92//94
f 10//95 8//95 91//95
f 12//96 92//96 93//96
f 12//97 10//97 92//97
f 14//98 93//98 94//98
f 14//99 12//99 93//99
f 16//100 94//100 95//100
f 16//101 14//101 94//101
f 18//102 16//102 95//102
f 20//103 18//103 95//103
f 20//104 95//104 96//104
f 22//105 96//105 97//105
f 22//106 20//106 96//106
f 24//107 97//107 98//107
f 24//108 22//108 97//108
f 26//109 24//109 98//109
f 26//110 98//110 99//110
f 28//111 99//111 100//111
f 28//112 26//112 99//112
f 30//113 100//113 101//113
f 30//114 28//114 100//114
f 32//115 101//115 102//115
f 32//116 30//116 101//116
f 34//117 102//117 103//117
f 34//118 32//118 102//118
f 36//119 103//119 104//119
f 36//120 34//120 103//120
f 38//121 104//121 105//121
f 38//122 36//122 104//122
f 40//123 105//123 106//123
f 40//124 38//124 105//124
f 42//125 106//125 107//125
f 42//126 40//126 106//126
f 44//127 107//127 108//127
f 44//128 42//128 107//128
f 46//129 108//129 109//129
f 46//130 44//130 108//130
f 48//131 109//131 110//131
f 48//132 46//132 109//132
f 50//133 110//133 111//133
f 50//134 48//134 110//134
f 52//135 111//135 112//135
f 52//136 50//136 111//136
f 54//137 112//137 113//137
f 54//138 52//138 112//138
f 56//139 54//139 113//139
f 56//140 113//140 114//140
f 58//141 114//141 115//141
f 58//142 56//142 114//142
f 60//143 115//143 116//143
f 60//144 58//144 115//144
f 62//145 116//145 117//145
f 62//146 60//146 116//146
f 64//147 117//147 118//147
f 64//148 118//148 119//148
f 64//149 62//149 117//149
f 66//150 119//150 120//150
f 66//151 64//151 119//151
f 68//152 120//152 121//152
f 68//153 66//153 120//153
f 70//154 68//154 121//154
f 70//155 121//155 122//155
f 72//156 70//156 122//156
f 72//157 122//157 123//157
f 74//158 72//158 123//158
f 74//159 123//159 124//159
f 76//160 74//160 124//160
f 79//161 76//161 124//161
f 79//162 124//162 125//162
f 126//163 125//163 127//163
f 127//164 125//164 128//164
f 78//165 79//165 129//165
f 129//166 79//166 126//166
f 126//167 79//167 125//167
f 83//168 4//168 9//168
f 130//169 9//169 11//169
f 130//170 83//170 9//170
f 131//171 11//171 13//171
f 131//172 130//172 11//172
f 132//173 13//173 15//173
f 132//174 131//174 13//174
f 133//175 15//175 17//175
f 133//176 132//176 15//176
f 134//177 17//177 19//177
f 134//178 133//178 17//178
f 135//179 134//179 19//179
f 135//180 19//180 21//180
f 136//181 135//181 21//181
f 136//182 21//182 23//182
f 137//183 23//183 25//183
f 137//184 136//184 23//184
f 138//185 137//185 25//185
f 138//186 25//186 27//186
f 139//187 27//187 29//187
f 139//188 138//188 27//188
f 140//189 139//189 29//189
f 141//190 29//190 31//190
f 141//191 140//191 29//191
f 142//192 31//192 33//192
f 142//193 141//193 31//193
f 143//194 33//194 35//194
f 143//195 142//195 33//195
f 144//196 35//196 37//196
f 144//197 143//197 35//197
f 145//198 37//198 39//198
f 145//199 144//199 37//199
f 146//200 39//200 41//200
f 146//201 145//201 39//201
f 147//202 41//202 43//202
f 147//203 146//203 41//203
f 148//204 43//204 45//204
f 148//205 147//205 43//205
f 149//206 45//206 47//206
f 149//207 148//207 45//207
f 150//208 47//208 49//208
f 150//209 149//209 47//209
f 151//210 49//210 51//210
f 151//211 51//211 53//211
f 151//212 150//212 49//212
f 152//213 53//213 55//213
f 152//214 151//214 53//214
f 153//215 55//215 57//215
f 153//216 152//216 55//216
f 154//217 57//217 59//217
f 154//218 153//218 57//218
f 155//219 59//219 61//219
f 155//220 154//220 59//220
f 156//221 61//221 63//221
f 156//222 155//222 61//222
f 157//223 63//223 65//223
f 157//224 156//224 63//224
f 158//225 65//225 67//225
f 158//226 157//226 65//226
f 159//227 67//227 69//227
f 159//228 158//228 67//228
f 160//229 159//229 69//229
f 160//230 69//230 71//230
f 161//231 160//231 71//231
f 161//232 71//232 73//232
f 162//233 161//233 73//233
f 162//234 73//234 75//234
f 163//235 162//235 75//235
f 163//236 75//236 77//236
f 164//237 163//237 77//237
f 164//238 77//238 78//238
f 129//239 164//239 78//239
f 165//240 166//240 80//240
f 80//241 89//241 81//241
f 166//242 89//242 80//242
f 167//243 80//243 168//243
f 168//244 3//244 169//244
f 80//245 3//245 168//245
f 3//246 85//246 169//246
f 83//247 170//247 84//247
f 84//248 170//248 171//248
f 82//249 84//249 171//249
f 82//250 171//250 172//250
f 86//251 87//251 173//251
f 173//252 87//252 174//252
f 86//253 169//253 85//253
f 86//254 173//254 169//254
f 88//255 174//255 87//255
f 88//256 175//256 174//256
f 88//257 82//257 175//257
f 175//258 172//258 176//258
f 82//259 172//259 175//259
f 172//260 177//260 176//260
f 128//261 124//261 178//261
f 125//262 124//262 128//262
f 124//263 123//263 178//263
f 178//264 122//264 179//264
f 123//265 122//265 178//265
f 179//266 121//266 180//266
f 122//267 121//267 179//267
f 180//268 120//268 181//268
f 121//269 120//269 180//269
f 181//270 119//270 182//270
f 120//271 119//271 181//271
f 119//272 118//272 182//272
f 182//273 118//273 183//273
f 118//274 117//274 183//274
f 183//275 117//275 184//275
f 117//276 116//276 184//276
f 184//277 115//277 185//277
f 116//278 115//278 184//278
f 115//279 114//279 185//279
f 185//280 114//280 186//280
f 186//281 113//281 187//281
f 114//282 113//282 186//282
f 187//283 112//283 188//283
f 113//284 112//284 187//284
f 188//285 111//285 189//285
f 112//286 111//286 188//286
f 189//287 110//287 190//287
f 111//288 110//288 189//288
f 190//289 109//289 191//289
f 110//290 109//290 190//290
f 191//291 108//291 192//291
f 109//292 108//292 191//292
f 192//293 107//293 193//293
f 108//294 107//294 192//294
f 193//295 106//295 194//295
f 107//296 106//296 193//296
f 194//297 105//297 195//297
f 106//298 105//298 194//298
f 195//299 104//299 196//299
f 105//300 104//300 195//300
f 196//301 103//301 197//301
f 104//302 103//302 196//302
f 197//303 102//303 198//303
f 103//304 102//304 197//304
f 198//305 101//305 199//305
f 102//306 101//306 198//306
f 199//307 100//307 200//307
f 101//308 100//308 199//308
f 200//309 99//309 201//309
f 100//310 99//310 200//310
f 201//311 98//311 202//311
f 99//312 98//312 201//312
f 202//313 97//313 203//313
f 98//314 97//314 202//314
f 203//315 96//315 204//315
f 204//316 96//316 205//316
f 97//317 96//317 203//317
f 205//318 95//318 206//318
f 96//319 95//319 205//319
f 206//320 94//320 207//320
f 95//321 94//321 206//321
f 94//322 93//322 207//322
f 207//323 93//323 208//323
f 93//324 92//324 208//324
f 208//325 92//325 209//325
f 92//326 91//326 209//326
f 209//327 91//327 210//327
f 91//328 90//328 210//328
f 210//329 90//329 211//329
f 90//330 6//330 211//330
f 211//331 6//331 89//331
f 127//332 128//332 212//332
f 212//333 178//333 213//333
f 128//334 178//334 212//334
f 213//335 179//335 214//335
f 178//336 179//336 213//336
f 214//337 180//337 215//337
f 179//338 180//338 214//338
f 215//339 181//339 216//339
f 180//340 181//340 215//340
f 216//341 182//341 217//341
f 181//342 182//342 216//342
f 182//343 183//343 217//343
f 217//344 183//344 218//344
f 183//345 184//345 218//345
f 218//346 185//346 219//346
f 184//347 185//347 218//347
f 219//348 186//348 220//348
f 185//349 186//349 219//349
f 220//350 187//350 221//350
f 186//351 187//351 220//351
f 221//352 188//352 222//352
f 187//353 188//353 221//353
f 222//354 189//354 223//354
f 188//355 189//355 222//355
f 223//356 190//356 224//356
f 189//357 190//357 223//357
f 224//358 191//358 225//358
f 190//359 191//359 224//359
f 225//360 192//360 226//360
f 191//361 192//361 225//361
f 226//362 193//362 227//362
f 192//363 193//363 226//363
f 227//364 194//364 228//364
f 193//365 194//365 227//365
f 228//366 195//366 229//366
f 194//367 195//367 228//367
f 229//368 196//368 230//368
f 195//369 196//369 229//369
f 230//370 197//370 231//370
f 196//371 197//371 230//371
f 231//372 198//372 232//372
f 197//373 198//373 231//373
f 232//374 199//374 233//374
f 198//375 199//375 232//375
f 233//376 200//376 234//376
f 199//377 200//377 233//377
f 234//378 201//378 235//378
f 200//379 201//379 234//379
f 235//380 202//380 236//380
f 201//381 202//381 235//381
f 236//382 203//382 237//382
f 202//383 203//383 236//383
f 237//384 204//384 238//384
f 203//385 204//385 237//385
f 238//386 205//386 239//386
f 204//387 205//387 238//387
f 239//388 206//388 240//388
f 205//389 206//389 239//389
f 240//390 207//390 241//390
f 206//391 207//391 240//391
f 207//392 208//392 241//392
f 241//393 208//393 242//393
f 208//394 209//394 242//394
f 242//395 209//395 243//395
f 209//396 210//396 243//396
f 243//397 210//397 244//397
f 210//398 211//398 244//398
f 244//399 211//399 245//399
f 211//400 89//400 245//400
f 245//401 89//401 166//401
f 126//402 212//402 246//402
f 127//403 212//403 126//403
f 246//404 213//404 247//404
f 212//405 213//405 246//405
f 247//406 214//406 248//406
f 213//407 214//407 247//407
f 248//408 215//408 249//408
f 214//409 215//409 248//409
f 249//410 216//410 250//410
f 215//411 216//411 249//411
f 250//412 217//412 251//412
f 216//413 217//413 250//413
f 217//414 218//414 251//414
f 251//415 218//415 252//415
f 218//416 219//416 252//416
f 252//417 219//417 253//417
f 253//418 220//418 254//418
f 219//419 220//419 253//419
f 220//420 221//420 254//420
f 254//421 221//421 255//421
f 255//422 222//422 256//422
f 256//423 222//423 257//423
f 221//424 222//424 255//424
f 257//425 223//425 258//425
f 222//426 223//426 257//426
f 258//427 224//427 259//427
f 223//428 224//428 258//428
f 259//429 225//429 260//429
f 224//430 225//430 259//430
f 260//431 226//431 261//431
f 225//432 226//432 260//432
f 261//433 227//433 262//433
f 226//434 227//434 261//434
f 262//435 228//435 263//435
f 227//436 228//436 262//436
f 263//437 229//437 264//437
f 228//438 229//438 263//438
f 264//439 230//439 265//439
f 229//440 230//440 264//440
f 265//441 231//441 266//441
f 230//442 231//442 265//442
f 266//443 232//443 267//443
f 231//444 232//444 266//444
f 267//445 233//445 268//445
f 232//446 233//446 267//446
f 233//447 234//447 268//447
f 268//448 235//448 269//448
f 234//449 235//449 268//449
f 269//450 236//450 270//450
f 235//451 236//451 269//451
f 270//452 237//452 271//452
f 236//453 237//453 270//453
f 271//454 238//454 272//454
f 237//455 238//455 271//455
f 272//456 239//456 273//456
f 238//457 239//457 272//457
f 273//458 240//458 274//458
f 239//459 240//459 273//459
f 274//460 241//460 275//460
f 240//461 241//461 274//461
f 275//462 242//462 276//462
f 241//463 242//463 275//463
f 242//464 243//464 276//464
f 276//465 243//465 277//465
f 243//466 244//466 277//466
f 277//467 244//467 278//467
f 244//468 245//468 278//468
f 278//469 245//469 279//469
f 245//470 166//470 279//470
f 279//471 166//471 170//471
f 129//472 126//472 164//472
f 163//473 246//473 162//473
f 164//474 246//474 163//474
f 126//475 246//475 164//475
f 162//476 247//476 161//476
f 246//477 247//477 162//477
f 161//478 248//478 160//478
f 247//479 248//479 161//479
f 160//480 249//480 159//480
f 248//481 249//481 160//481
f 249//482 250//482 159//482
f 159//483 250//483 158//483
f 250//484 251//484 158//484
f 158//485 251//485 157//485
f 251//486 252//486 157//486
f 156//487 252//487 155//487
f 157//488 252//488 156//488
f 252//489 253//489 155//489
f 155//490 253//490 154//490
f 253//491 254//491 154//491
f 154//492 254//492 153//492
f 153//493 255//493 152//493
f 254//494 255//494 153//494
f 152//495 256//495 151//495
f 255//496 256//496 152//496
f 151//497 257//497 150//497
f 256//498 257//498 151//498
f 150//499 258//499 149//499
f 257//500 258//500 150//500
f 149//501 259//501 148//501
f 258//502 259//502 149//502
f 148//503 260//503 147//503
f 259//504 260//504 148//504
f 147//505 261//505 146//505
f 260//506 261//506 147//506
f 146//507 262//507 145//507
f 261//508 262//508 146//508
f 262//509 263//509 145//509
f 145//510 263//510 144//510
f 144//511 264//511 143//511
f 263//512 264//512 144//512
f 143//513 265//513 142//513
f 264//514 265//514 143//514
f 142//515 266//515 141//515
f 265//516 266//516 142//516
f 141//517 267//517 140//517
f 266//518 267//518 141//518
f 140//519 268//519 139//519
f 267//520 268//520 140//520
f 139//521 269//521 138//521
f 268//522 269//522 139//522
f 138//523 270//523 137//523
f 269//524 270//524 138//524
f 137//525 271//525 136//525
f 270//526 271//526 137//526
f 271//527 272//527 136//527
f 136//528 273//528 135//528
f 272//529 273//529 136//529
f 135//530 274//530 134//530
f 273//531 274//531 135//531
f 134//532 275//532 133//532
f 274//533 275//533 134//533
f 275//534 276//534 133//534
f 133//535 276//535 132//535
f 132//536 277//536 131//536
f 276//537 277//537 132//537
f 131//538 278//538 130//538
f 277//539 278//539 131//539
f 130//540 279//540 83//540
f 278//541 279//541 130//541
f 279//542 170//542 83//542
f 171//543 170//543 172//543
f 172//544 166//544 165//544
f 170//545 166//545 172//545
f 167//546 165//546 80//546
f 177//547 165//547 280//547
f 280//548 165//548 281//548
f 281//549 165//549 167//549
f 177//550 172//550 165//550
f 168//551 281//551 167//551
f 282//552 281//552 168//552
f 283//553 282//553 168//553
f 283//554 168//554 169//554
f 174//555 283//555 173//555
f 284//556 283//556 174//556
f 283//557 169//557 173//557
f 175//558 284//558 174//558
f 176//559 284//559 175//559
f 285//560 284//560 176//560
f 280//561 176//561 177//561
f 280//562 285//562 176//562
f 280//563 281//563 285//563
f 285//564 281//564 282//564
f 284//565 285//565 282//565
f 284//566 282//566 283//566
