mtllib 27630-06.mtl
o 27630-06_1
v 11.625 5 0
v 25 5 0
v 11.552 4.927 -0.851
v 25 4.83 -1.294
v 11.335 4.71 -1.677
v 25 4.33 -2.5
v 10.981 4.356 -2.454
v 10.5 3.875 -3.16
v 25 3.536 -3.536
v 10.5 2.959 -4.03
v 25 2.5 -4.33
v 10.5 1.855 -4.643
v 25 1.294 -4.83
v 10.5 0.632 -4.96
v 25 0 -5
v 10.5 -0.632 -4.96
v 25 -1.294 -4.83
v 10.5 -1.855 -4.643
v 25 -2.5 -4.33
v 10.5 -2.959 -4.03
v 25 -3.536 -3.536
v 10.5 -3.875 -3.16
v 25 -4.33 -2.5
v 10.981 -4.356 -2.454
v 11.335 -4.71 -1.677
v 25 -4.83 -1.294
v 11.552 -4.927 -0.851
v 25 -5 0
v 11.625 -5 0
v 5.569 0 8.306
v 5.449 1.084 8.315
v 3.836 0 9.235
v 3.753 0.747 9.239
v 1.956 0 9.807
v 1.913 0.381 9.808
v 0 0 10
v 5.569 1.155 8.225
v 5.133 2.126 8.315
v 3.536 1.464 9.239
v 3.182 2.126 9.239
v 1.622 1.084 9.808
v 1.379 1.379 9.808
v 5.569 2.287 7.985
v 4.619 3.087 8.315
v 3.947 3.375 8.546
v 2.706 2.706 9.239
v 2.167 3.375 9.16
v 2.126 3.182 9.239
v 0.301 3.375 9.408
v 0.747 1.802 9.808
v 0.381 1.913 9.808
v 5.569 3.375 7.59
v -7.071 0 7.071
v -5.556 0 8.315
v -6.935 1.379 7.071
v -5.449 1.084 8.315
v -6.533 2.706 7.071
v -5.133 2.126 8.315
v -5.072 3.375 7.93
v -4.619 3.087 8.315
v -3.393 3.375 8.781
v -3.182 2.126 9.239
v -2.706 2.706 9.239
v -1.622 1.084 9.808
v -1.379 1.379 9.808
v -6.549 3.375 6.762
v -7.682 3.182 5.556
v -8.155 1.622 5.556
v -8.315 0 5.556
v -7.764 3.375 5.323
v -9.061 1.802 3.827
v -8.668 3.375 3.672
v -9.619 1.913 1.951
v -9.225 3.375 1.873
v -9.808 1.951 0
v -9.413 3.375 0
v -9.225 3.375 -1.873
v -9.619 1.913 -1.951
v -8.668 3.375 -3.672
v -9.061 1.802 -3.827
v -7.764 3.375 -5.323
v -8.155 1.622 -5.556
v -7.682 3.182 -5.556
v -6.533 2.706 -7.071
v -6.549 3.375 -6.762
v -5.072 3.375 -7.93
v 5.569 0 -8.306
v 3.836 0 -9.235
v 5.449 1.084 -8.315
v 3.753 0.747 -9.239
v 5.133 2.126 -8.315
v 3.536 1.464 -9.239
v 4.619 3.087 -8.315
v 3.182 2.126 -9.239
v 3.947 3.375 -8.546
v 2.706 2.706 -9.239
v 2.167 3.375 -9.16
v 2.126 3.182 -9.239
v 0.301 3.375 -9.408
v 0.381 1.913 -9.808
v 0 1.951 -9.808
v 0 0 -10
v 5.569 3.375 -7.59
v 5.569 2.287 -7.985
v 5.569 1.155 -8.225
v 1.956 0 -9.807
v 1.913 0.381 -9.808
v 1.802 0.747 -9.808
v 1.622 1.084 -9.808
v 1.379 1.379 -9.808
v 1.084 1.622 -9.808
v 0.747 1.802 -9.808
v -1.951 0 -9.808
v -1.913 0.381 -9.808
v -3.827 0 -9.239
v -3.753 0.747 -9.239
v -5.556 0 -8.315
v -5.449 1.084 -8.315
v -7.071 0 -7.071
v -6.935 1.379 -7.071
v -8.315 0 -5.556
v -9.239 0 -3.827
v -9.808 0 -1.951
v -10 0 0
v -9.808 0 1.951
v -9.239 0 3.827
v -3.827 0 9.239
v -3.753 0.747 9.239
v -3.536 1.464 9.239
v -1.951 0 9.808
v -1.913 0.381 9.808
v -1.802 0.747 9.808
v -0.381 1.913 -9.808
v -1.084 1.622 -9.808
v -1.379 1.379 -9.808
v -1.622 1.084 -9.808
v -1.802 0.747 -9.808
v -1.084 1.622 9.808
v -0.747 1.802 9.808
v -0.381 1.913 9.808
v 0 1.951 9.808
v 1.084 1.622 9.808
v 1.802 0.747 9.808
v -1.578 3.375 -9.28
v -1.578 3.375 9.28
v -2.126 3.182 9.239
v -3.536 1.464 -9.239
v -3.182 2.126 -9.239
v -2.706 2.706 -9.239
v -2.126 3.182 -9.239
v -3.393 3.375 -8.781
v -5.133 2.126 -8.315
v -4.619 3.087 -8.315
v -0.747 1.802 -9.808
v 3.424 -4.5 0
v 3.308 -4.5 0.886
v 3 -4.076 0
v 2.898 -4.076 0.776
v 2.965 -4.5 1.712
v 2.598 -4.076 1.5
v 2.121 -4.076 2.121
v 2.421 -4.5 2.421
v 1.712 -4.5 2.965
v 1.5 -4.076 2.598
v 0.886 -4.5 3.308
v 0.776 -4.076 2.898
v 0 -4.5 3.424
v 0 -4.076 3
v -0.886 -4.5 3.308
v -0.776 -4.076 2.898
v -1.5 -4.076 2.598
v -1.712 -4.5 2.965
v -2.421 -4.5 2.421
v -2.121 -4.076 2.121
v -2.965 -4.5 1.712
v -2.598 -4.076 1.5
v -3.308 -4.5 0.886
v -2.898 -4.076 0.776
v -3 -4.076 0
v -3.424 -4.5 0
v 3 4.076 0
v 2.898 4.076 0.776
v 2.598 4.076 1.5
v 2.121 4.076 2.121
v 1.5 4.076 2.598
v 0.776 4.076 2.898
v 0 4.076 3
v -0.776 4.076 2.898
v -1.5 4.076 2.598
v -2.121 4.076 2.121
v -2.598 4.076 1.5
v -2.898 4.076 0.776
v -3 4.076 0
v 3.424 4.5 0
v 3.308 4.5 0.886
v 2.965 4.5 1.712
v 2.421 4.5 2.421
v 1.712 4.5 2.965
v 0.886 4.5 3.308
v 0 4.5 3.424
v -0.886 4.5 3.308
v -1.712 4.5 2.965
v -2.421 4.5 2.421
v -2.965 4.5 1.712
v -3.308 4.5 0.886
v -3.424 4.5 0
v 15 2.458 0
v 15 2.375 0.636
v 13.581 0 0
v 15 2.129 1.229
v 15 1.738 1.738
v 15 1.229 2.129
v 15 0.636 2.375
v 15 0 2.458
v 15 -0.636 2.375
v 15 -1.229 2.129
v 15 -1.738 1.738
v 15 -2.129 1.229
v 15 -2.375 0.636
v 15 -2.458 0
v 15 2.375 -0.636
v 29.458 2.458 0
v 29.458 2.375 -0.636
v 29.458 2.129 -1.229
v 15 2.129 -1.229
v 15 1.738 -1.738
v 29.458 1.738 -1.738
v 15 1.229 -2.129
v 29.458 1.229 -2.129
v 15 0.636 -2.375
v 29.458 0.636 -2.375
v 29.458 0 -2.458
v 15 0 -2.458
v 15 -0.636 -2.375
v 29.458 -0.636 -2.375
v 15 -1.229 -2.129
v 29.458 -1.229 -2.129
v 29.458 -1.738 -1.738
v 15 -1.738 -1.738
v 15 -2.129 -1.229
v 29.458 -2.129 -1.229
v 15 -2.375 -0.636
v 29.458 -2.375 -0.636
v 29.458 -2.458 0
v 30 3 0
v 30 2.898 -0.776
v 30 2.598 -1.5
v 30 2.121 -2.121
v 30 1.5 -2.598
v 30 0.776 -2.898
v 30 0 -3
v 30 -0.776 -2.898
v 30 -1.5 -2.598
v 30 -2.121 -2.121
v 30 -2.598 -1.5
v 30 -2.898 -0.776
v 30 -3 0
v 25 -5.5 -3.464
v 30 -5.5 -3.464
v 25 -5.5 3.464
v 30 -5.5 3.464
v 30 5.5 3.464
v 30 5.5 -3.464
v 25 5.5 3.464
v 25 5.5 -3.464
v 25 -4.33 2.5
v 25 -4.83 1.294
v 25 -3.536 3.536
v 25 -4.592 4.6
v 25 -3.455 5.506
v 25 -2.5 4.33
v 25 -2.145 6.136
v 25 -1.294 4.83
v 25 -0.727 6.459
v 25 0 5
v 25 0.727 6.459
v 25 1.294 4.83
v 25 2.145 6.136
v 25 2.5 4.33
v 25 3.455 5.506
v 25 3.536 3.536
v 25 4.592 4.6
v 25 4.83 1.294
v 25 4.33 2.5
v 25 4.592 -4.6
v 25 3.455 -5.506
v 25 2.145 -6.136
v 25 0.727 -6.459
v 25 -0.727 -6.459
v 25 -2.145 -6.136
v 25 -3.455 -5.506
v 25 -4.592 -4.6
v 30 -4.592 4.6
v 30 -3.455 5.506
v 30 -2.145 6.136
v 30 -0.727 6.459
v 30 0.727 6.459
v 30 2.145 6.136
v 30 3.455 5.506
v 30 4.592 4.6
v 30 2.898 0.776
v 29.458 2.375 0.636
v 30 2.598 1.5
v 29.458 2.129 1.229
v 30 2.121 2.121
v 29.458 1.738 1.738
v 29.458 1.229 2.129
v 30 1.5 2.598
v 29.458 0.636 2.375
v 30 0.776 2.898
v 30 0 3
v 29.458 0 2.458
v 30 -0.776 2.898
v 29.458 -0.636 2.375
v 30 -1.5 2.598
v 29.458 -1.229 2.129
v 30 -2.121 2.121
v 29.458 -1.738 1.738
v 30 -2.598 1.5
v 29.458 -2.129 1.229
v 30 -2.898 0.776
v 29.458 -2.375 0.636
v -1.392 -3.375 5.196
v -0.508 -4.18 4.753
v 0 -3.375 5.379
v 0.508 -4.18 4.753
v 1.392 -3.375 5.196
v 1.493 -3.937 4.753
v 2.392 -3.465 4.753
v 2.24 -4.5 3.88
v 2.969 -4.301 3.607
v 3.168 -4.5 3.168
v 3.912 -3.465 3.607
v 3.88 -4.5 2.24
v 4.444 -3.937 2.252
v 4.328 -4.5 1.16
v 4.718 -4.18 0.765
v 4.48 -4.5 0
v 4.718 -4.18 -0.765
v 4.328 -4.5 -1.16
v 4.444 -3.937 -2.252
v 3.88 -4.5 -2.24
v 3.912 -3.465 -3.607
v 3.168 -4.5 -3.168
v 2.969 -4.301 -3.607
v 2.24 -4.5 -3.88
v 2.392 -3.465 -4.753
v 1.493 -3.937 -4.753
v 1.392 -3.375 -5.196
v 0.508 -4.18 -4.753
v 0 -3.375 -5.379
v -0.508 -4.18 -4.753
v -1.392 -3.375 -5.196
v -1.493 -3.937 -4.753
v -2.392 -3.465 -4.753
v -2.24 -4.5 -3.88
v -2.969 -4.301 -3.607
v -3.168 -4.5 -3.168
v -3.912 -3.465 -3.607
v -3.88 -4.5 -2.24
v -4.444 -3.937 -2.252
v -4.328 -4.5 -1.16
v -4.718 -4.18 -0.765
v -4.48 -4.5 0
v -4.718 -4.18 0.765
v -4.328 -4.5 1.16
v -4.444 -3.937 2.252
v -3.88 -4.5 2.24
v -3.912 -3.465 3.607
v -3.168 -4.5 3.168
v -2.969 -4.301 3.607
v -2.24 -4.5 3.88
v -2.392 -3.465 4.753
v -1.493 -3.937 4.753
v -2.689 -3.375 4.658
v -3.803 -3.375 3.803
v -4.658 -3.375 2.689
v -5.196 -3.375 1.392
v -5.379 -3.375 0
v -5.196 -3.375 -1.392
v -4.658 -3.375 -2.689
v -3.803 -3.375 -3.803
v -2.689 -3.375 -4.658
v 2.689 -3.375 -4.658
v 3.803 -3.375 -3.803
v 4.658 -3.375 -2.689
v 5.196 -3.375 -1.392
v 5.379 -3.375 0
v 5.196 -3.375 1.392
v 4.658 -3.375 2.689
v 3.803 -3.375 3.803
v 2.689 -3.375 4.658
v 1.16 -4.5 -4.328
v 0 -4.5 -4.48
v -1.16 -4.5 -4.328
v -1.16 -4.5 4.328
v 0 -4.5 4.48
v 1.16 -4.5 4.328
v -3.308 -4.5 -0.886
v -2.965 -4.5 -1.712
v -2.421 -4.5 -2.421
v -1.712 -4.5 -2.965
v -0.886 -4.5 -3.308
v 0 -4.5 -3.424
v 0.886 -4.5 -3.308
v 1.712 -4.5 -2.965
v 2.421 -4.5 -2.421
v 2.965 -4.5 -1.712
v 3.308 -4.5 -0.886
v -1.392 3.375 -5.196
v -0.508 4.18 -4.753
v 0 3.375 -5.379
v 0.508 4.18 -4.753
v 1.392 3.375 -5.196
v 1.493 3.937 -4.753
v 2.392 3.465 -4.753
v 2.24 4.5 -3.88
v 2.969 4.301 -3.607
v 3.168 4.5 -3.168
v 3.912 3.465 -3.607
v 3.88 4.5 -2.24
v 4.444 3.937 -2.252
v 4.328 4.5 -1.16
v 4.718 4.18 -0.765
v 4.48 4.5 0
v 4.718 4.18 0.765
v 4.328 4.5 1.16
v 4.444 3.937 2.252
v 3.88 4.5 2.24
v 3.912 3.465 3.607
v 3.168 4.5 3.168
v 2.969 4.301 3.607
v 2.24 4.5 3.88
v 2.392 3.465 4.753
v 1.493 3.937 4.753
v 1.392 3.375 5.196
v 0.508 4.18 4.753
v 0 3.375 5.379
v -0.508 4.18 4.753
v -1.392 3.375 5.196
v -1.493 3.937 4.753
v -2.392 3.465 4.753
v -2.24 4.5 3.88
v -2.969 4.301 3.607
v -3.168 4.5 3.168
v -3.912 3.465 3.607
v -3.88 4.5 2.24
v -4.444 3.937 2.252
v -4.328 4.5 1.16
v -4.718 4.18 0.765
v -4.48 4.5 0
v -4.718 4.18 -0.765
v -4.328 4.5 -1.16
v -4.444 3.937 -2.252
v -3.88 4.5 -2.24
v -3.912 3.465 -3.607
v -3.168 4.5 -3.168
v -2.969 4.301 -3.607
v -2.24 4.5 -3.88
v -2.392 3.465 -4.753
v -1.493 3.937 -4.753
v -2.689 3.375 -4.658
v -3.803 3.375 -3.803
v -4.658 3.375 -2.689
v -5.196 3.375 -1.392
v -5.379 3.375 0
v -5.196 3.375 1.392
v -4.658 3.375 2.689
v -3.803 3.375 3.803
v -2.689 3.375 4.658
v 2.689 3.375 4.658
v 3.803 3.375 3.803
v 4.658 3.375 2.689
v 5.196 3.375 1.392
v 5.379 3.375 0
v 5.196 3.375 -1.392
v 4.658 3.375 -2.689
v 3.803 3.375 -3.803
v 2.689 3.375 -4.658
v -1.16 4.5 -4.328
v 0 4.5 -4.48
v 1.16 4.5 -4.328
v 1.16 4.5 4.328
v 0 4.5 4.48
v -1.16 4.5 4.328
v 3.308 4.5 -0.886
v 2.965 4.5 -1.712
v 2.421 4.5 -2.421
v 1.712 4.5 -2.965
v 0.886 4.5 -3.308
v 0 4.5 -3.424
v -0.886 4.5 -3.308
v -1.712 4.5 -2.965
v -2.421 4.5 -2.421
v -2.965 4.5 -1.712
v -3.308 4.5 -0.886
v 2.898 4.076 -0.776
v 2.598 4.076 -1.5
v 2.121 4.076 -2.121
v 1.5 4.076 -2.598
v 0.776 4.076 -2.898
v 0 4.076 -3
v -0.776 4.076 -2.898
v -1.5 4.076 -2.598
v -2.121 4.076 -2.121
v -2.598 4.076 -1.5
v -2.898 4.076 -0.776
v 2.898 -4.076 -0.776
v 2.598 -4.076 -1.5
v 2.121 -4.076 -2.121
v 1.5 -4.076 -2.598
v 0.776 -4.076 -2.898
v 0 -4.076 -3
v -0.776 -4.076 -2.898
v -1.5 -4.076 -2.598
v -2.121 -4.076 -2.121
v -2.598 -4.076 -1.5
v -2.898 -4.076 -0.776
v 8.116 -3.375 -5.669
v 6.94 -3.375 -6.57
v 5.569 -3.375 -7.59
v 3.947 -3.375 -8.546
v 2.167 -3.375 -9.16
v 0.301 -3.375 -9.408
v 9.128 -3.375 -4.863
v 10 -3.375 -4.132
v 10 -3.375 4.132
v 9.128 -3.375 4.863
v 8.116 -3.375 5.669
v 6.94 -3.375 6.57
v 5.569 -3.375 7.59
v 3.947 -3.375 8.546
v 2.167 -3.375 9.16
v 0.301 -3.375 9.408
v -1.578 -3.375 9.28
v -3.393 -3.375 8.781
v -5.072 -3.375 7.93
v -6.549 -3.375 6.762
v -7.764 -3.375 5.323
v -8.668 -3.375 3.672
v -9.225 -3.375 1.873
v -9.413 -3.375 0
v -9.225 -3.375 -1.873
v -8.668 -3.375 -3.672
v -7.764 -3.375 -5.323
v -6.549 -3.375 -6.762
v -5.072 -3.375 -7.93
v -3.393 -3.375 -8.781
v -1.578 -3.375 -9.28
v 8.116 3.375 5.669
v 6.94 3.375 6.57
v 9.128 3.375 4.863
v 10 3.375 4.132
v 10 3.375 -4.132
v 9.128 3.375 -4.863
v 8.116 3.375 -5.669
v 6.94 3.375 -6.57
v 10.5 -3.875 3.16
v 10.981 -4.356 2.454
v 11.335 -4.71 1.677
v 11.552 -4.927 0.851
v 10.5 3.875 3.16
v 10.981 4.356 2.454
v 11.335 4.71 1.677
v 11.552 4.927 0.851
v 5.569 -1.155 8.225
v 5.449 -1.084 8.315
v 3.753 -0.747 9.239
v 1.913 -0.381 9.808
v 1.802 -0.747 9.808
v -1.913 -0.381 9.808
v -3.753 -0.747 9.239
v -5.449 -1.084 8.315
v -6.935 -1.379 7.071
v -8.155 -1.622 5.556
v -9.061 -1.802 3.827
v -9.619 -1.913 1.951
v -9.808 -1.951 0
v -9.619 -1.913 -1.951
v -9.061 -1.802 -3.827
v -8.155 -1.622 -5.556
v -6.935 -1.379 -7.071
v -5.449 -1.084 -8.315
v -3.753 -0.747 -9.239
v -1.913 -0.381 -9.808
v -1.802 -0.747 -9.808
v 5.449 -1.084 -8.315
v 3.753 -0.747 -9.239
v 1.913 -0.381 -9.808
v 5.569 -1.155 -8.225
v 5.133 -2.126 -8.315
v 3.536 -1.464 -9.239
v 3.182 -2.126 -9.239
v 1.622 -1.084 -9.808
v 1.379 -1.379 -9.808
v 5.569 -2.287 -7.985
v 4.619 -3.087 -8.315
v 2.706 -2.706 -9.239
v 2.126 -3.182 -9.239
v 0.747 -1.802 -9.808
v 0.381 -1.913 -9.808
v -1.622 -1.084 -9.808
v -3.182 -2.126 -9.239
v -2.706 -2.706 -9.239
v -2.126 -3.182 -9.239
v -1.084 -1.622 -9.808
v -0.747 -1.802 -9.808
v -4.619 -3.087 -8.315
v -5.133 -2.126 -8.315
v -6.533 -2.706 -7.071
v -7.682 -3.182 -5.556
v -7.682 -3.182 5.556
v -6.533 -2.706 7.071
v 5.133 -2.126 8.315
v 3.536 -1.464 9.239
v 4.619 -3.087 8.315
v 3.182 -2.126 9.239
v 2.706 -2.706 9.239
v 2.126 -3.182 9.239
v 0.747 -1.802 9.808
v 0.381 -1.913 9.808
v 5.569 -2.287 7.985
v 1.622 -1.084 9.808
v 1.379 -1.379 9.808
v 1.084 -1.622 9.808
v 0 -1.951 9.808
v -1.084 -1.622 9.808
v -1.379 -1.379 9.808
v -1.622 -1.084 9.808
v -1.802 -0.747 9.808
v -1.379 -1.379 -9.808
v -0.381 -1.913 -9.808
v 0 -1.951 -9.808
v 1.084 -1.622 -9.808
v 1.802 -0.747 -9.808
v -0.381 -1.913 9.808
v -0.747 -1.802 9.808
v -3.536 -1.464 -9.239
v -5.133 -2.126 8.315
v -3.536 -1.464 9.239
v -4.619 -3.087 8.315
v -3.182 -2.126 9.239
v -2.706 -2.706 9.239
v -2.126 -3.182 9.239
v 10.5 -1.855 4.643
v 10.5 -2.959 4.03
v 10.5 -0.632 4.96
v 10.5 0.632 4.96
v 10.5 1.855 4.643
v 10.5 2.959 4.03
v 30 -4.592 -4.6
v 30 -3.455 -5.506
v 30 -2.145 -6.136
v 30 -0.727 -6.459
v 30 0.727 -6.459
v 30 2.145 -6.136
v 30 3.455 -5.506
v 30 4.592 -4.6
vn 0 1 0
vn 0 0.985 -0.17
vn 0 0.966 -0.259
vn 0 0.942 -0.335
vn 0 0.866 -0.5
vn 0 0.871 -0.491
vn 0 0.775 -0.632
vn 0 0.707 -0.707
vn 0 0.592 -0.806
vn 0 0.5 -0.866
vn 0 0.371 -0.929
vn 0 0.259 -0.966
vn 0 0.126 -0.992
vn 0 0 -1
vn 0 -0.126 -0.992
vn 0 -0.259 -0.966
vn 0 -0.371 -0.929
vn 0 -0.5 -0.866
vn 0 -0.592 -0.806
vn 0 -0.707 -0.707
vn 0 -0.775 -0.632
vn 0 -0.866 -0.5
vn 0 -0.871 -0.491
vn 0 -0.942 -0.335
vn 0 -0.966 -0.259
vn 0 -0.985 -0.17
vn 0 -1 0
vn 0.557 0 0.831
vn 0.545 0.108 0.831
vn 0.384 0 0.923
vn 0.375 0.075 0.924
vn 0.196 0 0.981
vn 0.191 0.038 0.981
vn 0 0 1
vn 0.557 0.115 0.823
vn 0.513 0.213 0.831
vn 0.354 0.146 0.924
vn 0.318 0.213 0.924
vn 0.162 0.108 0.981
vn 0.138 0.138 0.981
vn 0.557 0.229 0.799
vn 0.462 0.309 0.831
vn 0.395 0.338 0.855
vn 0.271 0.271 0.924
vn 0.217 0.338 0.916
vn 0.213 0.318 0.924
vn 0.03 0.338 0.941
vn 0.075 0.18 0.981
vn 0.038 0.191 0.981
vn 0.557 0.338 0.759
vn -0.707 0 0.707
vn -0.556 0 0.831
vn -0.694 0.138 0.707
vn -0.545 0.108 0.831
vn -0.653 0.271 0.707
vn -0.513 0.213 0.831
vn -0.507 0.338 0.793
vn -0.462 0.309 0.831
vn -0.339 0.338 0.878
vn -0.318 0.213 0.924
vn -0.271 0.271 0.924
vn -0.162 0.108 0.981
vn -0.138 0.138 0.981
vn -0.655 0.338 0.676
vn -0.768 0.318 0.556
vn -0.815 0.162 0.556
vn -0.831 0 0.556
vn -0.776 0.338 0.532
vn -0.906 0.18 0.383
vn -0.867 0.338 0.367
vn -0.962 0.191 0.195
vn -0.922 0.338 0.187
vn -0.981 0.195 0
vn -0.941 0.338 0
vn -0.922 0.338 -0.187
vn -0.962 0.191 -0.195
vn -0.867 0.338 -0.367
vn -0.906 0.18 -0.383
vn -0.776 0.338 -0.532
vn -0.815 0.162 -0.556
vn -0.768 0.318 -0.556
vn -0.653 0.271 -0.707
vn -0.655 0.338 -0.676
vn -0.507 0.338 -0.793
vn 0.557 0 -0.831
vn 0.384 0 -0.923
vn 0.545 0.108 -0.831
vn 0.375 0.075 -0.924
vn 0.513 0.213 -0.831
vn 0.354 0.146 -0.924
vn 0.462 0.309 -0.831
vn 0.318 0.213 -0.924
vn 0.395 0.338 -0.855
vn 0.271 0.271 -0.924
vn 0.217 0.338 -0.916
vn 0.213 0.318 -0.924
vn 0.03 0.338 -0.941
vn 0.038 0.191 -0.981
vn 0 0.195 -0.981
vn 0.557 0.338 -0.759
vn 0.557 0.229 -0.799
vn 0.557 0.115 -0.823
vn 0.196 0 -0.981
vn 0.191 0.038 -0.981
vn 0.18 0.075 -0.981
vn 0.162 0.108 -0.981
vn 0.138 0.138 -0.981
vn 0.108 0.162 -0.981
vn 0.075 0.18 -0.981
vn -0.195 0 -0.981
vn -0.191 0.038 -0.981
vn -0.383 0 -0.924
vn -0.375 0.075 -0.924
vn -0.556 0 -0.831
vn -0.545 0.108 -0.831
vn -0.707 0 -0.707
vn -0.694 0.138 -0.707
vn -0.831 0 -0.556
vn -0.924 0 -0.383
vn -0.981 0 -0.195
vn -1 0 0
vn -0.981 0 0.195
vn -0.924 0 0.383
vn -0.383 0 0.924
vn -0.375 0.075 0.924
vn -0.354 0.146 0.924
vn -0.195 0 0.981
vn -0.191 0.038 0.981
vn -0.18 0.075 0.981
vn -0.038 0.191 -0.981
vn -0.108 0.162 -0.981
vn -0.138 0.138 -0.981
vn -0.162 0.108 -0.981
vn -0.18 0.075 -0.981
vn -0.108 0.162 0.981
vn -0.075 0.18 0.981
vn -0.038 0.191 0.981
vn 0 0.195 0.981
vn 0.108 0.162 0.981
vn 0.18 0.075 0.981
vn -0.158 0.338 -0.928
vn -0.158 0.338 0.928
vn -0.213 0.318 0.924
vn -0.354 0.146 -0.924
vn -0.318 0.213 -0.924
vn -0.271 0.271 -0.924
vn -0.213 0.318 -0.924
vn -0.339 0.338 -0.878
vn -0.513 0.213 -0.831
vn -0.462 0.309 -0.831
vn -0.075 0.18 -0.981
vn -0.707 -0.707 0
vn -0.683 -0.707 -0.183
vn -0.612 -0.707 -0.354
vn -0.5 -0.707 -0.5
vn -0.354 -0.707 -0.612
vn -0.183 -0.707 -0.683
vn 0.183 -0.707 -0.683
vn 0.354 -0.707 -0.612
vn 0.5 -0.707 -0.5
vn 0.612 -0.707 -0.354
vn 0.683 -0.707 -0.183
vn 0.707 -0.707 0
vn -0.966 0 -0.259
vn -0.866 0 -0.5
vn -0.5 0 -0.866
vn -0.259 0 -0.966
vn 0.259 0 -0.966
vn 0.5 0 -0.866
vn 0.707 0 -0.707
vn 0.866 0 -0.5
vn 0.966 0 -0.259
vn 1 0 0
vn -0.707 0.707 0
vn -0.683 0.707 -0.183
vn -0.612 0.707 -0.354
vn -0.5 0.707 -0.5
vn -0.354 0.707 -0.612
vn -0.183 0.707 -0.683
vn 0.183 0.707 -0.683
vn 0.354 0.707 -0.612
vn 0.5 0.707 -0.5
vn 0.612 0.707 -0.354
vn 0.683 0.707 -0.183
vn 0.707 0.707 0
vn 0.866 -0.5 0
vn 0.866 -0.483 -0.129
vn 0.866 -0.498 -0.041
vn 0.866 -0.433 -0.25
vn 0.866 -0.354 -0.354
vn 0.866 -0.462 -0.191
vn 0.866 -0.25 -0.433
vn 0.866 -0.129 -0.483
vn 0.866 -0.397 -0.304
vn 0.866 -0.191 -0.462
vn 0.866 0.129 -0.483
vn 0.866 -0.021 -0.5
vn 0.866 0.25 -0.433
vn 0.866 0.354 -0.354
vn 0.866 0.065 -0.496
vn 0.866 0.433 -0.25
vn 0.866 0.304 -0.397
vn 0.866 0.483 -0.129
vn 0.866 0.397 -0.304
vn 0.866 0.5 0
vn 0 -0.966 0.259
vn 0 -0.866 0.5
vn 0 -0.707 0.707
vn 0 -0.5 0.866
vn 0 -0.259 0.966
vn 0 0.259 0.966
vn 0 0.5 0.866
vn 0 0.707 0.707
vn 0 0.866 0.5
vn 0 0.966 0.259
vn 0.707 -0.683 0.183
vn 0.707 -0.612 0.354
vn 0.707 -0.5 0.5
vn 0.707 -0.354 0.612
vn 0.707 -0.183 0.683
vn 0.707 0 0.707
vn 0.707 0.183 0.683
vn 0.707 0.354 0.612
vn 0.707 0.5 0.5
vn 0.707 0.612 0.354
vn 0.707 0.683 0.183
vn 0 -0.846 0.533
vn 0 -0.707 0.708
vn 0 -0.532 0.847
vn 0 -0.33 0.944
vn 0 -0.112 0.994
vn 0 0.112 0.994
vn 0 0.33 0.944
vn 0 0.532 0.847
vn 0 0.707 0.708
vn 0 0.846 0.533
vn 0.707 -0.683 -0.183
vn 0.707 -0.612 -0.354
vn 0.707 -0.5 -0.5
vn 0.707 -0.354 -0.612
vn 0.707 -0.183 -0.683
vn 0.707 0.183 -0.683
vn 0.707 0.354 -0.612
vn 0.707 0.5 -0.5
vn 0.707 0.612 -0.354
vn 0.707 0.683 -0.183
vn 0.866 0.483 0.129
vn 0.866 0.496 0.065
vn 0.866 0.433 0.25
vn 0.866 0.354 0.354
vn 0.866 0.462 0.191
vn 0.866 0.25 0.433
vn 0.866 0.397 0.304
vn 0.866 0.129 0.483
vn 0.866 0.304 0.397
vn 0.866 0 0.5
vn 0.866 -0.433 0.25
vn 0.866 -0.304 0.397
vn 0.866 -0.354 0.354
vn 0.866 -0.191 0.462
vn 0.866 -0.25 0.433
vn 0.866 -0.483 0.129
vn 0.866 -0.397 0.304
vn 0.866 -0.065 0.496
vn 0.866 -0.129 0.483
vn 0.866 0.062 0.496
vn -0.219 -0.531 0.818
vn -0.08 -0.658 0.749
vn 0 -0.531 0.847
vn 0.08 -0.658 0.749
vn 0.219 -0.531 0.818
vn 0.235 -0.62 0.749
vn 0.377 -0.546 0.749
vn 0.353 -0.709 0.611
vn 0.468 -0.677 0.568
vn 0.499 -0.709 0.499
vn 0.616 -0.546 0.568
vn 0.611 -0.709 0.353
vn 0.7 -0.62 0.355
vn 0.682 -0.709 0.183
vn 0.743 -0.658 0.121
vn 0.706 -0.709 0
vn 0.743 -0.658 -0.121
vn 0.682 -0.709 -0.183
vn 0.7 -0.62 -0.355
vn 0.611 -0.709 -0.353
vn 0.616 -0.546 -0.568
vn 0.499 -0.709 -0.499
vn 0.468 -0.677 -0.568
vn 0.353 -0.709 -0.611
vn 0.377 -0.546 -0.749
vn 0.235 -0.62 -0.749
vn 0.219 -0.531 -0.818
vn 0.08 -0.658 -0.749
vn 0 -0.531 -0.847
vn -0.08 -0.658 -0.749
vn -0.219 -0.531 -0.818
vn -0.235 -0.62 -0.749
vn -0.377 -0.546 -0.749
vn -0.353 -0.709 -0.611
vn -0.468 -0.677 -0.568
vn -0.499 -0.709 -0.499
vn -0.616 -0.546 -0.568
vn -0.611 -0.709 -0.353
vn -0.7 -0.62 -0.355
vn -0.682 -0.709 -0.183
vn -0.743 -0.658 -0.121
vn -0.706 -0.709 0
vn -0.743 -0.658 0.121
vn -0.682 -0.709 0.183
vn -0.7 -0.62 0.355
vn -0.611 -0.709 0.353
vn -0.616 -0.546 0.568
vn -0.499 -0.709 0.499
vn -0.468 -0.677 0.568
vn -0.353 -0.709 0.611
vn -0.377 -0.546 0.749
vn -0.235 -0.62 0.749
vn -0.424 -0.531 0.734
vn -0.599 -0.531 0.599
vn -0.734 -0.531 0.424
vn -0.818 -0.531 0.219
vn -0.847 -0.531 0
vn -0.818 -0.531 -0.219
vn -0.734 -0.531 -0.424
vn -0.599 -0.531 -0.599
vn -0.424 -0.531 -0.734
vn 0.424 -0.531 -0.734
vn 0.599 -0.531 -0.599
vn 0.734 -0.531 -0.424
vn 0.818 -0.531 -0.219
vn 0.847 -0.531 0
vn 0.818 -0.531 0.219
vn 0.734 -0.531 0.424
vn 0.599 -0.531 0.599
vn 0.424 -0.531 0.734
vn 0.183 -0.709 -0.682
vn 0 -0.709 -0.706
vn -0.183 -0.709 -0.682
vn -0.183 -0.709 0.682
vn 0 -0.709 0.706
vn 0.183 -0.709 0.682
vn -0.219 0.531 -0.818
vn -0.08 0.658 -0.749
vn 0 0.531 -0.847
vn 0.08 0.658 -0.749
vn 0.219 0.531 -0.818
vn 0.235 0.62 -0.749
vn 0.377 0.546 -0.749
vn 0.353 0.709 -0.611
vn 0.468 0.677 -0.568
vn 0.499 0.709 -0.499
vn 0.616 0.546 -0.568
vn 0.611 0.709 -0.353
vn 0.7 0.62 -0.355
vn 0.682 0.709 -0.183
vn 0.743 0.658 -0.121
vn 0.706 0.709 0
vn 0.743 0.658 0.121
vn 0.682 0.709 0.183
vn 0.7 0.62 0.355
vn 0.611 0.709 0.353
vn 0.616 0.546 0.568
vn 0.499 0.709 0.499
vn 0.468 0.677 0.568
vn 0.353 0.709 0.611
vn 0.377 0.546 0.749
vn 0.235 0.62 0.749
vn 0.219 0.531 0.818
vn 0.08 0.658 0.749
vn 0 0.531 0.847
vn -0.08 0.658 0.749
vn -0.219 0.531 0.818
vn -0.235 0.62 0.749
vn -0.377 0.546 0.749
vn -0.353 0.709 0.611
vn -0.468 0.677 0.568
vn -0.499 0.709 0.499
vn -0.616 0.546 0.568
vn -0.611 0.709 0.353
vn -0.7 0.62 0.355
vn -0.682 0.709 0.183
vn -0.743 0.658 0.121
vn -0.706 0.709 0
vn -0.743 0.658 -0.121
vn -0.682 0.709 -0.183
vn -0.7 0.62 -0.355
vn -0.611 0.709 -0.353
vn -0.616 0.546 -0.568
vn -0.499 0.709 -0.499
vn -0.468 0.677 -0.568
vn -0.353 0.709 -0.611
vn -0.377 0.546 -0.749
vn -0.235 0.62 -0.749
vn -0.424 0.531 -0.734
vn -0.599 0.531 -0.599
vn -0.734 0.531 -0.424
vn -0.818 0.531 -0.219
vn -0.847 0.531 0
vn -0.818 0.531 0.219
vn -0.734 0.531 0.424
vn -0.599 0.531 0.599
vn -0.424 0.531 0.734
vn 0.424 0.531 0.734
vn 0.599 0.531 0.599
vn 0.734 0.531 0.424
vn 0.818 0.531 0.219
vn 0.847 0.531 0
vn 0.818 0.531 -0.219
vn 0.734 0.531 -0.424
vn 0.599 0.531 -0.599
vn 0.424 0.531 -0.734
vn -0.183 0.709 -0.682
vn 0 0.709 -0.706
vn 0.183 0.709 -0.682
vn 0.183 0.709 0.682
vn 0 0.709 0.706
vn -0.183 0.709 0.682
vn -0.683 0.707 0.183
vn -0.612 0.707 0.354
vn -0.5 0.707 0.5
vn -0.354 0.707 0.612
vn -0.183 0.707 0.683
vn 0.183 0.707 0.683
vn 0.354 0.707 0.612
vn 0.5 0.707 0.5
vn 0.612 0.707 0.354
vn 0.683 0.707 0.183
vn -0.966 0 0.259
vn -0.866 0 0.5
vn -0.5 0 0.866
vn -0.259 0 0.966
vn 0.259 0 0.966
vn 0.5 0 0.866
vn 0.966 0 0.259
vn -0.683 -0.707 0.183
vn -0.612 -0.707 0.354
vn -0.5 -0.707 0.5
vn -0.354 -0.707 0.612
vn -0.183 -0.707 0.683
vn 0.183 -0.707 0.683
vn 0.354 -0.707 0.612
vn 0.5 -0.707 0.5
vn 0.612 -0.707 0.354
vn 0.683 -0.707 0.183
vn 0.557 -0.115 0.823
vn 0.545 -0.108 0.831
vn 0.375 -0.075 0.924
vn 0.191 -0.038 0.981
vn 0.18 -0.075 0.981
vn -0.191 -0.038 0.981
vn -0.375 -0.075 0.924
vn -0.545 -0.108 0.831
vn -0.694 -0.138 0.707
vn -0.815 -0.162 0.556
vn -0.906 -0.18 0.383
vn -0.962 -0.191 0.195
vn -0.981 -0.195 0
vn -0.962 -0.191 -0.195
vn -0.906 -0.18 -0.383
vn -0.815 -0.162 -0.556
vn -0.694 -0.138 -0.707
vn -0.545 -0.108 -0.831
vn -0.375 -0.075 -0.924
vn -0.191 -0.038 -0.981
vn -0.18 -0.075 -0.981
vn 0.545 -0.108 -0.831
vn 0.375 -0.075 -0.924
vn 0.191 -0.038 -0.981
vn 0.557 -0.115 -0.823
vn 0.513 -0.213 -0.831
vn 0.354 -0.146 -0.924
vn 0.318 -0.213 -0.924
vn 0.162 -0.108 -0.981
vn 0.138 -0.138 -0.981
vn 0.557 -0.229 -0.799
vn 0.462 -0.309 -0.831
vn 0.395 -0.338 -0.855
vn 0.271 -0.271 -0.924
vn 0.217 -0.338 -0.916
vn 0.213 -0.318 -0.924
vn 0.03 -0.338 -0.941
vn 0.075 -0.18 -0.981
vn 0.038 -0.191 -0.981
vn 0.557 -0.338 -0.759
vn -0.162 -0.108 -0.981
vn -0.318 -0.213 -0.924
vn -0.271 -0.271 -0.924
vn -0.339 -0.338 -0.878
vn -0.213 -0.318 -0.924
vn -0.158 -0.338 -0.928
vn -0.108 -0.162 -0.981
vn -0.075 -0.18 -0.981
vn -0.462 -0.309 -0.831
vn -0.507 -0.338 -0.793
vn -0.513 -0.213 -0.831
vn -0.653 -0.271 -0.707
vn -0.655 -0.338 -0.676
vn -0.768 -0.318 -0.556
vn -0.776 -0.338 -0.532
vn -0.867 -0.338 -0.367
vn -0.922 -0.338 -0.187
vn -0.941 -0.338 0
vn -0.922 -0.338 0.187
vn -0.867 -0.338 0.367
vn -0.776 -0.338 0.532
vn -0.768 -0.318 0.556
vn -0.653 -0.271 0.707
vn -0.655 -0.338 0.676
vn -0.507 -0.338 0.793
vn 0.513 -0.213 0.831
vn 0.354 -0.146 0.924
vn 0.462 -0.309 0.831
vn 0.318 -0.213 0.924
vn 0.395 -0.338 0.855
vn 0.271 -0.271 0.924
vn 0.217 -0.338 0.916
vn 0.213 -0.318 0.924
vn 0.03 -0.338 0.941
vn 0.075 -0.18 0.981
vn 0.038 -0.191 0.981
vn 0.557 -0.338 0.759
vn 0.557 -0.229 0.799
vn 0.162 -0.108 0.981
vn 0.138 -0.138 0.981
vn 0.108 -0.162 0.981
vn 0 -0.195 0.981
vn -0.108 -0.162 0.981
vn -0.138 -0.138 0.981
vn -0.162 -0.108 0.981
vn -0.18 -0.075 0.981
vn -0.138 -0.138 -0.981
vn -0.038 -0.191 -0.981
vn 0 -0.195 -0.981
vn 0.108 -0.162 -0.981
vn 0.18 -0.075 -0.981
vn -0.038 -0.191 0.981
vn -0.158 -0.338 0.928
vn -0.075 -0.18 0.981
vn -0.354 -0.146 -0.924
vn -0.513 -0.213 0.831
vn -0.354 -0.146 0.924
vn -0.462 -0.309 0.831
vn -0.318 -0.213 0.924
vn -0.339 -0.338 0.878
vn -0.271 -0.271 0.924
vn -0.213 -0.318 0.924
vn 0.557 -0.308 0.771
vn 0.557 -0.38 0.739
vn 0.557 -0.425 0.714
vn 0.557 -0.474 0.682
vn 0.557 -0.492 0.67
vn 0.557 -0.525 0.643
vn 0.557 -0.644 0.525
vn 0.557 -0.105 0.824
vn 0.557 0.105 0.824
vn 0.557 0.308 0.771
vn 0.557 0.644 0.525
vn 0.557 0.525 0.643
vn 0.557 0.492 0.67
vn 0.557 0.474 0.682
vn 0.557 0.425 0.714
vn 0.557 0.38 0.739
vn 0 -0.846 -0.533
vn 0 -0.707 -0.708
vn 0 -0.532 -0.847
vn 0 -0.33 -0.944
vn 0 -0.112 -0.994
vn 0 0.112 -0.994
vn 0 0.33 -0.944
vn 0 0.532 -0.847
vn 0 0.707 -0.708
vn 0 0.846 -0.533
vn 0 0.985 0.17
vn 0 0.942 0.335
vn 0 0.871 0.491
vn 0 0.775 0.632
vn 0 0.592 0.806
vn 0 0.371 0.929
vn 0 0.126 0.992
vn 0 -0.126 0.992
vn 0 -0.371 0.929
vn 0 -0.592 0.806
vn 0 -0.775 0.632
vn 0 -0.871 0.491
vn 0 -0.942 0.335
vn 0 -0.985 0.17
vn 0.557 -0.644 -0.525
vn 0.557 -0.525 -0.643
vn 0.557 -0.492 -0.67
vn 0.557 -0.474 -0.682
vn 0.557 -0.308 -0.771
vn 0.557 -0.425 -0.714
vn 0.557 -0.38 -0.739
vn 0.557 -0.105 -0.824
vn 0.557 0.105 -0.824
vn 0.557 0.308 -0.771
vn 0.557 0.38 -0.739
vn 0.557 0.425 -0.714
vn 0.557 0.474 -0.682
vn 0.557 0.492 -0.67
vn 0.557 0.525 -0.643
vn 0.557 0.644 -0.525
g 27630-06_1
usemtl 27630-06_color_1
f 1//1 2//1 3//2
f 3//2 2//1 4//3
f 3//2 4//3 5//4
f 5//4 4//3 6//5
f 5//4 6//5 7//6
f 7//6 6//5 8//7
f 6//5 9//8 8//7
f 8//7 9//8 10//9
f 9//8 11//10 10//9
f 10//9 11//10 12//11
f 11//10 13//12 12//11
f 12//11 13//12 14//13
f 13//12 15//14 14//13
f 14//13 15//14 16//15
f 15//14 17//16 16//15
f 16//15 17//16 18//17
f 17//16 19//18 18//17
f 18//17 19//18 20//19
f 19//18 21//20 20//19
f 20//19 21//20 22//21
f 21//20 23//22 22//21
f 22//21 23//22 24//23
f 24//23 23//22 25//24
f 25//24 23//22 26//25
f 25//24 26//25 27//26
f 27//26 26//25 28//27
f 27//26 28//27 29//27
f 30//28 31//29 32//30
f 32//30 31//29 33//31
f 32//30 33//31 34//32
f 34//32 33//31 35//33
f 34//32 35//33 36//34
f 30//28 37//35 31//29
f 31//29 37//35 38//36
f 31//29 38//36 39//37
f 39//37 38//36 40//38
f 39//37 40//38 41//39
f 41//39 40//38 42//40
f 41//39 42//40 36//34
f 37//35 43//41 38//36
f 38//36 43//41 44//42
f 38//36 44//42 40//38
f 40//38 44//42 45//43
f 40//38 45//43 46//44
f 46//44 45//43 47//45
f 46//44 47//45 48//46
f 48//46 47//45 49//47
f 48//46 49//47 50//48
f 50//48 49//47 51//49
f 50//48 51//49 36//34
f 43//41 52//50 44//42
f 44//42 52//50 45//43
f 53//51 54//52 55//53
f 55//53 54//52 56//54
f 55//53 56//54 57//55
f 57//55 56//54 58//56
f 57//55 58//56 59//57
f 59//57 58//56 60//58
f 59//57 60//58 61//59
f 61//59 60//58 62//60
f 61//59 62//60 63//61
f 63//61 62//60 64//62
f 63//61 64//62 65//63
f 65//63 64//62 36//34
f 59//57 66//64 57//55
f 57//55 66//64 67//65
f 57//55 67//65 55//53
f 55//53 67//65 68//66
f 55//53 68//66 53//51
f 53//51 68//66 69//67
f 66//64 70//68 67//65
f 67//65 70//68 68//66
f 68//66 70//68 71//69
f 71//69 70//68 72//70
f 71//69 72//70 73//71
f 73//71 72//70 74//72
f 73//71 74//72 75//73
f 75//73 74//72 76//74
f 75//73 76//74 77//75
f 75//73 77//75 78//76
f 78//76 77//75 79//77
f 78//76 79//77 80//78
f 80//78 79//77 81//79
f 80//78 81//79 82//80
f 82//80 81//79 83//81
f 82//80 83//81 84//82
f 84//82 83//81 85//83
f 84//82 85//83 86//84
f 81//79 85//83 83//81
f 87//85 88//86 89//87
f 89//87 88//86 90//88
f 89//87 90//88 91//89
f 91//89 90//88 92//90
f 91//89 92//90 93//91
f 93//91 92//90 94//92
f 93//91 94//92 95//93
f 95//93 94//92 96//94
f 95//93 96//94 97//95
f 97//95 96//94 98//96
f 97//95 98//96 99//97
f 99//97 98//96 100//98
f 99//97 100//98 101//99
f 101//99 100//98 102//14
f 95//93 103//100 93//91
f 93//91 103//100 104//101
f 93//91 104//101 91//89
f 91//89 104//101 105//102
f 91//89 105//102 89//87
f 89//87 105//102 87//85
f 88//86 106//103 90//88
f 90//88 106//103 107//104
f 90//88 107//104 92//90
f 92//90 107//104 108//105
f 92//90 108//105 94//92
f 94//92 108//105 109//106
f 94//92 109//106 96//94
f 96//94 109//106 110//107
f 96//94 110//107 98//96
f 98//96 110//107 111//108
f 98//96 111//108 112//109
f 112//109 111//108 102//14
f 102//14 113//110 114//111
f 114//111 113//110 115//112
f 114//111 115//112 116//113
f 116//113 115//112 117//114
f 116//113 117//114 118//115
f 118//115 117//114 119//116
f 118//115 119//116 120//117
f 120//117 119//116 121//118
f 120//117 121//118 82//80
f 82//80 121//118 122//119
f 82//80 122//119 80//78
f 80//78 122//119 123//120
f 80//78 123//120 78//76
f 78//76 123//120 124//121
f 78//76 124//121 75//73
f 75//73 124//121 125//122
f 75//73 125//122 73//71
f 73//71 125//122 126//123
f 73//71 126//123 71//69
f 71//69 126//123 69//67
f 71//69 69//67 68//66
f 54//52 127//124 56//54
f 56//54 127//124 128//125
f 56//54 128//125 58//56
f 58//56 128//125 129//126
f 58//56 129//126 60//58
f 60//58 129//126 62//60
f 127//124 130//127 128//125
f 128//125 130//127 131//128
f 128//125 131//128 129//126
f 129//126 131//128 132//129
f 129//126 132//129 62//60
f 62//60 132//129 64//62
f 101//99 102//14 133//130
f 134//131 102//14 135//132
f 135//132 102//14 136//133
f 136//133 102//14 137//134
f 137//134 102//14 114//111
f 132//129 36//34 64//62
f 138//135 36//34 139//136
f 139//136 36//34 140//137
f 140//137 36//34 141//138
f 50//48 36//34 142//139
f 41//39 36//34 143//140
f 108//105 107//104 102//14
f 102//14 107//104 106//103
f 108//105 102//14 109//106
f 144//141 99//97 133//130
f 133//130 99//97 101//99
f 138//135 139//136 145//142
f 145//142 139//136 140//137
f 145//142 140//137 49//47
f 49//47 140//137 141//138
f 49//47 141//138 51//49
f 51//49 141//138 36//34
f 61//59 63//61 146//143
f 146//143 63//61 65//63
f 146//143 65//63 138//135
f 138//135 65//63 36//34
f 132//129 131//128 36//34
f 36//34 131//128 130//127
f 31//29 39//37 33//31
f 33//31 39//37 143//140
f 33//31 143//140 35//33
f 35//33 143//140 36//34
f 143//140 39//37 41//39
f 40//38 46//44 42//40
f 42//40 46//44 142//139
f 42//40 142//139 36//34
f 46//44 48//46 142//139
f 142//139 48//46 50//48
f 61//59 146//143 145//142
f 145//142 146//143 138//135
f 114//111 116//113 137//134
f 137//134 116//113 147//144
f 137//134 147//144 136//133
f 136//133 147//144 148//145
f 136//133 148//145 135//132
f 135//132 148//145 149//146
f 135//132 149//146 134//131
f 134//131 149//146 150//147
f 134//131 150//147 144//141
f 144//141 150//147 151//148
f 116//113 118//115 147//144
f 147//144 118//115 152//149
f 147//144 152//149 148//145
f 148//145 152//149 153//150
f 148//145 153//150 151//148
f 151//148 153//150 86//84
f 118//115 120//117 152//149
f 152//149 120//117 84//82
f 152//149 84//82 86//84
f 120//117 82//80 84//82
f 153//150 152//149 86//84
f 150//147 149//146 151//148
f 151//148 149//146 148//145
f 102//14 134//131 154//151
f 154//151 134//131 144//141
f 154//151 144//141 133//130
f 98//96 112//109 100//98
f 100//98 112//109 102//14
f 109//106 102//14 110//107
f 110//107 102//14 111//108
f 133//130 102//14 154//151
f 155//152 156//153 157//152
f 157//152 156//153 158//153
f 156//153 159//154 158//153
f 158//153 159//154 160//154
f 160//154 159//154 161//155
f 161//155 159//154 162//155
f 161//155 162//155 163//156
f 161//155 163//156 164//156
f 164//156 163//156 165//157
f 164//156 165//157 166//157
f 166//157 165//157 167//20
f 166//157 167//20 168//20
f 168//20 167//20 169//158
f 168//20 169//158 170//158
f 170//158 169//158 171//159
f 169//158 172//159 171//159
f 171//159 172//159 173//160
f 171//159 173//160 174//160
f 174//160 173//160 175//161
f 174//160 175//161 176//161
f 176//161 175//161 177//162
f 176//161 177//162 178//162
f 178//162 177//162 179//163
f 177//162 180//163 179//163
f 181//121 157//121 182//164
f 182//164 157//121 158//164
f 182//164 158//164 160//165
f 182//164 160//165 183//165
f 183//165 160//165 161//116
f 183//165 161//116 184//116
f 184//116 161//116 185//166
f 161//116 164//166 185//166
f 185//166 164//166 186//167
f 164//166 166//167 186//167
f 186//167 166//167 168//14
f 186//167 168//14 187//14
f 187//14 168//14 170//168
f 187//14 170//168 188//168
f 188//168 170//168 189//169
f 170//168 171//169 189//169
f 189//169 171//169 190//170
f 171//169 174//170 190//170
f 190//170 174//170 176//171
f 190//170 176//171 191//171
f 191//171 176//171 178//172
f 191//171 178//172 192//172
f 192//172 178//172 193//173
f 178//172 179//173 193//173
f 194//174 181//174 195//175
f 195//175 181//174 182//175
f 195//175 182//175 183//176
f 195//175 183//176 196//176
f 196//176 183//176 184//177
f 196//176 184//177 197//177
f 197//177 184//177 185//178
f 197//177 185//178 198//178
f 198//178 185//178 186//179
f 198//178 186//179 199//179
f 199//179 186//179 187//8
f 199//179 187//8 200//8
f 200//8 187//8 188//180
f 200//8 188//180 201//180
f 201//180 188//180 189//181
f 201//180 189//181 202//181
f 202//181 189//181 190//182
f 202//181 190//182 203//182
f 203//182 190//182 191//183
f 203//182 191//183 204//183
f 204//183 191//183 192//184
f 204//183 192//184 205//184
f 205//184 192//184 206//185
f 192//184 193//185 206//185
f 207//186 208//187 209//188
f 208//187 210//189 209//186
f 210//189 211//190 209//191
f 209//191 211//190 212//192
f 212//192 213//193 209//194
f 213//193 214//171 209//195
f 214//171 215//196 209//197
f 209//197 215//196 216//198
f 216//198 217//199 209//200
f 217//199 218//201 209//202
f 218//201 219//203 209//204
f 209//204 219//203 220//205
f 207//27 221//206 222//27
f 222//27 221//206 223//206
f 223//206 221//206 224//207
f 224//207 221//206 225//207
f 224//207 225//207 226//208
f 224//207 226//208 227//208
f 227//208 226//208 228//209
f 227//208 228//209 229//209
f 229//209 228//209 230//210
f 229//209 230//210 231//210
f 231//210 230//210 232//34
f 230//210 233//34 232//34
f 232//34 233//34 234//211
f 232//34 234//211 235//211
f 235//211 234//211 236//212
f 235//211 236//212 237//212
f 237//212 236//212 238//213
f 236//212 239//213 238//213
f 238//213 239//213 240//214
f 238//213 240//214 241//214
f 241//214 240//214 242//215
f 241//214 242//215 243//215
f 243//215 242//215 244//1
f 242//215 220//1 244//1
f 222//163 223//216 245//163
f 245//163 223//216 246//216
f 223//216 224//217 246//216
f 246//216 224//217 247//217
f 224//217 227//218 247//217
f 247//217 227//218 248//218
f 248//218 227//218 249//219
f 249//219 227//218 229//219
f 249//219 229//219 250//220
f 250//220 229//219 231//220
f 250//220 231//220 232//221
f 250//220 232//221 251//221
f 251//221 232//221 235//222
f 251//221 235//222 252//222
f 252//222 235//222 237//223
f 252//222 237//223 253//223
f 253//223 237//223 238//224
f 253//223 238//224 254//224
f 254//224 238//224 241//225
f 254//224 241//225 255//225
f 255//225 241//225 243//226
f 255//225 243//226 256//226
f 256//226 243//226 257//185
f 243//226 244//185 257//185
f 258//27 259//27 260//27
f 260//27 259//27 261//27
f 262//1 263//1 264//1
f 264//1 263//1 265//1
f 266//121 267//121 260//121
f 260//121 267//121 28//121
f 260//121 28//121 258//121
f 258//121 28//121 26//121
f 258//121 26//121 23//121
f 266//121 260//121 268//121
f 268//121 260//121 269//121
f 268//121 269//121 270//121
f 268//121 270//121 271//121
f 271//121 270//121 272//121
f 271//121 272//121 273//121
f 273//121 272//121 274//121
f 273//121 274//121 275//121
f 275//121 274//121 276//121
f 275//121 276//121 277//121
f 277//121 276//121 278//121
f 277//121 278//121 279//121
f 279//121 278//121 280//121
f 279//121 280//121 281//121
f 281//121 280//121 282//121
f 281//121 282//121 264//121
f 6//121 4//121 265//121
f 265//121 4//121 2//121
f 265//121 2//121 264//121
f 264//121 2//121 283//121
f 264//121 283//121 284//121
f 6//121 265//121 9//121
f 9//121 265//121 285//121
f 9//121 285//121 286//121
f 9//121 286//121 11//121
f 11//121 286//121 287//121
f 11//121 287//121 13//121
f 13//121 287//121 288//121
f 13//121 288//121 15//121
f 15//121 288//121 289//121
f 15//121 289//121 17//121
f 17//121 289//121 290//121
f 17//121 290//121 19//121
f 19//121 290//121 291//121
f 19//121 291//121 21//121
f 21//121 291//121 292//121
f 21//121 292//121 258//121
f 23//121 21//121 258//121
f 284//121 281//121 264//121
f 260//227 261//227 269//228
f 269//228 261//227 293//228
f 269//228 293//228 270//229
f 270//229 293//228 294//229
f 270//229 294//229 272//230
f 272//230 294//229 295//230
f 272//230 295//230 274//231
f 274//231 295//230 296//231
f 274//231 296//231 276//232
f 276//232 296//231 297//232
f 276//232 297//232 278//233
f 278//233 297//232 298//233
f 278//233 298//233 280//234
f 280//234 298//233 299//234
f 280//234 299//234 282//235
f 282//235 299//234 300//235
f 282//235 300//235 264//236
f 264//236 300//235 262//236
f 245//163 301//237 222//163
f 222//163 301//237 302//237
f 301//237 303//238 302//237
f 302//237 303//238 304//238
f 303//238 305//239 304//238
f 304//238 305//239 306//239
f 306//239 305//239 307//240
f 307//240 305//239 308//240
f 307//240 308//240 309//241
f 309//241 308//240 310//241
f 309//241 310//241 311//170
f 309//241 311//170 312//170
f 312//170 311//170 313//242
f 312//170 313//242 314//242
f 314//242 313//242 315//243
f 314//242 315//243 316//243
f 316//243 315//243 317//244
f 316//243 317//244 318//244
f 318//244 317//244 319//245
f 318//244 319//245 320//245
f 320//245 319//245 321//246
f 320//245 321//246 322//246
f 322//246 321//246 244//185
f 321//246 257//185 244//185
f 222//27 302//25 207//27
f 207//27 302//25 208//25
f 208//25 302//25 210//22
f 210//22 302//25 304//22
f 210//22 304//22 306//20
f 210//22 306//20 211//20
f 211//20 306//20 307//18
f 211//20 307//18 212//18
f 212//18 307//18 309//16
f 212//18 309//16 213//16
f 213//16 309//16 214//14
f 309//16 312//14 214//14
f 214//14 312//14 314//12
f 214//14 314//12 215//12
f 215//12 314//12 316//10
f 215//12 316//10 216//10
f 216//10 316//10 217//8
f 316//10 318//8 217//8
f 217//8 318//8 320//5
f 217//8 320//5 218//5
f 218//5 320//5 322//3
f 218//5 322//3 219//3
f 219//3 322//3 220//1
f 322//3 244//1 220//1
f 220//205 242//247 209//248
f 209//248 242//247 240//249
f 240//249 239//250 209//251
f 239//250 236//252 209//253
f 236//252 234//254 209//255
f 209//255 234//254 233//256
f 225//257 209//258 226//259
f 226//259 209//260 228//261
f 225//257 221//262 209//258
f 221//262 207//186 209//263
f 228//261 209//264 230//265
f 230//265 209//266 233//256
f 323//267 324//268 325//269
f 325//269 324//268 326//270
f 325//269 326//270 327//271
f 327//271 326//270 328//272
f 327//271 328//272 329//273
f 329//273 328//272 330//274
f 329//273 330//274 331//275
f 331//275 330//274 332//276
f 331//275 332//276 333//277
f 333//277 332//276 334//278
f 333//277 334//278 335//279
f 335//279 334//278 336//280
f 335//279 336//280 337//281
f 337//281 336//280 338//282
f 337//281 338//282 339//283
f 339//283 338//282 340//284
f 339//283 340//284 341//285
f 341//285 340//284 342//286
f 341//285 342//286 343//287
f 343//287 342//286 344//288
f 343//287 344//288 345//289
f 345//289 344//288 346//290
f 345//289 346//290 347//291
f 347//291 346//290 348//292
f 347//291 348//292 349//293
f 349//293 348//292 350//294
f 349//293 350//294 351//295
f 351//295 350//294 352//296
f 351//295 352//296 353//297
f 353//297 352//296 354//298
f 353//297 354//298 355//299
f 355//299 354//298 356//300
f 355//299 356//300 357//301
f 357//301 356//300 358//302
f 357//301 358//302 359//303
f 359//303 358//302 360//304
f 359//303 360//304 361//305
f 361//305 360//304 362//306
f 361//305 362//306 363//307
f 363//307 362//306 364//308
f 363//307 364//308 365//309
f 365//309 364//308 366//310
f 365//309 366//310 367//311
f 367//311 366//310 368//312
f 367//311 368//312 369//313
f 369//313 368//312 370//314
f 369//313 370//314 371//315
f 371//315 370//314 372//316
f 371//315 372//316 373//317
f 373//317 372//316 374//318
f 373//317 374//318 323//267
f 323//267 374//318 324//268
f 323//267 375//319 373//317
f 373//317 375//319 371//315
f 375//319 376//320 371//315
f 371//315 376//320 369//313
f 376//320 377//321 369//313
f 369//313 377//321 367//311
f 377//321 378//322 367//311
f 367//311 378//322 365//309
f 378//322 379//323 365//309
f 365//309 379//323 363//307
f 379//323 380//324 363//307
f 363//307 380//324 361//305
f 380//324 381//325 361//305
f 361//305 381//325 359//303
f 381//325 382//326 359//303
f 359//303 382//326 357//301
f 382//326 383//327 357//301
f 357//301 383//327 355//299
f 383//327 353//297 355//299
f 349//293 384//328 347//291
f 347//291 384//328 345//289
f 384//328 385//329 345//289
f 345//289 385//329 343//287
f 385//329 386//330 343//287
f 343//287 386//330 341//285
f 386//330 387//331 341//285
f 341//285 387//331 339//283
f 387//331 388//332 339//283
f 339//283 388//332 337//281
f 388//332 389//333 337//281
f 337//281 389//333 335//279
f 389//333 390//334 335//279
f 335//279 390//334 333//277
f 390//334 391//335 333//277
f 333//277 391//335 331//275
f 391//335 392//336 331//275
f 331//275 392//336 329//273
f 392//336 327//271 329//273
f 346//290 393//337 348//292
f 348//292 393//337 350//294
f 393//337 394//338 350//294
f 350//294 394//338 352//296
f 394//338 395//339 352//296
f 352//296 395//339 354//298
f 395//339 356//300 354//298
f 372//316 396//340 374//318
f 374//318 396//340 324//268
f 396//340 397//341 324//268
f 324//268 397//341 326//270
f 397//341 398//342 326//270
f 326//270 398//342 328//272
f 398//342 330//274 328//272
f 366//27 364//27 180//27
f 180//27 364//27 362//27
f 180//27 362//27 399//27
f 399//27 362//27 360//27
f 399//27 360//27 400//27
f 400//27 360//27 358//27
f 400//27 358//27 401//27
f 401//27 358//27 356//27
f 401//27 356//27 402//27
f 402//27 356//27 395//27
f 402//27 395//27 403//27
f 403//27 395//27 404//27
f 395//27 394//27 404//27
f 404//27 394//27 405//27
f 394//27 393//27 405//27
f 405//27 393//27 406//27
f 393//27 346//27 406//27
f 406//27 346//27 407//27
f 346//27 344//27 407//27
f 407//27 344//27 408//27
f 344//27 342//27 408//27
f 408//27 342//27 409//27
f 342//27 340//27 409//27
f 409//27 340//27 155//27
f 340//27 338//27 155//27
f 155//27 338//27 336//27
f 155//27 336//27 156//27
f 156//27 336//27 334//27
f 156//27 334//27 159//27
f 159//27 334//27 332//27
f 159//27 332//27 162//27
f 162//27 332//27 330//27
f 162//27 330//27 163//27
f 163//27 330//27 398//27
f 163//27 398//27 165//27
f 165//27 398//27 397//27
f 165//27 397//27 167//27
f 167//27 397//27 169//27
f 397//27 396//27 169//27
f 169//27 396//27 172//27
f 396//27 372//27 172//27
f 172//27 372//27 173//27
f 372//27 370//27 173//27
f 173//27 370//27 175//27
f 370//27 368//27 175//27
f 175//27 368//27 177//27
f 368//27 366//27 177//27
f 177//27 366//27 180//27
f 410//343 411//344 412//345
f 412//345 411//344 413//346
f 412//345 413//346 414//347
f 414//347 413//346 415//348
f 414//347 415//348 416//349
f 416//349 415//348 417//350
f 416//349 417//350 418//351
f 418//351 417//350 419//352
f 418//351 419//352 420//353
f 420//353 419//352 421//354
f 420//353 421//354 422//355
f 422//355 421//354 423//356
f 422//355 423//356 424//357
f 424//357 423//356 425//358
f 424//357 425//358 426//359
f 426//359 425//358 427//360
f 426//359 427//360 428//361
f 428//361 427//360 429//362
f 428//361 429//362 430//363
f 430//363 429//362 431//364
f 430//363 431//364 432//365
f 432//365 431//364 433//366
f 432//365 433//366 434//367
f 434//367 433//366 435//368
f 434//367 435//368 436//369
f 436//369 435//368 437//370
f 436//369 437//370 438//371
f 438//371 437//370 439//372
f 438//371 439//372 440//373
f 440//373 439//372 441//374
f 440//373 441//374 442//375
f 442//375 441//374 443//376
f 442//375 443//376 444//377
f 444//377 443//376 445//378
f 444//377 445//378 446//379
f 446//379 445//378 447//380
f 446//379 447//380 448//381
f 448//381 447//380 449//382
f 448//381 449//382 450//383
f 450//383 449//382 451//384
f 450//383 451//384 452//385
f 452//385 451//384 453//386
f 452//385 453//386 454//387
f 454//387 453//386 455//388
f 454//387 455//388 456//389
f 456//389 455//388 457//390
f 456//389 457//390 458//391
f 458//391 457//390 459//392
f 458//391 459//392 460//393
f 460//393 459//392 461//394
f 460//393 461//394 410//343
f 410//343 461//394 411//344
f 410//343 462//395 460//393
f 460//393 462//395 458//391
f 462//395 463//396 458//391
f 458//391 463//396 456//389
f 463//396 464//397 456//389
f 456//389 464//397 454//387
f 464//397 465//398 454//387
f 454//387 465//398 452//385
f 465//398 466//399 452//385
f 452//385 466//399 450//383
f 466//399 467//400 450//383
f 450//383 467//400 448//381
f 467//400 468//401 448//381
f 448//381 468//401 446//379
f 468//401 469//402 446//379
f 446//379 469//402 444//377
f 469//402 470//403 444//377
f 444//377 470//403 442//375
f 470//403 440//373 442//375
f 436//369 471//404 434//367
f 434//367 471//404 432//365
f 471//404 472//405 432//365
f 432//365 472//405 430//363
f 472//405 473//406 430//363
f 430//363 473//406 428//361
f 473//406 474//407 428//361
f 428//361 474//407 426//359
f 474//407 475//408 426//359
f 426//359 475//408 424//357
f 475//408 476//409 424//357
f 424//357 476//409 422//355
f 476//409 477//410 422//355
f 422//355 477//410 420//353
f 477//410 478//411 420//353
f 420//353 478//411 418//351
f 478//411 479//412 418//351
f 418//351 479//412 416//349
f 479//412 414//347 416//349
f 459//392 480//413 461//394
f 461//394 480//413 411//344
f 480//413 481//414 411//344
f 411//344 481//414 413//346
f 481//414 482//415 413//346
f 413//346 482//415 415//348
f 482//415 417//350 415//348
f 433//366 483//416 435//368
f 435//368 483//416 437//370
f 483//416 484//417 437//370
f 437//370 484//417 439//372
f 484//417 485//418 439//372
f 439//372 485//418 441//374
f 485//418 443//376 441//374
f 427//1 425//1 194//1
f 194//1 425//1 423//1
f 194//1 423//1 486//1
f 486//1 423//1 421//1
f 486//1 421//1 487//1
f 487//1 421//1 419//1
f 487//1 419//1 488//1
f 488//1 419//1 417//1
f 488//1 417//1 489//1
f 489//1 417//1 482//1
f 489//1 482//1 490//1
f 490//1 482//1 491//1
f 482//1 481//1 491//1
f 491//1 481//1 492//1
f 481//1 480//1 492//1
f 492//1 480//1 493//1
f 480//1 459//1 493//1
f 493//1 459//1 494//1
f 459//1 457//1 494//1
f 494//1 457//1 495//1
f 457//1 455//1 495//1
f 495//1 455//1 496//1
f 455//1 453//1 496//1
f 496//1 453//1 206//1
f 453//1 451//1 206//1
f 206//1 451//1 449//1
f 206//1 449//1 205//1
f 205//1 449//1 447//1
f 205//1 447//1 204//1
f 204//1 447//1 445//1
f 204//1 445//1 203//1
f 203//1 445//1 443//1
f 203//1 443//1 202//1
f 202//1 443//1 485//1
f 202//1 485//1 201//1
f 201//1 485//1 484//1
f 201//1 484//1 200//1
f 200//1 484//1 199//1
f 484//1 483//1 199//1
f 199//1 483//1 198//1
f 483//1 433//1 198//1
f 198//1 433//1 197//1
f 433//1 431//1 197//1
f 197//1 431//1 196//1
f 431//1 429//1 196//1
f 196//1 429//1 195//1
f 429//1 427//1 195//1
f 195//1 427//1 194//1
f 181//174 194//174 497//419
f 497//419 194//174 486//419
f 497//419 486//419 487//420
f 497//419 487//420 498//420
f 498//420 487//420 488//421
f 498//420 488//421 499//421
f 499//421 488//421 489//422
f 499//421 489//422 500//422
f 500//422 489//422 490//423
f 500//422 490//423 501//423
f 501//423 490//423 491//213
f 501//423 491//213 502//213
f 502//213 491//213 492//424
f 502//213 492//424 503//424
f 503//424 492//424 493//425
f 503//424 493//425 504//425
f 504//425 493//425 494//426
f 504//425 494//426 505//426
f 505//426 494//426 495//427
f 505//426 495//427 506//427
f 506//427 495//427 496//428
f 506//427 496//428 507//428
f 507//428 496//428 193//185
f 496//428 206//185 193//185
f 157//121 181//121 508//429
f 508//429 181//121 497//429
f 508//429 497//429 498//430
f 508//429 498//430 509//430
f 509//430 498//430 499//51
f 509//430 499//51 510//51
f 510//51 499//51 511//431
f 499//51 500//431 511//431
f 511//431 500//431 512//432
f 500//431 501//432 512//432
f 512//432 501//432 502//34
f 512//432 502//34 513//34
f 513//34 502//34 503//433
f 513//34 503//433 514//433
f 514//433 503//433 515//434
f 503//433 504//434 515//434
f 515//434 504//434 516//221
f 504//434 505//221 516//221
f 516//221 505//221 506//256
f 516//221 506//256 517//256
f 517//256 506//256 507//435
f 517//256 507//435 518//435
f 518//435 507//435 179//173
f 507//435 193//173 179//173
f 157//152 508//436 155//152
f 155//152 508//436 409//436
f 508//436 509//437 409//436
f 409//436 509//437 408//437
f 408//437 509//437 407//438
f 407//438 509//437 510//438
f 407//438 510//438 511//439
f 407//438 511//439 406//439
f 406//439 511//439 512//440
f 406//439 512//440 405//440
f 405//440 512//440 513//208
f 405//440 513//208 404//208
f 404//208 513//208 514//441
f 404//208 514//441 403//441
f 403//441 514//441 402//442
f 514//441 515//442 402//442
f 402//442 515//442 516//443
f 402//442 516//443 401//443
f 401//443 516//443 517//444
f 401//443 517//444 400//444
f 400//444 517//444 518//445
f 400//444 518//445 399//445
f 399//445 518//445 180//163
f 518//445 179//163 180//163
f 519//27 386//27 520//27
f 520//27 386//27 385//27
f 520//27 385//27 521//27
f 521//27 385//27 384//27
f 521//27 384//27 522//27
f 522//27 384//27 349//27
f 522//27 349//27 523//27
f 523//27 349//27 524//27
f 519//27 525//27 386//27
f 386//27 525//27 387//27
f 525//27 526//27 387//27
f 387//27 526//27 388//27
f 526//27 527//27 388//27
f 388//27 527//27 389//27
f 527//27 528//27 389//27
f 389//27 528//27 390//27
f 528//27 529//27 390//27
f 390//27 529//27 530//27
f 390//27 530//27 391//27
f 391//27 530//27 531//27
f 391//27 531//27 392//27
f 392//27 531//27 532//27
f 392//27 532//27 327//27
f 327//27 532//27 533//27
f 327//27 533//27 534//27
f 327//27 534//27 325//27
f 325//27 534//27 535//27
f 325//27 535//27 323//27
f 323//27 535//27 536//27
f 323//27 536//27 375//27
f 375//27 536//27 537//27
f 375//27 537//27 376//27
f 376//27 537//27 538//27
f 376//27 538//27 539//27
f 376//27 539//27 377//27
f 377//27 539//27 540//27
f 377//27 540//27 378//27
f 378//27 540//27 541//27
f 378//27 541//27 379//27
f 379//27 541//27 542//27
f 379//27 542//27 543//27
f 379//27 543//27 380//27
f 380//27 543//27 544//27
f 380//27 544//27 381//27
f 381//27 544//27 545//27
f 381//27 545//27 382//27
f 382//27 545//27 546//27
f 382//27 546//27 547//27
f 382//27 547//27 383//27
f 383//27 547//27 548//27
f 383//27 548//27 353//27
f 353//27 548//27 549//27
f 353//27 549//27 351//27
f 351//27 549//27 524//27
f 351//27 524//27 349//27
f 550//1 473//1 551//1
f 551//1 473//1 472//1
f 551//1 472//1 52//1
f 52//1 472//1 471//1
f 52//1 471//1 45//1
f 45//1 471//1 436//1
f 45//1 436//1 47//1
f 47//1 436//1 49//1
f 550//1 552//1 473//1
f 473//1 552//1 474//1
f 552//1 553//1 474//1
f 474//1 553//1 475//1
f 553//1 554//1 475//1
f 475//1 554//1 476//1
f 554//1 555//1 476//1
f 476//1 555//1 477//1
f 555//1 556//1 477//1
f 477//1 556//1 557//1
f 477//1 557//1 478//1
f 478//1 557//1 103//1
f 478//1 103//1 479//1
f 479//1 103//1 95//1
f 479//1 95//1 414//1
f 414//1 95//1 97//1
f 414//1 97//1 99//1
f 414//1 99//1 412//1
f 412//1 99//1 144//1
f 412//1 144//1 410//1
f 410//1 144//1 151//1
f 410//1 151//1 462//1
f 462//1 151//1 86//1
f 462//1 86//1 463//1
f 463//1 86//1 85//1
f 463//1 85//1 81//1
f 463//1 81//1 464//1
f 464//1 81//1 79//1
f 464//1 79//1 465//1
f 465//1 79//1 77//1
f 465//1 77//1 466//1
f 466//1 77//1 76//1
f 466//1 76//1 74//1
f 466//1 74//1 467//1
f 467//1 74//1 72//1
f 467//1 72//1 468//1
f 468//1 72//1 70//1
f 468//1 70//1 469//1
f 469//1 70//1 66//1
f 469//1 66//1 59//1
f 469//1 59//1 470//1
f 470//1 59//1 61//1
f 470//1 61//1 440//1
f 440//1 61//1 145//1
f 440//1 145//1 438//1
f 438//1 145//1 49//1
f 438//1 49//1 436//1
f 527//152 526//152 558//152
f 558//152 526//152 22//152
f 558//152 22//152 559//152
f 559//152 22//152 24//152
f 559//152 24//152 560//152
f 560//152 24//152 25//152
f 560//152 25//152 561//152
f 561//152 25//152 27//152
f 561//152 27//152 29//152
f 554//174 553//174 8//174
f 8//174 553//174 562//174
f 8//174 562//174 7//174
f 7//174 562//174 563//174
f 7//174 563//174 5//174
f 5//174 563//174 564//174
f 5//174 564//174 3//174
f 3//174 564//174 565//174
f 3//174 565//174 1//174
f 566//446 30//28 567//447
f 567//447 30//28 32//30
f 567//447 32//30 568//448
f 568//448 32//30 34//32
f 568//448 34//32 569//449
f 569//449 34//32 36//34
f 569//449 36//34 570//450
f 36//34 130//127 571//451
f 571//451 130//127 127//124
f 571//451 127//124 572//452
f 572//452 127//124 54//52
f 572//452 54//52 573//453
f 573//453 54//52 53//51
f 573//453 53//51 574//454
f 574//454 53//51 69//67
f 574//454 69//67 575//455
f 575//455 69//67 126//123
f 575//455 126//123 576//456
f 576//456 126//123 125//122
f 576//456 125//122 577//457
f 577//457 125//122 124//121
f 577//457 124//121 578//458
f 578//458 124//121 123//120
f 578//458 123//120 579//459
f 579//459 123//120 122//119
f 579//459 122//119 580//460
f 580//460 122//119 121//118
f 580//460 121//118 581//461
f 581//461 121//118 119//116
f 581//461 119//116 582//462
f 582//462 119//116 117//114
f 582//462 117//114 583//463
f 583//463 117//114 115//112
f 583//463 115//112 584//464
f 584//464 115//112 113//110
f 584//464 113//110 585//465
f 585//465 113//110 102//14
f 585//465 102//14 586//466
f 87//85 587//467 88//86
f 88//86 587//467 588//468
f 88//86 588//468 106//103
f 106//103 588//468 589//469
f 106//103 589//469 102//14
f 87//85 590//470 587//467
f 587//467 590//470 591//471
f 587//467 591//471 592//472
f 592//472 591//471 593//473
f 592//472 593//473 594//474
f 594//474 593//473 595//475
f 594//474 595//475 102//14
f 590//470 596//476 591//471
f 591//471 596//476 597//477
f 591//471 597//477 593//473
f 593//473 597//477 522//478
f 593//473 522//478 598//479
f 598//479 522//478 523//480
f 598//479 523//480 599//481
f 599//481 523//480 524//482
f 599//481 524//482 600//483
f 600//483 524//482 601//484
f 600//483 601//484 102//14
f 596//476 521//485 597//477
f 597//477 521//485 522//478
f 586//466 602//486 603//487
f 603//487 602//486 604//488
f 603//487 604//488 548//489
f 548//489 604//488 605//490
f 548//489 605//490 549//491
f 549//491 605//490 606//492
f 549//491 606//492 607//493
f 607//493 606//492 102//14
f 603//487 548//489 608//494
f 608//494 548//489 547//495
f 608//494 547//495 609//496
f 609//496 547//495 610//497
f 609//496 610//497 583//463
f 583//463 610//497 582//462
f 547//495 546//498 610//497
f 610//497 546//498 611//499
f 610//497 611//499 582//462
f 582//462 611//499 581//461
f 546//498 545//500 611//499
f 611//499 545//500 580//460
f 611//499 580//460 581//461
f 545//500 544//501 580//460
f 580//460 544//501 579//459
f 544//501 543//502 579//459
f 579//459 543//502 578//458
f 543//502 542//503 578//458
f 578//458 542//503 541//504
f 578//458 541//504 577//457
f 577//457 541//504 540//505
f 577//457 540//505 576//456
f 576//456 540//505 539//506
f 576//456 539//506 575//455
f 575//455 539//506 612//507
f 575//455 612//507 613//508
f 613//508 612//507 538//509
f 613//508 538//509 537//510
f 539//506 538//509 612//507
f 567//447 568//448 614//511
f 614//511 568//448 615//512
f 614//511 615//512 616//513
f 616//513 615//512 617//514
f 616//513 617//514 532//515
f 532//515 617//514 618//516
f 532//515 618//516 533//517
f 533//517 618//516 619//518
f 533//517 619//518 534//519
f 534//519 619//518 620//520
f 534//519 620//520 621//521
f 621//521 620//520 36//34
f 532//515 531//522 616//513
f 616//513 531//522 622//523
f 616//513 622//523 614//511
f 614//511 622//523 566//446
f 614//511 566//446 567//447
f 570//450 36//34 623//524
f 623//524 36//34 624//525
f 624//525 36//34 625//526
f 625//526 36//34 620//520
f 621//521 36//34 626//527
f 627//528 36//34 628//529
f 628//529 36//34 629//530
f 629//530 36//34 630//531
f 630//531 36//34 571//451
f 586//466 102//14 602//486
f 602//486 102//14 631//532
f 607//493 102//14 632//533
f 632//533 102//14 633//534
f 600//483 102//14 634//535
f 594//474 102//14 635//536
f 524//482 549//491 632//533
f 632//533 549//491 607//493
f 621//521 626//527 534//519
f 534//519 626//527 636//537
f 534//519 636//537 535//538
f 535//538 636//537 637//539
f 535//538 637//539 627//528
f 627//528 637//539 36//34
f 568//448 569//449 615//512
f 615//512 569//449 570//450
f 615//512 570//450 617//514
f 617//514 570//450 623//524
f 617//514 623//524 618//516
f 618//516 623//524 624//525
f 618//516 624//525 619//518
f 619//518 624//525 625//526
f 619//518 625//526 620//520
f 584//464 585//465 638//540
f 638//540 585//465 586//466
f 638//540 586//466 603//487
f 583//463 584//464 609//496
f 609//496 584//464 638//540
f 609//496 638//540 608//494
f 608//494 638//540 603//487
f 575//455 613//508 574//454
f 574//454 613//508 639//541
f 574//454 639//541 573//453
f 573//453 639//541 640//542
f 573//453 640//542 572//452
f 572//452 640//542 630//531
f 572//452 630//531 571//451
f 587//467 592//472 588//468
f 588//468 592//472 635//536
f 588//468 635//536 589//469
f 589//469 635//536 102//14
f 635//536 592//472 594//474
f 593//473 598//479 595//475
f 595//475 598//479 634//535
f 595//475 634//535 102//14
f 598//479 599//481 634//535
f 634//535 599//481 600//483
f 102//14 601//484 633//534
f 633//534 601//484 524//482
f 633//534 524//482 632//533
f 606//492 605//490 631//532
f 631//532 605//490 604//488
f 631//532 604//488 602//486
f 631//532 102//14 606//492
f 613//508 537//510 639//541
f 639//541 537//510 641//543
f 639//541 641//543 642//544
f 642//544 641//543 536//545
f 642//544 536//545 643//546
f 643//546 536//545 644//547
f 643//546 644//547 627//528
f 627//528 644//547 535//538
f 639//541 642//544 640//542
f 640//542 642//544 629//530
f 640//542 629//530 630//531
f 629//530 642//544 628//529
f 628//529 642//544 643//546
f 628//529 643//546 627//528
f 626//527 36//34 636//537
f 636//537 36//34 637//539
f 641//543 537//510 536//545
f 535//538 644//547 536//545
f 622//523 531//522 645//548
f 645//548 531//522 530//549
f 645//548 530//549 529//550
f 529//550 528//551 645//548
f 645//548 528//551 646//552
f 528//551 527//553 646//552
f 646//552 527//553 558//554
f 645//548 647//555 622//523
f 622//523 647//555 566//446
f 566//446 647//555 30//28
f 30//28 647//555 648//556
f 30//28 648//556 37//35
f 37//35 648//556 43//41
f 648//556 649//557 43//41
f 43//41 649//557 52//50
f 562//558 553//559 650//560
f 650//560 553//559 552//561
f 650//560 552//561 649//557
f 649//557 552//561 550//562
f 649//557 550//562 551//563
f 551//563 52//50 649//557
f 255//173 256//173 259//173
f 259//173 256//173 257//173
f 259//173 257//173 261//173
f 261//173 257//173 321//173
f 261//173 321//173 319//173
f 255//173 259//173 254//173
f 254//173 259//173 651//173
f 254//173 651//173 652//173
f 254//173 652//173 253//173
f 253//173 652//173 653//173
f 253//173 653//173 252//173
f 252//173 653//173 654//173
f 252//173 654//173 251//173
f 251//173 654//173 655//173
f 251//173 655//173 250//173
f 250//173 655//173 656//173
f 250//173 656//173 249//173
f 249//173 656//173 657//173
f 249//173 657//173 248//173
f 248//173 657//173 658//173
f 248//173 658//173 263//173
f 303//173 301//173 262//173
f 262//173 301//173 245//173
f 262//173 245//173 263//173
f 263//173 245//173 246//173
f 263//173 246//173 247//173
f 303//173 262//173 305//173
f 305//173 262//173 300//173
f 305//173 300//173 299//173
f 305//173 299//173 308//173
f 308//173 299//173 298//173
f 308//173 298//173 310//173
f 310//173 298//173 297//173
f 310//173 297//173 311//173
f 311//173 297//173 296//173
f 311//173 296//173 313//173
f 313//173 296//173 295//173
f 313//173 295//173 315//173
f 315//173 295//173 294//173
f 315//173 294//173 317//173
f 317//173 294//173 293//173
f 317//173 293//173 261//173
f 247//173 248//173 263//173
f 319//173 317//173 261//173
f 259//564 258//564 651//565
f 651//565 258//564 292//565
f 651//565 292//565 652//566
f 652//566 292//565 291//566
f 652//566 291//566 653//567
f 653//567 291//566 290//567
f 653//567 290//567 654//568
f 654//568 290//567 289//568
f 654//568 289//568 655//569
f 655//569 289//568 288//569
f 655//569 288//569 656//570
f 656//570 288//569 287//570
f 656//570 287//570 657//571
f 657//571 287//570 286//571
f 657//571 286//571 658//572
f 658//572 286//571 285//572
f 658//572 285//572 263//573
f 263//573 285//572 265//573
f 1//1 565//574 2//1
f 2//1 565//574 283//215
f 565//574 564//575 283//215
f 283//215 564//575 284//214
f 564//575 563//576 284//214
f 284//214 563//576 562//577
f 284//214 562//577 281//213
f 281//213 562//577 650//578
f 281//213 650//578 279//212
f 279//212 650//578 649//579
f 279//212 649//579 277//211
f 277//211 649//579 648//580
f 277//211 648//580 275//34
f 275//34 648//580 647//581
f 275//34 647//581 273//210
f 273//210 647//581 645//582
f 273//210 645//582 271//209
f 271//209 645//582 646//583
f 271//209 646//583 268//208
f 268//208 646//583 558//584
f 268//208 558//584 266//207
f 266//207 558//584 559//585
f 266//207 559//585 560//586
f 266//207 560//586 267//206
f 267//206 560//586 561//587
f 267//206 561//587 28//27
f 28//27 561//587 29//27
f 22//588 526//589 20//590
f 20//590 526//589 525//591
f 20//590 525//591 18//592
f 18//592 525//591 519//593
f 18//592 519//593 520//594
f 520//594 521//485 18//592
f 18//592 521//485 596//476
f 18//592 596//476 16//595
f 16//595 596//476 590//470
f 16//595 590//470 87//85
f 16//595 87//85 14//596
f 14//596 87//85 105//102
f 14//596 105//102 104//101
f 14//596 104//101 12//597
f 12//597 104//101 103//100
f 12//597 103//100 557//598
f 557//598 556//599 12//597
f 12//597 556//599 555//600
f 12//597 555//600 10//601
f 10//601 555//600 554//602
f 10//601 554//602 8//603
l 2 1
l 2 4
l 4 6
l 6 9
l 9 11
l 11 13
l 13 15
l 15 17
l 17 19
l 19 21
l 21 23
l 23 26
l 26 28
l 29 28
l 29 27
l 27 25
l 25 24
l 24 22
l 8 10
l 10 12
l 12 14
l 14 16
l 16 18
l 18 20
l 20 22
l 8 7
l 7 5
l 5 3
l 3 1
l 30 32
l 32 34
l 34 36
l 30 37
l 37 43
l 43 52
l 52 45
l 45 47
l 47 49
l 49 145
l 145 61
l 61 59
l 59 66
l 66 70
l 70 72
l 72 74
l 74 76
l 76 77
l 77 79
l 79 81
l 81 85
l 85 86
l 86 151
l 151 144
l 144 99
l 99 97
l 97 95
l 95 103
l 103 104
l 104 105
l 105 87
l 102 106
l 106 88
l 88 87
l 36 130
l 130 127
l 127 54
l 54 53
l 53 69
l 69 126
l 126 125
l 125 124
l 124 123
l 123 122
l 122 121
l 121 119
l 119 117
l 117 115
l 115 113
l 113 102
l 155 157
l 180 177
l 177 175
l 175 173
l 173 172
l 172 169
l 169 167
l 167 165
l 165 163
l 163 162
l 162 159
l 159 156
l 156 155
l 179 180
l 179 178
l 178 176
l 176 174
l 174 171
l 171 170
l 170 168
l 168 166
l 166 164
l 164 161
l 161 160
l 160 158
l 158 157
l 157 181
l 193 179
l 193 192
l 192 191
l 191 190
l 190 189
l 189 188
l 188 187
l 187 186
l 186 185
l 185 184
l 184 183
l 183 182
l 182 181
l 181 194
l 206 193
l 206 205
l 205 204
l 204 203
l 203 202
l 202 201
l 201 200
l 200 199
l 199 198
l 198 197
l 197 196
l 196 195
l 195 194
l 220 209
l 209 207
l 220 219
l 219 218
l 218 217
l 217 216
l 216 215
l 215 214
l 214 213
l 213 212
l 212 211
l 211 210
l 210 208
l 208 207
l 207 222
l 207 221
l 221 225
l 225 226
l 226 228
l 228 230
l 230 233
l 233 234
l 234 236
l 236 239
l 239 240
l 240 242
l 242 220
l 244 220
l 222 223
l 223 224
l 224 227
l 227 229
l 229 231
l 231 232
l 232 235
l 235 237
l 237 238
l 238 241
l 241 243
l 243 244
l 222 245
l 257 244
l 245 246
l 246 247
l 247 248
l 248 249
l 249 250
l 250 251
l 251 252
l 252 253
l 253 254
l 254 255
l 255 256
l 256 257
l 259 258
l 261 259
l 260 261
l 258 260
l 262 264
l 263 262
l 265 263
l 264 265
l 260 269
l 269 270
l 270 272
l 272 274
l 274 276
l 276 278
l 278 280
l 280 282
l 282 264
l 265 285
l 285 286
l 286 287
l 287 288
l 288 289
l 289 290
l 290 291
l 291 292
l 292 258
l 28 267
l 267 266
l 266 268
l 268 271
l 271 273
l 273 275
l 275 277
l 277 279
l 279 281
l 281 284
l 284 283
l 283 2
l 261 293
l 293 294
l 294 295
l 295 296
l 296 297
l 297 298
l 298 299
l 299 300
l 300 262
l 257 321
l 321 319
l 319 317
l 317 315
l 315 313
l 313 311
l 311 310
l 310 308
l 308 305
l 305 303
l 303 301
l 301 245
l 244 322
l 322 320
l 320 318
l 318 316
l 316 314
l 314 312
l 312 309
l 309 307
l 307 306
l 306 304
l 304 302
l 302 222
l 351 353
l 353 383
l 383 382
l 382 381
l 381 380
l 380 379
l 379 378
l 378 377
l 377 376
l 376 375
l 375 323
l 323 325
l 325 327
l 327 392
l 392 391
l 391 390
l 390 389
l 389 388
l 388 387
l 387 386
l 386 385
l 385 384
l 384 349
l 349 351
l 338 340
l 340 342
l 342 344
l 344 346
l 346 393
l 393 394
l 394 395
l 395 356
l 356 358
l 358 360
l 360 362
l 362 364
l 364 366
l 366 368
l 368 370
l 370 372
l 372 396
l 396 397
l 397 398
l 398 330
l 330 332
l 332 334
l 334 336
l 336 338
l 155 409
l 409 408
l 408 407
l 407 406
l 406 405
l 405 404
l 404 403
l 403 402
l 402 401
l 401 400
l 400 399
l 399 180
l 438 440
l 440 470
l 470 469
l 469 468
l 468 467
l 467 466
l 466 465
l 465 464
l 464 463
l 463 462
l 462 410
l 410 412
l 412 414
l 414 479
l 479 478
l 478 477
l 477 476
l 476 475
l 475 474
l 474 473
l 473 472
l 472 471
l 471 436
l 436 438
l 425 423
l 423 421
l 421 419
l 419 417
l 417 482
l 482 481
l 481 480
l 480 459
l 459 457
l 457 455
l 455 453
l 453 451
l 451 449
l 449 447
l 447 445
l 445 443
l 443 485
l 485 484
l 484 483
l 483 433
l 433 431
l 431 429
l 429 427
l 427 425
l 194 486
l 486 487
l 487 488
l 488 489
l 489 490
l 490 491
l 491 492
l 492 493
l 493 494
l 494 495
l 495 496
l 496 206
l 181 497
l 497 498
l 498 499
l 499 500
l 500 501
l 501 502
l 502 503
l 503 504
l 504 505
l 505 506
l 506 507
l 507 193
l 157 508
l 508 509
l 509 510
l 510 511
l 511 512
l 512 513
l 513 514
l 514 515
l 515 516
l 516 517
l 517 518
l 518 179
l 526 525
l 525 519
l 519 520
l 520 521
l 527 526
l 531 530
l 530 529
l 529 528
l 528 527
l 521 522
l 522 523
l 523 524
l 524 549
l 549 548
l 548 547
l 547 546
l 546 545
l 545 544
l 544 543
l 543 542
l 542 541
l 541 540
l 540 539
l 539 538
l 538 537
l 537 536
l 536 535
l 535 534
l 534 533
l 533 532
l 532 531
l 553 552
l 552 550
l 550 551
l 551 52
l 553 554
l 103 557
l 557 556
l 556 555
l 555 554
l 22 526
l 558 559
l 559 560
l 560 561
l 561 29
l 527 558
l 562 553
l 1 565
l 565 564
l 564 563
l 563 562
l 554 8
l 87 590
l 590 596
l 596 521
l 531 622
l 622 566
l 566 30
l 558 646
l 646 645
l 645 647
l 647 648
l 648 649
l 649 650
l 650 562
l 263 658
l 658 657
l 657 656
l 656 655
l 655 654
l 654 653
l 653 652
l 652 651
l 651 259
